<svg xmlns="http://www.w3.org/2000/svg" xmlns:xlink="http://www.w3.org/1999/xlink" width="77" height="1216" viewBox="0 0 77 1216"><svg width="52" height="52" viewBox="0 0 52 52" id="fb" y="0"><g fill="none" fill-rule="evenodd" transform="translate(1 1)"><circle cx="25" cy="25" r="25" stroke="#3863C5" opacity=".6"></circle><path fill="#3863C5" d="M22.089 37.2V25.844H19v-4.088h3.089v-3.492c0-2.744 1.824-5.264 6.029-5.264 1.702 0 2.96.159 2.96.159l-.099 3.818s-1.283-.013-2.684-.013c-1.516 0-1.76.68-1.76 1.807v2.985H31.1l-.199 4.089h-4.365V37.2h-4.447z" opacity=".7"></path></g></svg><svg width="52" height="52" viewBox="0 0 52 52" id="fb-hover" y="52"><g fill="none" fill-rule="evenodd"><circle cx="25" cy="25" r="25" fill="#3863C5"></circle><path fill="#FFF" d="M22.089 37.2V25.844H19v-4.088h3.089v-3.492c0-2.744 1.824-5.264 6.029-5.264 1.702 0 2.96.159 2.96.159l-.099 3.818s-1.283-.013-2.684-.013c-1.516 0-1.76.68-1.76 1.807v2.985H31.1l-.199 4.089h-4.365V37.2h-4.447z"></path></g></svg><svg width="52" height="52" viewBox="0 0 52 52" id="instagram" y="104"><g fill="none" fill-rule="evenodd" transform="translate(1 1)"><circle cx="25" cy="25" r="25" stroke="#3863C5" opacity=".6"></circle><path fill="#3863C5" d="M30.973 15H18.827A3.83 3.83 0 0 0 15 18.826v12.148a3.83 3.83 0 0 0 3.827 3.826h12.147a3.83 3.83 0 0 0 3.826-3.826V18.826A3.83 3.83 0 0 0 30.973 15zm1.098 2.282l.438-.002v3.356l-3.345.011-.012-3.356 2.919-.01zm-9.997 5.586a3.484 3.484 0 0 1 2.826-1.453c1.163 0 2.192.575 2.825 1.453a3.46 3.46 0 0 1 .66 2.032 3.49 3.49 0 0 1-3.485 3.485 3.489 3.489 0 0 1-3.485-3.485c0-.759.246-1.46.659-2.032zm10.797 8.105a1.899 1.899 0 0 1-1.898 1.898H18.827a1.899 1.899 0 0 1-1.898-1.898v-8.105h2.956a5.385 5.385 0 0 0-.4 2.032 5.42 5.42 0 0 0 5.415 5.414 5.42 5.42 0 0 0 5.414-5.414c0-.719-.144-1.404-.4-2.032h2.957v8.105z" opacity=".7"></path></g></svg><svg width="52" height="52" viewBox="0 0 52 52" id="instagram-hover" y="156"><g fill="none" fill-rule="evenodd"><circle cx="25" cy="25" r="25" fill="#3863C5"></circle><path fill="#FFF" d="M30.973 15H18.827A3.83 3.83 0 0 0 15 18.826v12.148a3.83 3.83 0 0 0 3.827 3.826h12.147a3.83 3.83 0 0 0 3.826-3.826V18.826A3.83 3.83 0 0 0 30.973 15zm1.098 2.282l.438-.002v3.356l-3.345.011-.012-3.356 2.919-.01zm-9.997 5.586a3.484 3.484 0 0 1 2.826-1.453c1.163 0 2.192.575 2.825 1.453a3.46 3.46 0 0 1 .66 2.032 3.49 3.49 0 0 1-3.485 3.485 3.489 3.489 0 0 1-3.485-3.485c0-.759.246-1.46.659-2.032zm10.797 8.105a1.899 1.899 0 0 1-1.898 1.898H18.827a1.899 1.899 0 0 1-1.898-1.898v-8.105h2.956a5.385 5.385 0 0 0-.4 2.032 5.42 5.42 0 0 0 5.415 5.414 5.42 5.42 0 0 0 5.414-5.414c0-.719-.144-1.404-.4-2.032h2.957v8.105z"></path></g></svg><svg width="55" height="49" viewBox="0 0 55 49" id="man-baloon" y="208"><g fill="none"><path fill="#3863C5" d="M50.51.512H25.407c-2.48 0-4.49 1.995-4.49 4.455v7.222c0 .769.628 1.392 1.403 1.392s1.403-.623 1.403-1.392V4.978c0-.923.754-1.67 1.684-1.67H50.51c.93 0 1.684.747 1.684 1.67v22.456c0 .923-.754 1.67-1.684 1.67H38.545c-.372 0-.73.146-.993.407L32.73 34.3v-3.792c0-.769-.629-1.392-1.403-1.392-.775 0-1.404.623-1.404 1.392v7.15c0 .563.341 1.072.866 1.288a1.41 1.41 0 0 0 1.53-.303l6.803-6.743H50.51c2.48 0 4.49-1.994 4.49-4.454V4.978a4.437 4.437 0 0 0-1.311-3.157A4.508 4.508 0 0 0 50.51.512z"></path><path fill="#3863C5" d="M32.512 24.344H43.82c.775 0 1.403-.623 1.403-1.392v-6.72l.657.517c.392.31.921.39 1.388.208a1.387 1.387 0 1 0 .363-2.385l-8.587-6.777a1.412 1.412 0 0 0-1.75 0L28.7 14.578a1.385 1.385 0 0 0-.222 1.957c.484.6 1.367.7 1.973.22l.657-.518v6.715c0 .769.628 1.392 1.403 1.392zm5.651-13.698l4.254 3.341v7.573h-8.502v-7.55l4.248-3.364z"></path><path fill="#FF9D00" d="M11.477 42.825v-3.848a2.15 2.15 0 0 0-.432-1.286 10.174 10.174 0 0 1-1.762-4.716 1.39 1.39 0 0 0-.59-.98A3.823 3.823 0 0 1 7.01 28.86a.666.666 0 0 1 .207-.496.705.705 0 0 1 .511-.195 1.41 1.41 0 0 0 1.023-.381c.275-.26.432-.618.436-.994l.04-3.653a6.293 6.293 0 0 1 .437-2.327c.893-2.183 3.154-4.527 6.005-4.527h.562V17.4a1.396 1.396 0 0 0 1.257 1.386 6.482 6.482 0 0 1 4.422 2.784c.436.602.67 1.325.668 2.066v3.09c0 .77.628 1.392 1.403 1.392.384 0 .696.31.696.69a3.827 3.827 0 0 1-1.594 3.091 1.39 1.39 0 0 0-.561.969 10.117 10.117 0 0 1-1.757 4.872 2.183 2.183 0 0 0-.443 1.309v3.825c0 .8.544 1.501 1.324 1.704a22.842 22.842 0 0 1 7.684 3.63 1.41 1.41 0 0 0 1.964-.278 1.385 1.385 0 0 0-.28-1.949 25.65 25.65 0 0 0-7.858-3.864v-2.862a12.78 12.78 0 0 0 2.1-5.468 6.604 6.604 0 0 0 2.244-4.95 3.433 3.433 0 0 0-1.021-2.456 3.526 3.526 0 0 0-1.078-.73v-2.048a6.22 6.22 0 0 0-1.207-3.703 9.616 9.616 0 0 0-5.112-3.67v-1.364c0-.769-.629-1.392-1.403-1.392h-1.965c-4.17 0-7.33 3.146-8.603 6.264a9.03 9.03 0 0 0-.646 3.341l-.039 2.534c-.417.166-.798.41-1.122.718a3.423 3.423 0 0 0-1.072 2.5 6.588 6.588 0 0 0 2.346 5.011 12.604 12.604 0 0 0 2.087 5.29v2.907a25.62 25.62 0 0 0-8.104 3.93 1.385 1.385 0 0 0-.28 1.95 1.41 1.41 0 0 0 1.964.278 22.828 22.828 0 0 1 7.89-3.653 1.762 1.762 0 0 0 1.342-1.72z"></path></g></svg><svg width="52" height="52" viewBox="0 0 52 52" id="ok" y="257"><g fill="none" fill-rule="evenodd" transform="translate(1 1)"><circle cx="25" cy="25" r="25" stroke="#3863C5" opacity=".6"></circle><path fill="#3863C5" fill-rule="nonzero" d="M35.9 25.45c0 10.45 0 10.45-10.45 10.45S15 35.9 15 25.45 15 15 25.45 15 35.9 15 35.9 25.45zm-8.813 3.553a7.572 7.572 0 0 0 2.35-.973 1.186 1.186 0 0 0-1.264-2.009 5.137 5.137 0 0 1-5.448 0 1.186 1.186 0 0 0-1.263 2.008 7.52 7.52 0 0 0 2.35.974l-2.26 2.262a1.184 1.184 0 1 0 1.675 1.676l2.223-2.223 2.223 2.223a1.184 1.184 0 1 0 1.675-1.676l-2.261-2.262zm-1.637-9.019c.925 0 1.676.751 1.676 1.676a1.676 1.676 0 0 1-3.352 0c0-.925.753-1.676 1.676-1.676zm0 5.72a4.05 4.05 0 0 0 4.045-4.044 4.05 4.05 0 0 0-4.045-4.047 4.05 4.05 0 0 0-4.045 4.045 4.05 4.05 0 0 0 4.045 4.045z" opacity=".7"></path></g></svg><svg width="52" height="52" viewBox="0 0 52 52" id="ok-hover" y="309"><g fill="none" fill-rule="evenodd"><circle cx="25" cy="25" r="25" fill="#3863C5"></circle><path fill="#FFF" fill-rule="nonzero" d="M35.9 25.45c0 10.45 0 10.45-10.45 10.45S15 35.9 15 25.45 15 15 25.45 15 35.9 15 35.9 25.45zm-8.813 3.553a7.572 7.572 0 0 0 2.35-.973 1.186 1.186 0 0 0-1.264-2.009 5.137 5.137 0 0 1-5.448 0 1.186 1.186 0 0 0-1.263 2.008 7.52 7.52 0 0 0 2.35.974l-2.26 2.262a1.184 1.184 0 1 0 1.675 1.676l2.223-2.223 2.223 2.223a1.184 1.184 0 1 0 1.675-1.676l-2.261-2.262zm-1.637-9.019c.925 0 1.676.751 1.676 1.676a1.676 1.676 0 0 1-3.352 0c0-.925.753-1.676 1.676-1.676zm0 5.72a4.05 4.05 0 0 0 4.045-4.044 4.05 4.05 0 0 0-4.045-4.047 4.05 4.05 0 0 0-4.045 4.045 4.05 4.05 0 0 0 4.045 4.045z"></path></g></svg><svg width="29" height="29" viewBox="0 0 29 29" id="oldprice" y="361"><g fill="none" fill-rule="evenodd"><circle cx="14.5" cy="14.5" r="14.5" fill="#FEFEFE"></circle><path fill="#FE1818" d="M21 14.5l-1.137-1.137-4.55 4.55V8h-1.625v9.913l-4.55-4.55L8 14.5l6.5 6.5z"></path></g></svg><svg width="18" height="14" viewBox="0 0 18 14" id="realty-check" y="390"><path fill="#FFF" fill-rule="evenodd" d="M5.6 10.6L1.4 6.4 0 7.8l5.6 5.6 12-12L16.2 0z"></path></svg><svg width="35" height="34" viewBox="0 0 35 34" id="realty-commerce" y="404"><g fill="#3863C5"><path d="M30.91 21.502a.428.428 0 0 0-.432.425v1.751c0 .235.193.425.432.425.24 0 .432-.19.432-.425v-1.751a.428.428 0 0 0-.432-.425zM3.512 32.064h2.323c.239 0 .432-.19.432-.425V27.59a.428.428 0 0 0-.432-.425H3.512a.428.428 0 0 0-.432.425v4.048c0 .235.193.425.432.425zm.432-4.048h1.459v3.198H3.944v-3.198zm3.706 4.048h2.323c.239 0 .432-.19.432-.425V27.59a.428.428 0 0 0-.432-.425H7.65a.428.428 0 0 0-.432.425v4.048c0 .235.193.425.432.425zm.432-4.048h1.459v3.198H8.082v-3.198zm6.338 4.048h2.322c.239 0 .432-.19.432-.425V27.59a.428.428 0 0 0-.432-.425H14.42a.428.428 0 0 0-.432.425v4.048c0 .235.193.425.432.425zm.431-4.048h1.459v3.198h-1.459v-3.198zm3.706 4.048h2.323c.239 0 .432-.19.432-.425V27.59a.428.428 0 0 0-.432-.425h-2.323a.428.428 0 0 0-.432.425v4.048c0 .235.193.425.432.425zm.432-4.048h1.459v3.198h-1.459v-3.198z"></path><path d="M34.62 11.135l-.867-8.247c.004-.021.013-.04.013-.063V.433a.428.428 0 0 0-.432-.425H1.354A.428.428 0 0 0 .92.433v2.392c0 .01.005.017.005.026l-.87 8.284c-.002.018.005.035.006.053-.002.013-.008.025-.008.038 0 .743.337 1.41.867 1.865v20.484c0 .235.193.425.432.425h31.86c.24 0 .433-.19.433-.425V13.18a2.46 2.46 0 0 0 .976-1.954c0-.013-.007-.025-.008-.038 0-.018.007-.035.006-.053zM30.295.858h2.607v1.543h-2.607V.858zm-4.252 0h3.388v1.543h-3.388V.858zm3.452 10.746a1.666 1.666 0 0 1-1.625 1.256c-.79 0-1.448-.538-1.624-1.256h3.25zM26.043 3.25h3.388v7.504h-3.388V3.25zM21.983.858h3.196v1.543h-3.196V.858zm3.3 10.746a1.666 1.666 0 0 1-1.626 1.256 1.666 1.666 0 0 1-1.624-1.256h3.25zm-3.3-8.354h3.196v7.504h-3.196V3.25zM17.776.858h3.343v1.543h-3.343V.858zm0 2.392h3.343v7.504h-3.343V3.25zm3.293 8.354a1.666 1.666 0 0 1-1.625 1.256 1.666 1.666 0 0 1-1.624-1.256h3.25zM13.557.858h3.355v1.543h-3.355V.858zm0 2.392h3.355v7.504h-3.355V3.25zm3.3 8.354a1.666 1.666 0 0 1-1.626 1.256 1.666 1.666 0 0 1-1.624-1.256h3.25zM9.343.858h3.349v1.543H9.344V.858zm0 2.392h3.349v7.504H9.344V3.25zM5.057.858H8.48v1.543H5.057V.858zm0 2.392H8.48v7.504H5.057V3.25zm3.373 8.354a1.666 1.666 0 0 1-1.624 1.256c-.79 0-1.45-.538-1.625-1.256h3.25zM1.785.858h2.408v1.543H1.785V.858zM1.754 3.25h2.44v7.504H.964l.789-7.504zm-.786 8.354h3.25a1.666 1.666 0 0 1-1.625 1.256c-.79 0-1.45-.538-1.625-1.256zM11.7 33.15H1.785v-7.265H11.7v7.265zm0-8.115H1.785V13.58c.255.084.525.131.808.131a2.55 2.55 0 0 0 2.106-1.099 2.553 2.553 0 0 0 2.107 1.1c.876 0 1.65-.437 2.106-1.1a2.553 2.553 0 0 0 2.788 1.006v11.418zm-.681-12.175c-.79 0-1.45-.538-1.625-1.256h3.25a1.666 1.666 0 0 1-1.625 1.256zm11.555 20.29h-10.01v-7.265h10.01v7.265zm0-8.115h-10.01V13.192c.217-.163.408-.358.561-.581a2.553 2.553 0 0 0 2.106 1.1c.877 0 1.65-.437 2.107-1.1a2.553 2.553 0 0 0 2.106 1.1c.877 0 1.65-.437 2.107-1.1.254.37.609.666 1.023.859v11.565zm10.208 8.115h-9.344v-1.086h9.344v1.086zm0-1.936h-9.344V13.699a2.553 2.553 0 0 0 2.326-1.088 2.553 2.553 0 0 0 2.106 1.1c.877 0 1.65-.437 2.107-1.1a2.553 2.553 0 0 0 2.805 1.001v17.602zm-.699-18.354c-.79 0-1.448-.538-1.624-1.256h3.249a1.666 1.666 0 0 1-1.625 1.256zm-1.788-2.106V3.25h2.627l.789 7.504h-3.416z"></path></g></svg><svg width="35" height="34" viewBox="0 0 35 34" id="realty-commerce-o" y="438"><g fill="#FFF"><path d="M30.91 21.502a.428.428 0 0 0-.432.425v1.751c0 .235.193.425.432.425.24 0 .432-.19.432-.425v-1.751a.428.428 0 0 0-.432-.425zM3.512 32.064h2.323c.239 0 .432-.19.432-.425V27.59a.428.428 0 0 0-.432-.425H3.512a.428.428 0 0 0-.432.425v4.048c0 .235.193.425.432.425zm.432-4.048h1.459v3.198H3.944v-3.198zm3.706 4.048h2.323c.239 0 .432-.19.432-.425V27.59a.428.428 0 0 0-.432-.425H7.65a.428.428 0 0 0-.432.425v4.048c0 .235.193.425.432.425zm.432-4.048h1.459v3.198H8.082v-3.198zm6.338 4.048h2.322c.239 0 .432-.19.432-.425V27.59a.428.428 0 0 0-.432-.425H14.42a.428.428 0 0 0-.432.425v4.048c0 .235.193.425.432.425zm.431-4.048h1.459v3.198h-1.459v-3.198zm3.706 4.048h2.323c.239 0 .432-.19.432-.425V27.59a.428.428 0 0 0-.432-.425h-2.323a.428.428 0 0 0-.432.425v4.048c0 .235.193.425.432.425zm.432-4.048h1.459v3.198h-1.459v-3.198z"></path><path d="M34.62 11.135l-.867-8.247c.004-.021.013-.04.013-.063V.433a.428.428 0 0 0-.432-.425H1.354A.428.428 0 0 0 .92.433v2.392c0 .01.005.017.005.026l-.87 8.284c-.002.018.005.035.006.053-.002.013-.008.025-.008.038 0 .743.337 1.41.867 1.865v20.484c0 .235.193.425.432.425h31.86c.24 0 .433-.19.433-.425V13.18a2.46 2.46 0 0 0 .976-1.954c0-.013-.007-.025-.008-.038 0-.018.007-.035.006-.053zM30.295.858h2.607v1.543h-2.607V.858zm-4.252 0h3.388v1.543h-3.388V.858zm3.452 10.746a1.666 1.666 0 0 1-1.625 1.256c-.79 0-1.448-.538-1.624-1.256h3.25zM26.043 3.25h3.388v7.504h-3.388V3.25zM21.983.858h3.196v1.543h-3.196V.858zm3.3 10.746a1.666 1.666 0 0 1-1.626 1.256 1.666 1.666 0 0 1-1.624-1.256h3.25zm-3.3-8.354h3.196v7.504h-3.196V3.25zM17.776.858h3.343v1.543h-3.343V.858zm0 2.392h3.343v7.504h-3.343V3.25zm3.293 8.354a1.666 1.666 0 0 1-1.625 1.256 1.666 1.666 0 0 1-1.624-1.256h3.25zM13.557.858h3.355v1.543h-3.355V.858zm0 2.392h3.355v7.504h-3.355V3.25zm3.3 8.354a1.666 1.666 0 0 1-1.626 1.256 1.666 1.666 0 0 1-1.624-1.256h3.25zM9.343.858h3.349v1.543H9.344V.858zm0 2.392h3.349v7.504H9.344V3.25zM5.057.858H8.48v1.543H5.057V.858zm0 2.392H8.48v7.504H5.057V3.25zm3.373 8.354a1.666 1.666 0 0 1-1.624 1.256c-.79 0-1.45-.538-1.625-1.256h3.25zM1.785.858h2.408v1.543H1.785V.858zM1.754 3.25h2.44v7.504H.964l.789-7.504zm-.786 8.354h3.25a1.666 1.666 0 0 1-1.625 1.256c-.79 0-1.45-.538-1.625-1.256zM11.7 33.15H1.785v-7.265H11.7v7.265zm0-8.115H1.785V13.58c.255.084.525.131.808.131a2.55 2.55 0 0 0 2.106-1.099 2.553 2.553 0 0 0 2.107 1.1c.876 0 1.65-.437 2.106-1.1a2.553 2.553 0 0 0 2.788 1.006v11.418zm-.681-12.175c-.79 0-1.45-.538-1.625-1.256h3.25a1.666 1.666 0 0 1-1.625 1.256zm11.555 20.29h-10.01v-7.265h10.01v7.265zm0-8.115h-10.01V13.192c.217-.163.408-.358.561-.581a2.553 2.553 0 0 0 2.106 1.1c.877 0 1.65-.437 2.107-1.1a2.553 2.553 0 0 0 2.106 1.1c.877 0 1.65-.437 2.107-1.1.254.37.609.666 1.023.859v11.565zm10.208 8.115h-9.344v-1.086h9.344v1.086zm0-1.936h-9.344V13.699a2.553 2.553 0 0 0 2.326-1.088 2.553 2.553 0 0 0 2.106 1.1c.877 0 1.65-.437 2.107-1.1a2.553 2.553 0 0 0 2.805 1.001v17.602zm-.699-18.354c-.79 0-1.448-.538-1.624-1.256h3.249a1.666 1.666 0 0 1-1.625 1.256zm-1.788-2.106V3.25h2.627l.789 7.504h-3.416z"></path></g></svg><svg width="58" height="34" viewBox="0 0 58 34" id="realty-new" y="472"><g fill="#3863C5"><path d="M24.07 12.516h.001a.382.382 0 0 0 .377-.421 3.843 3.843 0 0 0-.322-1.387c-.309-.679-.969-1.488-2.36-1.488h-.038L11.146 4.543a.377.377 0 0 0-.353-.25h-3.94a.375.375 0 0 0-.366.321L2.422 7.527c-.025 0-.05-.004-.076-.004-1.133 0-2.056.934-2.056 2.08v2.53c0 .211.17.383.38.383h5.804v19.348H4.478a.38.38 0 0 0-.379.382v1.315c0 .212.17.384.379.384h8.69a.381.381 0 0 0 .379-.384v-1.315a.38.38 0 0 0-.379-.382h-1.996V20.518c1.676-.191 2.983-1.633 2.983-3.378s-1.307-3.186-2.983-3.378v-1.246h9.143l.411 6.671a2.718 2.718 0 0 0-1.641 2.501 2.705 2.705 0 0 0 2.303 2.683v1.693c0 .212.17.384.379.384.839 0 1.52.69 1.52 1.537a1.53 1.53 0 0 1-1.52 1.538 1.53 1.53 0 0 1-1.52-1.538.38.38 0 0 0-.379-.383c-.21 0-.38.171-.38.383 0 1.27 1.023 2.305 2.279 2.305 1.255 0 2.277-1.034 2.277-2.305a2.3 2.3 0 0 0-1.898-2.272v-1.342a2.705 2.705 0 0 0 2.303-2.683c0-1.18-.75-2.185-1.794-2.557l.556-6.615h.859zm-.641-1.507c.123.264.189.533.223.741h-3.904l1.31-1.763h.709c.798 0 1.341.334 1.662 1.022zm-6.462.741l1.31-1.763H20.4l-1.31 1.763h-2.124zm-2.78 0l1.31-1.763h2.124l-1.31 1.763h-2.124zm-2.78 0l1.31-1.763h2.124l-1.31 1.763h-2.125zm-.235-2.53V5.134l9.245 4.086h-9.245zm-3.94 0V5.06h3.183v4.16H7.232zm-.758-3.946V9.22H4.366A2.079 2.079 0 0 0 3.12 7.678l3.354-2.404zM2.347 8.29c.583 0 1.072.394 1.235.93H1.111c.163-.536.652-.93 1.236-.93zM1.048 9.987H12.06l-1.31 1.763H1.048V9.987zm6.184 8.702h2.96l-2.96 3.233v-3.233zm3.183 7.536L7.454 22.99h2.96v3.234zm0-3.765H7.453l2.962-3.233v3.233zm-3.183-4.3v-3.233l2.96 3.233h-2.96zm0 5.37l2.96 3.234h-2.96V23.53zm3.183-5.908l-2.962-3.233h2.962v3.233zm2.375 15.557H4.856v-.548h7.934v.548zm-5.558-1.314v-4.57h3.183v4.57H7.232zm5.243-12.716a5.013 5.013 0 0 0 .229-1.529c.162.166.347.316.54.406a2.64 2.64 0 0 1-.77 1.123zm.922-2.008c0 .122-.01.241-.027.36-.195-.137-.478-.422-.717-.77-.003-.005-.008-.007-.011-.011a8.996 8.996 0 0 0-.44-1.792 2.638 2.638 0 0 1 1.195 2.213zm-1.884-2.53c.37.89 1.165 3.225.196 4.993a2.57 2.57 0 0 1-.536.14v-5.206c.115.017.23.04.34.073zm-1.098-.753H7.232v-1.34h3.183v1.34zm13.276 7.831a1.938 1.938 0 0 1-1.924 1.946 1.937 1.937 0 0 1-1.924-1.946c0-1.073.863-1.947 1.924-1.947s1.924.874 1.924 1.947zm-1.552-2.684a2.644 2.644 0 0 0-.372-.029c-.18 0-.355.019-.525.053l-.401-6.511h1.844l-.546 6.487z"></path><path d="M20.62 21.688c0 .639.515 1.16 1.147 1.16s1.146-.521 1.146-1.16c0-.64-.514-1.16-1.146-1.16-.632 0-1.146.52-1.146 1.16zm1.535 0a.39.39 0 0 1-.388.392.39.39 0 0 1-.388-.392c0-.216.174-.393.388-.393.214 0 .388.177.388.393zM41.663 15.738h1.557c.236 0 .427-.19.427-.425v-2.207a.426.426 0 0 0-.427-.425h-1.557a.426.426 0 0 0-.427.425v2.207c0 .235.191.425.427.425zm.427-2.207h.703v1.357h-.703V13.53zm-3.794 2.207h1.557c.236 0 .427-.19.427-.425v-2.207a.426.426 0 0 0-.427-.425h-1.557a.426.426 0 0 0-.427.425v2.207c0 .235.191.425.427.425zm.427-2.207h.703v1.357h-.703V13.53zm2.94 6.561h1.557c.236 0 .427-.19.427-.425V17.46a.426.426 0 0 0-.427-.425h-1.557a.426.426 0 0 0-.427.425v2.207c0 .235.191.425.427.425zm.427-2.207h.703v1.357h-.703v-1.357zm-3.794 2.207h1.557c.236 0 .427-.19.427-.425V17.46a.426.426 0 0 0-.427-.425h-1.557a.426.426 0 0 0-.427.425v2.207c0 .235.191.425.427.425zm.427-2.207h.703v1.357h-.703v-1.357zm-.427 6.43h1.557c.236 0 .427-.19.427-.425v-2.207a.426.426 0 0 0-.427-.425h-1.557a.426.426 0 0 0-.427.425v2.207c0 .235.191.425.427.425zm.427-2.207h.703v1.357h-.703v-1.357zm2.94 2.207h1.557c.236 0 .427-.19.427-.425v-2.207a.426.426 0 0 0-.427-.425h-1.557a.426.426 0 0 0-.427.425v2.207c0 .235.191.425.427.425zm.427-2.207h.703v1.357h-.703v-1.357zm-9.411-2.016h1.557c.236 0 .427-.19.427-.425V17.46a.426.426 0 0 0-.427-.425H32.68a.426.426 0 0 0-.427.425v2.207c0 .235.19.425.427.425zm.427-2.207h.704v1.357h-.704v-1.357zm-3.794 2.207h1.557c.236 0 .427-.19.427-.425V17.46a.426.426 0 0 0-.427-.425h-1.557a.426.426 0 0 0-.427.425v2.207c0 .235.19.425.427.425zm.426-2.207h.704v1.357h-.704v-1.357zm-.426 6.43h1.557c.236 0 .427-.19.427-.425v-2.207a.426.426 0 0 0-.427-.425h-1.557a.426.426 0 0 0-.427.425v2.207c0 .235.19.425.427.425zm.426-2.207h.704v1.357h-.704v-1.357zm2.941 2.207h1.557c.236 0 .427-.19.427-.425v-2.207a.426.426 0 0 0-.427-.425H32.68a.426.426 0 0 0-.427.425v2.207c0 .235.19.425.427.425zm.427-2.207h.704v1.357h-.704v-1.357zm8.557 6.387h1.557c.236 0 .427-.19.427-.425v-2.207a.426.426 0 0 0-.427-.425h-1.557a.426.426 0 0 0-.427.425v2.207c0 .235.191.425.427.425zm.427-2.207h.703v1.357h-.703v-1.357zm-3.794 2.207h1.557c.236 0 .427-.19.427-.425v-2.207a.426.426 0 0 0-.427-.425h-1.557a.426.426 0 0 0-.427.425v2.207c0 .235.191.425.427.425zm.427-2.207h.703v1.357h-.703v-1.357zm2.94-14.848h1.557c.236 0 .427-.19.427-.425V8.81a.426.426 0 0 0-.427-.425h-1.557a.426.426 0 0 0-.427.425v2.206c0 .235.191.425.427.425zm.427-2.206h.703v1.356h-.703V9.234zm-3.794 2.206h1.557c.236 0 .427-.19.427-.425V8.81a.426.426 0 0 0-.427-.425h-1.557a.426.426 0 0 0-.427.425v2.206c0 .235.191.425.427.425zm.427-2.206h.703v1.356h-.703V9.234zm12.083 6.504h1.557c.236 0 .427-.19.427-.425v-2.207a.426.426 0 0 0-.427-.425h-1.557a.426.426 0 0 0-.427.425v2.207c0 .235.191.425.427.425zm.427-2.207h.703v1.357h-.703V13.53zm-3.794 2.207h1.557c.236 0 .427-.19.427-.425v-2.207a.426.426 0 0 0-.427-.425h-1.557a.426.426 0 0 0-.427.425v2.207c0 .235.19.425.427.425zm.426-2.207h.704v1.357h-.704V13.53zm2.941 6.561h1.557c.236 0 .427-.19.427-.425V17.46a.426.426 0 0 0-.427-.425h-1.557a.426.426 0 0 0-.427.425v2.207c0 .235.191.425.427.425zm.427-2.207h.703v1.357h-.703v-1.357zm-3.794 2.207h1.557c.236 0 .427-.19.427-.425V17.46a.426.426 0 0 0-.427-.425h-1.557a.426.426 0 0 0-.427.425v2.207c0 .235.19.425.427.425zm.426-2.207h.704v1.357h-.704v-1.357zm-.426 6.43h1.557c.236 0 .427-.19.427-.425v-2.207a.426.426 0 0 0-.427-.425h-1.557a.426.426 0 0 0-.427.425v2.207c0 .235.19.425.427.425zm.426-2.207h.704v1.357h-.704v-1.357zm2.941 2.207h1.557c.236 0 .427-.19.427-.425v-2.207a.426.426 0 0 0-.427-.425h-1.557a.426.426 0 0 0-.427.425v2.207c0 .235.191.425.427.425zm.427-2.207h.703v1.357h-.703v-1.357zm-.427 6.387h1.557c.236 0 .427-.19.427-.425v-2.207a.426.426 0 0 0-.427-.425h-1.557a.426.426 0 0 0-.427.425v2.207c0 .235.191.425.427.425zm.427-2.207h.703v1.357h-.703v-1.357zm-3.794 2.207h1.557c.236 0 .427-.19.427-.425v-2.207a.426.426 0 0 0-.427-.425h-1.557a.426.426 0 0 0-.427.425v2.207c0 .235.19.425.427.425zm.426-2.207h.704v1.357h-.704v-1.357zm2.941-14.848h1.557c.236 0 .427-.19.427-.425V8.81a.426.426 0 0 0-.427-.425h-1.557a.426.426 0 0 0-.427.425v2.206c0 .235.191.425.427.425zm.427-2.206h.703v1.356h-.703V9.234zm-3.794 2.206h1.557c.236 0 .427-.19.427-.425V8.81a.426.426 0 0 0-.427-.425h-1.557a.426.426 0 0 0-.427.425v2.206c0 .235.19.425.427.425zm.426-2.206h.704v1.356h-.704V9.234z"></path><path d="M57.498 33.15h-2.733V5.913a.42.42 0 0 0 .357-.411v-2.68a.426.426 0 0 0-.427-.426L54.548.425A.426.426 0 0 0 54.12 0H36.27a.426.426 0 0 0-.426.425v1.972h-.41a.426.426 0 0 0-.427.425v2.68c0 .235.19.425.427.425h.41v1.744h-8.567a.426.426 0 0 0-.427.425v2.102h-.165a.426.426 0 0 0-.427.425v2.634c0 .235.191.425.427.425h.165V33.15H4.691a.426.426 0 1 0 0 .85h52.807a.426.426 0 1 0 0-.85zm-24.613 0h-2.222v-4.9h2.222v4.9zm2.959 0h-2.106v-5.325a.426.426 0 0 0-.427-.425h-3.075a.426.426 0 0 0-.426.425v5.325h-2.106V13.682h8.14V33.15zm0-20.318h-8.732v-1.784h8.732v1.784zm0-2.634h-8.14V8.52h8.14v1.678zM45.623.85h8.071v1.547h-8.071V.85zm-8.926 0h8.072v1.547h-8.072V.85zm8.072 32.3h-8.072V5.927h8.072V33.15zm9.143 0h-8.29V5.927h8.29V33.15zm.357-28.073H35.86v-1.83h18.408v1.83z"></path></g></svg><svg width="58" height="34" viewBox="0 0 58 34" id="realty-new-o" y="506"><g fill="#FFF"><path d="M24.07 12.516h.001a.382.382 0 0 0 .377-.421 3.843 3.843 0 0 0-.322-1.387c-.309-.679-.969-1.488-2.36-1.488h-.038L11.146 4.543a.377.377 0 0 0-.353-.25h-3.94a.375.375 0 0 0-.366.321L2.422 7.527c-.025 0-.05-.004-.076-.004-1.133 0-2.056.934-2.056 2.08v2.53c0 .211.17.383.38.383h5.804v19.348H4.478a.38.38 0 0 0-.379.382v1.315c0 .212.17.384.379.384h8.69a.381.381 0 0 0 .379-.384v-1.315a.38.38 0 0 0-.379-.382h-1.996V20.518c1.676-.191 2.983-1.633 2.983-3.378s-1.307-3.186-2.983-3.378v-1.246h9.143l.411 6.671a2.718 2.718 0 0 0-1.641 2.501 2.705 2.705 0 0 0 2.303 2.683v1.693c0 .212.17.384.379.384.839 0 1.52.69 1.52 1.537a1.53 1.53 0 0 1-1.52 1.538 1.53 1.53 0 0 1-1.52-1.538.38.38 0 0 0-.379-.383c-.21 0-.38.171-.38.383 0 1.27 1.023 2.305 2.279 2.305 1.255 0 2.277-1.034 2.277-2.305a2.3 2.3 0 0 0-1.898-2.272v-1.342a2.705 2.705 0 0 0 2.303-2.683c0-1.18-.75-2.185-1.794-2.557l.556-6.615h.859zm-.641-1.507c.123.264.189.533.223.741h-3.904l1.31-1.763h.709c.798 0 1.341.334 1.662 1.022zm-6.462.741l1.31-1.763H20.4l-1.31 1.763h-2.124zm-2.78 0l1.31-1.763h2.124l-1.31 1.763h-2.124zm-2.78 0l1.31-1.763h2.124l-1.31 1.763h-2.125zm-.235-2.53V5.134l9.245 4.086h-9.245zm-3.94 0V5.06h3.183v4.16H7.232zm-.758-3.946V9.22H4.366A2.079 2.079 0 0 0 3.12 7.678l3.354-2.404zM2.347 8.29c.583 0 1.072.394 1.235.93H1.111c.163-.536.652-.93 1.236-.93zM1.048 9.987H12.06l-1.31 1.763H1.048V9.987zm6.184 8.702h2.96l-2.96 3.233v-3.233zm3.183 7.536L7.454 22.99h2.96v3.234zm0-3.765H7.453l2.962-3.233v3.233zm-3.183-4.3v-3.233l2.96 3.233h-2.96zm0 5.37l2.96 3.234h-2.96V23.53zm3.183-5.908l-2.962-3.233h2.962v3.233zm2.375 15.557H4.856v-.548h7.934v.548zm-5.558-1.314v-4.57h3.183v4.57H7.232zm5.243-12.716a5.013 5.013 0 0 0 .229-1.529c.162.166.347.316.54.406a2.64 2.64 0 0 1-.77 1.123zm.922-2.008c0 .122-.01.241-.027.36-.195-.137-.478-.422-.717-.77-.003-.005-.008-.007-.011-.011a8.996 8.996 0 0 0-.44-1.792 2.638 2.638 0 0 1 1.195 2.213zm-1.884-2.53c.37.89 1.165 3.225.196 4.993a2.57 2.57 0 0 1-.536.14v-5.206c.115.017.23.04.34.073zm-1.098-.753H7.232v-1.34h3.183v1.34zm13.276 7.831a1.938 1.938 0 0 1-1.924 1.946 1.937 1.937 0 0 1-1.924-1.946c0-1.073.863-1.947 1.924-1.947s1.924.874 1.924 1.947zm-1.552-2.684a2.644 2.644 0 0 0-.372-.029c-.18 0-.355.019-.525.053l-.401-6.511h1.844l-.546 6.487z"></path><path d="M20.62 21.688c0 .639.515 1.16 1.147 1.16s1.146-.521 1.146-1.16c0-.64-.514-1.16-1.146-1.16-.632 0-1.146.52-1.146 1.16zm1.535 0a.39.39 0 0 1-.388.392.39.39 0 0 1-.388-.392c0-.216.174-.393.388-.393.214 0 .388.177.388.393zM41.663 15.738h1.557c.236 0 .427-.19.427-.425v-2.207a.426.426 0 0 0-.427-.425h-1.557a.426.426 0 0 0-.427.425v2.207c0 .235.191.425.427.425zm.427-2.207h.703v1.357h-.703V13.53zm-3.794 2.207h1.557c.236 0 .427-.19.427-.425v-2.207a.426.426 0 0 0-.427-.425h-1.557a.426.426 0 0 0-.427.425v2.207c0 .235.191.425.427.425zm.427-2.207h.703v1.357h-.703V13.53zm2.94 6.561h1.557c.236 0 .427-.19.427-.425V17.46a.426.426 0 0 0-.427-.425h-1.557a.426.426 0 0 0-.427.425v2.207c0 .235.191.425.427.425zm.427-2.207h.703v1.357h-.703v-1.357zm-3.794 2.207h1.557c.236 0 .427-.19.427-.425V17.46a.426.426 0 0 0-.427-.425h-1.557a.426.426 0 0 0-.427.425v2.207c0 .235.191.425.427.425zm.427-2.207h.703v1.357h-.703v-1.357zm-.427 6.43h1.557c.236 0 .427-.19.427-.425v-2.207a.426.426 0 0 0-.427-.425h-1.557a.426.426 0 0 0-.427.425v2.207c0 .235.191.425.427.425zm.427-2.207h.703v1.357h-.703v-1.357zm2.94 2.207h1.557c.236 0 .427-.19.427-.425v-2.207a.426.426 0 0 0-.427-.425h-1.557a.426.426 0 0 0-.427.425v2.207c0 .235.191.425.427.425zm.427-2.207h.703v1.357h-.703v-1.357zm-9.411-2.016h1.557c.236 0 .427-.19.427-.425V17.46a.426.426 0 0 0-.427-.425H32.68a.426.426 0 0 0-.427.425v2.207c0 .235.19.425.427.425zm.427-2.207h.704v1.357h-.704v-1.357zm-3.794 2.207h1.557c.236 0 .427-.19.427-.425V17.46a.426.426 0 0 0-.427-.425h-1.557a.426.426 0 0 0-.427.425v2.207c0 .235.19.425.427.425zm.426-2.207h.704v1.357h-.704v-1.357zm-.426 6.43h1.557c.236 0 .427-.19.427-.425v-2.207a.426.426 0 0 0-.427-.425h-1.557a.426.426 0 0 0-.427.425v2.207c0 .235.19.425.427.425zm.426-2.207h.704v1.357h-.704v-1.357zm2.941 2.207h1.557c.236 0 .427-.19.427-.425v-2.207a.426.426 0 0 0-.427-.425H32.68a.426.426 0 0 0-.427.425v2.207c0 .235.19.425.427.425zm.427-2.207h.704v1.357h-.704v-1.357zm8.557 6.387h1.557c.236 0 .427-.19.427-.425v-2.207a.426.426 0 0 0-.427-.425h-1.557a.426.426 0 0 0-.427.425v2.207c0 .235.191.425.427.425zm.427-2.207h.703v1.357h-.703v-1.357zm-3.794 2.207h1.557c.236 0 .427-.19.427-.425v-2.207a.426.426 0 0 0-.427-.425h-1.557a.426.426 0 0 0-.427.425v2.207c0 .235.191.425.427.425zm.427-2.207h.703v1.357h-.703v-1.357zm2.94-14.848h1.557c.236 0 .427-.19.427-.425V8.81a.426.426 0 0 0-.427-.425h-1.557a.426.426 0 0 0-.427.425v2.206c0 .235.191.425.427.425zm.427-2.206h.703v1.356h-.703V9.234zm-3.794 2.206h1.557c.236 0 .427-.19.427-.425V8.81a.426.426 0 0 0-.427-.425h-1.557a.426.426 0 0 0-.427.425v2.206c0 .235.191.425.427.425zm.427-2.206h.703v1.356h-.703V9.234zm12.083 6.504h1.557c.236 0 .427-.19.427-.425v-2.207a.426.426 0 0 0-.427-.425h-1.557a.426.426 0 0 0-.427.425v2.207c0 .235.191.425.427.425zm.427-2.207h.703v1.357h-.703V13.53zm-3.794 2.207h1.557c.236 0 .427-.19.427-.425v-2.207a.426.426 0 0 0-.427-.425h-1.557a.426.426 0 0 0-.427.425v2.207c0 .235.19.425.427.425zm.426-2.207h.704v1.357h-.704V13.53zm2.941 6.561h1.557c.236 0 .427-.19.427-.425V17.46a.426.426 0 0 0-.427-.425h-1.557a.426.426 0 0 0-.427.425v2.207c0 .235.191.425.427.425zm.427-2.207h.703v1.357h-.703v-1.357zm-3.794 2.207h1.557c.236 0 .427-.19.427-.425V17.46a.426.426 0 0 0-.427-.425h-1.557a.426.426 0 0 0-.427.425v2.207c0 .235.19.425.427.425zm.426-2.207h.704v1.357h-.704v-1.357zm-.426 6.43h1.557c.236 0 .427-.19.427-.425v-2.207a.426.426 0 0 0-.427-.425h-1.557a.426.426 0 0 0-.427.425v2.207c0 .235.19.425.427.425zm.426-2.207h.704v1.357h-.704v-1.357zm2.941 2.207h1.557c.236 0 .427-.19.427-.425v-2.207a.426.426 0 0 0-.427-.425h-1.557a.426.426 0 0 0-.427.425v2.207c0 .235.191.425.427.425zm.427-2.207h.703v1.357h-.703v-1.357zm-.427 6.387h1.557c.236 0 .427-.19.427-.425v-2.207a.426.426 0 0 0-.427-.425h-1.557a.426.426 0 0 0-.427.425v2.207c0 .235.191.425.427.425zm.427-2.207h.703v1.357h-.703v-1.357zm-3.794 2.207h1.557c.236 0 .427-.19.427-.425v-2.207a.426.426 0 0 0-.427-.425h-1.557a.426.426 0 0 0-.427.425v2.207c0 .235.19.425.427.425zm.426-2.207h.704v1.357h-.704v-1.357zm2.941-14.848h1.557c.236 0 .427-.19.427-.425V8.81a.426.426 0 0 0-.427-.425h-1.557a.426.426 0 0 0-.427.425v2.206c0 .235.191.425.427.425zm.427-2.206h.703v1.356h-.703V9.234zm-3.794 2.206h1.557c.236 0 .427-.19.427-.425V8.81a.426.426 0 0 0-.427-.425h-1.557a.426.426 0 0 0-.427.425v2.206c0 .235.19.425.427.425zm.426-2.206h.704v1.356h-.704V9.234z"></path><path d="M57.498 33.15h-2.733V5.913a.42.42 0 0 0 .357-.411v-2.68a.426.426 0 0 0-.427-.426L54.548.425A.426.426 0 0 0 54.12 0H36.27a.426.426 0 0 0-.426.425v1.972h-.41a.426.426 0 0 0-.427.425v2.68c0 .235.19.425.427.425h.41v1.744h-8.567a.426.426 0 0 0-.427.425v2.102h-.165a.426.426 0 0 0-.427.425v2.634c0 .235.191.425.427.425h.165V33.15H4.691a.426.426 0 1 0 0 .85h52.807a.426.426 0 1 0 0-.85zm-24.613 0h-2.222v-4.9h2.222v4.9zm2.959 0h-2.106v-5.325a.426.426 0 0 0-.427-.425h-3.075a.426.426 0 0 0-.426.425v5.325h-2.106V13.682h8.14V33.15zm0-20.318h-8.732v-1.784h8.732v1.784zm0-2.634h-8.14V8.52h8.14v1.678zM45.623.85h8.071v1.547h-8.071V.85zm-8.926 0h8.072v1.547h-8.072V.85zm8.072 32.3h-8.072V5.927h8.072V33.15zm9.143 0h-8.29V5.927h8.29V33.15zm.357-28.073H35.86v-1.83h18.408v1.83z"></path></g></svg><svg width="35" height="35" viewBox="0 0 35 35" id="realty-second" y="540"><g fill="#3863C5"><path d="M8.874 21.114v-4.228a.45.45 0 0 0-.447-.455H5.483a.45.45 0 0 0-.446.455v4.228c0 .251.2.455.446.455h2.944a.45.45 0 0 0 .447-.455zm-.893-.455H5.93V17.34h2.052v3.318zm5.923.455v-4.228a.45.45 0 0 0-.447-.455h-2.945a.45.45 0 0 0-.446.455v4.228c0 .251.2.455.446.455h2.945a.45.45 0 0 0 .447-.455zm-.893-.455H10.96V17.34h2.052v3.318zm-4.137 8.797v-4.228a.45.45 0 0 0-.447-.455H5.483a.45.45 0 0 0-.446.455v4.228c0 .251.2.455.446.455h2.944a.45.45 0 0 0 .447-.455zM7.98 29H5.93v-3.318h2.052V29zm5.924.456v-4.228a.45.45 0 0 0-.447-.455h-2.945a.45.45 0 0 0-.446.455v4.228c0 .251.2.455.446.455h2.945a.45.45 0 0 0 .447-.455zM13.01 29h-2.05v-3.318h2.052V29zM8.874 12.88V8.652a.45.45 0 0 0-.447-.455H5.483a.45.45 0 0 0-.446.455v4.228c0 .252.2.455.446.455h2.944a.45.45 0 0 0 .447-.455zm-.893-.455H5.93V9.107h2.052v3.318zm5.923.455V8.652a.45.45 0 0 0-.447-.455h-2.945a.45.45 0 0 0-.446.455v4.228c0 .252.2.455.446.455h2.945a.45.45 0 0 0 .447-.455zm-.893-.455H10.96V9.107h2.052v3.318z"></path><path d="M32.696 34.084v-1.957C34 31.908 35 30.753 35 29.362a2.813 2.813 0 0 0-1.494-2.492 1.7 1.7 0 0 0 .406-1.098c0-.935-.745-1.696-1.662-1.696-.917 0-1.663.76-1.663 1.696 0 .42.157.8.407 1.098a2.813 2.813 0 0 0-1.494 2.492c0 1.391.999 2.546 2.303 2.765v1.957h-3.17V13.739h.328a.45.45 0 0 0 .446-.455v-2.742a.45.45 0 0 0-.446-.455h-1.155V7.909a.45.45 0 0 0-.446-.455h-2.075a.45.45 0 0 0-.446.455v2.178H16.86V6.166h.143a.45.45 0 0 0 .446-.455V2.968a.45.45 0 0 0-.446-.455H12.43V.516a.45.45 0 0 0-.446-.455h-5.03a.45.45 0 0 0-.446.455v1.997H2.065a.45.45 0 0 0-.446.455v2.743c0 .251.2.455.446.455h.143v27.918H.484a.45.45 0 0 0-.446.455c0 .251.2.455.446.455h34.069a.45.45 0 0 0 .446-.455.45.45 0 0 0-.446-.455h-1.857zm-.446-7.527a.779.779 0 0 1-.77-.785c0-.434.345-.786.77-.786.425 0 .77.352.77.786a.779.779 0 0 1-.77.785zm0 4.7c-1.024 0-1.858-.85-1.858-1.895s.834-1.895 1.858-1.895 1.858.85 1.858 1.895-.834 1.895-1.858 1.895zm-11.914-5.853h3.848v8.68h-3.848v-8.68zM11.539 2.513H7.4V.971h4.138v1.542zm5.02 2.743H2.511V3.423h14.046v1.833zm-.59.91v27.918H3.1V6.166h12.867zm10.945 3.92h-1.183V8.365h1.183v1.723zm1.6 2.743H16.862v-1.832h11.654v1.832zm-.774.91v20.345h-2.664v-9.135a.45.45 0 0 0-.446-.455h-4.74a.45.45 0 0 0-.446.455v9.135H16.86V13.739h10.88z"></path></g></svg><svg width="35" height="35" viewBox="0 0 35 35" id="realty-second-o" y="575"><g fill="#FFF"><path d="M8.874 21.114v-4.228a.45.45 0 0 0-.447-.455H5.483a.45.45 0 0 0-.446.455v4.228c0 .251.2.455.446.455h2.944a.45.45 0 0 0 .447-.455zm-.893-.455H5.93V17.34h2.052v3.318zm5.923.455v-4.228a.45.45 0 0 0-.447-.455h-2.945a.45.45 0 0 0-.446.455v4.228c0 .251.2.455.446.455h2.945a.45.45 0 0 0 .447-.455zm-.893-.455H10.96V17.34h2.052v3.318zm-4.137 8.797v-4.228a.45.45 0 0 0-.447-.455H5.483a.45.45 0 0 0-.446.455v4.228c0 .251.2.455.446.455h2.944a.45.45 0 0 0 .447-.455zM7.98 29H5.93v-3.318h2.052V29zm5.924.456v-4.228a.45.45 0 0 0-.447-.455h-2.945a.45.45 0 0 0-.446.455v4.228c0 .251.2.455.446.455h2.945a.45.45 0 0 0 .447-.455zM13.01 29h-2.05v-3.318h2.052V29zM8.874 12.88V8.652a.45.45 0 0 0-.447-.455H5.483a.45.45 0 0 0-.446.455v4.228c0 .252.2.455.446.455h2.944a.45.45 0 0 0 .447-.455zm-.893-.455H5.93V9.107h2.052v3.318zm5.923.455V8.652a.45.45 0 0 0-.447-.455h-2.945a.45.45 0 0 0-.446.455v4.228c0 .252.2.455.446.455h2.945a.45.45 0 0 0 .447-.455zm-.893-.455H10.96V9.107h2.052v3.318z"></path><path d="M32.696 34.084v-1.957C34 31.908 35 30.753 35 29.362a2.813 2.813 0 0 0-1.494-2.492 1.7 1.7 0 0 0 .406-1.098c0-.935-.745-1.696-1.662-1.696-.917 0-1.663.76-1.663 1.696 0 .42.157.8.407 1.098a2.813 2.813 0 0 0-1.494 2.492c0 1.391.999 2.546 2.303 2.765v1.957h-3.17V13.739h.328a.45.45 0 0 0 .446-.455v-2.742a.45.45 0 0 0-.446-.455h-1.155V7.909a.45.45 0 0 0-.446-.455h-2.075a.45.45 0 0 0-.446.455v2.178H16.86V6.166h.143a.45.45 0 0 0 .446-.455V2.968a.45.45 0 0 0-.446-.455H12.43V.516a.45.45 0 0 0-.446-.455h-5.03a.45.45 0 0 0-.446.455v1.997H2.065a.45.45 0 0 0-.446.455v2.743c0 .251.2.455.446.455h.143v27.918H.484a.45.45 0 0 0-.446.455c0 .251.2.455.446.455h34.069a.45.45 0 0 0 .446-.455.45.45 0 0 0-.446-.455h-1.857zm-.446-7.527a.779.779 0 0 1-.77-.785c0-.434.345-.786.77-.786.425 0 .77.352.77.786a.779.779 0 0 1-.77.785zm0 4.7c-1.024 0-1.858-.85-1.858-1.895s.834-1.895 1.858-1.895 1.858.85 1.858 1.895-.834 1.895-1.858 1.895zm-11.914-5.853h3.848v8.68h-3.848v-8.68zM11.539 2.513H7.4V.971h4.138v1.542zm5.02 2.743H2.511V3.423h14.046v1.833zm-.59.91v27.918H3.1V6.166h12.867zm10.945 3.92h-1.183V8.365h1.183v1.723zm1.6 2.743H16.862v-1.832h11.654v1.832zm-.774.91v20.345h-2.664v-9.135a.45.45 0 0 0-.446-.455h-4.74a.45.45 0 0 0-.446.455v9.135H16.86V13.739h10.88z"></path></g></svg><svg width="37" height="37" viewBox="0 0 37 37" id="realty-village" y="610"><g fill="#3863C5" fill-rule="evenodd"><path d="M16.886 5.338c-1.228 0-2.46.422-3.453 1.263h-.014L.974 16.629c-.495.393-.758.937-.777 1.46a2.04 2.04 0 0 0 .49 1.383c.314.375.76.654 1.28.722.52.069 1.103-.106 1.57-.532L15.974 9.648a1.35 1.35 0 0 1 1.822 0l12.411 10.014c.467.426 1.05.6 1.57.532a2.029 2.029 0 0 0 1.281-.722c.315-.375.51-.861.49-1.384-.02-.522-.283-1.066-.777-1.46L20.35 6.602a5.331 5.331 0 0 0-3.464-1.272v.009zm0 1.144a4.172 4.172 0 0 1 2.727 1.009L32.05 17.53h.004c.268.212.339.406.346.608a.928.928 0 0 1-.226.608.894.894 0 0 1-.546.32c-.193.025-.39-.012-.643-.24a.574.574 0 0 0-.025-.023L18.533 8.773a2.54 2.54 0 0 0-3.293 0L2.788 18.801a.574.574 0 0 0-.027.025c-.253.23-.45.265-.643.24a.898.898 0 0 1-.548-.32.927.927 0 0 1-.225-.608c.008-.202.08-.396.346-.608h.003L14.157 7.49a4.172 4.172 0 0 1 2.73-1.008h-.001zM4.796 33.378v3.434h24.441v-3.434h-1.15v2.29H5.946v-2.29zm0-10.3v2.86h1.15v-2.86zm23.291 5.15v2.861h1.15v-2.861zm0-5.15v2.86h1.15v-2.86z"></path><path d="M28.087 17.641v3.148h1.15V17.64z"></path><path d="M22.756 17.355a.576.576 0 0 0-.504.284.57.57 0 0 0 0 .577.576.576 0 0 0 .504.284h5.618c.208.002.4-.106.505-.284a.57.57 0 0 0 0-.577.576.576 0 0 0-.505-.284h-5.618zm-.413-2.861a.576.576 0 0 0-.505.284.57.57 0 0 0 0 .576.576.576 0 0 0 .505.284h2.868c.208.003.4-.105.505-.284a.57.57 0 0 0 0-.576.576.576 0 0 0-.505-.284h-2.868zm-17.26 2.861v3.434h1.15v-3.434z"></path><path d="M5.81 17.355a.576.576 0 0 0-.503.284.57.57 0 0 0 0 .577.576.576 0 0 0 .504.284h5.463c.208.002.4-.106.505-.284a.57.57 0 0 0 0-.577.576.576 0 0 0-.505-.284H5.811zm2.73-2.861a.576.576 0 0 0-.504.284.57.57 0 0 0 0 .576.576.576 0 0 0 .504.284h3.148c.207.003.4-.105.504-.284a.57.57 0 0 0 0-.576.576.576 0 0 0-.504-.284H8.54z"></path><path fill-rule="nonzero" d="M17.294 29.945a.57.57 0 0 0 .575.573.577.577 0 0 0 .575-.573.574.574 0 0 0-.575-.572.574.574 0 0 0-.575.572zm-12.211.572a1.73 1.73 0 0 0-1.725 1.717c0 .94.78 1.716 1.725 1.716h8.77a.57.57 0 1 0 .504-.86.576.576 0 0 0-.504-.284h-8.77a.56.56 0 0 1-.575-.572.56.56 0 0 1 .575-.573h8.77c.207.003.4-.105.505-.284a.57.57 0 0 0 0-.576.576.576 0 0 0-.505-.284h-8.77zm14.665 0a.576.576 0 0 0-.504.284.57.57 0 0 0 0 .576.576.576 0 0 0 .504.284h8.914a.56.56 0 0 1 .575.573.56.56 0 0 1-.575.572h-8.914a.576.576 0 0 0-.504.284.57.57 0 0 0 0 .577.576.576 0 0 0 .504.283h8.914a1.73 1.73 0 0 0 1.725-1.716 1.73 1.73 0 0 0-1.725-1.717h-8.914z"></path><path d="M4.796 28.228v2.861h1.15v-2.861zM14 14.492a.574.574 0 0 0-.576.572v5.725h1.15v-5.153h4.597v5.153h1.15v-5.725a.574.574 0 0 0-.575-.572h-5.747z"></path><path d="M16.297 15.113v5.676h1.15v-5.676z"></path><path fill-rule="nonzero" d="M5.083 20.216a1.73 1.73 0 0 0-1.725 1.717c0 .941.78 1.717 1.725 1.717h23.579a1.73 1.73 0 0 0 1.725-1.717 1.73 1.73 0 0 0-1.725-1.717H5.083zm0 1.145h23.579a.56.56 0 0 1 .575.572.56.56 0 0 1-.575.572H5.083a.56.56 0 0 1-.575-.572.56.56 0 0 1 .575-.572z"></path><path d="M13.712 17.38v1.144h6.321V17.38z"></path><path fill-rule="nonzero" d="M5.083 25.367a1.73 1.73 0 0 0-1.725 1.716c0 .942.78 1.717 1.725 1.717h8.77c.207.003.4-.106.505-.284a.57.57 0 0 0 0-.576.576.576 0 0 0-.505-.284h-8.77a.56.56 0 0 1-.575-.573.56.56 0 0 1 .575-.572h8.77c.207.003.4-.106.505-.284a.57.57 0 0 0 0-.576.576.576 0 0 0-.505-.284h-8.77zm14.665 0a.576.576 0 0 0-.504.284.57.57 0 0 0 0 .576.576.576 0 0 0 .504.284h8.914a.56.56 0 0 1 .575.572.56.56 0 0 1-.575.573h-8.914a.576.576 0 0 0-.504.284.57.57 0 0 0 0 .576.576.576 0 0 0 .504.284h8.914a1.73 1.73 0 0 0 1.725-1.717 1.73 1.73 0 0 0-1.725-1.716h-8.914zM32.975 36.24c0 .316.258.572.575.572a.574.574 0 0 0 .575-.572.574.574 0 0 0-.575-.572.574.574 0 0 0-.575.572z"></path><path d="M.777 35.667a.576.576 0 0 0-.508.283.57.57 0 0 0 0 .579.58.58 0 0 0 .508.283H1.91a.576.576 0 0 0 .507-.283.57.57 0 0 0 0-.579.576.576 0 0 0-.507-.283H.777zm27.31-28.612v7.153h1.15V7.055zm-3.451 0v4.292h1.15V7.055z"></path><path d="M24.643 6.482a.576.576 0 0 0-.504.284.57.57 0 0 0 0 .577.576.576 0 0 0 .504.284h4.585c.207.003.4-.106.504-.284a.57.57 0 0 0 0-.577.576.576 0 0 0-.504-.284h-4.585zM13.997 24.794a.574.574 0 0 0-.575.573V36.24h1.15V25.939h4.599v10.3h1.15V25.368a.574.574 0 0 0-.575-.573h-5.749z"></path><path d="M3.942 35.667a.576.576 0 0 0-.507.283.57.57 0 0 0 0 .579.577.577 0 0 0 .507.283H31.24a.576.576 0 0 0 .507-.283.57.57 0 0 0 0-.579.576.576 0 0 0-.507-.283H3.94zM32.115.188c-.787 0-1.438.648-1.438 1.43v.852c0 .164-.12.284-.285.284h-3.458A1.44 1.44 0 0 0 25.5 4.182v.863a.572.572 0 0 0 .285.502c.18.104.4.104.58 0a.572.572 0 0 0 .285-.502v-.863c0-.164.12-.284.285-.284h3.458a1.44 1.44 0 0 0 1.435-1.428v-.852a.28.28 0 0 1 .288-.286h4.302c.207.003.4-.106.504-.284a.57.57 0 0 0 0-.576.576.576 0 0 0-.504-.284h-4.302z"></path><path fill-rule="nonzero" d="M28.374 5.052c0 .316.258.573.575.573a.574.574 0 0 0 .575-.573.574.574 0 0 0-.575-.572.574.574 0 0 0-.575.572z"></path></g></svg><svg width="37" height="37" viewBox="0 0 37 37" id="realty-village-o" y="647"><g fill="#FFF" fill-rule="evenodd"><path d="M16.886 5.338c-1.228 0-2.46.422-3.453 1.263h-.014L.974 16.629c-.495.393-.758.937-.777 1.46a2.04 2.04 0 0 0 .49 1.383c.314.375.76.654 1.28.722.52.069 1.103-.106 1.57-.532L15.974 9.648a1.35 1.35 0 0 1 1.822 0l12.411 10.014c.467.426 1.05.6 1.57.532a2.029 2.029 0 0 0 1.281-.722c.315-.375.51-.861.49-1.384-.02-.522-.283-1.066-.777-1.46L20.35 6.602a5.331 5.331 0 0 0-3.464-1.272v.009zm0 1.144a4.172 4.172 0 0 1 2.727 1.009L32.05 17.53h.004c.268.212.339.406.346.608a.928.928 0 0 1-.226.608.894.894 0 0 1-.546.32c-.193.025-.39-.012-.643-.24a.574.574 0 0 0-.025-.023L18.533 8.773a2.54 2.54 0 0 0-3.293 0L2.788 18.801a.574.574 0 0 0-.027.025c-.253.23-.45.265-.643.24a.898.898 0 0 1-.548-.32.927.927 0 0 1-.225-.608c.008-.202.08-.396.346-.608h.003L14.157 7.49a4.172 4.172 0 0 1 2.73-1.008h-.001zM4.796 33.378v3.434h24.441v-3.434h-1.15v2.29H5.946v-2.29zm0-10.3v2.86h1.15v-2.86zm23.291 5.15v2.861h1.15v-2.861zm0-5.15v2.86h1.15v-2.86z"></path><path d="M28.087 17.641v3.148h1.15V17.64z"></path><path d="M22.756 17.355a.576.576 0 0 0-.504.284.57.57 0 0 0 0 .577.576.576 0 0 0 .504.284h5.618c.208.002.4-.106.505-.284a.57.57 0 0 0 0-.577.576.576 0 0 0-.505-.284h-5.618zm-.413-2.861a.576.576 0 0 0-.505.284.57.57 0 0 0 0 .576.576.576 0 0 0 .505.284h2.868c.208.003.4-.105.505-.284a.57.57 0 0 0 0-.576.576.576 0 0 0-.505-.284h-2.868zm-17.26 2.861v3.434h1.15v-3.434z"></path><path d="M5.81 17.355a.576.576 0 0 0-.503.284.57.57 0 0 0 0 .577.576.576 0 0 0 .504.284h5.463c.208.002.4-.106.505-.284a.57.57 0 0 0 0-.577.576.576 0 0 0-.505-.284H5.811zm2.73-2.861a.576.576 0 0 0-.504.284.57.57 0 0 0 0 .576.576.576 0 0 0 .504.284h3.148c.207.003.4-.105.504-.284a.57.57 0 0 0 0-.576.576.576 0 0 0-.504-.284H8.54z"></path><path fill-rule="nonzero" d="M17.294 29.945a.57.57 0 0 0 .575.573.577.577 0 0 0 .575-.573.574.574 0 0 0-.575-.572.574.574 0 0 0-.575.572zm-12.211.572a1.73 1.73 0 0 0-1.725 1.717c0 .94.78 1.716 1.725 1.716h8.77a.57.57 0 1 0 .504-.86.576.576 0 0 0-.504-.284h-8.77a.56.56 0 0 1-.575-.572.56.56 0 0 1 .575-.573h8.77c.207.003.4-.105.505-.284a.57.57 0 0 0 0-.576.576.576 0 0 0-.505-.284h-8.77zm14.665 0a.576.576 0 0 0-.504.284.57.57 0 0 0 0 .576.576.576 0 0 0 .504.284h8.914a.56.56 0 0 1 .575.573.56.56 0 0 1-.575.572h-8.914a.576.576 0 0 0-.504.284.57.57 0 0 0 0 .577.576.576 0 0 0 .504.283h8.914a1.73 1.73 0 0 0 1.725-1.716 1.73 1.73 0 0 0-1.725-1.717h-8.914z"></path><path d="M4.796 28.228v2.861h1.15v-2.861zM14 14.492a.574.574 0 0 0-.576.572v5.725h1.15v-5.153h4.597v5.153h1.15v-5.725a.574.574 0 0 0-.575-.572h-5.747z"></path><path d="M16.297 15.113v5.676h1.15v-5.676z"></path><path fill-rule="nonzero" d="M5.083 20.216a1.73 1.73 0 0 0-1.725 1.717c0 .941.78 1.717 1.725 1.717h23.579a1.73 1.73 0 0 0 1.725-1.717 1.73 1.73 0 0 0-1.725-1.717H5.083zm0 1.145h23.579a.56.56 0 0 1 .575.572.56.56 0 0 1-.575.572H5.083a.56.56 0 0 1-.575-.572.56.56 0 0 1 .575-.572z"></path><path d="M13.712 17.38v1.144h6.321V17.38z"></path><path fill-rule="nonzero" d="M5.083 25.367a1.73 1.73 0 0 0-1.725 1.716c0 .942.78 1.717 1.725 1.717h8.77c.207.003.4-.106.505-.284a.57.57 0 0 0 0-.576.576.576 0 0 0-.505-.284h-8.77a.56.56 0 0 1-.575-.573.56.56 0 0 1 .575-.572h8.77c.207.003.4-.106.505-.284a.57.57 0 0 0 0-.576.576.576 0 0 0-.505-.284h-8.77zm14.665 0a.576.576 0 0 0-.504.284.57.57 0 0 0 0 .576.576.576 0 0 0 .504.284h8.914a.56.56 0 0 1 .575.572.56.56 0 0 1-.575.573h-8.914a.576.576 0 0 0-.504.284.57.57 0 0 0 0 .576.576.576 0 0 0 .504.284h8.914a1.73 1.73 0 0 0 1.725-1.717 1.73 1.73 0 0 0-1.725-1.716h-8.914zM32.975 36.24c0 .316.258.572.575.572a.574.574 0 0 0 .575-.572.574.574 0 0 0-.575-.572.574.574 0 0 0-.575.572z"></path><path d="M.777 35.667a.576.576 0 0 0-.508.283.57.57 0 0 0 0 .579.58.58 0 0 0 .508.283H1.91a.576.576 0 0 0 .507-.283.57.57 0 0 0 0-.579.576.576 0 0 0-.507-.283H.777zm27.31-28.612v7.153h1.15V7.055zm-3.451 0v4.292h1.15V7.055z"></path><path d="M24.643 6.482a.576.576 0 0 0-.504.284.57.57 0 0 0 0 .577.576.576 0 0 0 .504.284h4.585c.207.003.4-.106.504-.284a.57.57 0 0 0 0-.577.576.576 0 0 0-.504-.284h-4.585zM13.997 24.794a.574.574 0 0 0-.575.573V36.24h1.15V25.939h4.599v10.3h1.15V25.368a.574.574 0 0 0-.575-.573h-5.749z"></path><path d="M3.942 35.667a.576.576 0 0 0-.507.283.57.57 0 0 0 0 .579.577.577 0 0 0 .507.283H31.24a.576.576 0 0 0 .507-.283.57.57 0 0 0 0-.579.576.576 0 0 0-.507-.283H3.94zM32.115.188c-.787 0-1.438.648-1.438 1.43v.852c0 .164-.12.284-.285.284h-3.458A1.44 1.44 0 0 0 25.5 4.182v.863a.572.572 0 0 0 .285.502c.18.104.4.104.58 0a.572.572 0 0 0 .285-.502v-.863c0-.164.12-.284.285-.284h3.458a1.44 1.44 0 0 0 1.435-1.428v-.852a.28.28 0 0 1 .288-.286h4.302c.207.003.4-.106.504-.284a.57.57 0 0 0 0-.576.576.576 0 0 0-.504-.284h-4.302z"></path><path fill-rule="nonzero" d="M28.374 5.052c0 .316.258.573.575.573a.574.574 0 0 0 .575-.573.574.574 0 0 0-.575-.572.574.574 0 0 0-.575.572z"></path></g></svg><svg width="77" height="44" viewBox="0 0 77 44" id="russia" y="684"><g fill="none" fill-rule="evenodd"><path stroke="#3863C5" stroke-width="2.45" d="M46.964 14.837c-.137.092.042.287-.067.397-.112.112-.601.433-.857.318-.12-.053.696-.563.863-.809.274-.403.188-.845.606-.912 1.75-.277-1.36-3.304-1.275-1.538 0 .015-.048.063-.094.002-.27-.349-.158-.126-.41-.618-.126-.245.373-.031.318-.23-.062-.226-.443-.485-.666-.37-.574.294-.479.413-.695 1.205-.048.172-.454-.164-.529-.002-.14.308-.131.546-.469.334-.21-.132.375-.228.105-.288-1.08-.243-2.173.444-3.214.86-.205.08.094.102.025.224-.052.09-.333-.138-.31-.035.127.564.238.145.168.496-.021.105.285-.098.268.03-.05.377-.06.252-.36.296-.246.035.069-.137-.21-.208-.214-.053-.904-.374-1.257-.115-.43.315-.408.789-.258 1.25.057.178.646.179.225.597-.148.147-.529-1.183-.869-1.347-.447-.215-.269-.108-.517.178-.13.146.347.368.045.393-.28.021-.086-.392-.389-.138-.298.25.283.595.048.805-.22.198-.358-.024-.41-.304-.083-.445.923-2.238.435-1.788-.766.708-.541.447-1.156 1.262-.658.871-1.52 1.72-.859 2.271.992.826 1.119.856.918 1.238-.099.19.025-.315-.346-.623-.355-.293-.56-.24-.79.1-.326.48-.506.605-.791 1.002-.188.263-.646.433-.926.252-.728-.473-1.04-.378-.505-.553.732-.24 1.22-1.232 1.57-1.435.347-.202.917-2.396 1.436-2.533.536-.14 1.37-.777.478-1.386-.26-.176.351.287.458-.028.382-1.127-2.882 1.138-2.545 1.328.214.121-.068.431-.339.51-.338.1-.57.335-.534.53.021.113.252-.105.3 0 .135.301-.127.37-.003.81.041.148-.318.422-.368.276-.217-.638-.542-1.846-.824-2.344-.153-.269-.102-.08-.177-.175-.287-.362.058-.956-.336-1.191-.542-.322-.034 1.396-.58 1.645-.495.228-.053-.444-.313-.553-3.486-1.468.752-1.207-2.98-1.816-.433-.07-.233-.355-.445-.302-.344.087-.169-.166-.439-.036-.826.395-.862.225-.956-.092-.08-.277-.08-.517.199-.623.62-.239.394.432.757.257.588-.283.504-1.356-.073-1.673-.165-.09-.19.446-.338.597-.426.432-1.332 1.25-1.558 1.02-.091-.09.087-.626-.226-.743-.62-.23-.932-.604-1.53-.346-.152.066-.08.364-.274.506-.034.026-.371-.013-.372-.113-.002-.359.193-.835.019-1.217-.086-.188-.28-.245-.47-.115-.339.232-.063.653-.203.827-.527.652-.502-.37-.274-.746.074-.123-.2-.333-.088-.422.803-.646 1.942-2.969 1.816-1.762-.448 4.308 3.5 3.64 2.633-.58-.109-.53.137-.177.24-.504.348-1.098-1.24-1.658-2.081-1.325-.307.121-.111.813-.429.896-.594.156-2.706.905-3.303 1.436-.561.5-.382.709-1.097.988-1.163.455-2.221-1.651-3.073-.95-.037.031.099 1.267 0 1.19-.453-.35-.077-.596-.456-.725-.915-.312-1.765.006-2.543.35-.439.194-1.006.668-1.317 1.037-.2.235.068.508.146.74.04.115-.251.19-.203.3.225.522-.951 1.454-1.334 2.07-.24.388.042-.002.12.175.074.171-.074.587-.291.505-.848-.32-.027-.903-1.117-.21-.19.12-.428.22-.314.494.127.305.531.279.623.53.327.896-2.07 1.137-.487 3.534.112.17-.151.392-.21.604-.016.057.607 1.351.271 1.45-.066.02.043.203-.026.208-.351.024-.178-.247-.4-.158-.694.278-.26.17-.473.48-.113.167-.394.374-.549.246-.473-.392-.913-1.141-1.336-.535-.366.525.696.408.464.673-.238.27-.819-.15-.957-.481a1.63 1.63 0 0 1-.078-.218c-.018-.066-.14.035-.163.066-.074.093.168.185-.126.491-.24.251-.849.112-1.082-.052-.134-.094-.771-.847-.748-1.134.057-.7.573-.98.22-1.779-.096-.213-1.19-.725-1.39-.444-.396.555-.065.499-.512 1.186-.295.45.51 1.002 1.153 1.453.336.237.45.57.452.593.014.198.07.395.06.592-.045.94-.522 1.851.013 2.62.395.564.898 1.207 1.173 1.92.352.91.889 1.417.783 2.303-.082.68-.115 3.094 1.072 2.343.55-.35.45-1.373.73-1.877.104-.188.564-.104.667-.297.03-.059-.255-.09-.24-.169.064-.319-.045-.564.127-.74.15-.153.325.242.46.136.425-.336.987-.437 1.145-.183.257.415-.219.218.15.375.362.157.48.085.743-.05.403-.207-.057-.306.074-.723.101-.325-.05.236.219.221.306-.016.598-.965.511-1.48-.025-.152-.464-.25-.365-.371.246-.303.282-.292.153-.623-.131-.338.547-.12.799-.334.258-.22 1.046-.873 1.174-.615.435.872-.275.816.677.528.449-.137 1.617.05 1.859.346.187.228.566.67.826 1.218.3.634-.466.86-.097 1.353.136.18.505.442.51.445 1.394.6 1.532 1.267 1.928 1.813.397.545 2.03.779 1.588-.373-.073-.19-.167.05-.31-.31-.219-.56.195.054.698-.33.682-.519 1.144.303.75-.745-.032-.083.259.079.26-.01.003-.41-.237-.013-.095-.322.084-.179.119-.277.256-.15.641.595 3.346 1.697 4.256 1.42.426-.129.567.288.92.61.207.19-.357.558-.372.85-.02.393.369.317.637.605.054.057-.148.19-.078.224.27.134.148-.037.36-.065.146-.02.133.373.057.437-.236.197-.396.015-.196.252.887 1.045 1.536-.463 1.951.13.774 1.109.402 2.598.805 4.094.058.217.374-.38.512-.298.68.398.13.64 1.39.798.532.067.523.678.73 1.202.24.605 1.468 1.55 1.964 1.277.754-.412 3.027-1.07 3.86-.387.005.004 1.457 1.576 2.375.822.511-.42-.116-.966.336-1.44.352-.37.103-.595.392-.44 3.392 1.814.03-.222 2.185 1.83.811.774 1.828-.441 2.633.193.242.191.513-.148.597.22.349 1.552 3.073.242 3.988-.62.355-.332 1.838 1.084 3.328-.492.323-.342-.146-1.371.438-2 .2-.214-.695-.32-.512-.756 1.46-3.471 4.247.367 4.615.76.63.675 1.648.928 2.63 1.04 2.155.247-.546-1.099.853-.927.76.096.551-.084 1.443-.195.19-.024.21.368.375.615.573.852.456 2.312.322 3.27-.04.287-.63-.062-.85.12-.315.259-.65.515-.414.796.563.669.69 1.443.396 2.093-.073.16.114.454.29.443.296-.019.314-.64.51-.894.094-.12.064-.082.364-.417.08-.089.04.386.158.35 2.453-.765 3.17-7.125 2.071-9.139-.438-.8-.633-1.418-.692-2.28-.024-.35.354.093.617.445.432.576 2.538 5.157 3.042 4.898.386-.197-.242-.602-.147-.962.06-.225.202-.155.386-.075.482.21.526.704.566.37.158-1.317-.82-.741-1.453-1.344-.333-.318-.551-.886-.523-1.323.057-.848 1.088.212 1.214-.222.12-.416-1.918-1.56-2.268-1.87-.618-.55-1.32-1.796-2.012-2.342-.095-.075-.261.183-.216.297.057.144.386.048.414.2.075.421.056.735-.063.818-.034.025-.05.151-.107.105-.446-.364-1.947-.367-2.107-.154-.158.21.233.865-.119.96-.14.039-.146-.224-.242-.386-.074-.127.149-.357.03-.444-.303-.222-.112.152-.182.001-.202-.432-.02-1.025-.486-.667-.384.294.096.344.34.627.213.248.019.969-.05.853-.21-.341.215-.563-.087-.784-.342-.252-1.13.767-1.103.34.144-2.276.896-5.919 2.749-7.076.608-.38.552-.42.754-.522.161-.08.465.208.54.042.09-.201-.413-.41-.293-.592.246-.375.172-.125.805-.223.1-.016-.06-.28.037-.303.218-.053.251-.183.317-.01.014.035-.343.33-.133.461.625.393.806-.92.877-.962.374-.222.942-.562.585-.888-.439-.401-.432.531-.658.074-.468-.948-.716-2.287.146-3.097.198-.186.619.251.292-.386-.192-.378.908 1.194.993.865.67-2.655-1.26-2.508-.406-3.012.49-.29 1.105 1.02 1.024 1.407-.274 1.308-.226 3.28.146 4.742.396 1.55-.541 3.704 5.177 5.185 1.642.426-.068-2.48-.203-3.407-.098-.674-1.218-.555-.804-1.186.84-1.281-.94-.948-.659-1.927 0 0 .216.245.292 0 .204-.653-.818-.487-1.097-.889-.462-.663-.631-.423-.731-.147-.087.24-1.163-1.716-1.137-1.971.002-.032-.014.177.31.08.155-.046-.188-.175-.098-.298.027-.037.23.058.265-.108.094-.448-.056-.222-.147-.816-.03-.2.457.666.513.445.243-.969-.123-1.181.903-2.094.548-.488-.618-1.627-.7-2.343-.023-.198-.003-.397 0-.595 0-.003.01 0 .011-.004.017-.232-.01-.012-.01-.251-.066-.59-.29-1.217.396-1.824.105-.094-.017-.349-.148-.4-.244-.092-2.025.16-2.136.03-.023-.027.212-.492.13-.822-.154-.626-.042-.58-.478-.804-.424-.219-.398.264-.686.168-.163-.054-.223-.272-.284-.434-.015-.036.084-.039.088-.079.009-.09-.145-.267-.055-.265.756.02.367.962.969.279 1.122-1.278.552.008 1.611-1.612.067-.102.068-.096.057-.135-.048-.163-.36-.133-.413-.295-.17-.515-.392.006-.792-.243-.49-.304.202-.015.26-.647.01-.11-.321.036-.303-.073.035-.225.263-.064.225-.223-.055-.225-.188-.364-.33-.37-.5-.024-1.442.428-1.319 1.4.035.276.746-.054.798.082.055.148-2.169.596-2.857 1.006-1.768 1.056-2.204 2.152-3.059 3.068-.235.253.128.455.366.558.47.203.312-.234.732.11.098.079.07.362-.052.374-.14.014-.711.137-.68.07.146-.31.234-.32 0-.519-.326-.277-.884.096-.658.592.228.499-.148.747-.254 1.007-.024.059-.152-.02-.186.033-1.447 2.253-1.044-.388-3.361 2.266-.426.487-.44.262-1.184-.03-.73-.284-2.37.226-2.948.763-.274.254.311.083.2.332-.168.376-.376-.024-.278.52.006.033.365-.314.256-.002-.183.529.528.155.272.588-.182.308-.906.508-1.371.858-.403.302-.328-.448-.634-.367-.282.074.238 3.16-1.004.083-.517-1.278-1.086-.977-2.007-.92-.424.025.232.678-.026 1.04-.242.337-1.004.426-1.23.079-.35-.535-.974-.13-1.447-.078-.158.017-.293-.245-.254-.402.036-.143.21-.209.086-.501-.014-.033-.347-.091-.426-.027-.116.095-.147.265-.241.384-.012.014-.074.078-.044.079.273.013.67.083.437.334-.056.06.023-.063-.252-.217-.076-.047-.033-.047-.325.152zM44.48 10.85c.03-.4.292-1.46.636-1.397 1.316.241.141 1.426-.64 1.465-.02 0 .001-.045.004-.068zm19.683-7.187c.124.177.11.417.066.618-.503 2.286-.815-1.689-.066-.618zm-9.78 8.216c-.01-.092.157-.153.245-.126.139.044.172.299.192.237.177-.519 1.033.193 1.025.206-.2.34-.854.848-1.082.528-.254-.356.07-.221.043-.573-.001-.04-.065.031-.067.03-.276-.019-.328-.017-.356-.302zm-23.353-.653c0-.004.012.011.01.008-.29-1.638 1.29-1.303 2.151-1.884 1.086-.732 1.638-.343 2.407-.49.904-.174.71.526 1.536.502 1.508-.044.758.851-.246.64-4.418-.935-4.847 2.184-5.16 2.404-.383.268-.603-.225-.698-1.18zm12.59-3.372c.099-.181.356-.502.621-.394.257.105.035.382.287.587.068.057-.018.066-.073.15-.084.13-.168.323-.09.455.076.127.307-.065.373.073.198.416.307.897-.117 1.292-.392.365-.584-.49-1.02-.728-.83-.453-.221-.99.02-1.435zm-15.477 3.231c.867-.936 1.446.947.073.568-.19-.052-.262-.364-.073-.568zM9.412 6.412c-.547.027-.565-1.301-.415-1.88.049-.184.398-.143.561-.05.207.118.618.43.495.585-.115.144-.33-.213-.351-.057-.061.414 1.378 1.32-.29 1.402zm44.117 3.636c1.18-.26 1.576.172.738 1.332-.84 1.164-2.17-.828-.642-.864.159-.003-.249-.435-.096-.468zM66.154 29.35c-.016-.224.662.49.435.758-.301.357-.058-.156-.488-.43-.136-.085.058-.253.053-.328z"></path><path fill="#FF9D00" d="M43.209 30.274l-3.544 1.887a.7.7 0 0 1-1.019-.735l.681-4.02a.7.7 0 0 0-.198-.616l-2.891-2.853a.7.7 0 0 1 .39-1.19l3.98-.587a.7.7 0 0 0 .527-.385l1.773-3.64a.7.7 0 0 1 1.259 0l1.774 3.64a.7.7 0 0 0 .527.385l3.98.586a.7.7 0 0 1 .39 1.19l-2.891 2.854a.7.7 0 0 0-.199.615l.681 4.02a.7.7 0 0 1-1.019.736l-3.543-1.887a.7.7 0 0 0-.658 0z"></path></g></svg><svg width="41" height="34" viewBox="0 0 41 34" id="sales-car" y="728"><g fill="#FFF"><path d="M34.692 20.09c.87 0 1.577.694 1.577 1.546 0 .853-.707 1.546-1.577 1.546H30.75a.782.782 0 0 1-.788-.773v-1.545c0-.426.353-.773.788-.773h3.942zm0-1.545H30.75c-1.306 0-2.365 1.038-2.365 2.319v1.545c0 1.28 1.059 2.318 2.365 2.318h3.942c1.742 0 3.154-1.384 3.154-3.09 0-1.708-1.412-3.092-3.154-3.092zM10.25 20.09c.435 0 .788.348.788.774v1.545a.782.782 0 0 1-.788.773H6.308c-.87 0-1.577-.693-1.577-1.546 0-.852.707-1.545 1.577-1.545h3.942zm0-1.545H6.308c-1.742 0-3.154 1.384-3.154 3.091 0 1.707 1.412 3.091 3.154 3.091h3.942c1.306 0 2.365-1.038 2.365-2.318v-1.545c0-1.28-1.059-2.319-2.365-2.319z"></path><path d="M41 12.364v-1.546c0-.853-.706-1.545-1.577-1.545h-1.697C36.203 4.782 33.404 0 28.385 0h-15.77C7.596 0 4.797 4.782 3.274 9.273H1.577C.706 9.273 0 9.965 0 10.818v1.546c0 1.24.753 2.297 1.83 2.787-.049.299-.09.57-.123.805C.25 16.918 0 18.263 0 20.09v9.273c0 .853.706 1.545 1.577 1.545C1.577 32.616 2.989 34 4.73 34h3.154c1.741 0 3.153-1.384 3.153-3.09h18.924c0 1.706 1.412 3.09 3.153 3.09h3.154c1.742 0 3.154-1.384 3.154-3.09.871 0 1.577-.693 1.577-1.546V20.09c0-1.828-.25-3.173-1.707-4.135a38.112 38.112 0 0 0-.123-.805c1.077-.49 1.83-1.546 1.83-2.787zM12.615 1.545h15.77c3.18 0 5.725 2.501 7.566 7.433.861 2.306 1.353 4.62 1.622 6.196-2.82-.9-7.908-1.265-17.073-1.265s-14.254.364-17.073 1.265c.269-1.576.76-3.89 1.622-6.196 1.841-4.932 4.387-7.433 7.566-7.433zM1.577 12.364v-1.546h1.22a37.938 37.938 0 0 0-.655 2.676c-.336-.275-.565-.666-.565-1.13zm23.654 17H15.77v-3.091h9.46v3.09zm14.192-9.273v9.273h-1.577v1.545c0 .852-.707 1.546-1.577 1.546h-3.154c-.87 0-1.577-.694-1.577-1.546v-1.545h-4.73V25.5a.78.78 0 0 0-.789-.773H14.981a.78.78 0 0 0-.789.773v3.864h-4.73v1.545c0 .852-.708 1.546-1.577 1.546H4.73c-.87 0-1.577-.694-1.577-1.546v-1.545H1.577V20.09c0-3.087 0-4.636 18.923-4.636s18.923 1.549 18.923 4.636zm0-7.727c0 .464-.23.855-.565 1.13a38.218 38.218 0 0 0-.654-2.676h1.22v1.546z"></path></g></svg><svg width="40" height="40" viewBox="0 0 40 40" id="sales-hand" y="762"><g fill="#FFF"><path d="M39.912 32.552c-1.156-2.205-3.72-3.328-6.228-2.73l-5.401 1.287c-.24-1.983-1.472-3.153-3.936-3.742l-14.458-3.06c.045-.3.08-.588.105-.856a.775.775 0 0 0-.256-.647c-1.429-1.289-7.14-1.706-8.856-1.803a.873.873 0 0 0-.62.214.776.776 0 0 0-.262.578v14.288c0 .438.373.793.833.793h5c.36 0 .68-.22.792-.546.021-.065.136-.398.306-.916l11.941 3.793c1.4.503 2.368.795 3.453.795 1.69-.002 3.67-.705 8.02-2.402l9.166-3.969a.817.817 0 0 0 .441-.457.762.762 0 0 0-.04-.62zM5.225 35.287H1.667V22.644c2.678.202 5.568.64 6.62 1.126-.444 3.476-2.442 9.653-3.062 11.517zm24.46.854c-7.007 2.737-7.252 2.648-10.253 1.568l-12.01-3.813c.684-2.16 1.637-5.366 2.184-8.02l14.357 3.039c1.845.438 2.589 1.132 2.69 2.58l-1.6.382a4.407 4.407 0 0 1-1.828.041l-7.231-1.378c-.43-.089-.888.192-.98.623-.09.43.203.847.655.933l7.231 1.378a6.138 6.138 0 0 0 2.558-.059l2.235-.532h.01l6.385-1.52c1.458-.343 2.94.14 3.858 1.2l-8.261 3.578z"></path><path d="M11.853 15.353h2.559v7.676a.853.853 0 0 0 1.706 0V14.5a.853.853 0 0 0-.853-.853h-1.353L25.5 2.06l11.59 11.587h-1.353a.853.853 0 0 0-.853.853v13.647a.853.853 0 0 0 1.706 0V15.353h2.559a.852.852 0 0 0 .602-1.457L26.102.25a.854.854 0 0 0-1.206 0L11.25 13.896a.853.853 0 1 0 .604 1.457z"></path><path d="M29.2 28c.442 0 .8-.373.8-.833v-8.334c0-.46-.358-.833-.8-.833h-6.4c-.442 0-.8.373-.8.833v5c0 .46.358.834.8.834.442 0 .8-.374.8-.834v-4.166h4.8v7.5c0 .46.358.833.8.833z"></path></g></svg><svg width="42" height="46" viewBox="0 0 42 46" id="sales-home" y="802"><path fill="#FFF" fill-rule="evenodd" d="M18.931 0a.787.787 0 0 0-.576.245L.22 19.26c-.48.504-.124 1.34.57 1.34h2.365v21.392a.79.79 0 0 0 .789.792h21.289V41.2h-1.577V27.73a.79.79 0 0 0-.789-.792h-7.885a.79.79 0 0 0-.788.793V41.2H4.732V20.6h28.385v2.377h1.577V20.6h2.366c.694 0 1.05-.836.57-1.34l-2.936-3.077V7.131a.79.79 0 0 0-.788-.793h-3.154a.79.79 0 0 0-.789.793v4.091L19.495.245A.787.787 0 0 0 18.93 0zm-.006 1.937l16.287 17.078H2.638L18.925 1.937zM31.54 7.923h1.577v6.605l-1.595-1.672a.797.797 0 0 0 .018-.18V7.924zm2.93 15.902c-2.993 0-5.418 2.476-5.418 5.506v8.95l-.114.068c-.285.17-.744.414-1.121.814a3.765 3.765 0 0 0-.98 2.133c-.033.306-.028.65-.028.866V46H42v-4.351c-.011-1.04-.43-2.02-1.176-2.68-.25-.223-.51-.366-.68-.468l-.26-.155v-9.021a5.516 5.516 0 0 0-2.731-4.788h-.003a6.18 6.18 0 0 0-.351-.186h-.014c-.095-.044-.202-.095-.326-.142a5.372 5.372 0 0 0-1.99-.384zm0 1.584c.5 0 .975.099 1.413.273h.006c.064.025.141.062.228.102.09.044.17.084.243.127h.004a3.916 3.916 0 0 1 1.943 3.414v8.077l-1.001-.597a.87.87 0 0 1-.419-.749v-.997c.009-.011.02-.022.028-.034.562-.79.896-1.775.896-2.776v-3.466l-.588-.158c-.396-.105-.604-.226-1.097-.492l-.024-.019c-.469-.39-1.212-.386-1.67.019-.01.016-.394.149-.902.16-.509.017-1.094-.04-1.592-.04h-.721l-.09 1.003v2.993c0 .932.296 1.844.79 2.603v.814c0 .562-.292 1.076-.759 1.356l-.53.315v-8.006c0-2.19 1.706-3.922 3.841-3.922zm1.632 2.705c.009.008.021.01.03.019l-.15-.105.12.086zm-20.331.409h6.308V41.2H15.77V28.523zm19.422.873v.006l.043.022.114.061c.254.137.587.268.884.406v.328c0 .016-.003.032-.003.043l.003.037.012.112a.73.73 0 0 1-.009-.059c-.003-.033-.003-.041-.003-.053v1.944c0 .63-.24 1.348-.6 1.854s-.786.758-1.165.758c-.378 0-.804-.252-1.164-.758a3.392 3.392 0 0 1-.6-1.854v-1.934c0-.016.003-.036.003-.047l-.003-.018v-.393c.293.015.525.03.859.021a3.21 3.21 0 0 0 1.63-.476zm-1.77 6.8c.324.145.667.25 1.046.25.31 0 .596-.07.869-.17.07.778.486 1.487 1.161 1.89l.554.332c-.074.884-.551 1.68-1.312 2.114a2.55 2.55 0 0 1-2.633-.05c-.737-.46-1.179-1.267-1.226-2.145l.083-.05c.79-.472 1.3-1.275 1.457-2.172zm-3.013 3.1a4.25 4.25 0 0 0 1.863 2.61 4.142 4.142 0 0 0 4.248.083 4.255 4.255 0 0 0 1.995-2.615l.82.489c.152.092.412.266.443.294.378.335.637.895.644 1.51v2.745H28.386V42.16c0-.212.006-.555.019-.684.06-.488.264-.927.554-1.235.068-.071.512-.383.783-.544l.668-.4z"></path></svg><svg width="47" height="29" viewBox="0 0 47 29" id="sales-hypothec" y="848"><path fill="#FFF" fill-rule="evenodd" d="M15.943 26.594V28H2.073v-1.406h6.175V4.782c0-.43.019-.887.057-1.368L2.377 8.677c-.177.152-.355.209-.532.171a.75.75 0 0 1-.418-.228l-.551-.76 7.771-6.859h1.425v25.593h5.871zM32.245 7.575c0 1.102-.152 2.074-.456 2.917-.304.842-.716 1.542-1.235 2.099a5.155 5.155 0 0 1-1.805 1.264 5.575 5.575 0 0 1-2.166.427 5.743 5.743 0 0 1-2.213-.427 4.954 4.954 0 0 1-1.796-1.264c-.507-.557-.906-1.257-1.197-2.1-.291-.842-.437-1.814-.437-2.916 0-1.115.146-2.096.437-2.945.291-.849.69-1.555 1.197-2.118a4.904 4.904 0 0 1 1.796-1.274 5.743 5.743 0 0 1 2.213-.427c.785 0 1.52.142 2.204.427a5.01 5.01 0 0 1 1.796 1.274c.513.563.918 1.27 1.215 2.118.298.849.447 1.83.447 2.945zm-1.444 0c0-.975-.11-1.811-.332-2.508-.222-.697-.526-1.27-.913-1.72a3.514 3.514 0 0 0-1.348-.987 4.264 4.264 0 0 0-1.625-.314c-.57 0-1.108.104-1.615.314-.507.209-.95.538-1.33.988-.38.45-.68 1.022-.902 1.719-.222.697-.333 1.533-.333 2.508 0 .975.11 1.808.333 2.499.221.69.522 1.257.902 1.7.38.443.823.77 1.33.978a4.193 4.193 0 0 0 1.615.314c.57 0 1.111-.104 1.625-.314a3.554 3.554 0 0 0 1.349-.978c.386-.443.69-1.01.912-1.7.221-.69.332-1.524.332-2.499zm11.647-6.118a.932.932 0 0 1 .276-.247.838.838 0 0 1 .427-.095h1.273L25.12 27.658a.78.78 0 0 1-.665.342h-1.292L42.448 1.457zm4.313 20.159c0 1.102-.152 2.074-.456 2.916-.304.843-.712 1.543-1.225 2.1a5.064 5.064 0 0 1-1.796 1.263 5.575 5.575 0 0 1-2.166.428 5.743 5.743 0 0 1-2.214-.428 4.954 4.954 0 0 1-1.795-1.263c-.507-.557-.906-1.257-1.197-2.1-.291-.842-.437-1.814-.437-2.916 0-1.115.146-2.096.437-2.945.291-.849.69-1.555 1.197-2.118a4.904 4.904 0 0 1 1.795-1.274 5.743 5.743 0 0 1 2.214-.427c.785 0 1.52.142 2.204.427a5.01 5.01 0 0 1 1.795 1.274c.514.563.916 1.27 1.207 2.118.291.849.437 1.83.437 2.945zm-1.444 0c0-.975-.11-1.814-.333-2.517-.221-.704-.522-1.28-.902-1.73a3.438 3.438 0 0 0-1.34-.987 4.264 4.264 0 0 0-1.624-.314c-.57 0-1.111.104-1.625.314a3.433 3.433 0 0 0-1.339.988c-.38.45-.68 1.025-.903 1.729-.221.703-.332 1.542-.332 2.517 0 .975.11 1.808.333 2.498.221.69.522 1.258.902 1.701.38.443.826.766 1.34.969a4.38 4.38 0 0 0 1.624.304 4.38 4.38 0 0 0 1.624-.304 3.39 3.39 0 0 0 1.34-.969c.38-.443.68-1.01.902-1.7.222-.69.333-1.524.333-2.499z"></path></svg><svg width="39" height="39" viewBox="0 0 39 39" id="sales-money" y="877"><path fill="#FFF" d="M.696 34.821h8.358a.697.697 0 0 0 .696-.696h3.482a.697.697 0 0 0 .697-.696v-.697h1.34l-.625 2.625c-.08.336.099.68.42.808l3.043 1.217v.922c0 .384.312.696.697.696h17.41a.697.697 0 0 0 .697-.696v-4.975A2.783 2.783 0 0 0 39 30.644a2.77 2.77 0 0 0-.962-2.09A2.768 2.768 0 0 0 39 26.465c0-.835-.377-1.578-.962-2.089a2.768 2.768 0 0 0 .962-2.09 2.77 2.77 0 0 0-.962-2.089 2.768 2.768 0 0 0 .962-2.09 2.783 2.783 0 0 0-2.09-2.687V.696A.697.697 0 0 0 36.215 0h-17.41c-.048 0-.09.018-.134.027l-.003-.013-3.482.696a.698.698 0 0 0-.497.971l3.42 7.523v1.242h-4.18V9.75a.697.697 0 0 0-.696-.696H9.75a.697.697 0 0 0-.696-.697H.696A.697.697 0 0 0 0 9.054v25.071c0 .384.312.696.696.696zm15.442.273l1.97-8.27v9.058l-1.97-.788zm9.438-19.127a2.741 2.741 0 0 0 1.017-.407l.062-.041c.137-.095.267-.2.385-.318l.002-.001a2.797 2.797 0 0 0 .375-.477c.017-.028.037-.051.053-.08a4.846 4.846 0 0 1 3.078.792c-.064.02-.123.049-.185.072-.054.02-.107.039-.16.062-.12.054-.234.117-.344.187-.03.018-.06.033-.09.052a2.745 2.745 0 0 0-.38.314c-.03.03-.055.063-.083.094-.084.09-.163.184-.235.284-.033.046-.063.096-.093.145a2.765 2.765 0 0 0-.332.787c-.013.052-.03.103-.04.156a2.72 2.72 0 0 0-.052.52c0 .2.023.394.064.583.013.063.039.12.056.182.036.122.07.244.121.359.03.068.071.13.107.196.054.1.107.197.172.29.046.063.1.12.15.18.07.083.14.163.218.236.02.02.036.044.057.062-.021.018-.037.042-.057.061a2.796 2.796 0 0 0-.218.236c-.05.06-.104.117-.15.181-.065.091-.118.19-.172.29-.036.065-.076.127-.107.196-.05.115-.085.236-.12.358-.02.062-.044.12-.057.183-.04.19-.064.384-.064.585 0 .185.02.367.055.543.002.014.006.027.009.04.011.055.033.105.048.158.03.105.057.21.097.31.01.025.022.05.033.073.025.058.058.108.087.163.04.076.077.152.123.223.022.034.046.067.07.1.038.053.08.102.122.152.03.036.053.076.085.11a4.804 4.804 0 0 1-1.426.217 4.88 4.88 0 0 1-4.875-4.875c0-1.31.534-2.566 1.472-3.482h.617c.172 0 .34-.021.505-.051zm2.281 9.8c.272 0 .543-.02.812-.055-.016.057-.04.11-.052.169a2.75 2.75 0 0 0 .001 1.167c.013.063.039.121.056.182.036.122.07.244.121.359.03.068.071.13.107.196.054.1.107.198.172.29.046.064.1.12.15.18.07.083.14.163.218.237.02.018.036.043.057.06-.021.019-.037.043-.057.062a2.796 2.796 0 0 0-.218.236c-.05.06-.104.117-.15.181a2.8 2.8 0 0 0-.172.29c-.036.066-.076.127-.107.196-.05.115-.085.237-.12.358-.02.062-.044.12-.057.183a2.789 2.789 0 0 0 2.722 3.37h2.183a5.579 5.579 0 0 0-2.831 4.18h-6.365A5.577 5.577 0 0 0 19.5 32.78V16.018h3.162a6.241 6.241 0 0 0-1.073 3.482 6.276 6.276 0 0 0 6.268 6.268zM19.5 37.608v-3.424a4.19 4.19 0 0 1 3.424 3.424H19.5zm16.018 0h-3.424a4.19 4.19 0 0 1 3.424-3.424v3.424zm2.09-6.964c0 .768-.626 1.393-1.394 1.393H31.34a1.394 1.394 0 0 1-1.393-1.393c0-.768.625-1.393 1.393-1.393h4.875c.768 0 1.393.625 1.393 1.393zm0-4.179c0 .768-.626 1.393-1.394 1.393H31.34a1.394 1.394 0 0 1-1.393-1.393c0-.768.625-1.393 1.393-1.393h4.875c.768 0 1.393.625 1.393 1.393zm0-4.178c0 .768-.626 1.393-1.394 1.393H31.34c-.136 0-.265-.026-.39-.063-.007-.003-.013-.008-.02-.01a1.407 1.407 0 0 1-.705-.494c-.002-.004-.007-.007-.01-.011a1.377 1.377 0 0 1-.182-.35c-.008-.022-.015-.047-.022-.07a1.378 1.378 0 0 1-.064-.395c0-.768.625-1.393 1.393-1.393h4.875c.768 0 1.393.625 1.393 1.393zm0-4.179c0 .768-.626 1.393-1.394 1.393H31.34a1.394 1.394 0 0 1-1.393-1.393c0-.768.625-1.393 1.393-1.393h4.875c.768 0 1.393.625 1.393 1.393zm-2.09-16.714v3.424a4.19 4.19 0 0 1-3.424-3.424h3.424zm-16.018 0h3.424A4.19 4.19 0 0 1 19.5 4.817V1.393zm-3.181.51l1.788-.357V5.84L16.32 1.903zM19.5 6.22a5.577 5.577 0 0 0 4.827-4.827h6.365a5.577 5.577 0 0 0 4.827 4.827v9.101h-3.006a6.229 6.229 0 0 0-4.655-2.089 2.789 2.789 0 0 0-2.786-2.786h-5.571V6.22H19.5zm-.696 5.62h6.267c.769 0 1.393.624 1.393 1.392 0 .18-.037.35-.099.508l-.002.003a1.41 1.41 0 0 1-.196.34l-.04.048c-.08.094-.169.18-.27.25-.002 0-.003.003-.006.004a1.392 1.392 0 0 1-.412.184 1.36 1.36 0 0 1-.368.056h-6.267a.697.697 0 0 0-.697.696v5.49L15.601 31.34h-1.672v-19.5h4.875zm-6.268-1.394v22.286H9.75V10.446h2.786zM1.393 9.75h6.964v23.679H1.393V9.75z"></path></svg><svg width="47" height="47" viewBox="0 0 47 47" id="sales-ring" y="916"><path fill="none" stroke="#FFF" stroke-width="1.3" d="M29.554 32.923c0 .311.045.616.127.909a12.082 12.082 0 0 1-12.362 0 3.35 3.35 0 0 0-.861-3.294 3.349 3.349 0 0 0-3.293-.862 12.09 12.09 0 0 1 0-12.364 3.349 3.349 0 0 0 3.293-.862 3.35 3.35 0 0 0 .861-3.294 12.042 12.042 0 0 1 6.18-1.702c2.144 0 4.286.569 6.182 1.703a3.35 3.35 0 0 0 .861 3.294 3.347 3.347 0 0 0 3.293.86 12.09 12.09 0 0 1 0 12.365 3.347 3.347 0 0 0-3.293.862 3.35 3.35 0 0 0-.988 2.385m9.747-26.704c.376 0 .753.144 1.04.43a1.473 1.473 0 0 1 0 2.08l-6.375 6.377a1.472 1.472 0 0 1-2.08 0 1.472 1.472 0 0 1 0-2.08l6.375-6.377c.287-.286.663-.43 1.04-.43m-32.642.43a1.469 1.469 0 0 1 2.08 0l6.375 6.377c.277.278.43.647.43 1.04 0 .392-.153.761-.43 1.04a1.472 1.472 0 0 1-2.08 0L6.66 8.729a1.473 1.473 0 0 1 0-2.08m0 33.69a1.473 1.473 0 0 1 0-2.08l6.375-6.376c.287-.287.664-.43 1.04-.43a1.465 1.465 0 0 1 1.47 1.47c0 .392-.153.762-.43 1.04L8.74 40.339a1.472 1.472 0 0 1-2.08 0m33.681 0a1.472 1.472 0 0 1-2.079 0l-6.375-6.377a1.472 1.472 0 0 1 0-2.08 1.469 1.469 0 0 1 2.08 0l6.374 6.377a1.473 1.473 0 0 1 0 2.08m1.277-30.197l.068-.068a3.376 3.376 0 0 0 0-4.77 3.374 3.374 0 0 0-4.768 0l-.07.07c-7.904-5.832-18.79-5.832-26.694 0l-.07-.07a3.375 3.375 0 0 0-4.768 0 3.377 3.377 0 0 0 0 4.77l.068.068C2.538 13.987 1 18.622 1 23.494S2.538 33 5.383 36.846l-.068.069a3.377 3.377 0 0 0 0 4.77c.657.656 1.52.985 2.384.985a3.36 3.36 0 0 0 2.384-.986l.068-.068C13.995 44.46 18.629 46 23.5 46c4.87 0 9.505-1.539 13.349-4.384l.068.068a3.36 3.36 0 0 0 2.384.986 3.36 3.36 0 0 0 2.384-.986 3.376 3.376 0 0 0 0-4.77l-.068-.068C44.462 33.001 46 28.366 46 23.494s-1.538-9.507-4.383-13.352"></path></svg><svg width="47" height="45" viewBox="0 0 47 45" id="sweet-home" y="963"><g fill="none"><path fill="#FF9D00" d="M24.272 9.914h3.683v3.691h-3.683zm-5.507 5.555h3.683v3.691h-3.683zm5.507 0h3.683v3.691h-3.683zm-5.507-5.555h3.683v3.691h-3.683z"></path><path fill="#3863C5" d="M46.263 21.375L24.166.387l-.07-.07-.105-.106c-.035-.035-.07-.035-.105-.07-.035-.036-.07-.036-.14-.07-.036 0-.07-.036-.14-.036-.036 0-.07-.035-.141-.035h-.561c-.035 0-.07.035-.14.035-.036 0-.106.035-.14.035-.036 0-.071.035-.141.07-.035.036-.07.036-.105.07-.035.036-.07.071-.106.071.035.07 0 .07-.035.106L.737 20.812a1.436 1.436 0 0 0-.07 2.004c.28.282.63.457 1.017.457.35 0 .701-.14.982-.386l2.63-2.496v23.203c0 .422.176.808.491 1.09.246.21.562.316.912.316.07 0 .176 0 .246-.035a89.627 89.627 0 0 0 9.926-2.356c.736-.21 1.157-1.02.947-1.757-.21-.739-1.017-1.16-1.754-.95a85.146 85.146 0 0 1-7.962 1.97V17.718L23.22 3.339l15.714 14.907v23.625c-4.49-.914-8.523-2.039-11.996-3.34 9.295-5.097 8.91-10.441 7.717-13.324-.702-1.723-2.315-2.883-4.35-3.129-2.35-.281-4.84.738-6.769 2.672-1.929-1.934-4.42-2.953-6.77-2.672-2.034.246-3.647 1.406-4.349 3.129-.912 2.285-.771 4.64.421 6.82 3.052 5.59 13.013 10.336 27.288 12.938.07 0 .176.035.246.035.316 0 .631-.105.912-.316.316-.282.49-.668.49-1.09V20.918l2.631 2.496c.281.246.632.387.983.387.385 0 .736-.14 1.017-.457a1.467 1.467 0 0 0-.14-1.969zm-31.04 9.316c-.807-1.476-.877-2.918-.281-4.394.315-.774 1.087-1.266 2.104-1.371 1.438-.176 3.613.492 5.297 2.847 0 .036.035.036.07.07l.105.106.105.106c.035 0 .035.035.07.035 0 0 .035 0 .035.035.035.035.07.07.14.07.036.035.07.035.106.07.035 0 .07.036.14.036.035 0 .105.035.14.035h.561c.036 0 .07-.035.141-.035.035 0 .105-.035.14-.035.035 0 .07-.036.105-.07.036-.036.106-.036.14-.071 0 0 .036 0 .036-.035.035 0 .035-.035.07-.035l.105-.106.105-.105c0-.035.036-.035.07-.07 1.72-2.356 3.859-3.024 5.297-2.848 1.017.105 1.789.633 2.104 1.37 2 4.923-4.279 8.825-8.523 10.829-4.209-1.969-7.12-4.148-8.383-6.434z"></path></g></svg><svg width="52" height="52" viewBox="0 0 52 52" id="twitter" y="1008"><g fill="none" fill-rule="evenodd" transform="translate(1 1)"><circle cx="25" cy="25" r="25" stroke="#3863C5" opacity=".6"></circle><path fill="#3863C5" d="M36 18.083c-.81.354-1.68.593-2.592.7a4.47 4.47 0 0 0 1.984-2.458 9.123 9.123 0 0 1-2.866 1.078A4.54 4.54 0 0 0 29.232 16c-2.493 0-4.514 1.99-4.514 4.443 0 .348.04.687.117 1.013a12.882 12.882 0 0 1-9.303-4.643 4.37 4.37 0 0 0-.611 2.234c0 1.541.796 2.901 2.008 3.698a4.55 4.55 0 0 1-2.045-.556v.056c0 2.153 1.556 3.949 3.62 4.357a4.586 4.586 0 0 1-2.038.076c.574 1.765 2.241 3.05 4.216 3.086a9.147 9.147 0 0 1-5.605 1.902c-.365 0-.724-.021-1.077-.062a12.922 12.922 0 0 0 6.919 1.996c8.302 0 12.842-6.77 12.842-12.642 0-.193-.005-.384-.013-.575a9.09 9.09 0 0 0 2.252-2.3z" opacity=".7"></path></g></svg><svg width="52" height="52" viewBox="0 0 52 52" id="twitter-hover" y="1060"><g fill="none" fill-rule="evenodd"><circle cx="25" cy="25" r="25" fill="#3863C5"></circle><path fill="#FFF" d="M36 18.083c-.81.354-1.68.593-2.592.7a4.47 4.47 0 0 0 1.984-2.458 9.123 9.123 0 0 1-2.866 1.078A4.54 4.54 0 0 0 29.232 16c-2.493 0-4.514 1.99-4.514 4.443 0 .348.04.687.117 1.013a12.882 12.882 0 0 1-9.303-4.643 4.37 4.37 0 0 0-.611 2.234c0 1.541.796 2.901 2.008 3.698a4.55 4.55 0 0 1-2.045-.556v.056c0 2.153 1.556 3.949 3.62 4.357a4.586 4.586 0 0 1-2.038.076c.574 1.765 2.241 3.05 4.216 3.086a9.147 9.147 0 0 1-5.605 1.902c-.365 0-.724-.021-1.077-.062a12.922 12.922 0 0 0 6.919 1.996c8.302 0 12.842-6.77 12.842-12.642 0-.193-.005-.384-.013-.575a9.09 9.09 0 0 0 2.252-2.3z"></path></g></svg><svg width="52" height="52" viewBox="0 0 52 52" id="vk" y="1112"><g fill="none" fill-rule="evenodd" transform="translate(1 1)"><circle cx="25" cy="25" r="25" stroke="#3863C5" opacity=".6"></circle><path fill="#3863C5" fill-rule="nonzero" d="M38.354 30.908a1.837 1.837 0 0 0-.093-.176c-.477-.843-1.389-1.878-2.735-3.106l-.028-.028-.014-.014-.015-.014h-.014c-.611-.571-.998-.956-1.16-1.152-.296-.375-.363-.755-.2-1.139.114-.29.544-.904 1.288-1.84.391-.497.702-.895.93-1.195 1.652-2.155 2.368-3.532 2.148-4.132l-.085-.14c-.057-.084-.205-.162-.444-.232-.239-.07-.544-.082-.916-.035l-4.124.028a.545.545 0 0 0-.286.007l-.186.042-.072.035-.057.043a.632.632 0 0 0-.158.147.96.96 0 0 0-.143.246 22.762 22.762 0 0 1-1.532 3.162 29.866 29.866 0 0 1-.974 1.51c-.295.427-.544.741-.744.942-.2.202-.382.363-.544.485-.162.122-.286.174-.372.155a10.658 10.658 0 0 1-.244-.057.941.941 0 0 1-.322-.344 1.52 1.52 0 0 1-.165-.548 5.933 5.933 0 0 1-.05-.57 11.67 11.67 0 0 1 .008-.674c.01-.29.014-.487.014-.59 0-.356.007-.743.021-1.16.015-.416.026-.747.036-.99.01-.244.014-.501.014-.773s-.016-.485-.05-.64a2.16 2.16 0 0 0-.15-.45.761.761 0 0 0-.293-.337 1.672 1.672 0 0 0-.48-.19c-.506-.112-1.15-.173-1.933-.182-1.775-.019-2.916.094-3.422.337-.2.103-.382.244-.544.422-.172.206-.196.319-.072.337.573.084.979.286 1.217.604l.086.17c.067.12.134.336.2.646.068.309.11.65.13 1.025.047.684.047 1.27 0 1.757a20.77 20.77 0 0 1-.136 1.138 2.248 2.248 0 0 1-.194.66 2.772 2.772 0 0 1-.172.31.244.244 0 0 1-.071.07 1.09 1.09 0 0 1-.387.07c-.134 0-.296-.065-.487-.196a3.411 3.411 0 0 1-.594-.541 7.236 7.236 0 0 1-.694-.963 16.7 16.7 0 0 1-.802-1.462l-.23-.407a34.808 34.808 0 0 1-.586-1.145 21.88 21.88 0 0 1-.659-1.455.928.928 0 0 0-.343-.45l-.072-.042a.986.986 0 0 0-.229-.12 1.542 1.542 0 0 0-.33-.09l-3.922.027c-.401 0-.673.09-.817.267l-.057.085a.447.447 0 0 0-.043.225c0 .103.029.23.086.379a46.01 46.01 0 0 0 1.868 3.822c.673 1.228 1.258 2.216 1.754 2.966.497.75 1.003 1.457 1.518 2.122.515.665.857 1.091 1.024 1.278.167.188.298.328.394.422l.358.337c.229.225.565.495 1.009.808.444.314.935.623 1.475.928.54.304 1.167.553 1.883.745.716.192 1.412.27 2.09.232h1.647c.334-.028.587-.132.759-.31l.057-.07a.922.922 0 0 0 .107-.26 1.42 1.42 0 0 0 .05-.386c-.01-.403.021-.766.093-1.089.071-.323.153-.567.244-.73.09-.165.193-.303.307-.415a1.24 1.24 0 0 1 .244-.204.944.944 0 0 1 .114-.05c.23-.074.499-.002.81.219.31.22.6.492.873.815.272.323.599.686.98 1.089.383.403.717.702 1.003.9l.286.168c.191.113.44.216.745.31.305.093.572.116.802.07l3.665-.057c.362 0 .644-.058.845-.175.2-.117.32-.246.358-.387.038-.14.04-.3.007-.478a1.738 1.738 0 0 0-.1-.372z" opacity=".7"></path></g></svg><svg width="52" height="52" viewBox="0 0 52 52" id="vk-hover" y="1164"><g fill="none" fill-rule="evenodd"><circle cx="25" cy="25" r="25" fill="#3863C5"></circle><path fill="#FFF" fill-rule="nonzero" d="M38.354 30.908a1.837 1.837 0 0 0-.093-.176c-.477-.843-1.389-1.878-2.735-3.106l-.028-.028-.014-.014-.015-.014h-.014c-.611-.571-.998-.956-1.16-1.152-.296-.375-.363-.755-.2-1.139.114-.29.544-.904 1.288-1.84.391-.497.702-.895.93-1.195 1.652-2.155 2.368-3.532 2.148-4.132l-.085-.14c-.057-.084-.205-.162-.444-.232-.239-.07-.544-.082-.916-.035l-4.124.028a.545.545 0 0 0-.286.007l-.186.042-.072.035-.057.043a.632.632 0 0 0-.158.147.96.96 0 0 0-.143.246 22.762 22.762 0 0 1-1.532 3.162 29.866 29.866 0 0 1-.974 1.51c-.295.427-.544.741-.744.942-.2.202-.382.363-.544.485-.162.122-.286.174-.372.155a10.658 10.658 0 0 1-.244-.057.941.941 0 0 1-.322-.344 1.52 1.52 0 0 1-.165-.548 5.933 5.933 0 0 1-.05-.57 11.67 11.67 0 0 1 .008-.674c.01-.29.014-.487.014-.59 0-.356.007-.743.021-1.16.015-.416.026-.747.036-.99.01-.244.014-.501.014-.773s-.016-.485-.05-.64a2.16 2.16 0 0 0-.15-.45.761.761 0 0 0-.293-.337 1.672 1.672 0 0 0-.48-.19c-.506-.112-1.15-.173-1.933-.182-1.775-.019-2.916.094-3.422.337-.2.103-.382.244-.544.422-.172.206-.196.319-.072.337.573.084.979.286 1.217.604l.086.17c.067.12.134.336.2.646.068.309.11.65.13 1.025.047.684.047 1.27 0 1.757a20.77 20.77 0 0 1-.136 1.138 2.248 2.248 0 0 1-.194.66 2.772 2.772 0 0 1-.172.31.244.244 0 0 1-.071.07 1.09 1.09 0 0 1-.387.07c-.134 0-.296-.065-.487-.196a3.411 3.411 0 0 1-.594-.541 7.236 7.236 0 0 1-.694-.963 16.7 16.7 0 0 1-.802-1.462l-.23-.407a34.808 34.808 0 0 1-.586-1.145 21.88 21.88 0 0 1-.659-1.455.928.928 0 0 0-.343-.45l-.072-.042a.986.986 0 0 0-.229-.12 1.542 1.542 0 0 0-.33-.09l-3.922.027c-.401 0-.673.09-.817.267l-.057.085a.447.447 0 0 0-.043.225c0 .103.029.23.086.379a46.01 46.01 0 0 0 1.868 3.822c.673 1.228 1.258 2.216 1.754 2.966.497.75 1.003 1.457 1.518 2.122.515.665.857 1.091 1.024 1.278.167.188.298.328.394.422l.358.337c.229.225.565.495 1.009.808.444.314.935.623 1.475.928.54.304 1.167.553 1.883.745.716.192 1.412.27 2.09.232h1.647c.334-.028.587-.132.759-.31l.057-.07a.922.922 0 0 0 .107-.26 1.42 1.42 0 0 0 .05-.386c-.01-.403.021-.766.093-1.089.071-.323.153-.567.244-.73.09-.165.193-.303.307-.415a1.24 1.24 0 0 1 .244-.204.944.944 0 0 1 .114-.05c.23-.074.499-.002.81.219.31.22.6.492.873.815.272.323.599.686.98 1.089.383.403.717.702 1.003.9l.286.168c.191.113.44.216.745.31.305.093.572.116.802.07l3.665-.057c.362 0 .644-.058.845-.175.2-.117.32-.246.358-.387.038-.14.04-.3.007-.478a1.738 1.738 0 0 0-.1-.372z"></path></g></svg></svg>