<svg width="80" height="80" viewBox="0 0 80 80" fill="none" xmlns="http://www.w3.org/2000/svg">
<rect x="16.5" y="5.5" width="48" height="69" rx="4.5" stroke="white" stroke-linecap="round" stroke-linejoin="round"/>
<path d="M24 15.5H44.5M24 24.5H51.5M24 34H40M24 46H53" stroke="white" stroke-linecap="round"/>
<path d="M37.0933 65.4051C36.709 67.3014 37.6242 61.5688 37.8151 59.6418C37.8332 59.4589 37.9513 58.9472 37.9998 59.1241C38.4344 60.7101 38.6218 62.4047 38.8979 64.0247C39.0947 65.1798 39.2358 66.4465 39.8127 67.4844C40.3319 68.4184 40.7169 67.9586 40.8367 67.0962C41.188 64.5683 41.3084 61.5002 40.8032 58.9774C40.5631 57.7791 41.3765 61.3571 41.7852 62.5062C41.989 63.0794 43.566 67.1027 44.1941 64.9565C44.9177 62.4839 44.5986 59.7211 44.8739 57.1742C44.879 57.1278 44.9031 55.8404 45.2684 56.0698C45.8753 56.4511 46.1134 57.6736 46.3092 58.2958C46.4238 58.66 47.7646 62.6783 47.82 62.627C48.1351 62.3355 48.2289 61.2945 48.3068 60.9359C48.5852 59.6553 48.7436 58.3628 48.9531 57.0707C49.4274 54.1458 49.7952 58.8466 51.0011 58.2268C51.6077 57.915 51.622 56.9047 52.193 56.5012C52.6601 56.1711 53.3216 57.3974 53.7122 57.6056C54.7395 58.1532 55.5314 57.2691 56.2722 56.6479C57.1063 55.9484 58.064 55.5248 59 55" stroke="white" stroke-linecap="round"/>
</svg>
