<svg width="893" height="330" viewBox="0 0 893 330" fill="none" xmlns="http://www.w3.org/2000/svg">
<mask id="mask0" mask-type="alpha" maskUnits="userSpaceOnUse" x="0" y="0" width="893" height="330">
<rect width="893" height="330" rx="4" fill="url(#paint0_linear)"/>
</mask>
<g mask="url(#mask0)">
<rect x="-4" y="-22" width="944" height="374" fill="#6C6CB7"/>
<path d="M686 82C737 49 733 46 760 -53C784.8 -141 842.334 -103.667 868.001 -74C885.667 -37.6666 895 53.2 791 126C661 217 635.001 115 686 82Z" fill="url(#paint1_linear)"/>
<path d="M257.5 155C458.019 161.436 542.836 75.2125 551.758 -41.046C551.909 -43.0211 550.567 -44.8081 548.63 -45.2244L345.514 -88.8894C345.173 -88.9628 344.823 -88.9912 344.474 -88.9738L-82.1993 -67.6896C-84.3283 -67.5834 -86 -65.8262 -86 -63.6945V344C-86 346.209 -84.2091 348 -82 348H5.81735C7.68025 348 9.27973 346.765 9.72947 344.957C26.4935 277.571 97.9353 149.878 257.5 155Z" fill="url(#paint2_linear)"/>
<path d="M761 204C650.293 205.483 563.524 274.381 536.425 361.925C535.87 363.717 536.67 365.643 538.315 366.546L646.537 425.971C647.167 426.317 647.85 426.488 648.569 426.463C756.268 422.777 972.033 414.284 982 409.5C994.5 403.5 1230.5 204 1092.5 251.5C954.5 299 873 202.5 761 204Z" fill="url(#paint3_linear)"/>
</g>
<defs>
<linearGradient id="paint0_linear" x1="446.5" y1="0" x2="446.5" y2="330" gradientUnits="userSpaceOnUse">
<stop stop-color="#6262AD"/>
<stop offset="1" stop-color="#7272BD"/>
</linearGradient>
<linearGradient id="paint1_linear" x1="889.847" y1="-107.832" x2="644.755" y2="-115.146" gradientUnits="userSpaceOnUse">
<stop stop-color="#FF666B"/>
<stop offset="1" stop-color="#FC444A"/>
</linearGradient>
<linearGradient id="paint2_linear" x1="184.345" y1="529.043" x2="519.238" y2="28.957" gradientUnits="userSpaceOnUse">
<stop stop-color="#41B765"/>
<stop offset="1" stop-color="#D7CC54"/>
</linearGradient>
<linearGradient id="paint3_linear" x1="789.808" y1="518.686" x2="907.982" y2="192.687" gradientUnits="userSpaceOnUse">
<stop stop-color="#7FAED8"/>
<stop offset="1" stop-color="#4585BE"/>
</linearGradient>
</defs>
</svg>
