<svg xmlns="http://www.w3.org/2000/svg" width="58" height="31" viewBox="0 0 58 31">
    <path fill="#131313" fill-rule="evenodd" d="M12.426 27.014c.357.593.478 1.154.363 1.683-.115.53-.465.936-1.051 1.22L9.52 31 0 15.945v-.89L9.52 0l2.218 1.084c.586.283.936.69 1.051 1.219.115.529-.006 1.09-.363 1.683L6.385 14.087c-.357.645-.714 1.11-1.07 1.394.356.335.713.812 1.07 1.432l6.04 10.1zm11.317 0c.357.593.478 1.154.363 1.683-.115.53-.465.936-1.051 1.22L20.837 31l-9.52-15.055v-.89L20.837 0l2.218 1.084c.586.283.936.69 1.051 1.219.115.529-.006 1.09-.363 1.683l-6.041 10.101c-.357.645-.714 1.11-1.07 1.394.356.335.713.812 1.07 1.432l6.04 10.1zm22.94-11.96v.891L37.163 31l-2.218-1.084c-.586-.283-.936-.69-1.051-1.219-.115-.529.006-1.09.363-1.683l6.041-10.101c.204-.31.389-.587.554-.832.166-.246.35-.446.555-.6a1.922 1.922 0 0 1-.555-.562c-.165-.245-.35-.522-.554-.832l-6.04-10.1c-.358-.594-.479-1.155-.364-1.684.115-.53.465-.936 1.051-1.22L37.163 0l9.52 15.055zm11.317 0v.891L48.48 31l-2.218-1.084c-.586-.283-.936-.69-1.051-1.219-.115-.529.006-1.09.363-1.683l6.041-10.101c.204-.31.389-.587.554-.832.166-.246.35-.446.555-.6a1.922 1.922 0 0 1-.555-.562c-.165-.245-.35-.522-.554-.832l-6.04-10.1c-.358-.594-.479-1.155-.364-1.684.115-.53.465-.936 1.051-1.22L48.48 0 58 15.055z" opacity=".3"/>
</svg>
