<svg xmlns="http://www.w3.org/2000/svg" width="12" height="13" viewBox="0 0 12 13">
    <g fill="#3863C5" fill-rule="nonzero">
        <path d="M1.204 6.7a.721.721 0 0 0-.998 0 .67.67 0 0 0 0 .968L5.5 12.799c.138.134.319.201.5.201a.714.714 0 0 0 .5-.2l5.293-5.132a.67.67 0 0 0 0-.968.722.722 0 0 0-.998 0L6 11.348 1.204 6.7z"/>
        <path d="M1.204.2a.721.721 0 0 0-.998 0 .67.67 0 0 0 0 .968L5.5 6.299c.138.134.319.201.5.201a.714.714 0 0 0 .5-.2l5.293-5.132a.67.67 0 0 0 0-.968.722.722 0 0 0-.998 0L6 4.848 1.204.2z"/>
    </g>
</svg>
