<svg xmlns="http://www.w3.org/2000/svg" width="30" height="30"><path style="line-height:normal;font-variant-ligatures:normal;font-variant-position:normal;font-variant-caps:normal;font-variant-numeric:normal;font-variant-alternates:normal;font-feature-settings:normal;text-indent:0;text-align:start;text-decoration-line:none;text-decoration-style:solid;text-decoration-color:#000;text-transform:none;text-orientation:mixed;shape-padding:0;isolation:auto;mix-blend-mode:normal" d="M18.39.6C12.315.6 7.38 5.533 7.38 11.61c0 6.076 4.933 11.011 11.01 11.011h.002c6.076 0 11.01-4.934 11.01-11.01C29.4 5.534 24.466.6 18.39.6zm0 .8A10.203 10.203 0 0 1 28.6 11.611a10.202 10.202 0 0 1-10.21 10.21h-.001A10.205 10.205 0 0 1 8.178 11.608C8.178 5.966 12.747 1.4 18.39 1.4zM10.21 19.217a.629.629 0 0 0-.461.18l-8.973 8.97a.629.629 0 0 0-.18.461c.01.162.081.298.18.397.1.099.235.17.397.18.161.009.342-.061.46-.18l8.972-8.973c.119-.12.189-.3.18-.461a.603.603 0 0 0-.18-.395.603.603 0 0 0-.395-.18z" color="#000" font-weight="400" font-family="sans-serif" white-space="normal" overflow="visible" fill="#0f0f0f"/></svg>