<svg xmlns="http://www.w3.org/2000/svg" width="32" height="33" viewBox="0 0 32 33">
    <g fill="#FFF" fill-rule="nonzero">
        <path d="M26.102 23.143l.92-.92-.726-.725-.92.92-.968-.968a9.689 9.689 0 0 0 1.225-4.72c0-.146-.016-.288-.022-.433a5.337 5.337 0 0 0 4.126-5.21h-1.026a4.316 4.316 0 0 1-3.2 4.18c-.71-4.681-4.75-8.284-9.626-8.284-.146 0-.289.015-.433.022a5.336 5.336 0 0 0-5.21-4.127v1.026a4.316 4.316 0 0 1 4.18 3.2c-4.682.71-8.285 4.75-8.285 9.626 0 .147.015.289.022.433a5.337 5.337 0 0 0-4.126 5.21h1.026a4.316 4.316 0 0 1 3.2-4.18c.71 4.682 4.75 8.285 9.626 8.285 1.711 0 3.32-.447 4.719-1.224l.968.968-.92.92.725.725.92-.92 4.9 4.9a2.672 2.672 0 0 0 1.902.788 2.693 2.693 0 0 0 2.69-2.69c0-.718-.28-1.394-.787-1.901l-4.9-4.9zm-1.6-7.685l-1.01.168c-.539-3.72-3.74-6.591-7.607-6.591-.026 0-.052.003-.078.004l-.17-1.017c.084-.003.164-.013.248-.013 4.376 0 7.999 3.242 8.618 7.45zm-8.617-5.397a6.677 6.677 0 0 1 6.67 6.67 6.677 6.677 0 0 1-6.67 6.669 6.677 6.677 0 0 1-6.67-6.67 6.677 6.677 0 0 1 6.67-6.67zm-1.273-1.949l.169 1.012c-3.721.538-6.592 3.739-6.592 7.606 0 .027.004.052.004.078l-1.017.17c-.003-.083-.013-.164-.013-.248 0-4.376 3.242-7.998 7.45-8.618zm-7.345 9.89l1.01-.167c.539 3.72 3.74 6.591 7.608 6.591 4.243 0 7.695-3.452 7.695-7.696 0-.026-.003-.051-.004-.078l1.018-.169c.002.083.013.164.013.247 0 4.81-3.913 8.722-8.722 8.722-4.376 0-8-3.242-8.618-7.45zm14.225 6.689a9.815 9.815 0 0 0 2.353-2.353l.806.805-2.353 2.353-.806-.805zm7.608 6.918c-.445 0-.863-.173-1.177-.487l-4.9-4.9 2.353-2.353 4.9 4.9a1.665 1.665 0 0 1-1.176 2.84z"/>
        <path d="M27.172 10.06a4.623 4.623 0 0 0 4.617-4.617A4.623 4.623 0 0 0 27.172.826a4.623 4.623 0 0 0-4.618 4.617 4.623 4.623 0 0 0 4.618 4.618zm-1.54-1.377V8.01c0-.849.691-1.54 1.54-1.54.848 0 1.539.691 1.539 1.54v.674a3.568 3.568 0 0 1-1.54.352 3.568 3.568 0 0 1-1.538-.352zm.514-4.266a1.027 1.027 0 0 1 2.052 0 1.027 1.027 0 0 1-2.052 0zm1.026-2.565a3.596 3.596 0 0 1 3.591 3.591 3.58 3.58 0 0 1-1.031 2.515 2.563 2.563 0 0 0-1.127-2.075c.38-.374.619-.892.619-1.466 0-1.131-.92-2.052-2.052-2.052-1.132 0-2.052.92-2.052 2.052 0 .574.238 1.092.619 1.465a2.564 2.564 0 0 0-1.127 2.075 3.578 3.578 0 0 1-1.032-2.514 3.596 3.596 0 0 1 3.592-3.59zM4.598 10.06a4.623 4.623 0 0 0 4.617-4.617A4.623 4.623 0 0 0 4.598.826 4.623 4.623 0 0 0-.02 5.443a4.623 4.623 0 0 0 4.618 4.618zm-1.54-1.377V8.01c0-.849.691-1.54 1.54-1.54.848 0 1.539.691 1.539 1.54v.674a3.568 3.568 0 0 1-1.54.352 3.568 3.568 0 0 1-1.538-.352zm.514-4.266a1.027 1.027 0 0 1 2.052 0 1.027 1.027 0 0 1-2.052 0zm1.026-2.565a3.596 3.596 0 0 1 3.591 3.591 3.58 3.58 0 0 1-1.031 2.515A2.563 2.563 0 0 0 6.03 5.883c.38-.374.619-.892.619-1.466 0-1.131-.92-2.052-2.052-2.052-1.132 0-2.052.92-2.052 2.052 0 .574.238 1.092.619 1.465a2.564 2.564 0 0 0-1.127 2.075 3.578 3.578 0 0 1-1.031-2.514 3.596 3.596 0 0 1 3.59-3.59zM4.598 23.4A4.622 4.622 0 0 0-.02 28.017a4.622 4.622 0 0 0 4.618 4.618 4.622 4.622 0 0 0 4.617-4.618A4.622 4.622 0 0 0 4.598 23.4zm-1.54 7.857v-.674c0-.849.691-1.54 1.54-1.54.848 0 1.539.691 1.539 1.54v.674a3.568 3.568 0 0 1-1.54.352 3.568 3.568 0 0 1-1.538-.352zm.514-4.266a1.027 1.027 0 0 1 2.052 0 1.027 1.027 0 0 1-2.052 0zm3.586 3.54a2.564 2.564 0 0 0-1.127-2.075c.38-.372.619-.89.619-1.465 0-1.131-.92-2.052-2.052-2.052-1.132 0-2.052.92-2.052 2.052 0 .574.238 1.093.618 1.465a2.564 2.564 0 0 0-1.126 2.075 3.579 3.579 0 0 1-1.031-2.514 3.596 3.596 0 0 1 3.59-3.59 3.596 3.596 0 0 1 3.592 3.59c0 .979-.394 1.866-1.031 2.514zM10.241 15.704V19.296h11.287v-5.644H18.45v4.618h-1.026V11.6h-3.078v6.67H13.32v-2.566H10.24zm1.026 1.026h1.026v1.54h-1.026v-1.54zm8.21-2.052h1.025v3.592h-1.026v-3.592zm-4.105-2.052h1.026v5.644h-1.026v-5.644z"/>
    </g>
</svg>
