<svg xmlns="http://www.w3.org/2000/svg" width="45" height="45" viewBox="0 0 45 45">
    <g fill="#FFF" fill-rule="nonzero">
        <path d="M5.185 8.85v5.669H3.726v1.452h11.66V14.52h-1.46v-5.67l.944.771.924-1.125L9.551 3.42 3.317 8.495l.925 1.125.943-.77zm7.283-1.188v6.857H6.643V7.662L9.56 5.288l2.908 2.374z"/>
        <path d="M8.831 8.708h1.458v1.453H8.831zM3.726 19.594h22.607v1.453H3.726zM3.726 29.029H21.21v1.453H3.726zM3.726 39.915h1.458v1.453H3.726zM6.643 39.915h1.458v1.453H6.643zM9.56 39.915h1.458v1.453H9.56z"/>
        <path d="M43.853 14.483a3.65 3.65 0 0 0-5.15 0l-1.031 1.028-2.063-2.055-3.46 3.446V9.859L22.242 0H.08v45h32.06V31.279L43.844 19.62a3.633 3.633 0 0 0 .009-5.138zM22.669 2.48l6.981 6.954H22.67V2.48zm8.022 41.067H1.539V1.453H21.21v9.434h9.472v7.467l-2.295 2.286 1.032 1.027 6.18-6.156 1.032 1.027-18.702 18.63-1.29 6.413 6.44-1.285 7.603-7.574v10.825h.009zm-11.642-6.546l2.197 2.188-2.748.55.551-2.738zm3.673 1.603l-3.095-3.082 2.58-2.57 3.094 3.083-2.579 2.57zm3.611-3.587l-3.095-3.083 14.425-14.368 3.095 3.083-14.425 14.368zm16.488-16.423L41.79 19.62l-3.095-3.083 1.031-1.027a2.196 2.196 0 0 1 3.095 0c.854.85.854 2.232 0 3.083z"/>
    </g>
</svg>
