<svg xmlns="http://www.w3.org/2000/svg" width="52" height="52" viewBox="0 0 52 52">
    <g fill="none" fill-rule="evenodd" transform="translate(1 1)">
        <circle cx="25" cy="25" r="25" stroke="#3863C5" opacity=".6"/>
        <path fill="#3863C5" d="M30.973 15H18.827A3.83 3.83 0 0 0 15 18.826v12.148a3.83 3.83 0 0 0 3.827 3.826h12.147a3.83 3.83 0 0 0 3.826-3.826V18.826A3.83 3.83 0 0 0 30.973 15zm1.098 2.282l.438-.002v3.356l-3.345.011-.012-3.356 2.919-.01zm-9.997 5.586a3.484 3.484 0 0 1 2.826-1.453c1.163 0 2.192.575 2.825 1.453.413.572.66 1.273.66 2.032a3.49 3.49 0 0 1-3.485 3.485 3.489 3.489 0 0 1-3.485-3.485c0-.759.246-1.46.659-2.032zm10.797 8.105a1.899 1.899 0 0 1-1.898 1.898H18.827a1.899 1.899 0 0 1-1.898-1.898v-8.105h2.956a5.385 5.385 0 0 0-.4 2.032 5.42 5.42 0 0 0 5.415 5.414 5.42 5.42 0 0 0 5.414-5.414c0-.719-.144-1.404-.4-2.032h2.957v8.105z" opacity=".7"/>
    </g>
</svg>
