<svg xmlns="http://www.w3.org/2000/svg" width="52" height="52" viewBox="0 0 52 52">
    <g fill="none" fill-rule="evenodd">
        <circle cx="25" cy="25" r="25" fill="#3863C5"/>
        <path fill="#FFF" fill-rule="nonzero" d="M35.9 25.45c0 10.45 0 10.45-10.45 10.45S15 35.9 15 25.45 15 15 25.45 15 35.9 15 35.9 25.45zm-8.813 3.553a7.572 7.572 0 0 0 2.35-.973 1.186 1.186 0 0 0-1.264-2.009 5.137 5.137 0 0 1-5.448 0 1.186 1.186 0 0 0-1.263 2.008c.73.46 1.524.787 2.35.974l-2.26 2.262a1.184 1.184 0 1 0 1.675 1.676l2.223-2.223 2.223 2.223a1.184 1.184 0 1 0 1.675-1.676l-2.261-2.262zm-1.637-9.019c.925 0 1.676.751 1.676 1.676a1.676 1.676 0 0 1-3.352 0c0-.925.753-1.676 1.676-1.676zm0 5.72a4.05 4.05 0 0 0 4.045-4.044 4.05 4.05 0 0 0-4.045-4.047 4.05 4.05 0 0 0-4.045 4.045 4.05 4.05 0 0 0 4.045 4.045z"/>
    </g>
</svg>
