<svg xmlns="http://www.w3.org/2000/svg" width="35" height="35" viewBox="0 0 35 35">
    <g fill="none" fill-rule="evenodd" stroke="#FFF">
        <path stroke-width="2" d="M16.489 32.003l-1.594 1.63a1 1 0 0 1-1.643-.327l-.849-2.116a1 1 0 0 0-1.321-.548l-2.097.897a1 1 0 0 1-1.393-.93l.026-2.281a1 1 0 0 0-1.011-1.011l-2.28.026a1 1 0 0 1-.932-1.393l.897-2.097a1 1 0 0 0-.547-1.322l-2.117-.848a1 1 0 0 1-.327-1.643l1.631-1.594a1 1 0 0 0 0-1.43l-1.63-1.595a1 1 0 0 1 .326-1.643l2.117-.849a1 1 0 0 0 .547-1.32L3.395 9.51a1 1 0 0 1 .931-1.393l2.28.026a1 1 0 0 0 1.012-1.011l-.026-2.28a1 1 0 0 1 1.393-.931l2.097.896a1 1 0 0 0 1.321-.547l.849-2.117a1 1 0 0 1 1.643-.326l1.594 1.63a1 1 0 0 0 1.43 0l1.594-1.63a1 1 0 0 1 1.644.326l.848 2.117a1 1 0 0 0 1.322.547l2.096-.896a1 1 0 0 1 1.393.93l-.026 2.28a1 1 0 0 0 1.012 1.012l2.28-.026a1 1 0 0 1 .93 1.393l-.896 2.097a1 1 0 0 0 .547 1.321l2.117.849a1 1 0 0 1 .327 1.643l-1.63 1.594a1 1 0 0 0 0 1.43l1.63 1.595a1 1 0 0 1-.327 1.643l-2.117.848a1 1 0 0 0-.547 1.322l.897 2.097a1 1 0 0 1-.931 1.393l-2.28-.026a1 1 0 0 0-1.012 1.011l.026 2.28a1 1 0 0 1-1.393.931l-2.096-.897a1 1 0 0 0-1.322.548l-.848 2.116a1 1 0 0 1-1.644.327l-1.594-1.63a1 1 0 0 0-1.43 0z"/>
        <path fill="#FFF" stroke-width=".3" d="M13.071 17.453h1.418v-6.37h3.654c.679 0 1.297.077 1.857.23.559.153 1.038.386 1.437.699.4.313.712.709.939 1.188.226.479.339 1.051.339 1.717 0 .665-.12 1.244-.36 1.737-.239.493-.565.902-.978 1.228a4.168 4.168 0 0 1-1.457.729c-.56.16-1.165.24-1.817.24h-2.017v2.016h3.215v1.318h-3.215V25H14.49v-2.815H13.07v-1.318h1.418V18.85H13.07v-1.397zm5.072 0c.918 0 1.64-.21 2.166-.63.526-.419.789-1.054.789-1.906 0-.852-.263-1.471-.789-1.857-.526-.386-1.248-.579-2.166-.579h-2.057v4.972h2.057z"/>
    </g>
</svg>
