<svg xmlns="http://www.w3.org/2000/svg" width="35" height="34" viewBox="0 0 35 34">
    <g fill="#3863C5" fill-rule="nonzero">
        <path d="M30.91 21.502a.428.428 0 0 0-.432.425v1.751c0 .235.193.425.432.425.24 0 .432-.19.432-.425v-1.751a.428.428 0 0 0-.432-.425zM3.512 32.064h2.323c.239 0 .432-.19.432-.425V27.59a.428.428 0 0 0-.432-.425H3.512a.428.428 0 0 0-.432.425v4.048c0 .235.193.425.432.425zm.432-4.048h1.459v3.198H3.944v-3.198zM7.65 32.064h2.323c.239 0 .432-.19.432-.425V27.59a.428.428 0 0 0-.432-.425H7.65a.428.428 0 0 0-.432.425v4.048c0 .235.193.425.432.425zm.432-4.048h1.459v3.198H8.082v-3.198zM14.42 32.064h2.322c.239 0 .432-.19.432-.425V27.59a.428.428 0 0 0-.432-.425H14.42a.428.428 0 0 0-.432.425v4.048c0 .235.193.425.432.425zm.431-4.048h1.459v3.198h-1.459v-3.198zM18.557 32.064h2.323c.239 0 .432-.19.432-.425V27.59a.428.428 0 0 0-.432-.425h-2.323a.428.428 0 0 0-.432.425v4.048c0 .235.193.425.432.425zm.432-4.048h1.459v3.198h-1.459v-3.198z"/>
        <path d="M34.62 11.135l-.867-8.247c.004-.021.013-.04.013-.063V.433a.428.428 0 0 0-.432-.425H1.354A.428.428 0 0 0 .92.433v2.392c0 .01.005.017.005.026l-.87 8.284c-.002.018.005.035.006.053-.002.013-.008.025-.008.038 0 .743.337 1.41.867 1.865v20.484c0 .235.193.425.432.425h31.86c.24 0 .433-.19.433-.425V13.18a2.46 2.46 0 0 0 .976-1.954c0-.013-.007-.025-.008-.038 0-.018.007-.035.006-.053zM30.295.858h2.607v1.543h-2.607V.858zm-4.252 0h3.388v1.543h-3.388V.858zm3.452 10.746a1.666 1.666 0 0 1-1.625 1.256c-.79 0-1.448-.538-1.624-1.256h3.25zM26.043 3.25h3.388v7.504h-3.388V3.25zM21.983.858h3.196v1.543h-3.196V.858zm3.3 10.746a1.666 1.666 0 0 1-1.626 1.256c-.789 0-1.448-.538-1.624-1.256h3.25zm-3.3-8.354h3.196v7.504h-3.196V3.25zM17.776.858h3.343v1.543h-3.343V.858zm0 2.392h3.343v7.504h-3.343V3.25zm3.293 8.354a1.666 1.666 0 0 1-1.625 1.256c-.789 0-1.448-.538-1.624-1.256h3.25zM13.557.858h3.355v1.543h-3.355V.858zm0 2.392h3.355v7.504h-3.355V3.25zm3.3 8.354a1.666 1.666 0 0 1-1.626 1.256c-.789 0-1.448-.538-1.624-1.256h3.25zM9.343.858h3.349v1.543H9.344V.858zm0 2.392h3.349v7.504H9.344V3.25zM5.057.858H8.48v1.543H5.057V.858zm0 2.392H8.48v7.504H5.057V3.25zm3.373 8.354a1.666 1.666 0 0 1-1.624 1.256c-.79 0-1.45-.538-1.625-1.256h3.25zM1.785.858h2.408v1.543H1.785V.858zM1.754 3.25h2.44v7.504H.964l.789-7.504zm-.786 8.354h3.25a1.666 1.666 0 0 1-1.625 1.256c-.79 0-1.45-.538-1.625-1.256zM11.7 33.15H1.785v-7.265H11.7v7.265zm0-8.115H1.785V13.58c.255.084.525.131.808.131.876 0 1.65-.436 2.106-1.099a2.553 2.553 0 0 0 2.107 1.1c.876 0 1.65-.437 2.106-1.1a2.553 2.553 0 0 0 2.788 1.006v11.418zm-.681-12.175c-.79 0-1.45-.538-1.625-1.256h3.25a1.666 1.666 0 0 1-1.625 1.256zm11.555 20.29h-10.01v-7.265h10.01v7.265zm0-8.115h-10.01V13.192c.217-.163.408-.358.561-.581a2.553 2.553 0 0 0 2.106 1.1c.877 0 1.65-.437 2.107-1.1a2.553 2.553 0 0 0 2.106 1.1c.877 0 1.65-.437 2.107-1.1.254.37.609.666 1.023.859v11.565zm10.208 8.115h-9.344v-1.086h9.344v1.086zm0-1.936h-9.344V13.699a2.553 2.553 0 0 0 2.326-1.088 2.553 2.553 0 0 0 2.106 1.1c.877 0 1.65-.437 2.107-1.1a2.553 2.553 0 0 0 2.805 1.001v17.602zm-.699-18.354c-.79 0-1.448-.538-1.624-1.256h3.249a1.666 1.666 0 0 1-1.625 1.256zm-1.788-2.106V3.25h2.627l.789 7.504h-3.416z"/>
    </g>
</svg>
