<svg xmlns="http://www.w3.org/2000/svg" width="58" height="34" viewBox="0 0 58 34">
    <g fill="#3863C5" fill-rule="nonzero">
        <path d="M24.07 12.516h.001a.382.382 0 0 0 .377-.421 3.843 3.843 0 0 0-.322-1.387c-.309-.679-.969-1.488-2.36-1.488h-.038L11.146 4.543a.377.377 0 0 0-.353-.25h-3.94a.375.375 0 0 0-.366.321L2.422 7.527c-.025 0-.05-.004-.076-.004-1.133 0-2.056.934-2.056 2.08v2.53c0 .211.17.383.38.383h5.804v19.348H4.478a.38.38 0 0 0-.379.382v1.315c0 .212.17.384.379.384h8.69a.381.381 0 0 0 .379-.384v-1.315a.38.38 0 0 0-.379-.382h-1.996V20.518c1.676-.191 2.983-1.633 2.983-3.378s-1.307-3.186-2.983-3.378v-1.246h9.143l.411 6.671a2.718 2.718 0 0 0-1.641 2.501 2.705 2.705 0 0 0 2.303 2.683v1.693c0 .212.17.384.379.384.839 0 1.52.69 1.52 1.537a1.53 1.53 0 0 1-1.52 1.538 1.53 1.53 0 0 1-1.52-1.538.38.38 0 0 0-.379-.383c-.21 0-.38.171-.38.383 0 1.27 1.023 2.305 2.279 2.305 1.255 0 2.277-1.034 2.277-2.305a2.3 2.3 0 0 0-1.898-2.272v-1.342a2.705 2.705 0 0 0 2.303-2.683c0-1.18-.75-2.185-1.794-2.557l.556-6.615h.859zm-.641-1.507c.123.264.189.533.223.741h-3.904l1.31-1.763h.709c.798 0 1.341.334 1.662 1.022zm-6.462.741l1.31-1.763H20.4l-1.31 1.763h-2.124zm-2.78 0l1.31-1.763h2.124l-1.31 1.763h-2.124zm-2.78 0l1.31-1.763h2.124l-1.31 1.763h-2.125zm-.235-2.53V5.134l9.245 4.086h-9.245zm-3.94 0V5.06h3.183v4.16H7.232zm-.758-3.946V9.22H4.366A2.079 2.079 0 0 0 3.12 7.678l3.354-2.404zM2.347 8.29c.583 0 1.072.394 1.235.93H1.111c.163-.536.652-.93 1.236-.93zM1.048 9.987H12.06l-1.31 1.763H1.048V9.987zm6.184 8.702h2.96l-2.96 3.233v-3.233zm3.183 7.536L7.454 22.99h2.96v3.234zm0-3.765H7.453l2.962-3.233v3.233zM7.232 18.16v-3.233l2.96 3.233h-2.96zm0 5.37l2.96 3.234h-2.96V23.53zm3.183-5.908l-2.962-3.233h2.962v3.233zm2.375 15.557H4.856v-.548h7.934v.548zm-5.558-1.314v-4.57h3.183v4.57H7.232zm5.243-12.716a5.013 5.013 0 0 0 .229-1.529c.162.166.347.316.54.406-.157.44-.423.827-.77 1.123zm.922-2.008c0 .122-.01.241-.027.36-.195-.137-.478-.422-.717-.77-.003-.005-.008-.007-.011-.011a8.996 8.996 0 0 0-.44-1.792 2.638 2.638 0 0 1 1.195 2.213zm-1.884-2.53c.37.89 1.165 3.225.196 4.993a2.57 2.57 0 0 1-.536.14v-5.206c.115.017.23.04.34.073zm-1.098-.753H7.232v-1.34h3.183v1.34zm13.276 7.831a1.938 1.938 0 0 1-1.924 1.946 1.937 1.937 0 0 1-1.924-1.946c0-1.073.863-1.947 1.924-1.947s1.924.874 1.924 1.947zm-1.552-2.684a2.644 2.644 0 0 0-.372-.029c-.18 0-.355.019-.525.053l-.401-6.511h1.844l-.546 6.487z"/>
        <path d="M20.62 21.688c0 .639.515 1.16 1.147 1.16s1.146-.521 1.146-1.16c0-.64-.514-1.16-1.146-1.16-.632 0-1.146.52-1.146 1.16zm1.535 0a.39.39 0 0 1-.388.392.39.39 0 0 1-.388-.392c0-.216.174-.393.388-.393.214 0 .388.177.388.393z"/>
        <g>
            <path d="M41.663 15.738h1.557c.236 0 .427-.19.427-.425v-2.207a.426.426 0 0 0-.427-.425h-1.557a.426.426 0 0 0-.427.425v2.207c0 .235.191.425.427.425zm.427-2.207h.703v1.357h-.703V13.53zM38.296 15.738h1.557c.236 0 .427-.19.427-.425v-2.207a.426.426 0 0 0-.427-.425h-1.557a.426.426 0 0 0-.427.425v2.207c0 .235.191.425.427.425zm.427-2.207h.703v1.357h-.703V13.53zM41.663 20.092h1.557c.236 0 .427-.19.427-.425V17.46a.426.426 0 0 0-.427-.425h-1.557a.426.426 0 0 0-.427.425v2.207c0 .235.191.425.427.425zm.427-2.207h.703v1.357h-.703v-1.357zM38.296 20.092h1.557c.236 0 .427-.19.427-.425V17.46a.426.426 0 0 0-.427-.425h-1.557a.426.426 0 0 0-.427.425v2.207c0 .235.191.425.427.425zm.427-2.207h.703v1.357h-.703v-1.357zM38.296 24.315h1.557c.236 0 .427-.19.427-.425v-2.207a.426.426 0 0 0-.427-.425h-1.557a.426.426 0 0 0-.427.425v2.207c0 .235.191.425.427.425zm.427-2.207h.703v1.357h-.703v-1.357zM41.663 24.315h1.557c.236 0 .427-.19.427-.425v-2.207a.426.426 0 0 0-.427-.425h-1.557a.426.426 0 0 0-.427.425v2.207c0 .235.191.425.427.425zm.427-2.207h.703v1.357h-.703v-1.357zM32.679 20.092h1.557c.236 0 .427-.19.427-.425V17.46a.426.426 0 0 0-.427-.425H32.68a.426.426 0 0 0-.427.425v2.207c0 .235.19.425.427.425zm.427-2.207h.704v1.357h-.704v-1.357zM29.312 20.092h1.557c.236 0 .427-.19.427-.425V17.46a.426.426 0 0 0-.427-.425h-1.557a.426.426 0 0 0-.427.425v2.207c0 .235.19.425.427.425zm.426-2.207h.704v1.357h-.704v-1.357zM29.312 24.315h1.557c.236 0 .427-.19.427-.425v-2.207a.426.426 0 0 0-.427-.425h-1.557a.426.426 0 0 0-.427.425v2.207c0 .235.19.425.427.425zm.426-2.207h.704v1.357h-.704v-1.357zM32.679 24.315h1.557c.236 0 .427-.19.427-.425v-2.207a.426.426 0 0 0-.427-.425H32.68a.426.426 0 0 0-.427.425v2.207c0 .235.19.425.427.425zm.427-2.207h.704v1.357h-.704v-1.357zM41.663 28.495h1.557c.236 0 .427-.19.427-.425v-2.207a.426.426 0 0 0-.427-.425h-1.557a.426.426 0 0 0-.427.425v2.207c0 .235.191.425.427.425zm.427-2.207h.703v1.357h-.703v-1.357zM38.296 28.495h1.557c.236 0 .427-.19.427-.425v-2.207a.426.426 0 0 0-.427-.425h-1.557a.426.426 0 0 0-.427.425v2.207c0 .235.191.425.427.425zm.427-2.207h.703v1.357h-.703v-1.357zM41.663 11.44h1.557c.236 0 .427-.19.427-.425V8.81a.426.426 0 0 0-.427-.425h-1.557a.426.426 0 0 0-.427.425v2.206c0 .235.191.425.427.425zm.427-2.206h.703v1.356h-.703V9.234zM38.296 11.44h1.557c.236 0 .427-.19.427-.425V8.81a.426.426 0 0 0-.427-.425h-1.557a.426.426 0 0 0-.427.425v2.206c0 .235.191.425.427.425zm.427-2.206h.703v1.356h-.703V9.234zM50.806 15.738h1.557c.236 0 .427-.19.427-.425v-2.207a.426.426 0 0 0-.427-.425h-1.557a.426.426 0 0 0-.427.425v2.207c0 .235.191.425.427.425zm.427-2.207h.703v1.357h-.703V13.53zM47.439 15.738h1.557c.236 0 .427-.19.427-.425v-2.207a.426.426 0 0 0-.427-.425h-1.557a.426.426 0 0 0-.427.425v2.207c0 .235.19.425.427.425zm.426-2.207h.704v1.357h-.704V13.53zM50.806 20.092h1.557c.236 0 .427-.19.427-.425V17.46a.426.426 0 0 0-.427-.425h-1.557a.426.426 0 0 0-.427.425v2.207c0 .235.191.425.427.425zm.427-2.207h.703v1.357h-.703v-1.357zM47.439 20.092h1.557c.236 0 .427-.19.427-.425V17.46a.426.426 0 0 0-.427-.425h-1.557a.426.426 0 0 0-.427.425v2.207c0 .235.19.425.427.425zm.426-2.207h.704v1.357h-.704v-1.357zM47.439 24.315h1.557c.236 0 .427-.19.427-.425v-2.207a.426.426 0 0 0-.427-.425h-1.557a.426.426 0 0 0-.427.425v2.207c0 .235.19.425.427.425zm.426-2.207h.704v1.357h-.704v-1.357zM50.806 24.315h1.557c.236 0 .427-.19.427-.425v-2.207a.426.426 0 0 0-.427-.425h-1.557a.426.426 0 0 0-.427.425v2.207c0 .235.191.425.427.425zm.427-2.207h.703v1.357h-.703v-1.357zM50.806 28.495h1.557c.236 0 .427-.19.427-.425v-2.207a.426.426 0 0 0-.427-.425h-1.557a.426.426 0 0 0-.427.425v2.207c0 .235.191.425.427.425zm.427-2.207h.703v1.357h-.703v-1.357zM47.439 28.495h1.557c.236 0 .427-.19.427-.425v-2.207a.426.426 0 0 0-.427-.425h-1.557a.426.426 0 0 0-.427.425v2.207c0 .235.19.425.427.425zm.426-2.207h.704v1.357h-.704v-1.357zM50.806 11.44h1.557c.236 0 .427-.19.427-.425V8.81a.426.426 0 0 0-.427-.425h-1.557a.426.426 0 0 0-.427.425v2.206c0 .235.191.425.427.425zm.427-2.206h.703v1.356h-.703V9.234zM47.439 11.44h1.557c.236 0 .427-.19.427-.425V8.81a.426.426 0 0 0-.427-.425h-1.557a.426.426 0 0 0-.427.425v2.206c0 .235.19.425.427.425zm.426-2.206h.704v1.356h-.704V9.234z"/>
            <path d="M57.498 33.15h-2.733V5.913a.42.42 0 0 0 .357-.411v-2.68a.426.426 0 0 0-.427-.426L54.548.425A.426.426 0 0 0 54.12 0H36.27a.426.426 0 0 0-.426.425v1.972h-.41a.426.426 0 0 0-.427.425v2.68c0 .235.19.425.427.425h.41v1.744h-8.567a.426.426 0 0 0-.427.425v2.102h-.165a.426.426 0 0 0-.427.425v2.634c0 .235.191.425.427.425h.165V33.15H4.691a.426.426 0 1 0 0 .85h52.807a.426.426 0 1 0 0-.85zm-24.613 0h-2.222v-4.9h2.222v4.9zm2.959 0h-2.106v-5.325a.426.426 0 0 0-.427-.425h-3.075a.426.426 0 0 0-.426.425v5.325h-2.106V13.682h8.14V33.15zm0-20.318h-8.732v-1.784h8.732v1.784zm0-2.634h-8.14V8.52h8.14v1.678zM45.623.85h8.071v1.547h-8.071V.85zm-8.926 0h8.072v1.547h-8.072V.85zm8.072 32.3h-8.072V5.927h8.072V33.15zm9.143 0h-8.29V5.927h8.29V33.15zm.357-28.073H35.86v-1.83h18.408v1.83z"/>
        </g>
    </g>
</svg>
