<svg xmlns="http://www.w3.org/2000/svg" width="35" height="35" viewBox="0 0 35 35">
    <g fill="#3863C5" fill-rule="nonzero">
        <path d="M8.874 21.114v-4.228a.45.45 0 0 0-.447-.455H5.483a.45.45 0 0 0-.446.455v4.228c0 .251.2.455.446.455h2.944a.45.45 0 0 0 .447-.455zm-.893-.455H5.93V17.34h2.052v3.318zM13.904 21.114v-4.228a.45.45 0 0 0-.447-.455h-2.945a.45.45 0 0 0-.446.455v4.228c0 .251.2.455.446.455h2.945a.45.45 0 0 0 .447-.455zm-.893-.455H10.96V17.34h2.052v3.318zM8.874 29.456v-4.228a.45.45 0 0 0-.447-.455H5.483a.45.45 0 0 0-.446.455v4.228c0 .251.2.455.446.455h2.944a.45.45 0 0 0 .447-.455zM7.98 29H5.93v-3.318h2.052V29zM13.904 29.456v-4.228a.45.45 0 0 0-.447-.455h-2.945a.45.45 0 0 0-.446.455v4.228c0 .251.2.455.446.455h2.945a.45.45 0 0 0 .447-.455zM13.01 29H10.96v-3.318h2.052V29zM8.874 12.88V8.652a.45.45 0 0 0-.447-.455H5.483a.45.45 0 0 0-.446.455v4.228c0 .252.2.455.446.455h2.944a.45.45 0 0 0 .447-.455zm-.893-.455H5.93V9.107h2.052v3.318zM13.904 12.88V8.652a.45.45 0 0 0-.447-.455h-2.945a.45.45 0 0 0-.446.455v4.228c0 .252.2.455.446.455h2.945a.45.45 0 0 0 .447-.455zm-.893-.455H10.96V9.107h2.052v3.318z"/>
        <path d="M32.696 34.084v-1.957C34 31.908 35 30.753 35 29.362a2.813 2.813 0 0 0-1.494-2.492 1.7 1.7 0 0 0 .406-1.098c0-.935-.745-1.696-1.662-1.696-.917 0-1.663.76-1.663 1.696 0 .42.157.8.407 1.098a2.813 2.813 0 0 0-1.494 2.492c0 1.391.999 2.546 2.303 2.765v1.957h-3.17V13.739h.328a.45.45 0 0 0 .446-.455v-2.742a.45.45 0 0 0-.446-.455h-1.155V7.909a.45.45 0 0 0-.446-.455h-2.075a.45.45 0 0 0-.446.455v2.178H16.86V6.166h.143a.45.45 0 0 0 .446-.455V2.968a.45.45 0 0 0-.446-.455H12.43V.516a.45.45 0 0 0-.446-.455h-5.03a.45.45 0 0 0-.446.455v1.997H2.065a.45.45 0 0 0-.446.455v2.743c0 .251.2.455.446.455h.143v27.918H.484a.45.45 0 0 0-.446.455c0 .251.2.455.446.455H34.553a.45.45 0 0 0 .446-.455.45.45 0 0 0-.446-.455h-1.857zm-.446-7.527a.779.779 0 0 1-.77-.785c0-.434.345-.786.77-.786.425 0 .77.352.77.786a.779.779 0 0 1-.77.785zm0 4.7c-1.024 0-1.858-.85-1.858-1.895s.834-1.895 1.858-1.895 1.858.85 1.858 1.895-.834 1.895-1.858 1.895zm-11.914-5.853h3.848v8.68h-3.848v-8.68zM11.539 2.513H7.4V.971h4.138v1.542zm5.02 2.743H2.511V3.423h14.046v1.833zm-.59.91v27.918H3.1V6.166h12.867zm10.945 3.92h-1.183V8.365h1.183v1.723zm1.6 2.743H16.862v-1.832h11.654v1.832zm-.774.91v20.345h-2.664v-9.135a.45.45 0 0 0-.446-.455h-4.74a.45.45 0 0 0-.446.455v9.135H16.86V13.739H27.74z"/>
    </g>
</svg>
