<svg xmlns="http://www.w3.org/2000/svg" width="57" height="28" viewBox="0 0 57 28">
    <g fill="#FCFCFC" fill-rule="nonzero">
        <path d="M10.316.005a.597.597 0 0 0-.296.175L.173 10.21a.611.611 0 0 0-.173.426v16.76c0 .314.283.6.594.6 18.617.009 37.2 0 55.812 0a.62.62 0 0 0 .594-.6v-16.76a.611.611 0 0 0-.173-.425L46.98.18a.598.598 0 0 0-.42-.175c-12.637-.01-25.433 0-36.244 0zm.347 1.2h13.433l-5.764 8.83H2.029l8.634-8.83zm14.868 0h5.938l6.284 9.606v15.984H19.247V10.811l6.284-9.606zm7.373 0h13.433l8.634 8.83H38.668l-5.764-8.83zM1.188 11.236H18.06v4.378H1.188v-4.378zm37.752 0h16.872v4.378H38.94v-4.378zM1.188 16.815H18.06v4.302H1.188v-4.302zm37.752 0h16.872v4.302H38.94v-4.302zM1.188 22.318H18.06v4.477H1.188v-4.477zm37.752 0h16.872v4.477H38.94v-4.477z"/>
        <path d="M25.152 11.704v6.29h-.594c-.324.032-.589.35-.555.666.034.316.36.574.684.54h.465v1.712h-.568c-.325.019-.601.325-.581.641.02.316.334.586.658.566h.49v2.264c-.006.32.291.617.62.617s.627-.296.62-.617V22.12h3.794c.329.008.633-.283.633-.604 0-.32-.304-.61-.633-.603h-3.794V19.2h2.813c2.175-.079 3.853-2.006 3.795-4.227-.056-2.144-1.699-3.964-3.77-3.962-1.27 0-2.495 0-3.51-.012-.5-.008-.567.4-.567.704zm1.239.506c.864 0 1.794.02 2.632.009 1.48-.021 2.72 1.193 2.762 2.808.042 1.606-1.136 2.915-2.607 2.968h-2.787V12.21z"/>
    </g>
</svg>
