<svg xmlns="http://www.w3.org/2000/svg" width="41" height="41" viewBox="0 0 41 41">
    <g fill="#FFF" fill-rule="nonzero">
        <path d="M35.676 39.684v-20.37h4.935L20.5 0l-7.916 7.603V2.228H7.309V12.67l-6.92 6.643h4.935v20.37H.049V41H40.95v-1.316h-5.275zM8.621 3.544h2.642V8.87L8.62 11.404v-7.86zM3.662 17.997L20.5 1.824l16.838 16.174H3.662zm30.694 21.686H6.644v-20.37h27.712v20.37z"/>
        <path d="M19.844 11.428h1.321v1.316h-1.321zM22.477 11.428h1.321v1.316h-1.321zM17.202 11.428h1.321v1.316h-1.321zM26.44 27.86h-1.321v-1.969c0-2.534-2.075-4.6-4.619-4.6-2.544 0-4.619 2.066-4.619 4.6v1.97h-1.32v9.854h11.878v-9.854zm-9.238-1.977c0-1.808 1.483-3.285 3.298-3.285s3.298 1.477 3.298 3.285v1.97h-6.596v-1.97zM25.12 36.4H15.88v-7.232h9.238V36.4z"/>
        <path d="M19.844 31.799h1.321v2.631h-1.321z"/>
    </g>
</svg>
