<svg xmlns="http://www.w3.org/2000/svg" width="49" height="41" viewBox="0 0 49 41">
    <g fill="#FFF" fill-rule="nonzero">
        <path d="M45.25 9.1c0-.35-.1-.7-.25-1.05-.3-.5-.8-.9-1.45-1.05l-3.2-.8c-.8-.2-1.6.05-2.15.55-.1-.3-1-2.65-1.25-3.2C35.15.05 31.75.1 31.6.1h-4.1c-.15 0-3.6-.05-5.4 3.45-.15.3-.3.65-.5 1.1-.95 2.2-3.95 2.7-4 2.75l-6.35.8C10.5 7.3 9.3 6.7 7.9 6.7c-1.75 0-3.3 1-3.85 2.4-2 0-3.6 1.65-3.6 3.6v24c0 2 1.65 3.6 3.6 3.6H9.95c.35 0 .6-.3.6-.6v-2.9h8.95c2.6 2.5 6.15 4 10.05 4 3.9 0 7.4-1.5 10.05-4H45c2 0 3.6-1.65 3.6-3.6V12.7c0-1.9-1.5-3.45-3.35-3.6zm-6.5-1c.1-.4.55-.65 1-.65.1 0 3.45.8 3.45.8.3.05.5.25.65.45.1.15.15.35.05.6-.15.5-.7.75-1.3.65l-3.1-.8c-.3-.05-.5-.25-.65-.45-.1-.15-.15-.35-.1-.6zM25.05 10H34c1.4 0 2.65-.75 3.35-1.85.85 2.5 1.7 5.45 2.25 7.5-2.6-2.5-6.15-4.05-10.05-4.05-3.95 0-7.5 1.55-10.15 4.1.6-2.05 1.45-5.1 2.3-7.65.65 1.15 1.9 1.95 3.35 1.95zm2.35-8.6h4.15c.1 0 2.85 0 4.25 2.8.25.5.55 1.2.85 2-.05 1.4-1.2 2.55-2.65 2.55h-8.95c-1.45 0-2.65-1.2-2.65-2.65v-.05c.3-.75.55-1.4.8-1.9 1.4-2.75 4.1-2.75 4.2-2.75zM7.9 8c1.05 0 2 .5 2.5 1.2 0 .05.05.1.1.1.2.3.3.7.3 1.05 0 1.3-1.3 2.4-2.9 2.4-1.6 0-2.9-1.1-2.9-2.4C5 9.05 6.3 8 7.9 8zm-4.15 2.4c0 2 1.85 3.6 4.1 3.6 2.25 0 4.1-1.65 4.1-3.6 0-.35-.05-.65-.15-.95l5.9-.75c.1 0 1.45-.25 2.75-1.05-1 3.05-2.05 6.75-2.6 8.75-.55-.75-1.5-1.25-2.5-1.25H1.6v-2.4c0-1.25.95-2.25 2.15-2.35zM1.6 36.75v-20.4h7.6V39.1H4c-1.3 0-2.4-1.05-2.4-2.35zm8.9-20.4h4.9c1.05 0 1.9.85 1.9 1.9-1.5 2.3-2.4 5.05-2.4 8 0 3.55 1.3 6.85 3.4 9.4h-7.8v-19.3zm5.6 9.9c0-7.4 6-13.4 13.4-13.4s13.4 6 13.4 13.4-6 13.35-13.4 13.35-13.4-6-13.4-13.35zM43.95 24c.85.35 1.4 1.2 1.4 2.15s-.55 1.8-1.4 2.15c.1-.7.15-1.35.15-2.1s-.05-1.5-.15-2.2zm3.45 9.25a2.4 2.4 0 0 1-2.4 2.4h-4.3c1.4-1.7 2.45-3.7 3-5.9 1.7-.35 2.9-1.8 2.9-3.55 0-1.75-1.25-3.25-2.95-3.55-.45-1.75-1.2-3.35-2.2-4.75-.05-.25-1-3.8-2.1-7.4l3.05.75c.2.05.4.05.55.05.7 0 1.4-.3 1.8-.85H45a2.4 2.4 0 0 1 2.4 2.4v20.4z"/>
        <path d="M29.5 14.1c-6.7 0-12.1 5.45-12.1 12.1 0 6.65 5.4 12.15 12.1 12.15 6.7 0 12.1-5.45 12.1-12.1 0-6.65-5.4-12.15-12.1-12.15zm0 23c-6 0-10.9-4.9-10.9-10.9s4.9-10.85 10.9-10.85 10.9 4.9 10.9 10.9S35.5 37.1 29.5 37.1z"/>
        <path d="M29.5 18.6c-4.2 0-7.6 3.4-7.6 7.6 0 4.2 3.4 7.65 7.6 7.65 4.2 0 7.6-3.4 7.6-7.6 0-4.2-3.4-7.65-7.6-7.65zm0 14c-3.5 0-6.4-2.85-6.4-6.4 0-3.55 2.9-6.35 6.4-6.35 3.5 0 6.4 2.85 6.4 6.4 0 3.55-2.9 6.35-6.4 6.35zM7.9 12c1.2 0 2.1-.7 2.1-1.6 0-.9-.95-1.6-2.1-1.6-1.15 0-2.1.7-2.1 1.6 0 .9.9 1.6 2.1 1.6zm0-2c.55 0 .9.25.9.4 0 .15-.35.4-.9.4s-.9-.35-.9-.45c0-.1.35-.35.9-.35zM5.25 17.7c-1.15 0-2.1.95-2.1 2.1 0 1.15.95 2.1 2.1 2.1 1.15 0 2.1-.95 2.1-2.1 0-1.15-.95-2.1-2.1-2.1zm0 3c-.5 0-.9-.4-.9-.9s.4-.9.9-.9.9.4.9.9-.4.9-.9.9z"/>
    </g>
</svg>
