<svg xmlns="http://www.w3.org/2000/svg" width="47" height="47" viewBox="0 0 47 47">
    <path fill="none" fill-rule="nonzero" stroke="#FFF" stroke-width="1.3" d="M29.554 32.923c0 .311.045.616.127.909a12.082 12.082 0 0 1-12.362 0 3.35 3.35 0 0 0-.861-3.294 3.349 3.349 0 0 0-3.293-.862 12.09 12.09 0 0 1 0-12.364 3.349 3.349 0 0 0 3.293-.862 3.35 3.35 0 0 0 .861-3.294 12.042 12.042 0 0 1 6.18-1.702c2.144 0 4.286.569 6.182 1.703a3.35 3.35 0 0 0 .861 3.294 3.347 3.347 0 0 0 3.293.86 12.09 12.09 0 0 1 0 12.365 3.347 3.347 0 0 0-3.293.862 3.35 3.35 0 0 0-.988 2.385m9.747-26.704c.376 0 .753.144 1.04.43a1.473 1.473 0 0 1 0 2.08l-6.375 6.377a1.472 1.472 0 0 1-2.08 0 1.472 1.472 0 0 1 0-2.08l6.375-6.377c.287-.286.663-.43 1.04-.43m-32.642.43c.287-.286.663-.43 1.04-.43s.753.144 1.04.43l6.375 6.377c.277.278.43.647.43 1.04 0 .392-.153.761-.43 1.04a1.472 1.472 0 0 1-2.08 0L6.66 8.729a1.473 1.473 0 0 1 0-2.08m0 33.69a1.473 1.473 0 0 1 0-2.08l6.375-6.376c.287-.287.664-.43 1.04-.43a1.465 1.465 0 0 1 1.47 1.47c0 .392-.153.762-.43 1.04l-6.375 6.376a1.472 1.472 0 0 1-2.08 0m33.681 0a1.472 1.472 0 0 1-2.079 0l-6.375-6.377a1.472 1.472 0 0 1 0-2.08c.287-.286.663-.43 1.04-.43.376 0 .753.144 1.04.43l6.374 6.377a1.473 1.473 0 0 1 0 2.08m1.277-30.197l.068-.068a3.376 3.376 0 0 0 0-4.77 3.374 3.374 0 0 0-4.768 0l-.07.07c-7.904-5.832-18.79-5.832-26.694 0l-.07-.07a3.375 3.375 0 0 0-4.768 0 3.377 3.377 0 0 0 0 4.77l.068.068C2.538 13.987 1 18.622 1 23.494S2.538 33 5.383 36.846l-.068.069a3.377 3.377 0 0 0 0 4.77c.657.656 1.52.985 2.384.985a3.36 3.36 0 0 0 2.384-.986l.068-.068C13.995 44.46 18.629 46 23.5 46c4.87 0 9.505-1.539 13.349-4.384l.068.068c.657.657 1.52.986 2.384.986a3.36 3.36 0 0 0 2.384-.986 3.376 3.376 0 0 0 0-4.77l-.068-.068C44.462 33.001 46 28.366 46 23.494s-1.538-9.507-4.383-13.352"/>
</svg>
