<svg xmlns="http://www.w3.org/2000/svg" width="35" height="51" viewBox="0 0 35 51">
    <path fill="#FCFCFC" fill-rule="nonzero" d="M34.438 31.808l-4.162 4.844 1.703-.155c-2.768 5.749-7.955 9.489-13.641 9.827V14.772h6.648a1.883 1.883 0 0 0 3.575-.838 1.89 1.89 0 0 0-1.89-1.89c-.74 0-1.376.43-1.685 1.052h-6.648v-4.22a4.484 4.484 0 0 0 3.64-4.397C21.977 2.01 19.967 0 17.5 0a4.484 4.484 0 0 0-4.477 4.48 4.484 4.484 0 0 0 3.64 4.397v4.219h-6.649a1.883 1.883 0 0 0-3.575.838 1.89 1.89 0 0 0 1.89 1.89c.74 0 1.376-.43 1.685-1.052h6.648v31.551c-5.686-.337-10.873-4.077-13.641-9.827l1.704.155-4.162-4.843L0 38.17l1.397-1.207c2.947 6.33 8.583 10.515 14.83 11.018L17.5 51l1.273-3.02c6.247-.502 11.884-4.687 14.83-11.017L35 38.17l-.562-6.362zM14.698 4.48A2.806 2.806 0 0 1 17.5 1.676a2.806 2.806 0 0 1 2.802 2.803A2.805 2.805 0 0 1 17.5 7.282a2.805 2.805 0 0 1-2.802-2.803z"/>
</svg>
