<?xml version="1.0" encoding="UTF-8" standalone="no"?>
<svg
   xmlns:dc="http://purl.org/dc/elements/1.1/"
   xmlns:cc="http://creativecommons.org/ns#"
   xmlns:rdf="http://www.w3.org/1999/02/22-rdf-syntax-ns#"
   xmlns:svg="http://www.w3.org/2000/svg"
   xmlns="http://www.w3.org/2000/svg"
   xmlns:sodipodi="http://sodipodi.sourceforge.net/DTD/sodipodi-0.dtd"
   xmlns:inkscape="http://www.inkscape.org/namespaces/inkscape"
   width="25.820999"
   height="27.51226"
   viewBox="0 0 25.820999 27.51226"
   version="1.1"
   id="svg827"
   sodipodi:docname="sales-hypothec.svg"
   inkscape:version="0.92.3 (2405546, 2018-03-11)">
  <metadata
     id="metadata833">
    <rdf:RDF>
      <cc:Work
         rdf:about="">
        <dc:format>image/svg+xml</dc:format>
        <dc:type
           rdf:resource="http://purl.org/dc/dcmitype/StillImage" />
        <dc:title></dc:title>
      </cc:Work>
    </rdf:RDF>
  </metadata>
  <defs
     id="defs831" />
  <sodipodi:namedview
     pagecolor="#ffffff"
     bordercolor="#666666"
     borderopacity="1"
     objecttolerance="10"
     gridtolerance="10"
     guidetolerance="10"
     inkscape:pageopacity="0"
     inkscape:pageshadow="2"
     inkscape:window-width="1920"
     inkscape:window-height="996"
     id="namedview829"
     showgrid="false"
     fit-margin-top="0"
     fit-margin-left="0"
     fit-margin-right="0"
     fit-margin-bottom="0"
     inkscape:zoom="26.702128"
     inkscape:cx="2.747251"
     inkscape:cy="13.823125"
     inkscape:window-x="-8"
     inkscape:window-y="-8"
     inkscape:window-maximized="1"
     inkscape:current-layer="svg827" />
  <path
     d="m 11.305,6.7641366 c 0,1.102 -0.152,2.074 -0.456,2.917 -0.304,0.8420004 -0.716,1.5420004 -1.235,2.0990004 -0.503529,0.546507 -1.119261,0.97769 -1.805,1.264 -0.686318,0.285295 -1.422755,0.430474 -2.166,0.427 -0.758629,0.0052 -1.510777,-0.139896 -2.213,-0.427 -0.685696,-0.281655 -1.299442,-0.713602 -1.796,-1.264 -0.507,-0.557 -0.906,-1.257 -1.197,-2.1000004 -0.291,-0.842 -0.437,-1.814 -0.437,-2.916 0,-1.115 0.146,-2.096 0.437,-2.945 0.291,-0.849 0.69,-1.555 1.197,-2.118 C 2.128353,1.1458172 2.7425,0.71016958 3.43,0.42713658 4.132223,0.14003231 4.884371,-0.00509525 5.643,1.3657728e-4 c 0.785,0 1.52,0.14200000272 2.204,0.42700000272 0.685737,0.2862221 1.29922,0.72139852 1.796,1.27400002 0.513,0.563 0.918,1.27 1.215,2.118 0.298,0.849 0.447,1.83 0.447,2.945 z m -1.444,0 c 0,-0.975 -0.11,-1.811 -0.332,-2.508 -0.222,-0.697 -0.526,-1.27 -0.913,-1.72 -0.363451,-0.4325855 -0.825853,-0.771154 -1.348,-0.987 -0.51596,-0.2097942 -1.068024,-0.31647 -1.625,-0.314 -0.57,0 -1.108,0.104 -1.615,0.314 -0.507,0.209 -0.95,0.538 -1.33,0.988 -0.38,0.45 -0.68,1.022 -0.902,1.719 -0.222,0.697 -0.333,1.533 -0.333,2.508 0,0.975 0.11,1.808 0.333,2.499 0.221,0.69 0.522,1.2570004 0.902,1.7000004 0.38,0.443 0.823,0.77 1.33,0.978 0.512315,0.210291 1.061213,0.317012 1.615,0.314 0.57,0 1.111,-0.104 1.625,-0.314 0.520812,-0.214496 0.983185,-0.549708 1.349,-0.978 0.386,-0.443 0.69,-1.0100004 0.912,-1.7000004 0.221,-0.69 0.332,-1.524 0.332,-2.499 z M 21.508,0.64613658 c 0.07455,-0.099969 0.168402,-0.1839607 0.276,-0.247 0.131412,-0.068913 0.278766,-0.1016964 0.427,-0.095 h 1.273 L 4.18,26.847137 c -0.149011,0.219752 -0.399573,0.348612 -0.665,0.342 H 2.223 Z M 25.821,20.805137 c 0,1.102 -0.152,2.074 -0.456,2.916 -0.304,0.843 -0.712,1.543 -1.225,2.1 -0.499096,0.547279 -1.112171,0.978412 -1.796,1.263 -0.686247,0.285637 -1.422687,0.431157 -2.166,0.428 -0.759033,0.005 -1.511536,-0.140424 -2.214,-0.428 -0.68524,-0.281495 -1.298625,-0.713086 -1.795,-1.263 -0.507,-0.557 -0.906,-1.257 -1.197,-2.1 -0.291,-0.842 -0.437,-1.814 -0.437,-2.916 0,-1.115 0.146,-2.096 0.437,-2.945 0.291,-0.849 0.69,-1.555 1.197,-2.118 0.494066,-0.555196 1.10786,-0.990835 1.795,-1.274 0.702534,-0.287234 1.455035,-0.432364 2.214,-0.427 0.785,0 1.52,0.142 2.204,0.427 0.685378,0.286351 1.298508,0.721519 1.795,1.274 0.514,0.563 0.916,1.27 1.207,2.118 0.291,0.849 0.437,1.83 0.437,2.945 z m -1.444,0 c 0,-0.975 -0.11,-1.814 -0.333,-2.517 -0.221,-0.704 -0.522,-1.28 -0.902,-1.73 -0.359093,-0.433777 -0.819241,-0.772707 -1.34,-0.987 -0.515648,-0.209666 -1.06736,-0.316339 -1.624,-0.314 -0.57,0 -1.111,0.104 -1.625,0.314 -0.513,0.209 -0.959,0.538 -1.339,0.988 -0.38,0.45 -0.68,1.025 -0.903,1.729 -0.221,0.703 -0.332,1.542 -0.332,2.517 0,0.975 0.11,1.808 0.333,2.498 0.221,0.69 0.522,1.258 0.902,1.701 0.38,0.443 0.826,0.766 1.34,0.969 0.517146,0.20344 1.068283,0.306609 1.624,0.304 0.555717,0.0026 1.106854,-0.10056 1.624,-0.304 0.514,-0.203 0.96,-0.526 1.34,-0.969 0.38,-0.443 0.68,-1.01 0.902,-1.7 0.222,-0.69 0.333,-1.524 0.333,-2.499 z"
     id="path825"
     inkscape:connector-curvature="0"
     style="fill:#ffffff;fill-rule:evenodd"
     sodipodi:nodetypes="scccccccssccccccsssccccssscscccccsccccccccscccccccssccccccsscccccscscscccsss" />
</svg>
