<svg xmlns="http://www.w3.org/2000/svg" width="47" height="29" viewBox="0 0 47 29">
    <path fill="#FFF" fill-rule="evenodd" d="M15.943 26.594V28H2.073v-1.406h6.175V4.782c0-.43.019-.887.057-1.368L2.377 8.677c-.177.152-.355.209-.532.171a.75.75 0 0 1-.418-.228l-.551-.76 7.771-6.859h1.425v25.593h5.871zM32.245 7.575c0 1.102-.152 2.074-.456 2.917-.304.842-.716 1.542-1.235 2.099a5.155 5.155 0 0 1-1.805 1.264 5.575 5.575 0 0 1-2.166.427 5.743 5.743 0 0 1-2.213-.427 4.954 4.954 0 0 1-1.796-1.264c-.507-.557-.906-1.257-1.197-2.1-.291-.842-.437-1.814-.437-2.916 0-1.115.146-2.096.437-2.945.291-.849.69-1.555 1.197-2.118a4.904 4.904 0 0 1 1.796-1.274 5.743 5.743 0 0 1 2.213-.427c.785 0 1.52.142 2.204.427a5.01 5.01 0 0 1 1.796 1.274c.513.563.918 1.27 1.215 2.118.298.849.447 1.83.447 2.945zm-1.444 0c0-.975-.11-1.811-.332-2.508-.222-.697-.526-1.27-.913-1.72a3.514 3.514 0 0 0-1.348-.987 4.264 4.264 0 0 0-1.625-.314c-.57 0-1.108.104-1.615.314-.507.209-.95.538-1.33.988-.38.45-.68 1.022-.902 1.719-.222.697-.333 1.533-.333 2.508 0 .975.11 1.808.333 2.499.221.69.522 1.257.902 1.7.38.443.823.77 1.33.978a4.193 4.193 0 0 0 1.615.314c.57 0 1.111-.104 1.625-.314a3.554 3.554 0 0 0 1.349-.978c.386-.443.69-1.01.912-1.7.221-.69.332-1.524.332-2.499zm11.647-6.118a.932.932 0 0 1 .276-.247.838.838 0 0 1 .427-.095h1.273L25.12 27.658a.78.78 0 0 1-.665.342h-1.292L42.448 1.457zm4.313 20.159c0 1.102-.152 2.074-.456 2.916-.304.843-.712 1.543-1.225 2.1a5.064 5.064 0 0 1-1.796 1.263 5.575 5.575 0 0 1-2.166.428 5.743 5.743 0 0 1-2.214-.428 4.954 4.954 0 0 1-1.795-1.263c-.507-.557-.906-1.257-1.197-2.1-.291-.842-.437-1.814-.437-2.916 0-1.115.146-2.096.437-2.945.291-.849.69-1.555 1.197-2.118a4.904 4.904 0 0 1 1.795-1.274 5.743 5.743 0 0 1 2.214-.427c.785 0 1.52.142 2.204.427a5.01 5.01 0 0 1 1.795 1.274c.514.563.916 1.27 1.207 2.118.291.849.437 1.83.437 2.945zm-1.444 0c0-.975-.11-1.814-.333-2.517-.221-.704-.522-1.28-.902-1.73a3.438 3.438 0 0 0-1.34-.987 4.264 4.264 0 0 0-1.624-.314c-.57 0-1.111.104-1.625.314-.513.209-.959.538-1.339.988-.38.45-.68 1.025-.903 1.729-.221.703-.332 1.542-.332 2.517 0 .975.11 1.808.333 2.498.221.69.522 1.258.902 1.701.38.443.826.766 1.34.969a4.38 4.38 0 0 0 1.624.304 4.38 4.38 0 0 0 1.624-.304c.514-.203.96-.526 1.34-.969.38-.443.68-1.01.902-1.7.222-.69.333-1.524.333-2.499z"/>
</svg>
