<svg xmlns="http://www.w3.org/2000/svg" width="42" height="46" viewBox="0 0 42 46">
    <path fill="#FFF" fill-rule="evenodd" d="M18.931 0a.787.787 0 0 0-.576.245L.22 19.26c-.48.504-.124 1.34.57 1.34h2.365v21.392a.79.79 0 0 0 .789.792h21.289V41.2h-1.577V27.73a.79.79 0 0 0-.789-.792h-7.885a.79.79 0 0 0-.788.793V41.2H4.732V20.6h28.385v2.377h1.577V20.6h2.366c.694 0 1.05-.836.57-1.34l-2.936-3.077V7.131a.79.79 0 0 0-.788-.793h-3.154a.79.79 0 0 0-.789.793v4.091L19.495.245A.787.787 0 0 0 18.93 0zm-.006 1.937l16.287 17.078H2.638L18.925 1.937zM31.54 7.923h1.577v6.605l-1.595-1.672a.797.797 0 0 0 .018-.18V7.924zm2.93 15.902c-2.993 0-5.418 2.476-5.418 5.506v8.95l-.114.068c-.285.17-.744.414-1.121.814a3.765 3.765 0 0 0-.98 2.133c-.033.306-.028.65-.028.866V46H42v-4.268-.083c-.011-1.04-.43-2.02-1.176-2.68-.25-.223-.51-.366-.68-.468l-.26-.155v-9.021a5.516 5.516 0 0 0-2.731-4.788h-.003a6.18 6.18 0 0 0-.351-.186H36.785c-.095-.044-.202-.095-.326-.142a5.372 5.372 0 0 0-1.99-.384zm0 1.584c.5 0 .975.099 1.413.273h.006c.064.025.141.062.228.102.09.044.17.084.243.127h.004a3.916 3.916 0 0 1 1.943 3.414v8.077l-1.001-.597a.87.87 0 0 1-.419-.749v-.997c.009-.011.02-.022.028-.034.562-.79.896-1.775.896-2.776v-1.962-.022-1.482l-.588-.158c-.396-.105-.604-.226-1.097-.492l-.024-.019c-.469-.39-1.212-.386-1.67.019-.01.016-.394.149-.902.16-.509.017-1.094-.04-1.592-.04h-.721l-.09 1.003v2.993c0 .932.296 1.844.79 2.603v.814c0 .562-.292 1.076-.759 1.356l-.53.315v-8.006c0-2.19 1.706-3.922 3.841-3.922zm1.632 2.705c.009.008.021.01.03.019l-.15-.105.12.086zm-20.331.409h6.308V41.2H15.77V28.523zm19.422.873v.006l.043.022.114.061c.254.137.587.268.884.406v.328c0 .016-.003.032-.003.043l.003.037.012.112a.73.73 0 0 1-.009-.059c-.003-.033-.003-.041-.003-.053v1.944c0 .63-.24 1.348-.6 1.854s-.786.758-1.165.758c-.378 0-.804-.252-1.164-.758a3.392 3.392 0 0 1-.6-1.854v-1.934c0-.016.003-.036.003-.047l-.003-.018v-.393c.293.015.525.03.859.021a3.21 3.21 0 0 0 1.63-.476zm-1.77 6.8c.324.145.667.25 1.046.25.31 0 .596-.07.869-.17.07.778.486 1.487 1.161 1.89l.554.332c-.074.884-.551 1.68-1.312 2.114a2.55 2.55 0 0 1-2.633-.05c-.737-.46-1.179-1.267-1.226-2.145l.083-.05c.79-.472 1.3-1.275 1.457-2.172zm-3.013 3.1a4.25 4.25 0 0 0 1.863 2.61 4.142 4.142 0 0 0 4.248.083 4.255 4.255 0 0 0 1.995-2.615l.82.489c.152.092.412.266.443.294.378.335.637.895.644 1.51V44.412H28.386V42.16c0-.212.006-.555.019-.684.06-.488.264-.927.554-1.235.068-.071.512-.383.783-.544l.668-.4z"/>
</svg>
