<svg xmlns="http://www.w3.org/2000/svg" width="40" height="40" viewBox="0 0 40 40">
    <g fill="#FFF" fill-rule="nonzero">
        <path d="M38.063 0H1.937C.867 0 0 .866 0 1.937v36.126C0 39.133.866 40 1.937 40h36.126c1.07 0 1.937-.866 1.937-1.937V1.937C40 .867 39.134 0 38.063 0zM1.937 1.291h36.126c.354 0 .646.292.646.646V7.74H1.29V1.937c0-.354.292-.646.646-.646zM38.063 38.71H1.937a.649.649 0 0 1-.646-.646V9.031H38.71v29.032a.649.649 0 0 1-.646.646z"/>
        <path d="M14.843 16.685v-3.134H13.55v4.118l-4.905 3.756.787 1.024 1.543-1.181v13.575H29.04V21.268l1.544 1.18.787-1.023L20 12.74l-5.157 3.945zm2.574 16.866v-7.74h5.158v7.74h-5.158zm10.323 0h-3.874V24.52h-7.74v9.031h-3.874V20.283l7.74-5.92 7.74 5.92v13.268h.008zM34.197 6.449c1.07 0 1.937-.866 1.937-1.937 0-1.071-.866-1.937-1.937-1.937-1.071 0-1.937.866-1.937 1.937 0 1.07.866 1.937 1.937 1.937zm0-2.575c.354 0 .646.291.646.646a.649.649 0 0 1-.646.645.649.649 0 0 1-.646-.645c0-.355.284-.646.646-.646zM29.031 6.449c1.071 0 1.938-.866 1.938-1.937 0-1.071-.867-1.937-1.938-1.937-1.07 0-1.937.866-1.937 1.937a1.94 1.94 0 0 0 1.937 1.937zm0-2.575c.355 0 .646.291.646.646a.649.649 0 0 1-.646.645.649.649 0 0 1-.645-.645c0-.355.291-.646.645-.646zM23.874 6.449c1.07 0 1.937-.866 1.937-1.937 0-1.071-.866-1.937-1.937-1.937-1.07 0-1.937.866-1.937 1.937 0 1.07.866 1.937 1.937 1.937zm0-2.575c.354 0 .646.291.646.646a.649.649 0 0 1-.646.645.649.649 0 0 1-.646-.645c0-.355.284-.646.646-.646zM3.874 3.874H20v1.291H3.874z"/>
        <path d="M18.063 21.937h3.874v-3.874h-3.874v3.874zm1.291-2.583h1.292v1.292h-1.292v-1.292zM19.354 36.126h1.291v1.291h-1.291zM21.937 36.126h1.291v1.291h-1.291zM16.772 36.126h1.291v1.291h-1.291z"/>
    </g>
</svg>
