<svg xmlns="http://www.w3.org/2000/svg" width="42" height="41" viewBox="0 0 42 41">
    <g fill="#FFF" fill-rule="nonzero">
        <path d="M35.907 39.617V18.954h5.787L21 .05l-8.185 7.476V.96H7.449v11.47L.306 18.954h5.787v20.663H0v1.334h42v-1.334h-6.093zM8.805 2.294h2.654v6.467l-2.654 2.425V2.294zM34.551 17.62v21.997H7.449V17.62H3.754L21 1.871l17.246 15.757h-3.695v-.008z"/>
        <path d="M21 15.619c-5.606 0-10.161 4.482-10.161 9.998 0 5.515 4.555 9.998 10.161 9.998s10.161-4.483 10.161-9.998c0-5.516-4.555-9.998-10.161-9.998zm0 18.67c-4.853 0-8.805-3.889-8.805-8.664s3.952-8.672 8.805-8.672 8.805 3.889 8.805 8.664-3.952 8.672-8.805 8.672z"/>
        <path d="M23.836 25.771a4.742 4.742 0 0 0-1.166-.528 19.161 19.161 0 0 0-1.124-.301v-3.157c.678.033 1.29.139 1.819.318.512.187.777.179 1.025-.122a.804.804 0 0 0 .19-.513c0-.358-.182-.618-.52-.732-.729-.269-1.58-.431-2.523-.48v-.96c0-.138-.05-.26-.148-.358-.19-.187-.546-.187-.728.008a.487.487 0 0 0-.132.35v.976c-1.05.082-1.902.415-2.53.976a2.863 2.863 0 0 0-.703.977 3.116 3.116 0 0 0-.231 1.236c0 .464.115.879.339 1.22.215.342.545.651.967.92.405.26 1.116.528 2.166.805v3.026c-.893-.04-1.662-.203-2.282-.472-.48-.211-.81-.203-1.083.082-.14.146-.207.35-.207.602 0 .195.091.463.513.65.959.4 1.984.635 3.05.7v.976c0 .301.183.488.497.488.14 0 .264-.04.355-.13.1-.09.15-.211.15-.358v-.976c1.008-.081 1.843-.382 2.463-.903.67-.553 1.009-1.26 1.009-2.09.016-.96-.38-1.717-1.166-2.23zm-3.282-1.073a8.885 8.885 0 0 1-.62-.18c-.794-.268-1.183-.675-1.183-1.236 0-.431.174-.756.53-1 .338-.228.76-.383 1.264-.448v2.864h.009zm2.662 3.864c-.257.472-.81.756-1.662.838v-2.75c.587.163 1 .317 1.248.464.174.105.315.227.414.358.09.122.14.284.14.496 0 .22-.05.415-.14.594z"/>
    </g>
</svg>
