<svg xmlns="http://www.w3.org/2000/svg" width="46" height="39" viewBox="0 0 46 39">
    <path fill="#FFF" fill-rule="nonzero" d="M44.686 14.29L23.432.957a.816.816 0 0 0-.84-.015L1.34 13.233a.833.833 0 0 0-.414.727c0 .3.16.577.417.723l3.587 2.059v9.53a3.555 3.555 0 0 0-2.746 3.471c0 1.662 2.345 5.564 2.815 6.329a.818.818 0 0 0 1.393 0c.47-.765 2.814-4.667 2.814-6.329a3.55 3.55 0 0 0-2.635-3.436v-8.624l3.384 1.942a.846.846 0 0 0-.097.375v11.77c0 3.842 5.65 6.737 13.143 6.737 7.738 0 13.143-2.627 13.143-6.387V20.19l8.489-4.452a.837.837 0 0 0 .054-1.448zM7.564 29.743c0 .694-.947 2.625-1.87 4.26-.923-1.633-1.87-3.566-1.87-4.26 0-1.045.838-1.896 1.87-1.896s1.87.851 1.87 1.896zM34.5 32.12c0 2.288-4.03 4.72-11.5 4.72-7.104 0-11.5-2.632-11.5-5.07V20.51l11.09 6.362a.81.81 0 0 0 .781.013L34.5 21.052V32.12zm-11.487-6.922L3.41 13.955 22.984 2.637l19.605 12.298-19.576 10.263z"/>
</svg>
