<svg xmlns="http://www.w3.org/2000/svg" width="44" height="41" viewBox="0 0 44 41">
    <path fill="#FFF" fill-rule="nonzero" d="M40.414 13.352h-7.05V11.96h.463a.7.7 0 0 0 .7-.7v-3.1a.7.7 0 0 0-.7-.7h-9.661a.7.7 0 0 0-.7.7v3.1a.7.7 0 0 0 .7.7h.46v1.392h-6.264a7.643 7.643 0 0 0 2.474-5.633c0-1.525-.45-3.003-1.302-4.273A7.643 7.643 0 0 0 13.178.061C8.956.061 5.52 3.496 5.52 7.72c0 3.217 1.997 5.972 4.813 7.104C4.597 16.123.3 21.257.3 27.38V39.56a.7.7 0 0 0 .7.7H25.356a.7.7 0 0 0 .7-.7V35.62H40.7c1.654 0 3-1.345 3-3V16.63a3.286 3.286 0 0 0-3.286-3.278zM24.866 8.86h8.261v1.7h-8.261v-1.7zm7.098 3.103v1.389h-5.938v-1.389h5.938zM6.92 7.72a6.265 6.265 0 0 1 6.258-6.258c2.09 0 4.031 1.034 5.194 2.766a6.25 6.25 0 0 1 1.064 3.492 6.249 6.249 0 0 1-1.064 3.492 6.245 6.245 0 0 1-5.194 2.766A6.265 6.265 0 0 1 6.92 7.719zm9.22 21.88v9.26h-5.923v-9.26a.7.7 0 0 0-.7-.7H7.273l5.905-7.161 5.906 7.16h-2.245a.7.7 0 0 0-.7.7zm8.516 5.321v3.939H17.54v-8.56h3.029a.7.7 0 0 0 .54-1.146l-7.39-8.961c-.265-.322-.814-.322-1.08 0l-7.39 8.96a.7.7 0 0 0 .54 1.146h3.03v8.56H1.7V27.38c0-6.329 5.15-11.478 11.478-11.478.673 0 1.348.062 2.016.185a11.06 11.06 0 0 1 3.429 1.2c.995.529 1.895 1.193 2.674 1.972a11.363 11.363 0 0 1 2.332 3.406c.01.178.08.34.2.459a10.717 10.717 0 0 1 .73 2.807l.02.138c.052.459.077.888.077 1.311v7.54zm17.644-2.3c0 .882-.718 1.6-1.6 1.6H26.056v-6.84c0-.26-.01-.522-.027-.791-.002-.02-.001-.038-.002-.057H42.3v6.088zm0-7.488H25.856c-.008-.049-.02-.097-.03-.145-.017-.098-.038-.195-.059-.292a12.281 12.281 0 0 0-.36-1.336l-.01-.032h8.275a.7.7 0 1 0 0-1.4h-8.846a12.829 12.829 0 0 0-2.538-3.656 12.64 12.64 0 0 0-3-2.217 12.483 12.483 0 0 0-1.043-.504 12.42 12.42 0 0 0-.72-.285l-.14-.053a12.413 12.413 0 0 0-.718-.225c.273-.152.584-.235.91-.235h22.837c1.04 0 1.886.843 1.886 1.878v8.502z"/>
</svg>
