<svg xmlns="http://www.w3.org/2000/svg" width="52" height="52" viewBox="0 0 52 52">
    <g fill="#FFF" fill-rule="nonzero">
        <path d="M49.482 0H2.518A2.516 2.516 0 0 0 0 2.518v46.964A2.516 2.516 0 0 0 2.518 52h46.964A2.516 2.516 0 0 0 52 49.482V2.518A2.516 2.516 0 0 0 49.482 0zM2.518 1.679h46.964c.46 0 .84.378.84.84v7.543H1.678V2.518c0-.46.378-.84.84-.84zM49.482 50.32H2.518a.843.843 0 0 1-.84-.84v-37.74h48.643v37.74c0 .462-.378.84-.84.84z"/>
        <path d="M19.295 21.69v-4.073h-1.678v5.353l-6.378 4.883 1.024 1.33 2.006-1.535v17.647h23.482V27.648l2.006 1.535 1.024-1.33L26 16.563l-6.705 5.128zm3.348 21.927V33.554h6.704v10.063h-6.704zm13.42 0h-5.037V31.876H20.964v11.74h-5.036V26.37L25.99 18.67l10.062 7.698v17.248h.01zM44.456 8.383a2.516 2.516 0 0 0 2.518-2.518 2.516 2.516 0 0 0-2.518-2.518 2.516 2.516 0 0 0-2.518 2.518 2.516 2.516 0 0 0 2.518 2.518zm0-3.347c.46 0 .84.379.84.84 0 .46-.38.839-.84.839a.843.843 0 0 1-.84-.84c0-.46.369-.839.84-.839zM37.74 8.383a2.516 2.516 0 0 0 2.52-2.518 2.516 2.516 0 0 0-2.52-2.518 2.516 2.516 0 0 0-2.517 2.518 2.523 2.523 0 0 0 2.518 2.518zm0-3.347c.462 0 .84.379.84.84 0 .46-.378.839-.84.839a.843.843 0 0 1-.838-.84c0-.46.378-.839.839-.839zM31.036 8.383a2.516 2.516 0 0 0 2.518-2.518 2.516 2.516 0 0 0-2.518-2.518 2.516 2.516 0 0 0-2.518 2.518 2.516 2.516 0 0 0 2.518 2.518zm0-3.347c.46 0 .84.379.84.84 0 .46-.38.839-.84.839a.843.843 0 0 1-.84-.84c0-.46.37-.839.84-.839zM5.036 5.036H26v1.679H5.036z"/>
        <path d="M23.482 28.518h5.036v-5.036h-5.036v5.036zm1.679-3.357h1.678v1.678h-1.678v-1.678zM25.161 46.964h1.679v1.679h-1.679zM28.518 46.964h1.679v1.679h-1.679zM21.803 46.964h1.679v1.679h-1.679z"/>
    </g>
</svg>
