<svg xmlns="http://www.w3.org/2000/svg" width="55" height="55" viewBox="0 0 55 55">
    <g fill="#FFF" fill-rule="nonzero">
        <path d="M15.97 31.051c5.066 0 8.867-7.535 8.867-12.418 0-4.894-3.985-8.867-8.868-8.867-4.882 0-8.867 3.984-8.867 8.867-.01 4.904 3.974 12.418 8.867 12.418zm0-19.52c3.908 0 7.091 3.183 7.091 7.091 0 4.006-3.313 10.643-7.092 10.643-3.778 0-7.091-6.637-7.091-10.643-.01-3.908 3.172-7.091 7.091-7.091z"/>
        <path d="M23.17 29.59l-4.256 9.993-.985-4.991h1.58v-1.776h-7.09v1.776h1.58l-.996 4.958-4.244-9.971C3.042 31.235 0 35.782 0 40.806V55h31.939V40.806c0-5.024-3.075-9.625-8.77-11.216zm-7.363 5.002h.314l1.56 7.892-1.722 4.039-1.733-4.082 1.581-7.85zm14.356 18.632H27.5v-7.979h-1.776v7.98H6.214v-7.98H4.44v7.98H1.776V40.805a9.738 9.738 0 0 1 5.998-9.008l8.195 19.25 8.196-19.25a9.727 9.727 0 0 1 5.998 9.008v12.418zM50.561 0h-19.51a4.445 4.445 0 0 0-4.439 4.439v17.745a4.445 4.445 0 0 0 4.44 4.439v4.807l4.806-4.807h14.703A4.445 4.445 0 0 0 55 22.184V4.44A4.445 4.445 0 0 0 50.561 0zm2.663 22.173a2.661 2.661 0 0 1-2.663 2.664h-15.45l-2.295 2.295v-2.295H31.04a2.661 2.661 0 0 1-2.663-2.664V4.44a2.661 2.661 0 0 1 2.663-2.663h19.521a2.661 2.661 0 0 1 2.663 2.663v17.734z"/>
        <path d="M46.133 5.327h-1.776v1.927l-3.55-4.18-10.2 12.019h3.097v7.968h14.194v-7.98h3.096l-4.872-5.737V5.327h.01zm-6.226 15.958v-2.663h1.776v2.663h-1.776zm6.226 0h-2.674v-4.439h-5.327v4.44h-2.653v-6.204h10.643v6.203h.01zM34.44 13.306l6.366-7.503 6.366 7.503H34.44z"/>
    </g>
</svg>
