<svg xmlns="http://www.w3.org/2000/svg" width="56" height="56" viewBox="0 0 56 56">
    <g fill="#FFF" fill-rule="nonzero">
        <path d="M6.452 11.013v7.055H4.637v1.808h14.51v-1.808H17.33v-7.055l1.173.959 1.151-1.4-7.769-6.317-7.758 6.317 1.151 1.4 1.173-.96zm9.064-1.478v8.533H8.267V9.535l3.63-2.954 3.62 2.954z"/>
        <path d="M10.99 10.836h1.815v1.808H10.99zM4.637 24.384H32.77v1.808H4.637zM4.637 36.124h21.758v1.808H4.637zM4.637 49.672h1.815v1.808H4.637zM8.267 49.672h1.815v1.808H8.267zM11.897 49.672h1.815v1.808h-1.815z"/>
        <path d="M54.572 18.024c-1.77-1.764-4.648-1.764-6.408 0l-1.283 1.278-2.568-2.557-4.305 4.288V12.27L27.679 0H.1v56h39.898V38.924L54.56 24.417a4.522 4.522 0 0 0 .011-6.393zM28.21 3.087l8.688 8.653H28.21V3.087zm9.983 51.105H1.915V1.808h24.48v11.74h11.787v9.293l-2.856 2.844 1.284 1.279 7.692-7.662 1.284 1.28L22.31 43.763l-1.604 7.98 8.012-1.598 9.463-9.425v13.471h.01zm-14.487-8.146l2.734 2.723-3.42.683.686-3.406zm4.57 1.995l-3.85-3.836 3.209-3.197 3.851 3.836-3.21 3.197zm4.494-4.465l-3.851-3.836 17.95-17.88 3.852 3.836-17.951 17.88zM53.289 23.14l-1.284 1.278-3.852-3.836 1.284-1.279a2.733 2.733 0 0 1 3.852 0 2.707 2.707 0 0 1 0 3.837z"/>
    </g>
</svg>
