<svg xmlns="http://www.w3.org/2000/svg" width="57" height="56" viewBox="0 0 57 56">
    <g fill="#FFF" fill-rule="nonzero">
        <path d="M48.73 54.111V25.89h7.855L28.5.067l-11.108 10.21V1.312H10.11v15.667l-9.695 8.91H8.27v28.223H0v1.822h57v-1.822h-8.27zM11.95 3.133h3.602v8.834l-3.602 3.31V3.134zm34.94 20.934V54.11H10.11V24.067H5.094L28.5 2.556l23.406 21.522H46.89v-.011z"/>
        <path d="M28.5 21.333c-7.607 0-13.79 6.123-13.79 13.656s6.183 13.655 13.79 13.655c7.607 0 13.79-6.122 13.79-13.655 0-7.533-6.183-13.656-13.79-13.656zm0 25.5c-6.586 0-11.95-5.31-11.95-11.833 0-6.522 5.364-11.844 11.95-11.844 6.586 0 11.95 5.31 11.95 11.833 0 6.522-5.364 11.844-11.95 11.844z"/>
        <path d="M32.349 35.2a6.416 6.416 0 0 0-1.582-.722 25.872 25.872 0 0 0-1.526-.411v-4.311c.92.044 1.75.188 2.468.433.696.255 1.055.244 1.391-.167.169-.21.258-.444.258-.7 0-.489-.246-.844-.706-1-.988-.366-2.144-.589-3.423-.655v-1.311a.668.668 0 0 0-.202-.49c-.258-.255-.74-.255-.987.012a.668.668 0 0 0-.18.478v1.333c-1.425.111-2.58.567-3.433 1.333a3.91 3.91 0 0 0-.954 1.334c-.213.5-.314 1.066-.314 1.688 0 .634.157 1.2.46 1.667.292.467.74.889 1.313 1.256.55.355 1.515.722 2.94 1.1V40.2c-1.212-.056-2.256-.278-3.097-.644-.651-.29-1.1-.278-1.47.11-.19.2-.28.478-.28.823 0 .267.123.633.695.889 1.302.544 2.693.866 4.14.955v1.334c0 .41.247.666.674.666.19 0 .359-.055.482-.177a.634.634 0 0 0 .202-.49v-1.333c1.369-.11 2.502-.522 3.344-1.233.909-.756 1.369-1.722 1.369-2.856.022-1.31-.516-2.344-1.582-3.044zm-4.455-1.467c-.28-.066-.56-.155-.841-.244-1.078-.367-1.605-.922-1.605-1.689 0-.589.236-1.033.718-1.367.46-.31 1.032-.522 1.717-.61v3.91h.011zm3.613 5.278c-.348.645-1.1 1.033-2.255 1.145V36.4c.796.222 1.357.433 1.694.633.236.145.426.311.561.49.124.166.19.388.19.677 0 .3-.066.567-.19.811z"/>
    </g>
</svg>
