<svg xmlns="http://www.w3.org/2000/svg" width="47" height="45" viewBox="0 0 47 45">
    <g fill="none" fill-rule="nonzero">
        <path fill="#FF9D00" d="M24.272 9.914h3.683v3.691h-3.683zM18.765 15.469h3.683v3.691h-3.683zM24.272 15.469h3.683v3.691h-3.683zM18.765 9.914h3.683v3.691h-3.683z"/>
        <path fill="#3863C5" d="M46.263 21.375L24.166.387l-.07-.07-.105-.106c-.035-.035-.07-.035-.105-.07-.035-.036-.07-.036-.14-.07-.036 0-.07-.036-.14-.036-.036 0-.07-.035-.141-.035h-.561c-.035 0-.07.035-.14.035-.036 0-.106.035-.14.035-.036 0-.071.035-.141.07-.035.036-.07.036-.105.07-.035.036-.07.071-.106.071.035.07 0 .07-.035.106L.737 20.812a1.436 1.436 0 0 0-.07 2.004c.28.282.63.457 1.017.457.35 0 .701-.14.982-.386l2.63-2.496v23.203c0 .422.176.808.491 1.09.246.21.562.316.912.316.07 0 .176 0 .246-.035a89.627 89.627 0 0 0 9.926-2.356c.736-.21 1.157-1.02.947-1.757-.21-.739-1.017-1.16-1.754-.95a85.146 85.146 0 0 1-7.962 1.97V17.894v-.176L23.22 3.339l15.714 14.907v23.625c-4.49-.914-8.523-2.039-11.996-3.34 9.295-5.097 8.91-10.441 7.717-13.324-.702-1.723-2.315-2.883-4.35-3.129-2.35-.281-4.84.738-6.769 2.672-1.929-1.934-4.42-2.953-6.77-2.672-2.034.246-3.647 1.406-4.349 3.129-.912 2.285-.771 4.64.421 6.82 3.052 5.59 13.013 10.336 27.288 12.938.07 0 .176.035.246.035.316 0 .631-.105.912-.316.316-.282.49-.668.49-1.09V20.918l2.631 2.496c.281.246.632.387.983.387.385 0 .736-.14 1.017-.457a1.467 1.467 0 0 0-.14-1.969zm-31.04 9.316c-.807-1.476-.877-2.918-.281-4.394.315-.774 1.087-1.266 2.104-1.371 1.438-.176 3.613.492 5.297 2.847 0 .036.035.036.07.07l.105.106.105.106c.035 0 .035.035.07.035 0 0 .035 0 .035.035.035.035.07.07.14.07.036.035.07.035.106.07.035 0 .07.036.14.036.035 0 .105.035.14.035h.561c.036 0 .07-.035.141-.035.035 0 .105-.035.14-.035.035 0 .07-.036.105-.07.036-.036.106-.036.14-.071 0 0 .036 0 .036-.035.035 0 .035-.035.07-.035l.105-.106.105-.105c0-.035.036-.035.07-.07 1.72-2.356 3.859-3.024 5.297-2.848 1.017.105 1.789.633 2.104 1.37 2 4.923-4.279 8.825-8.523 10.829-4.209-1.969-7.12-4.148-8.383-6.434z"/>
    </g>
</svg>
