<svg xmlns="http://www.w3.org/2000/svg" width="52" height="52" viewBox="0 0 52 52">
    <g fill="none" fill-rule="evenodd">
        <circle cx="25" cy="25" r="25" fill="#3863C5"/>
        <path fill="#FFF" fill-rule="nonzero" d="M38.354 30.908a1.837 1.837 0 0 0-.093-.176c-.477-.843-1.389-1.878-2.735-3.106l-.028-.028-.014-.014-.015-.014h-.014c-.611-.571-.998-.956-1.16-1.152-.296-.375-.363-.755-.2-1.139.114-.29.544-.904 1.288-1.84.391-.497.702-.895.93-1.195 1.652-2.155 2.368-3.532 2.148-4.132l-.085-.14c-.057-.084-.205-.162-.444-.232-.239-.07-.544-.082-.916-.035l-4.124.028a.545.545 0 0 0-.286.007l-.186.042-.072.035-.057.043a.632.632 0 0 0-.158.147.96.96 0 0 0-.143.246 22.762 22.762 0 0 1-1.532 3.162 29.866 29.866 0 0 1-.974 1.51c-.295.427-.544.741-.744.942-.2.202-.382.363-.544.485-.162.122-.286.174-.372.155a10.658 10.658 0 0 1-.244-.057.941.941 0 0 1-.322-.344 1.52 1.52 0 0 1-.165-.548 5.933 5.933 0 0 1-.05-.57 11.67 11.67 0 0 1 .008-.674c.01-.29.014-.487.014-.59 0-.356.007-.743.021-1.16.015-.416.026-.747.036-.99.01-.244.014-.501.014-.773s-.016-.485-.05-.64a2.16 2.16 0 0 0-.15-.45.761.761 0 0 0-.293-.337 1.672 1.672 0 0 0-.48-.19c-.506-.112-1.15-.173-1.933-.182-1.775-.019-2.916.094-3.422.337-.2.103-.382.244-.544.422-.172.206-.196.319-.072.337.573.084.979.286 1.217.604l.086.17c.067.12.134.336.2.646.068.309.11.65.13 1.025.047.684.047 1.27 0 1.757-.048.487-.093.867-.136 1.138a2.248 2.248 0 0 1-.194.66 2.772 2.772 0 0 1-.172.31.244.244 0 0 1-.071.07 1.09 1.09 0 0 1-.387.07c-.134 0-.296-.065-.487-.196a3.411 3.411 0 0 1-.594-.541 7.236 7.236 0 0 1-.694-.963 16.7 16.7 0 0 1-.802-1.462l-.23-.407a34.808 34.808 0 0 1-.586-1.145 21.88 21.88 0 0 1-.659-1.455.928.928 0 0 0-.343-.45l-.072-.042a.986.986 0 0 0-.229-.12 1.542 1.542 0 0 0-.33-.09l-3.922.027c-.401 0-.673.09-.817.267l-.057.085a.447.447 0 0 0-.043.225c0 .103.029.23.086.379a46.01 46.01 0 0 0 1.868 3.822c.673 1.228 1.258 2.216 1.754 2.966.497.75 1.003 1.457 1.518 2.122.515.665.857 1.091 1.024 1.278.167.188.298.328.394.422l.358.337c.229.225.565.495 1.009.808.444.314.935.623 1.475.928.54.304 1.167.553 1.883.745.716.192 1.412.27 2.09.232h1.647c.334-.028.587-.132.759-.31l.057-.07a.922.922 0 0 0 .107-.26c.033-.117.05-.246.05-.386-.01-.403.021-.766.093-1.089.071-.323.153-.567.244-.73.09-.165.193-.303.307-.415a1.24 1.24 0 0 1 .244-.204.944.944 0 0 1 .114-.05c.23-.074.499-.002.81.219.31.22.6.492.873.815.272.323.599.686.98 1.089.383.403.717.702 1.003.9l.286.168c.191.113.44.216.745.31.305.093.572.116.802.07l3.665-.057c.362 0 .644-.058.845-.175.2-.117.32-.246.358-.387.038-.14.04-.3.007-.478a1.738 1.738 0 0 0-.1-.372z"/>
    </g>
</svg>
