<?xml version="1.0" encoding="UTF-8" standalone="no"?>
<!-- Svg Vector Icons : http://www.onlinewebfonts.com/icon -->

<svg
   xmlns:dc="http://purl.org/dc/elements/1.1/"
   xmlns:cc="http://creativecommons.org/ns#"
   xmlns:rdf="http://www.w3.org/1999/02/22-rdf-syntax-ns#"
   xmlns:svg="http://www.w3.org/2000/svg"
   xmlns="http://www.w3.org/2000/svg"
   xmlns:sodipodi="http://sodipodi.sourceforge.net/DTD/sodipodi-0.dtd"
   xmlns:inkscape="http://www.inkscape.org/namespaces/inkscape"
   version="1.1"
   x="0px"
   y="0px"
   viewBox="0 0 1000 1000"
   enable-background="new 0 0 1000 1000"
   xml:space="preserve"
   id="svg889"
   sodipodi:docname="nophoto.svg"
   inkscape:version="0.92.3 (2405546, 2018-03-11)"><defs
   id="defs893" /><sodipodi:namedview
   pagecolor="#ffffff"
   bordercolor="#666666"
   borderopacity="1"
   objecttolerance="10"
   gridtolerance="10"
   guidetolerance="10"
   inkscape:pageopacity="0"
   inkscape:pageshadow="2"
   inkscape:window-width="1920"
   inkscape:window-height="996"
   id="namedview891"
   showgrid="false"
   inkscape:zoom="0.236"
   inkscape:cx="500"
   inkscape:cy="500"
   inkscape:window-x="-8"
   inkscape:window-y="-8"
   inkscape:window-maximized="1"
   inkscape:current-layer="svg889" />
<metadata
   id="metadata881"> Svg Vector Icons : http://www.onlinewebfonts.com/icon <rdf:RDF><cc:Work
     rdf:about=""><dc:format>image/svg+xml</dc:format><dc:type
       rdf:resource="http://purl.org/dc/dcmitype/StillImage" /></cc:Work></rdf:RDF></metadata>
<path
   id="path885"
   style="fill:#3863c5;fill-opacity:0.53333336;opacity:0.5"
   d="m 691,324.7 h -63.2 c 0,-34.9 -28.3,-63.2 -63.2,-63.2 H 438.4 c -34.9,0 -63.2,28.3 -63.2,63.2 H 312 c -34.9,0 -63.2,28.3 -63.2,63.2 v 252.7 c 0,34.9 28.3,63.2 63.2,63.2 h 379 c 34.9,0 63.2,-28.3 63.2,-63.2 V 387.9 c 0,-34.9 -28.3,-63.2 -63.2,-63.2 z m -188.5,282 c -53.3,0 -96.6,-43.2 -96.6,-96.6 0,-53.3 43.2,-96.6 96.6,-96.6 53.3,0 96.6,43.2 96.6,96.6 0,53.4 -43.2,96.6 -96.6,96.6 z M 500,990 C 369.1,990 246.1,939 153.5,846.5 61,753.9 10,630.9 10,500 10,369.1 61,246.1 153.5,153.5 246.1,61 369.1,10 500,10 630.9,10 753.9,61 846.5,153.5 939,246.1 990,369.1 990,500 990,630.9 939,753.9 846.5,846.5 753.9,939 630.9,990 500,990 Z m 0,-932.7 c -118.3,0 -229.4,46 -313,129.7 -83.7,83.6 -129.7,194.7 -129.7,313 0,118.3 46,229.4 129.7,313 83.6,83.6 194.8,129.7 313,129.7 118.3,0 229.4,-46.1 313,-129.7 C 896.6,729.4 942.7,618.2 942.7,500 942.7,381.7 896.7,270.6 813,187 729.4,103.3 618.3,57.3 500,57.3 Z" />
</svg>