<svg xmlns="http://www.w3.org/2000/svg" width="144" height="21" viewBox="0 0 144 21">
    <g fill="#3863C5" fill-rule="evenodd">
        <path d="M64.63 2.74l1.433 1.452h9.212l1.432-1.453H64.631zm15.838 7.014v9.793h-5.055V21H81.9V8.3l-1.432 1.454zM63.9 21h8.056l-1.433-1.453h-5.19v-5.266L63.9 12.828V21zM81.9 0l-7.919 7.856v6.572L81.9 6.571V0zm-18 10.999L73.981 21v-6.572l-10.081-10v6.57zM87.375 8.836l.072.894c.29-.362.602-.62.94-.775a2.742 2.742 0 0 1 1.155-.232c.417 0 .766.058 1.047.175.281.117.55.33.807.64l-.759.645a1.561 1.561 0 0 0-1.216-.577c-.449 0-.814.083-1.095.249-.28.166-.55.419-.807.758v3.883H86.4v-5.66h.975zm6.055 0v5.66h-1.12v-5.66h1.12zm-.554-2.445c.249 0 .442.07.578.21.136.14.205.307.205.503a.7.7 0 0 1-.205.498c-.136.144-.329.215-.578.215-.249 0-.441-.071-.578-.215a.7.7 0 0 1-.204-.498c0-.196.068-.364.204-.503.137-.14.33-.21.578-.21zm2.853 2.445l2.095 4.765h.048l2.167-4.765h1.155l-2.744 5.66h-1.3l-2.637-5.66h1.216zm7.403 3.09c.024.31.1.58.229.81.128.23.297.418.506.565.208.148.447.257.716.329.269.071.548.107.836.107.426 0 .8-.032 1.126-.096a3.47 3.47 0 0 0 .957-.345l.325.86c-.2.09-.391.164-.572.22-.18.057-.367.103-.56.136-.192.034-.399.059-.62.074-.22.015-.463.023-.728.023a4.668 4.668 0 0 1-1.444-.204 2.883 2.883 0 0 1-1.054-.589 2.516 2.516 0 0 1-.65-.928 3.166 3.166 0 0 1-.222-1.21c0-.439.082-.84.246-1.206.165-.366.396-.678.693-.934a3.276 3.276 0 0 1 1.04-.6 3.822 3.822 0 0 1 1.307-.215c.481 0 .899.058 1.252.175.353.117.646.28.879.487.232.208.405.455.517.741.113.287.169.6.169.94a3.129 3.129 0 0 1-.108.86h-4.84zm3.864-.815c-.008-.558-.156-.954-.445-1.188-.289-.234-.758-.351-1.408-.351-.241 0-.48.032-.717.096-.236.064-.447.16-.632.289a1.71 1.71 0 0 0-.463.48 1.474 1.474 0 0 0-.223.674h3.888zm3.323-2.275l.072.894c.289-.362.602-.62.939-.775a2.742 2.742 0 0 1 1.156-.232c.417 0 .766.058 1.047.175.28.117.55.33.806.64l-.758.645a1.561 1.561 0 0 0-1.216-.577c-.45 0-.814.083-1.095.249-.281.166-.55.419-.807.758v3.883h-1.12v-5.66h.976zm9.04 1.053a3.944 3.944 0 0 0-.897-.278 5.432 5.432 0 0 0-.92-.073c-.53 0-.914.07-1.15.21-.237.139-.355.318-.355.537 0 .28.134.47.403.572.269.101.668.179 1.198.232.754.075 1.338.247 1.751.515.413.267.62.692.62 1.273 0 .589-.257 1.024-.77 1.307-.514.283-1.212.425-2.095.425-.441 0-.829-.029-1.162-.085a4.94 4.94 0 0 1-1.029-.3l.277-.86a4.542 4.542 0 0 0 1.866.396c1.244 0 1.866-.298 1.866-.894a.719.719 0 0 0-.085-.363.63.63 0 0 0-.276-.243 2.04 2.04 0 0 0-.506-.158 8.109 8.109 0 0 0-.782-.108c-.787-.075-1.373-.238-1.758-.487s-.578-.63-.578-1.143c0-.226.052-.44.157-.64.104-.2.263-.373.475-.52.213-.147.482-.264.807-.35.325-.088.704-.131 1.137-.131.217 0 .416.006.596.017.18.011.355.03.524.057.168.026.337.062.505.107.169.045.346.102.53.17l-.349.815zm1.336-.702l.819-.487.878-1.279.374.057v1.358h2.395l-.036.872-2.36-.102v2.977c0 .43.105.735.314.916.208.182.477.272.806.272.265 0 .504-.034.716-.102a3.44 3.44 0 0 0 .656-.294l.362.758a2.64 2.64 0 0 1-.813.363c-.293.075-.64.113-1.041.113-.69 0-1.218-.17-1.583-.51-.365-.34-.548-.841-.548-1.505V9.708l-.939-.125v-.396zm5.995.034c.45-.174.865-.3 1.246-.38.381-.078.82-.118 1.318-.118.89 0 1.547.155 1.968.464.421.31.632.811.632 1.505v2.366c0 .272.048.455.144.549.097.094.297.141.602.141v.748a2.635 2.635 0 0 1-.794.113c-.249 0-.445-.083-.59-.25-.144-.165-.229-.392-.253-.678-.553.618-1.38.928-2.48.928-.706 0-1.241-.155-1.607-.464-.365-.31-.547-.732-.547-1.268 0-.257.042-.49.126-.702.084-.211.23-.426.44-.645.272-.075.547-.143.824-.204.277-.06.572-.11.885-.147.313-.038.646-.068.999-.09.353-.023.742-.038 1.168-.046v-.317c0-.392-.115-.679-.343-.86-.23-.18-.636-.271-1.222-.271-.755 0-1.513.154-2.275.464l-.241-.838zm4.08 2.58c-.698.016-1.285.052-1.763.108a10.54 10.54 0 0 0-1.306.232.986.986 0 0 0-.24.68c0 .309.102.54.306.695.205.155.496.232.873.232.401 0 .772-.056 1.113-.17a3.28 3.28 0 0 0 1.018-.577v-1.2zm3.973-2.965l.072.894c.29-.362.602-.62.94-.775a2.742 2.742 0 0 1 1.155-.232c.417 0 .766.058 1.047.175.281.117.55.33.807.64l-.759.645a1.561 1.561 0 0 0-1.216-.577c-.449 0-.814.083-1.095.249-.28.166-.55.419-.806.758v3.883h-1.12v-5.66h.975zm4.334.351l.818-.487.879-1.279.373.057v1.358h2.396l-.037.872-2.359-.102v2.977c0 .43.104.735.313.916.209.182.478.272.807.272.264 0 .503-.034.716-.102a3.44 3.44 0 0 0 .656-.294l.361.758a2.64 2.64 0 0 1-.813.363c-.292.075-.64.113-1.04.113-.691 0-1.219-.17-1.584-.51-.365-.34-.547-.841-.547-1.505V9.708l-.94-.125v-.396zM1.562 9.13l.089 1.176c.352-.502.74-.845 1.165-1.029a3.23 3.23 0 0 1 1.292-.274c.537 0 .978.102 1.323.306.344.205.625.524.844.96.361-.453.756-.776 1.184-.972a3.321 3.321 0 0 1 1.399-.294c.848 0 1.472.23 1.87.69.4.46.6 1.159.6 2.096v3.733h-.908v-3.707c0-.665-.122-1.168-.365-1.509-.244-.34-.643-.51-1.197-.51-.504 0-.947.11-1.33.331-.382.222-.72.537-1.014.946.017.12.032.233.044.34.013.106.02.231.02.376v3.733H5.67v-3.72c0-.64-.122-1.133-.365-1.483-.244-.35-.643-.524-1.197-.524-.546 0-1.015.122-1.405.364a2.96 2.96 0 0 0-.977 1.017v4.346H.82V9.13h.743zm11.744.397a6.161 6.161 0 0 1 1.24-.403 6.774 6.774 0 0 1 1.343-.121c.915 0 1.587.17 2.016.51.428.342.642.9.642 1.675v2.774c0 .341.059.573.177.697.117.123.34.194.667.21v.653c-.1.042-.205.074-.315.096a1.99 1.99 0 0 1-.378.032c-.252 0-.449-.081-.592-.243-.143-.162-.23-.448-.264-.857-.37.4-.796.684-1.28.85-.482.166-.988.25-1.518.25-.756 0-1.308-.173-1.657-.518-.348-.345-.522-.808-.522-1.387 0-.29.04-.55.12-.78.08-.23.22-.464.421-.703.286-.085.58-.162.882-.23.303-.068.624-.123.964-.166.34-.043.708-.077 1.103-.102.395-.026.827-.047 1.298-.064v-.473c0-.247-.03-.46-.089-.64a.924.924 0 0 0-.302-.44 1.406 1.406 0 0 0-.567-.256 3.862 3.862 0 0 0-.87-.083c-.394 0-.77.038-1.127.115-.357.077-.741.2-1.153.37l-.24-.766zm4.347 2.85c-.824.017-1.51.062-2.06.134-.55.073-1.04.164-1.468.275a1.482 1.482 0 0 0-.252.428c-.05.141-.076.292-.076.454 0 .784.445 1.176 1.336 1.176.478 0 .924-.07 1.335-.21.412-.141.807-.399 1.185-.774v-1.483zM26.56 6.19v9.063a7.867 7.867 0 0 1-.725.186c-.23.047-.468.087-.712.121a8.452 8.452 0 0 1-.774.07c-.274.013-.574.02-.901.02a4.19 4.19 0 0 1-1.349-.205 2.706 2.706 0 0 1-1.033-.62 2.78 2.78 0 0 1-.661-1.035c-.156-.414-.233-.897-.233-1.451 0-.494.084-.948.252-1.361.168-.414.403-.765.705-1.055.303-.29.66-.516 1.071-.678a3.616 3.616 0 0 1 1.336-.242c.445 0 .827.05 1.146.153.32.102.643.264.97.486V6.19h.908zm-.907 4.385a3.633 3.633 0 0 0-.927-.575 2.78 2.78 0 0 0-1.09-.205c-.344 0-.67.053-.976.16a2.277 2.277 0 0 0-.806.48 2.274 2.274 0 0 0-.548.792 2.785 2.785 0 0 0-.202 1.1c0 .434.065.809.195 1.124.13.315.313.575.548.78.236.204.51.355.826.453.315.098.661.147 1.04.147a8.84 8.84 0 0 0 1.007-.05c.294-.035.605-.099.933-.192v-4.014zm3.087 1.956c.025.4.11.747.258 1.041.147.294.34.535.58.723.239.187.512.326.819.415.306.09.632.134.976.134a5.91 5.91 0 0 0 1.184-.108 3.716 3.716 0 0 0 1.008-.365l.265.806a4.723 4.723 0 0 1-1.147.37 7.791 7.791 0 0 1-1.36.103c-.563 0-1.063-.077-1.5-.23a2.907 2.907 0 0 1-1.096-.665 2.892 2.892 0 0 1-.674-1.048 3.825 3.825 0 0 1-.233-1.368c0-.494.086-.948.258-1.361.172-.414.412-.765.718-1.055.307-.29.668-.516 1.084-.678a3.7 3.7 0 0 1 1.354-.242c.496 0 .924.066 1.286.198.36.132.661.313.9.543.24.23.418.505.536.824.118.32.176.672.176 1.055 0 .17-.006.326-.019.467-.012.14-.04.287-.081.44H28.74zm4.523-.78c0-.707-.17-1.21-.51-1.508-.34-.299-.88-.448-1.62-.448-.285 0-.562.043-.831.128a2.471 2.471 0 0 0-.73.37 2.055 2.055 0 0 0-.819 1.457h4.51zm6.754-5.56v3.464a4.058 4.058 0 0 1 1.121-.505c.37-.098.79-.147 1.26-.147.991 0 1.758.266 2.3.799.541.532.812 1.335.812 2.409 0 .528-.092 1.003-.277 1.425a3.112 3.112 0 0 1-.775 1.08 3.5 3.5 0 0 1-1.178.69c-.454.163-.95.244-1.487.244-.285 0-.546-.011-.781-.032a4.744 4.744 0 0 1-.674-.109 4.185 4.185 0 0 1-.617-.198 7.032 7.032 0 0 1-.612-.288V6.19h.908zm0 8.257a3.309 3.309 0 0 0 .85.3c.139.03.284.052.435.064.151.013.319.02.504.02.411 0 .79-.06 1.134-.18.344-.119.638-.29.882-.51.243-.222.432-.497.567-.825.134-.328.201-.701.201-1.119 0-.8-.195-1.404-.586-1.808-.39-.405-.963-.608-1.72-.608-.453 0-.86.06-1.222.18-.36.119-.71.298-1.045.536v3.95zM47.35 9.13l2.57 5.42h.076l2.079-5.42h1.008l-3.1 7.657c-.168.418-.428.74-.781.965-.353.226-.73.339-1.134.339a1.99 1.99 0 0 1-.718-.14l.151-.755c.151.043.323.064.517.064.319 0 .583-.077.793-.23.21-.153.374-.409.492-.767l.214-.626L46.33 9.13h1.02z"/>
    </g>
</svg>
