<?xml version="1.0" encoding="UTF-8" standalone="no"?>
<!-- Created with Inkscape (http://www.inkscape.org/) -->

<svg
   xmlns:dc="http://purl.org/dc/elements/1.1/"
   xmlns:cc="http://creativecommons.org/ns#"
   xmlns:rdf="http://www.w3.org/1999/02/22-rdf-syntax-ns#"
   xmlns:svg="http://www.w3.org/2000/svg"
   xmlns="http://www.w3.org/2000/svg"
   xmlns:sodipodi="http://sodipodi.sourceforge.net/DTD/sodipodi-0.dtd"
   xmlns:inkscape="http://www.inkscape.org/namespaces/inkscape"
   width="29.758829mm"
   height="7.2530813mm"
   viewBox="0 0 29.758829 7.2530813"
   version="1.1"
   id="svg8"
   inkscape:version="0.92.3 (2405546, 2018-03-11)"
   sodipodi:docname="sberbank-full.svg">
  <defs
     id="defs2" />
  <sodipodi:namedview
     id="base"
     pagecolor="#ffffff"
     bordercolor="#666666"
     borderopacity="1.0"
     inkscape:pageopacity="0.0"
     inkscape:pageshadow="2"
     inkscape:zoom="5.6"
     inkscape:cx="42.934002"
     inkscape:cy="30.580363"
     inkscape:document-units="mm"
     inkscape:current-layer="layer1"
     showgrid="false"
     fit-margin-top="0"
     fit-margin-left="0"
     fit-margin-right="0"
     fit-margin-bottom="0"
     inkscape:window-width="1920"
     inkscape:window-height="996"
     inkscape:window-x="-8"
     inkscape:window-y="-8"
     inkscape:window-maximized="1" />
  <metadata
     id="metadata5">
    <rdf:RDF>
      <cc:Work
         rdf:about="">
        <dc:format>image/svg+xml</dc:format>
        <dc:type
           rdf:resource="http://purl.org/dc/dcmitype/StillImage" />
        <dc:title></dc:title>
      </cc:Work>
    </rdf:RDF>
  </metadata>
  <g
     inkscape:label="Layer 1"
     inkscape:groupmode="layer"
     id="layer1"
     transform="translate(180.26423,-313.84289)">
    <g
       transform="matrix(0.24629991,0,0,0.24629991,-180.26423,313.76592)"
       style="fill:#ffffff;fill-rule:evenodd;stroke:none;stroke-width:1"
       id="adaptive">
      <g
         style="fill:#ffffff"
         id="monolit-second-320"
         transform="translate(-216,-1866)">
        <g
           id="dom-stick"
           transform="translate(207,1857)"
           style="fill:#ffffff">
          <g
             id="Sberbank"
             transform="translate(9,9)"
             style="fill:#ffffff">
            <path
               inkscape:connector-curvature="0"
               d="m 20.768293,1.90625 1.109756,1 -14.0146344,7.9375 -6.7853658,-3.875 0.6341463,-1.25 6.1512195,3.46875 z M 17.946341,0.3125 19.436585,1.0625 7.8634146,7.625 2.4731707,4.59375 3.3926829,3.5 7.8634146,6.03125 Z m 4.914635,3.625 0.82439,1.09375 L 7.8634146,14 0.22195122,9.6875 0.57073171,8.3125 7.8634146,12.4375 Z"
               id="Shape"
               style="fill:#ffffff" />
            <path
               inkscape:connector-curvature="0"
               d="m 25.143902,7.96875 c 0.46483,1.291875 0.697561,2.645625 0.697561,4.0625 0,1.416875 -0.232731,2.791875 -0.697561,4.125 l -0.317073,0.844375 c -0.655073,1.520625 -1.574585,2.875 -2.758536,4.0625 -1.204878,1.16625 -2.578439,2.0625 -4.121952,2.6875 -1.627219,0.6875 -3.307707,1.03125 -5.041463,1.03125 -1.754683,0 -3.4351707,-0.344375 -5.0414634,-1.03125 -1.5010244,-0.625 -2.864439,-1.52125 -4.0902439,-2.6875 -1.204878,-1.1875 -2.1243902,-2.541875 -2.7585366,-4.0625 C 0.338,15.395625 0,13.739375 0,12.03125 V 11.1875 l 7.8634146,4.40625 16.5829264,-9.375 z"
               id="path852"
               style="fill:#ffffff" />
          </g>
        </g>
      </g>
    </g>
    <path
       inkscape:connector-curvature="0"
       style="clip-rule:evenodd;fill:#ffffff;fill-rule:evenodd;stroke-width:0.15151361"
       d="m -151.44478,314.70973 h 0.70454 c -0.12636,0.0706 -0.29546,0.20455 -0.50773,0.40151 l -0.70438,0.7197 0.38636,0.55302 c 0.40408,0.57575 0.75757,1.01514 1.06059,1.31817 h -1.00757 c -0.1262,-0.29303 -0.29044,-0.59091 -0.49241,-0.89393 l -0.45454,-0.68182 0.39408,-0.49999 c 0.35333,-0.45954 0.56045,-0.76514 0.62106,-0.91666 z m -1.06818,0.33333 v 2.31816 l 0.0303,0.17424 c 0.0202,0.0303 0.0658,0.0556 0.13621,0.0758 v 0.0909 h -0.97726 v -0.0909 l 0.13636,-0.0758 c 0.0202,-0.0303 0.0303,-0.0883 0.0303,-0.17424 v -2.31816 l -0.0303,-0.16666 c -0.0202,-0.0353 -0.0658,-0.058 -0.13636,-0.0682 v -0.0985 h 0.97726 v 0.0985 c -0.0706,0.01 -0.11621,0.0329 -0.13621,0.0682 z m -1.45453,0 v 2.31816 l 0.0303,0.17424 0.13636,0.0758 v 0.0909 h -0.98484 v -0.0909 c 0.0706,-0.0202 0.12121,-0.0455 0.15152,-0.0758 l 0.0226,-0.17424 v -1.20453 h -1.1515 v 1.20453 l 0.0303,0.17424 c 0.0203,0.0303 0.0656,0.0556 0.13621,0.0758 v 0.0909 h -0.99242 v -0.0909 c 0.0809,-0.0202 0.13121,-0.0455 0.15152,-0.0758 l 0.0303,-0.17424 v -2.31816 l -0.0303,-0.16666 c -0.0203,-0.0353 -0.0706,-0.058 -0.15152,-0.0682 v -0.0985 h 0.99241 v 0.0985 c -0.0708,0.01 -0.11605,0.0329 -0.13621,0.0682 l -0.0303,0.16666 v 0.91666 h 1.1515 v -0.91666 l -0.0226,-0.16666 c -0.0303,-0.0353 -0.0809,-0.058 -0.15152,-0.0682 v -0.0985 h 0.98485 v 0.0985 c -0.0708,0.01 -0.11622,0.0329 -0.13637,0.0682 z m -0.35605,4.65147 h 0.47727 l -0.19697,0.99999 h -0.13621 l 0.0909,-0.46212 h -0.235 l -0.32575,0.46212 h -0.15152 l 0.33333,-0.46984 c -0.13621,-0.0403 -0.20454,-0.12621 -0.20454,-0.25742 0,-0.0708 0.0303,-0.13136 0.0909,-0.18182 0.0606,-0.0606 0.14652,-0.0909 0.25758,-0.0909 z m -0.0303,0.42424 h 0.28788 l 0.0605,-0.31076 h -0.31803 c -0.0708,0 -0.12636,0.0178 -0.16667,0.0532 -0.0303,0.0303 -0.0456,0.0682 -0.0456,0.11364 1.5e-4,0.0961 0.0608,0.14393 0.18197,0.14393 z m -1.16664,-0.16667 -0.0983,0.5 c 0.0758,0.0961 0.16152,0.14394 0.25757,0.14394 0.0959,0 0.1794,-0.0479 0.24985,-0.14394 0.0708,-0.10091 0.10606,-0.22455 0.10606,-0.37106 0,-0.0961 -0.0202,-0.16924 -0.0606,-0.21969 -0.0403,-0.0504 -0.0983,-0.0758 -0.17409,-0.0758 -0.11121,-1.5e-4 -0.2047,0.0553 -0.28045,0.16651 z m 0.0378,-0.25757 -0.0227,0.12121 0.12879,-0.10606 0.16682,-0.0378 c 0.1059,0 0.18939,0.0353 0.24984,0.10606 0.0606,0.0708 0.0911,0.17409 0.0911,0.31061 0,0.18181 -0.0479,0.33075 -0.14394,0.44696 -0.0911,0.11606 -0.2047,0.17409 -0.34091,0.17409 l -0.16681,-0.0303 -0.12121,-0.0909 -0.0983,0.50757 h -0.13637 l 0.27273,-1.4015 h 0.12106 z m 2.39391,0 0.11364,0.87893 h 0.0983 l -0.0605,0.3106 h -0.10606 l 0.0226,-0.18939 h -0.67408 l -0.0532,0.18939 h -0.0983 l 0.053,-0.3106 h 0.0909 l 0.41666,-0.87893 z m -0.12879,0.12879 -0.34848,0.74999 h 0.44696 l -0.0682,-0.74999 z m 0.46969,0.45454 c 0,-0.17182 0.0504,-0.3156 0.15151,-0.43197 0.0909,-0.11605 0.20197,-0.17409 0.33318,-0.17409 0.11122,0 0.19713,0.0405 0.25758,0.12122 0.0658,0.0758 0.0985,0.18181 0.0985,0.31817 0,0.16152 -0.048,0.30303 -0.14393,0.42439 -0.0959,0.11606 -0.20713,0.17409 -0.33333,0.17409 -0.11106,0 -0.1994,-0.0378 -0.26515,-0.11363 -0.0655,-0.0758 -0.0983,-0.18182 -0.0983,-0.31818 z m 2.2424,-1.53029 h -21.92401 v -0.29545 h 21.92401 z m -0.84847,0.94696 0.11363,0.86363 0.41667,-0.86363 h 0.21969 l -0.19696,1.00014 h -0.12879 l 0.16666,-0.87878 -0.43939,0.87878 h -0.12879 l -0.12878,-0.87878 -0.17424,0.87878 h -0.12879 l 0.19697,-1.00014 z m -0.74999,0.17424 c -0.0456,-0.0556 -0.10364,-0.0833 -0.17424,-0.0833 -0.0858,0 -0.16152,0.0479 -0.22728,0.14393 -0.0708,0.10092 -0.10605,0.22455 -0.10605,0.37106 0,0.0911 0.0227,0.16425 0.0682,0.2197 0.0404,0.0504 0.0935,0.0758 0.15909,0.0758 0.0911,0 0.17181,-0.0479 0.24257,-0.14394 0.0658,-0.10091 0.0983,-0.22227 0.0983,-0.36348 0,-0.0909 -0.0203,-0.16409 -0.0606,-0.2197 z m -6.62872,-5.06055 v -0.0985 h 0.86347 c 0.01,0.13636 0.0456,0.28288 0.10606,0.43939 l 0.63636,1.78786 c 0.10606,0.31318 0.20954,0.56818 0.3106,0.76515 h -0.75756 l -0.32561,-1.07575 h -0.96226 l -0.20455,0.71212 -0.0606,0.36363 h -0.54545 l 0.96954,-2.2424 c 0.096,-0.23727 0.14393,-0.39894 0.14393,-0.48485 3.1e-4,-0.0959 -0.0579,-0.15151 -0.17393,-0.16666 z m 0.35605,0.40151 -0.40909,1.20453 h 0.81818 z m -1.53028,0.15151 h -0.16682 l -0.0379,-0.12879 c -0.0405,-0.14651 -0.10107,-0.24242 -0.18182,-0.28787 l -0.41667,-0.053 h -0.40136 c -0.0911,0 -0.15151,0.0152 -0.18181,0.0455 -0.0251,0.0253 -0.0378,0.0706 -0.0378,0.13636 v 0.71212 h 0.16666 c 0.48485,0 0.82075,0.048 1.00757,0.14393 0.26772,0.13137 0.40151,0.38894 0.40151,0.77273 0,0.37378 -0.10606,0.64135 -0.31833,0.80302 -0.18682,0.13136 -0.47712,0.19696 -0.87121,0.19696 h -1.1968 v -0.0909 l 0.14379,-0.0758 0.0227,-0.17424 v -2.31816 l -0.0227,-0.16666 c -0.0202,-0.0353 -0.068,-0.058 -0.14379,-0.0682 v -0.0985 h 2.23482 z m -1.42424,0.61363 v 1.28029 c 0,0.10106 0.0178,0.16667 0.053,0.19697 0.0406,0.0404 0.11122,0.0606 0.21212,0.0606 h 0.0909 c 0.19212,0 0.33333,-0.0658 0.42439,-0.19697 0.0808,-0.12121 0.12121,-0.31561 0.12121,-0.58333 0,-0.26257 -0.043,-0.44939 -0.12893,-0.5606 -0.0909,-0.13136 -0.26015,-0.19697 -0.50757,-0.19697 z m 0.1894,3.39391 c 0.0606,0.0605 0.0909,0.14393 0.0909,0.24984 0,0.0911 -0.0279,0.16682 -0.0833,0.22727 -0.0505,0.0556 -0.13121,0.0985 -0.24242,0.12894 0.15651,0.0656 0.23485,0.16909 0.23485,0.31061 0,0.13136 -0.0455,0.23226 -0.13636,0.30302 -0.0858,0.0708 -0.21455,0.10606 -0.38636,0.10606 h -0.47727 l 0.26515,-1.4168 h 0.44681 c 0.12652,1.5e-4 0.22227,0.0305 0.28803,0.0911 z m -0.61363,0.0378 -0.0985,0.49242 h 0.28046 c 0.12121,0 0.21454,-0.0253 0.2803,-0.0758 0.0657,-0.0554 0.0985,-0.12379 0.0985,-0.2047 0,-0.0758 -0.0203,-0.12879 -0.0606,-0.15909 -0.0455,-0.0353 -0.11364,-0.053 -0.20455,-0.053 h -0.2956 z m 0.93181,0.87121 c 0,0.10105 0.0253,0.17681 0.0757,0.22727 0.0455,0.0554 0.11121,0.0833 0.19697,0.0833 l 0.17409,-0.053 0.0985,-0.13636 0.10606,0.0455 -0.15151,0.18939 c -0.0658,0.0505 -0.14651,0.0758 -0.24257,0.0758 -0.11621,0 -0.2097,-0.0404 -0.2803,-0.12122 -0.0708,-0.0807 -0.10606,-0.18939 -0.10606,-0.32575 0,-0.16151 0.0455,-0.3003 0.13636,-0.41666 0.0909,-0.11606 0.20455,-0.17409 0.34091,-0.17409 0.0959,0 0.17166,0.0253 0.22727,0.0758 0.0554,0.0455 0.10091,0.11621 0.13621,0.21196 l -0.12834,0.0227 c -0.0353,-0.13137 -0.11363,-0.19697 -0.23484,-0.19697 -0.0911,0 -0.17182,0.0455 -0.24258,0.13621 -0.0704,0.0961 -0.1059,0.21485 -0.1059,0.35621 z m -0.79545,-0.25758 h -0.25742 l -0.0985,0.54545 h 0.33332 c 0.11106,0 0.19697,-0.0251 0.25758,-0.0758 0.0605,-0.0505 0.0909,-0.11863 0.0909,-0.20454 0,-0.0657 -0.0279,-0.12636 -0.0833,-0.18181 -0.0657,-0.0554 -0.14666,-0.0833 -0.24257,-0.0833 z m 2.4621,0.17425 h -0.70439 l -0.008,0.0833 c 0,0.10105 0.0251,0.17924 0.0758,0.23484 0.0455,0.0556 0.10864,0.0833 0.18939,0.0833 0.0708,0 0.13121,-0.0226 0.18166,-0.0682 l 0.12894,-0.16666 0.11364,0.0606 -0.18939,0.20455 c -0.0708,0.0556 -0.15667,0.0833 -0.25758,0.0833 -0.1162,0 -0.20711,-0.0378 -0.27272,-0.11364 -0.0658,-0.0808 -0.0985,-0.18681 -0.0985,-0.31817 0,-0.17682 0.0455,-0.32061 0.13637,-0.43197 0.0961,-0.11606 0.21469,-0.17409 0.35606,-0.17409 0.1162,0 0.20469,0.0353 0.26514,0.10606 0.0658,0.0658 0.0985,0.16152 0.0985,0.28772 z m -0.17425,-0.33334 c -0.0455,-0.0504 -0.10363,-0.0757 -0.17424,-0.0757 -0.0909,0 -0.16151,0.0277 -0.21196,0.0833 -0.0506,0.0455 -0.0911,0.11621 -0.12136,0.21212 h 0.55302 l 0.008,-0.0606 c 0,-0.0606 -0.0176,-0.11363 -0.053,-0.15909 z m 0.32576,0.83333 0.19697,-0.99999 h 0.56045 l -0.0226,0.11363 h -0.43181 l -0.17424,0.88636 z m 1.12878,-0.8712 -0.34849,0.74999 h 0.44697 l -0.0682,-0.74999 z m 0.12878,-0.12879 0.11364,0.87893 h 0.0983 l -0.0605,0.3106 h -0.0985 l 0.0152,-0.18939 h -0.67424 l -0.0532,0.18939 h -0.0983 l 0.053,-0.3106 h 0.0909 l 0.41666,-0.87893 z m 0.36364,0.73484 c 0,-0.10606 0.0455,-0.18682 0.13636,-0.24257 0.0961,-0.0605 0.22985,-0.0909 0.40136,-0.0909 h 0.13636 l 0.008,-0.11348 c 0,-0.0658 -0.0176,-0.11364 -0.053,-0.14395 -0.0404,-0.0353 -0.0961,-0.053 -0.16681,-0.053 -0.0658,0 -0.13879,0.0378 -0.21955,0.11363 l -0.0835,-0.0833 c 0.11121,-0.0961 0.21969,-0.14394 0.32575,-0.14394 0.10092,0 0.18182,0.0277 0.24243,0.0833 0.0606,0.0556 0.0911,0.12637 0.0911,0.21212 l -0.0153,0.15151 -0.068,0.33334 c -0.0153,0.0708 -0.0227,0.15151 -0.0227,0.24257 h -0.12878 l -0.008,-0.11363 -0.13621,0.0909 -0.1591,0.0379 c -0.0808,0 -0.14651,-0.0277 -0.19711,-0.0833 -0.0554,-0.0558 -0.0832,-0.12136 -0.0832,-0.19712 z m 0.55302,-0.22727 c -0.27772,0 -0.41666,0.0706 -0.41666,0.21197 0,0.0506 0.0152,0.0935 0.0455,0.12894 0.0353,0.0353 0.0783,0.053 0.12878,0.053 0.0758,0 0.17182,-0.0429 0.28788,-0.12879 l 0.053,-0.26514 z m -5.5757,-4.63632 c 0,0.34849 -0.10606,0.59848 -0.31833,0.74999 -0.18182,0.13137 -0.46454,0.19697 -0.84847,0.19697 h -0.30303 v 0.84848 l 0.0303,0.17424 c 0.0152,0.0303 0.063,0.0556 0.14379,0.0758 v 0.0909 h -0.98484 v -0.0909 l 0.13636,-0.0758 0.0303,-0.17424 v -2.31816 l -0.0303,-0.16666 c -0.0202,-0.0353 -0.0658,-0.058 -0.13637,-0.0682 v -0.0985 h 1.24242 c 0.33833,0 0.58575,0.0505 0.74242,0.15151 0.19726,0.13137 0.29575,0.36621 0.29575,0.70454 z m -1.42423,-0.64393 c -0.0303,0.0202 -0.0455,0.0656 -0.0455,0.13636 v 1.26514 h 0.30303 c 0.18681,0 0.31818,-0.0708 0.39394,-0.21212 0.0658,-0.12621 0.0985,-0.31818 0.0985,-0.57575 0,-0.42924 -0.17939,-0.64393 -0.53787,-0.64393 h -0.0758 z m -1.31059,0.43939 h -0.15909 l -0.0378,-0.12879 c -0.0504,-0.14651 -0.11364,-0.24242 -0.18939,-0.28787 l -0.40909,-0.053 h -0.33333 l -0.12122,0.0303 -0.0303,0.11363 v 0.92424 h 0.39394 c 0.27272,0 0.45196,-0.0303 0.53787,-0.0909 v 0.37878 c -0.0857,-0.0606 -0.26515,-0.0909 -0.53787,-0.0909 h -0.39394 v 1.12121 c 0,0.0909 0.0303,0.15409 0.0909,0.18939 l 0.37878,0.0455 h 0.0833 l 0.40909,-0.0606 c 0.0708,-0.0455 0.12636,-0.15651 0.16666,-0.33333 l 0.0303,-0.11363 h 0.1894 v 0.69696 h -2.15908 v -0.0909 c 0.0758,-0.0202 0.12379,-0.0455 0.14394,-0.0758 l 0.0303,-0.17424 v -2.31816 l -0.0303,-0.16667 c -0.0202,-0.0353 -0.0682,-0.058 -0.14394,-0.0682 v -0.0985 h 2.09089 z m -2.58331,0 h -0.15908 l -0.0379,-0.12879 c -0.0455,-0.14651 -0.10863,-0.24242 -0.18939,-0.28787 l -0.40151,-0.053 h -0.41666 c -0.0859,0 -0.14651,0.0152 -0.18182,0.0455 -0.0152,0.0253 -0.0227,0.0706 -0.0227,0.13636 v 0.71211 h 0.16666 c 0.47985,0 0.8156,0.048 1.00757,0.14394 0.26257,0.13137 0.39393,0.38894 0.39393,0.77272 0,0.37379 -0.10606,0.64136 -0.31817,0.80302 -0.18182,0.13136 -0.47227,0.19697 -0.87121,0.19697 h -1.20453 v -0.0909 c 0.0809,-0.0202 0.13136,-0.0455 0.15152,-0.0757 l 0.0303,-0.17424 v -2.31816 l -0.0303,-0.16667 c -0.0202,-0.0353 -0.0706,-0.058 -0.15152,-0.0682 v -0.0985 h 2.23483 z m -3.01512,-0.40909 c -0.0909,-0.0656 -0.23227,-0.0985 -0.42423,-0.0985 -0.30303,0 -0.51773,0.11106 -0.64394,0.33333 -0.10606,0.19196 -0.15909,0.50499 -0.15909,0.93938 0,0.43439 0.058,0.75499 0.17424,0.96212 0.14136,0.25757 0.38378,0.38635 0.72727,0.38635 0.25257,0 0.50257,-0.0606 0.74999,-0.18181 l 0.0909,0.18939 c -0.28788,0.17667 -0.62621,0.26515 -1.01515,0.26515 -0.94953,0 -1.42422,-0.50257 -1.42422,-1.50756 0,-1.05545 0.49242,-1.58332 1.47726,-1.58332 0.37878,0 0.66923,0.0455 0.8712,0.13636 v 0.62121 h -0.18939 l -0.053,-0.18182 c -0.0404,-0.12621 -0.10106,-0.21969 -0.18182,-0.2803 z m 1.60604,1.02272 v 1.28029 c 0,0.10106 0.0152,0.16666 0.0455,0.19697 0.0404,0.0404 0.11364,0.0606 0.21969,0.0606 h 0.0833 c 0.36363,0 0.54545,-0.26015 0.54545,-0.78029 0,-0.26258 -0.0429,-0.44939 -0.12879,-0.5606 -0.0959,-0.13137 -0.26772,-0.19697 -0.51514,-0.19697 z"
       id="path1473" />
  </g>
</svg>
