<svg xmlns="http://www.w3.org/2000/svg" xmlns:xlink="http://www.w3.org/1999/xlink" width="77" height="523" viewBox="0 0 77 523"><svg width="52" height="52" viewBox="0 0 52 52" id="fb" y="0"><g fill="none" fill-rule="evenodd" transform="translate(1 1)"><circle cx="25" cy="25" r="25" stroke="#3863C5" opacity=".6"></circle><path fill="#3863C5" d="M22.089 37.2V25.844H19v-4.088h3.089v-3.492c0-2.744 1.824-5.264 6.029-5.264 1.702 0 2.96.159 2.96.159l-.099 3.818s-1.283-.013-2.684-.013c-1.516 0-1.76.68-1.76 1.807v2.985H31.1l-.199 4.089h-4.365V37.2h-4.447z" opacity=".7"></path></g></svg><svg width="52" height="52" viewBox="0 0 52 52" id="instagram" y="52"><g fill="none" fill-rule="evenodd" transform="translate(1 1)"><circle cx="25" cy="25" r="25" stroke="#3863C5" opacity=".6"></circle><path fill="#3863C5" d="M30.973 15H18.827A3.83 3.83 0 0 0 15 18.826v12.148a3.83 3.83 0 0 0 3.827 3.826h12.147a3.83 3.83 0 0 0 3.826-3.826V18.826A3.83 3.83 0 0 0 30.973 15zm1.098 2.282l.438-.002v3.356l-3.345.011-.012-3.356 2.919-.01zm-9.997 5.586a3.484 3.484 0 0 1 2.826-1.453c1.163 0 2.192.575 2.825 1.453a3.46 3.46 0 0 1 .66 2.032 3.49 3.49 0 0 1-3.485 3.485 3.489 3.489 0 0 1-3.485-3.485c0-.759.246-1.46.659-2.032zm10.797 8.105a1.899 1.899 0 0 1-1.898 1.898H18.827a1.899 1.899 0 0 1-1.898-1.898v-8.105h2.956a5.385 5.385 0 0 0-.4 2.032 5.42 5.42 0 0 0 5.415 5.414 5.42 5.42 0 0 0 5.414-5.414c0-.719-.144-1.404-.4-2.032h2.957v8.105z" opacity=".7"></path></g></svg><svg width="55" height="49" viewBox="0 0 55 49" id="man-baloon" y="104"><g fill="none"><path fill="#3863C5" d="M50.51.512H25.407c-2.48 0-4.49 1.995-4.49 4.455v7.222c0 .769.628 1.392 1.403 1.392s1.403-.623 1.403-1.392V4.978c0-.923.754-1.67 1.684-1.67H50.51c.93 0 1.684.747 1.684 1.67v22.456c0 .923-.754 1.67-1.684 1.67H38.545c-.372 0-.73.146-.993.407L32.73 34.3v-3.792c0-.769-.629-1.392-1.403-1.392-.775 0-1.404.623-1.404 1.392v7.15c0 .563.341 1.072.866 1.288a1.41 1.41 0 0 0 1.53-.303l6.803-6.743H50.51c2.48 0 4.49-1.994 4.49-4.454V4.978a4.437 4.437 0 0 0-1.311-3.157A4.508 4.508 0 0 0 50.51.512z"></path><path fill="#3863C5" d="M32.512 24.344H43.82c.775 0 1.403-.623 1.403-1.392v-6.72l.657.517c.392.31.921.39 1.388.208a1.387 1.387 0 1 0 .363-2.385l-8.587-6.777a1.412 1.412 0 0 0-1.75 0L28.7 14.578a1.385 1.385 0 0 0-.222 1.957c.484.6 1.367.7 1.973.22l.657-.518v6.715c0 .769.628 1.392 1.403 1.392zm5.651-13.698l4.254 3.341v7.573h-8.502v-7.55l4.248-3.364z"></path><path fill="#FF9D00" d="M11.477 42.825v-3.848a2.15 2.15 0 0 0-.432-1.286 10.174 10.174 0 0 1-1.762-4.716 1.39 1.39 0 0 0-.59-.98A3.823 3.823 0 0 1 7.01 28.86a.666.666 0 0 1 .207-.496.705.705 0 0 1 .511-.195 1.41 1.41 0 0 0 1.023-.381c.275-.26.432-.618.436-.994l.04-3.653a6.293 6.293 0 0 1 .437-2.327c.893-2.183 3.154-4.527 6.005-4.527h.562V17.4a1.396 1.396 0 0 0 1.257 1.386 6.482 6.482 0 0 1 4.422 2.784c.436.602.67 1.325.668 2.066v3.09c0 .77.628 1.392 1.403 1.392.384 0 .696.31.696.69a3.827 3.827 0 0 1-1.594 3.091 1.39 1.39 0 0 0-.561.969 10.117 10.117 0 0 1-1.757 4.872 2.183 2.183 0 0 0-.443 1.309v3.825c0 .8.544 1.501 1.324 1.704a22.842 22.842 0 0 1 7.684 3.63 1.41 1.41 0 0 0 1.964-.278 1.385 1.385 0 0 0-.28-1.949 25.65 25.65 0 0 0-7.858-3.864v-2.862a12.78 12.78 0 0 0 2.1-5.468 6.604 6.604 0 0 0 2.244-4.95 3.433 3.433 0 0 0-1.021-2.456 3.526 3.526 0 0 0-1.078-.73v-2.048a6.22 6.22 0 0 0-1.207-3.703 9.616 9.616 0 0 0-5.112-3.67v-1.364c0-.769-.629-1.392-1.403-1.392h-1.965c-4.17 0-7.33 3.146-8.603 6.264a9.03 9.03 0 0 0-.646 3.341l-.039 2.534c-.417.166-.798.41-1.122.718a3.423 3.423 0 0 0-1.072 2.5 6.588 6.588 0 0 0 2.346 5.011 12.604 12.604 0 0 0 2.087 5.29v2.907a25.62 25.62 0 0 0-8.104 3.93 1.385 1.385 0 0 0-.28 1.95 1.41 1.41 0 0 0 1.964.278 22.828 22.828 0 0 1 7.89-3.653 1.762 1.762 0 0 0 1.342-1.72z"></path></g></svg><svg width="52" height="52" viewBox="0 0 52 52" id="ok" y="153"><g fill="none" fill-rule="evenodd" transform="translate(1 1)"><circle cx="25" cy="25" r="25" stroke="#3863C5" opacity=".6"></circle><path fill="#3863C5" fill-rule="nonzero" d="M35.9 25.45c0 10.45 0 10.45-10.45 10.45S15 35.9 15 25.45 15 15 25.45 15 35.9 15 35.9 25.45zm-8.813 3.553a7.572 7.572 0 0 0 2.35-.973 1.186 1.186 0 0 0-1.264-2.009 5.137 5.137 0 0 1-5.448 0 1.186 1.186 0 0 0-1.263 2.008 7.52 7.52 0 0 0 2.35.974l-2.26 2.262a1.184 1.184 0 1 0 1.675 1.676l2.223-2.223 2.223 2.223a1.184 1.184 0 1 0 1.675-1.676l-2.261-2.262zm-1.637-9.019c.925 0 1.676.751 1.676 1.676a1.676 1.676 0 0 1-3.352 0c0-.925.753-1.676 1.676-1.676zm0 5.72a4.05 4.05 0 0 0 4.045-4.044 4.05 4.05 0 0 0-4.045-4.047 4.05 4.05 0 0 0-4.045 4.045 4.05 4.05 0 0 0 4.045 4.045z" opacity=".7"></path></g></svg><svg width="77" height="44" viewBox="0 0 77 44" id="russia" y="205"><g fill="none" fill-rule="evenodd"><path stroke="#3863C5" stroke-width="2.45" d="M46.964 14.837c-.137.092.042.287-.067.397-.112.112-.601.433-.857.318-.12-.053.696-.563.863-.809.274-.403.188-.845.606-.912 1.75-.277-1.36-3.304-1.275-1.538 0 .015-.048.063-.094.002-.27-.349-.158-.126-.41-.618-.126-.245.373-.031.318-.23-.062-.226-.443-.485-.666-.37-.574.294-.479.413-.695 1.205-.048.172-.454-.164-.529-.002-.14.308-.131.546-.469.334-.21-.132.375-.228.105-.288-1.08-.243-2.173.444-3.214.86-.205.08.094.102.025.224-.052.09-.333-.138-.31-.035.127.564.238.145.168.496-.021.105.285-.098.268.03-.05.377-.06.252-.36.296-.246.035.069-.137-.21-.208-.214-.053-.904-.374-1.257-.115-.43.315-.408.789-.258 1.25.057.178.646.179.225.597-.148.147-.529-1.183-.869-1.347-.447-.215-.269-.108-.517.178-.13.146.347.368.045.393-.28.021-.086-.392-.389-.138-.298.25.283.595.048.805-.22.198-.358-.024-.41-.304-.083-.445.923-2.238.435-1.788-.766.708-.541.447-1.156 1.262-.658.871-1.52 1.72-.859 2.271.992.826 1.119.856.918 1.238-.099.19.025-.315-.346-.623-.355-.293-.56-.24-.79.1-.326.48-.506.605-.791 1.002-.188.263-.646.433-.926.252-.728-.473-1.04-.378-.505-.553.732-.24 1.22-1.232 1.57-1.435.347-.202.917-2.396 1.436-2.533.536-.14 1.37-.777.478-1.386-.26-.176.351.287.458-.028.382-1.127-2.882 1.138-2.545 1.328.214.121-.068.431-.339.51-.338.1-.57.335-.534.53.021.113.252-.105.3 0 .135.301-.127.37-.003.81.041.148-.318.422-.368.276-.217-.638-.542-1.846-.824-2.344-.153-.269-.102-.08-.177-.175-.287-.362.058-.956-.336-1.191-.542-.322-.034 1.396-.58 1.645-.495.228-.053-.444-.313-.553-3.486-1.468.752-1.207-2.98-1.816-.433-.07-.233-.355-.445-.302-.344.087-.169-.166-.439-.036-.826.395-.862.225-.956-.092-.08-.277-.08-.517.199-.623.62-.239.394.432.757.257.588-.283.504-1.356-.073-1.673-.165-.09-.19.446-.338.597-.426.432-1.332 1.25-1.558 1.02-.091-.09.087-.626-.226-.743-.62-.23-.932-.604-1.53-.346-.152.066-.08.364-.274.506-.034.026-.371-.013-.372-.113-.002-.359.193-.835.019-1.217-.086-.188-.28-.245-.47-.115-.339.232-.063.653-.203.827-.527.652-.502-.37-.274-.746.074-.123-.2-.333-.088-.422.803-.646 1.942-2.969 1.816-1.762-.448 4.308 3.5 3.64 2.633-.58-.109-.53.137-.177.24-.504.348-1.098-1.24-1.658-2.081-1.325-.307.121-.111.813-.429.896-.594.156-2.706.905-3.303 1.436-.561.5-.382.709-1.097.988-1.163.455-2.221-1.651-3.073-.95-.037.031.099 1.267 0 1.19-.453-.35-.077-.596-.456-.725-.915-.312-1.765.006-2.543.35-.439.194-1.006.668-1.317 1.037-.2.235.068.508.146.74.04.115-.251.19-.203.3.225.522-.951 1.454-1.334 2.07-.24.388.042-.002.12.175.074.171-.074.587-.291.505-.848-.32-.027-.903-1.117-.21-.19.12-.428.22-.314.494.127.305.531.279.623.53.327.896-2.07 1.137-.487 3.534.112.17-.151.392-.21.604-.016.057.607 1.351.271 1.45-.066.02.043.203-.026.208-.351.024-.178-.247-.4-.158-.694.278-.26.17-.473.48-.113.167-.394.374-.549.246-.473-.392-.913-1.141-1.336-.535-.366.525.696.408.464.673-.238.27-.819-.15-.957-.481a1.63 1.63 0 0 1-.078-.218c-.018-.066-.14.035-.163.066-.074.093.168.185-.126.491-.24.251-.849.112-1.082-.052-.134-.094-.771-.847-.748-1.134.057-.7.573-.98.22-1.779-.096-.213-1.19-.725-1.39-.444-.396.555-.065.499-.512 1.186-.295.45.51 1.002 1.153 1.453.336.237.45.57.452.593.014.198.07.395.06.592-.045.94-.522 1.851.013 2.62.395.564.898 1.207 1.173 1.92.352.91.889 1.417.783 2.303-.082.68-.115 3.094 1.072 2.343.55-.35.45-1.373.73-1.877.104-.188.564-.104.667-.297.03-.059-.255-.09-.24-.169.064-.319-.045-.564.127-.74.15-.153.325.242.46.136.425-.336.987-.437 1.145-.183.257.415-.219.218.15.375.362.157.48.085.743-.05.403-.207-.057-.306.074-.723.101-.325-.05.236.219.221.306-.016.598-.965.511-1.48-.025-.152-.464-.25-.365-.371.246-.303.282-.292.153-.623-.131-.338.547-.12.799-.334.258-.22 1.046-.873 1.174-.615.435.872-.275.816.677.528.449-.137 1.617.05 1.859.346.187.228.566.67.826 1.218.3.634-.466.86-.097 1.353.136.18.505.442.51.445 1.394.6 1.532 1.267 1.928 1.813.397.545 2.03.779 1.588-.373-.073-.19-.167.05-.31-.31-.219-.56.195.054.698-.33.682-.519 1.144.303.75-.745-.032-.083.259.079.26-.01.003-.41-.237-.013-.095-.322.084-.179.119-.277.256-.15.641.595 3.346 1.697 4.256 1.42.426-.129.567.288.92.61.207.19-.357.558-.372.85-.02.393.369.317.637.605.054.057-.148.19-.078.224.27.134.148-.037.36-.065.146-.02.133.373.057.437-.236.197-.396.015-.196.252.887 1.045 1.536-.463 1.951.13.774 1.109.402 2.598.805 4.094.058.217.374-.38.512-.298.68.398.13.64 1.39.798.532.067.523.678.73 1.202.24.605 1.468 1.55 1.964 1.277.754-.412 3.027-1.07 3.86-.387.005.004 1.457 1.576 2.375.822.511-.42-.116-.966.336-1.44.352-.37.103-.595.392-.44 3.392 1.814.03-.222 2.185 1.83.811.774 1.828-.441 2.633.193.242.191.513-.148.597.22.349 1.552 3.073.242 3.988-.62.355-.332 1.838 1.084 3.328-.492.323-.342-.146-1.371.438-2 .2-.214-.695-.32-.512-.756 1.46-3.471 4.247.367 4.615.76.63.675 1.648.928 2.63 1.04 2.155.247-.546-1.099.853-.927.76.096.551-.084 1.443-.195.19-.024.21.368.375.615.573.852.456 2.312.322 3.27-.04.287-.63-.062-.85.12-.315.259-.65.515-.414.796.563.669.69 1.443.396 2.093-.073.16.114.454.29.443.296-.019.314-.64.51-.894.094-.12.064-.082.364-.417.08-.089.04.386.158.35 2.453-.765 3.17-7.125 2.071-9.139-.438-.8-.633-1.418-.692-2.28-.024-.35.354.093.617.445.432.576 2.538 5.157 3.042 4.898.386-.197-.242-.602-.147-.962.06-.225.202-.155.386-.075.482.21.526.704.566.37.158-1.317-.82-.741-1.453-1.344-.333-.318-.551-.886-.523-1.323.057-.848 1.088.212 1.214-.222.12-.416-1.918-1.56-2.268-1.87-.618-.55-1.32-1.796-2.012-2.342-.095-.075-.261.183-.216.297.057.144.386.048.414.2.075.421.056.735-.063.818-.034.025-.05.151-.107.105-.446-.364-1.947-.367-2.107-.154-.158.21.233.865-.119.96-.14.039-.146-.224-.242-.386-.074-.127.149-.357.03-.444-.303-.222-.112.152-.182.001-.202-.432-.02-1.025-.486-.667-.384.294.096.344.34.627.213.248.019.969-.05.853-.21-.341.215-.563-.087-.784-.342-.252-1.13.767-1.103.34.144-2.276.896-5.919 2.749-7.076.608-.38.552-.42.754-.522.161-.08.465.208.54.042.09-.201-.413-.41-.293-.592.246-.375.172-.125.805-.223.1-.016-.06-.28.037-.303.218-.053.251-.183.317-.01.014.035-.343.33-.133.461.625.393.806-.92.877-.962.374-.222.942-.562.585-.888-.439-.401-.432.531-.658.074-.468-.948-.716-2.287.146-3.097.198-.186.619.251.292-.386-.192-.378.908 1.194.993.865.67-2.655-1.26-2.508-.406-3.012.49-.29 1.105 1.02 1.024 1.407-.274 1.308-.226 3.28.146 4.742.396 1.55-.541 3.704 5.177 5.185 1.642.426-.068-2.48-.203-3.407-.098-.674-1.218-.555-.804-1.186.84-1.281-.94-.948-.659-1.927 0 0 .216.245.292 0 .204-.653-.818-.487-1.097-.889-.462-.663-.631-.423-.731-.147-.087.24-1.163-1.716-1.137-1.971.002-.032-.014.177.31.08.155-.046-.188-.175-.098-.298.027-.037.23.058.265-.108.094-.448-.056-.222-.147-.816-.03-.2.457.666.513.445.243-.969-.123-1.181.903-2.094.548-.488-.618-1.627-.7-2.343-.023-.198-.003-.397 0-.595 0-.003.01 0 .011-.004.017-.232-.01-.012-.01-.251-.066-.59-.29-1.217.396-1.824.105-.094-.017-.349-.148-.4-.244-.092-2.025.16-2.136.03-.023-.027.212-.492.13-.822-.154-.626-.042-.58-.478-.804-.424-.219-.398.264-.686.168-.163-.054-.223-.272-.284-.434-.015-.036.084-.039.088-.079.009-.09-.145-.267-.055-.265.756.02.367.962.969.279 1.122-1.278.552.008 1.611-1.612.067-.102.068-.096.057-.135-.048-.163-.36-.133-.413-.295-.17-.515-.392.006-.792-.243-.49-.304.202-.015.26-.647.01-.11-.321.036-.303-.073.035-.225.263-.064.225-.223-.055-.225-.188-.364-.33-.37-.5-.024-1.442.428-1.319 1.4.035.276.746-.054.798.082.055.148-2.169.596-2.857 1.006-1.768 1.056-2.204 2.152-3.059 3.068-.235.253.128.455.366.558.47.203.312-.234.732.11.098.079.07.362-.052.374-.14.014-.711.137-.68.07.146-.31.234-.32 0-.519-.326-.277-.884.096-.658.592.228.499-.148.747-.254 1.007-.024.059-.152-.02-.186.033-1.447 2.253-1.044-.388-3.361 2.266-.426.487-.44.262-1.184-.03-.73-.284-2.37.226-2.948.763-.274.254.311.083.2.332-.168.376-.376-.024-.278.52.006.033.365-.314.256-.002-.183.529.528.155.272.588-.182.308-.906.508-1.371.858-.403.302-.328-.448-.634-.367-.282.074.238 3.16-1.004.083-.517-1.278-1.086-.977-2.007-.92-.424.025.232.678-.026 1.04-.242.337-1.004.426-1.23.079-.35-.535-.974-.13-1.447-.078-.158.017-.293-.245-.254-.402.036-.143.21-.209.086-.501-.014-.033-.347-.091-.426-.027-.116.095-.147.265-.241.384-.012.014-.074.078-.044.079.273.013.67.083.437.334-.056.06.023-.063-.252-.217-.076-.047-.033-.047-.325.152zM44.48 10.85c.03-.4.292-1.46.636-1.397 1.316.241.141 1.426-.64 1.465-.02 0 .001-.045.004-.068zm19.683-7.187c.124.177.11.417.066.618-.503 2.286-.815-1.689-.066-.618zm-9.78 8.216c-.01-.092.157-.153.245-.126.139.044.172.299.192.237.177-.519 1.033.193 1.025.206-.2.34-.854.848-1.082.528-.254-.356.07-.221.043-.573-.001-.04-.065.031-.067.03-.276-.019-.328-.017-.356-.302zm-23.353-.653c0-.004.012.011.01.008-.29-1.638 1.29-1.303 2.151-1.884 1.086-.732 1.638-.343 2.407-.49.904-.174.71.526 1.536.502 1.508-.044.758.851-.246.64-4.418-.935-4.847 2.184-5.16 2.404-.383.268-.603-.225-.698-1.18zm12.59-3.372c.099-.181.356-.502.621-.394.257.105.035.382.287.587.068.057-.018.066-.073.15-.084.13-.168.323-.09.455.076.127.307-.065.373.073.198.416.307.897-.117 1.292-.392.365-.584-.49-1.02-.728-.83-.453-.221-.99.02-1.435zm-15.477 3.231c.867-.936 1.446.947.073.568-.19-.052-.262-.364-.073-.568zM9.412 6.412c-.547.027-.565-1.301-.415-1.88.049-.184.398-.143.561-.05.207.118.618.43.495.585-.115.144-.33-.213-.351-.057-.061.414 1.378 1.32-.29 1.402zm44.117 3.636c1.18-.26 1.576.172.738 1.332-.84 1.164-2.17-.828-.642-.864.159-.003-.249-.435-.096-.468zM66.154 29.35c-.016-.224.662.49.435.758-.301.357-.058-.156-.488-.43-.136-.085.058-.253.053-.328z"></path><path fill="#FF9D00" d="M43.209 30.274l-3.544 1.887a.7.7 0 0 1-1.019-.735l.681-4.02a.7.7 0 0 0-.198-.616l-2.891-2.853a.7.7 0 0 1 .39-1.19l3.98-.587a.7.7 0 0 0 .527-.385l1.773-3.64a.7.7 0 0 1 1.259 0l1.774 3.64a.7.7 0 0 0 .527.385l3.98.586a.7.7 0 0 1 .39 1.19l-2.891 2.854a.7.7 0 0 0-.199.615l.681 4.02a.7.7 0 0 1-1.019.736l-3.543-1.887a.7.7 0 0 0-.658 0z"></path></g></svg><svg width="42" height="46" viewBox="0 0 42 46" id="sales-1" y="249"><path fill="#FFF" fill-rule="evenodd" d="M18.931 0a.787.787 0 0 0-.576.245L.22 19.26c-.48.504-.124 1.34.57 1.34h2.365v21.392a.79.79 0 0 0 .789.792h21.289V41.2h-1.577V27.73a.79.79 0 0 0-.789-.792h-7.885a.79.79 0 0 0-.788.793V41.2H4.732V20.6h28.385v2.377h1.577V20.6h2.366c.694 0 1.05-.836.57-1.34l-2.936-3.077V7.131a.79.79 0 0 0-.788-.793h-3.154a.79.79 0 0 0-.789.793v4.091L19.495.245A.787.787 0 0 0 18.93 0zm-.006 1.937l16.287 17.078H2.638L18.925 1.937zM31.54 7.923h1.577v6.605l-1.595-1.672a.797.797 0 0 0 .018-.18V7.924zm2.93 15.902c-2.993 0-5.418 2.476-5.418 5.506v8.95l-.114.068c-.285.17-.744.414-1.121.814a3.765 3.765 0 0 0-.98 2.133c-.033.306-.028.65-.028.866V46H42v-4.351c-.011-1.04-.43-2.02-1.176-2.68-.25-.223-.51-.366-.68-.468l-.26-.155v-9.021a5.516 5.516 0 0 0-2.731-4.788h-.003a6.18 6.18 0 0 0-.351-.186h-.014c-.095-.044-.202-.095-.326-.142a5.372 5.372 0 0 0-1.99-.384zm0 1.584c.5 0 .975.099 1.413.273h.006c.064.025.141.062.228.102.09.044.17.084.243.127h.004a3.916 3.916 0 0 1 1.943 3.414v8.077l-1.001-.597a.87.87 0 0 1-.419-.749v-.997c.009-.011.02-.022.028-.034.562-.79.896-1.775.896-2.776v-3.466l-.588-.158c-.396-.105-.604-.226-1.097-.492l-.024-.019c-.469-.39-1.212-.386-1.67.019-.01.016-.394.149-.902.16-.509.017-1.094-.04-1.592-.04h-.721l-.09 1.003v2.993c0 .932.296 1.844.79 2.603v.814c0 .562-.292 1.076-.759 1.356l-.53.315v-8.006c0-2.19 1.706-3.922 3.841-3.922zm1.632 2.705c.009.008.021.01.03.019l-.15-.105.12.086zm-20.331.409h6.308V41.2H15.77V28.523zm19.422.873v.006l.043.022.114.061c.254.137.587.268.884.406v.328c0 .016-.003.032-.003.043l.003.037.012.112a.73.73 0 0 1-.009-.059c-.003-.033-.003-.041-.003-.053v1.944c0 .63-.24 1.348-.6 1.854s-.786.758-1.165.758c-.378 0-.804-.252-1.164-.758a3.392 3.392 0 0 1-.6-1.854v-1.934c0-.016.003-.036.003-.047l-.003-.018v-.393c.293.015.525.03.859.021a3.21 3.21 0 0 0 1.63-.476zm-1.77 6.8c.324.145.667.25 1.046.25.31 0 .596-.07.869-.17.07.778.486 1.487 1.161 1.89l.554.332c-.074.884-.551 1.68-1.312 2.114a2.55 2.55 0 0 1-2.633-.05c-.737-.46-1.179-1.267-1.226-2.145l.083-.05c.79-.472 1.3-1.275 1.457-2.172zm-3.013 3.1a4.25 4.25 0 0 0 1.863 2.61 4.142 4.142 0 0 0 4.248.083 4.255 4.255 0 0 0 1.995-2.615l.82.489c.152.092.412.266.443.294.378.335.637.895.644 1.51v2.745H28.386V42.16c0-.212.006-.555.019-.684.06-.488.264-.927.554-1.235.068-.071.512-.383.783-.544l.668-.4z"></path></svg><svg width="40" height="40" viewBox="0 0 40 40" id="sales-2" y="295"><g fill="#FFF"><path d="M39.912 32.552c-1.156-2.205-3.72-3.328-6.228-2.73l-5.401 1.287c-.24-1.983-1.472-3.153-3.936-3.742l-14.458-3.06c.045-.3.08-.588.105-.856a.775.775 0 0 0-.256-.647c-1.429-1.289-7.14-1.706-8.856-1.803a.873.873 0 0 0-.62.214.776.776 0 0 0-.262.578v14.288c0 .438.373.793.833.793h5c.36 0 .68-.22.792-.546.021-.065.136-.398.306-.916l11.941 3.793c1.4.503 2.368.795 3.453.795 1.69-.002 3.67-.705 8.02-2.402l9.166-3.969a.817.817 0 0 0 .441-.457.762.762 0 0 0-.04-.62zM5.225 35.287H1.667V22.644c2.678.202 5.568.64 6.62 1.126-.444 3.476-2.442 9.653-3.062 11.517zm24.46.854c-7.007 2.737-7.252 2.648-10.253 1.568l-12.01-3.813c.684-2.16 1.637-5.366 2.184-8.02l14.357 3.039c1.845.438 2.589 1.132 2.69 2.58l-1.6.382a4.407 4.407 0 0 1-1.828.041l-7.231-1.378c-.43-.089-.888.192-.98.623-.09.43.203.847.655.933l7.231 1.378a6.138 6.138 0 0 0 2.558-.059l2.235-.532h.01l6.385-1.52c1.458-.343 2.94.14 3.858 1.2l-8.261 3.578z"></path><path d="M11.853 15.353h2.559v7.676a.853.853 0 0 0 1.706 0V14.5a.853.853 0 0 0-.853-.853h-1.353L25.5 2.06l11.59 11.587h-1.353a.853.853 0 0 0-.853.853v13.647a.853.853 0 0 0 1.706 0V15.353h2.559a.852.852 0 0 0 .602-1.457L26.102.25a.854.854 0 0 0-1.206 0L11.25 13.896a.853.853 0 1 0 .604 1.457z"></path><path d="M29.2 28c.442 0 .8-.373.8-.833v-8.334c0-.46-.358-.833-.8-.833h-6.4c-.442 0-.8.373-.8.833v5c0 .46.358.834.8.834.442 0 .8-.374.8-.834v-4.166h4.8v7.5c0 .46.358.833.8.833z"></path></g></svg><svg width="39" height="39" viewBox="0 0 39 39" id="sales-3" y="335"><path fill="#FFF" d="M.696 34.821h8.358a.697.697 0 0 0 .696-.696h3.482a.697.697 0 0 0 .697-.696v-.697h1.34l-.625 2.625c-.08.336.099.68.42.808l3.043 1.217v.922c0 .384.312.696.697.696h17.41a.697.697 0 0 0 .697-.696v-4.975A2.783 2.783 0 0 0 39 30.644a2.77 2.77 0 0 0-.962-2.09A2.768 2.768 0 0 0 39 26.465c0-.835-.377-1.578-.962-2.089a2.768 2.768 0 0 0 .962-2.09 2.77 2.77 0 0 0-.962-2.089 2.768 2.768 0 0 0 .962-2.09 2.783 2.783 0 0 0-2.09-2.687V.696A.697.697 0 0 0 36.215 0h-17.41c-.048 0-.09.018-.134.027l-.003-.013-3.482.696a.698.698 0 0 0-.497.971l3.42 7.523v1.242h-4.18V9.75a.697.697 0 0 0-.696-.696H9.75a.697.697 0 0 0-.696-.697H.696A.697.697 0 0 0 0 9.054v25.071c0 .384.312.696.696.696zm15.442.273l1.97-8.27v9.058l-1.97-.788zm9.438-19.127a2.741 2.741 0 0 0 1.017-.407l.062-.041c.137-.095.267-.2.385-.318l.002-.001a2.797 2.797 0 0 0 .375-.477c.017-.028.037-.051.053-.08a4.846 4.846 0 0 1 3.078.792c-.064.02-.123.049-.185.072-.054.02-.107.039-.16.062-.12.054-.234.117-.344.187-.03.018-.06.033-.09.052a2.745 2.745 0 0 0-.38.314c-.03.03-.055.063-.083.094-.084.09-.163.184-.235.284-.033.046-.063.096-.093.145a2.765 2.765 0 0 0-.332.787c-.013.052-.03.103-.04.156a2.72 2.72 0 0 0-.052.52c0 .2.023.394.064.583.013.063.039.12.056.182.036.122.07.244.121.359.03.068.071.13.107.196.054.1.107.197.172.29.046.063.1.12.15.18.07.083.14.163.218.236.02.02.036.044.057.062-.021.018-.037.042-.057.061a2.796 2.796 0 0 0-.218.236c-.05.06-.104.117-.15.181-.065.091-.118.19-.172.29-.036.065-.076.127-.107.196-.05.115-.085.236-.12.358-.02.062-.044.12-.057.183-.04.19-.064.384-.064.585 0 .185.02.367.055.543.002.014.006.027.009.04.011.055.033.105.048.158.03.105.057.21.097.31.01.025.022.05.033.073.025.058.058.108.087.163.04.076.077.152.123.223.022.034.046.067.07.1.038.053.08.102.122.152.03.036.053.076.085.11a4.804 4.804 0 0 1-1.426.217 4.88 4.88 0 0 1-4.875-4.875c0-1.31.534-2.566 1.472-3.482h.617c.172 0 .34-.021.505-.051zm2.281 9.8c.272 0 .543-.02.812-.055-.016.057-.04.11-.052.169a2.75 2.75 0 0 0 .001 1.167c.013.063.039.121.056.182.036.122.07.244.121.359.03.068.071.13.107.196.054.1.107.198.172.29.046.064.1.12.15.18.07.083.14.163.218.237.02.018.036.043.057.06-.021.019-.037.043-.057.062a2.796 2.796 0 0 0-.218.236c-.05.06-.104.117-.15.181a2.8 2.8 0 0 0-.172.29c-.036.066-.076.127-.107.196-.05.115-.085.237-.12.358-.02.062-.044.12-.057.183a2.789 2.789 0 0 0 2.722 3.37h2.183a5.579 5.579 0 0 0-2.831 4.18h-6.365A5.577 5.577 0 0 0 19.5 32.78V16.018h3.162a6.241 6.241 0 0 0-1.073 3.482 6.276 6.276 0 0 0 6.268 6.268zM19.5 37.608v-3.424a4.19 4.19 0 0 1 3.424 3.424H19.5zm16.018 0h-3.424a4.19 4.19 0 0 1 3.424-3.424v3.424zm2.09-6.964c0 .768-.626 1.393-1.394 1.393H31.34a1.394 1.394 0 0 1-1.393-1.393c0-.768.625-1.393 1.393-1.393h4.875c.768 0 1.393.625 1.393 1.393zm0-4.179c0 .768-.626 1.393-1.394 1.393H31.34a1.394 1.394 0 0 1-1.393-1.393c0-.768.625-1.393 1.393-1.393h4.875c.768 0 1.393.625 1.393 1.393zm0-4.178c0 .768-.626 1.393-1.394 1.393H31.34c-.136 0-.265-.026-.39-.063-.007-.003-.013-.008-.02-.01a1.407 1.407 0 0 1-.705-.494c-.002-.004-.007-.007-.01-.011a1.377 1.377 0 0 1-.182-.35c-.008-.022-.015-.047-.022-.07a1.378 1.378 0 0 1-.064-.395c0-.768.625-1.393 1.393-1.393h4.875c.768 0 1.393.625 1.393 1.393zm0-4.179c0 .768-.626 1.393-1.394 1.393H31.34a1.394 1.394 0 0 1-1.393-1.393c0-.768.625-1.393 1.393-1.393h4.875c.768 0 1.393.625 1.393 1.393zm-2.09-16.714v3.424a4.19 4.19 0 0 1-3.424-3.424h3.424zm-16.018 0h3.424A4.19 4.19 0 0 1 19.5 4.817V1.393zm-3.181.51l1.788-.357V5.84L16.32 1.903zM19.5 6.22a5.577 5.577 0 0 0 4.827-4.827h6.365a5.577 5.577 0 0 0 4.827 4.827v9.101h-3.006a6.229 6.229 0 0 0-4.655-2.089 2.789 2.789 0 0 0-2.786-2.786h-5.571V6.22H19.5zm-.696 5.62h6.267c.769 0 1.393.624 1.393 1.392 0 .18-.037.35-.099.508l-.002.003a1.41 1.41 0 0 1-.196.34l-.04.048c-.08.094-.169.18-.27.25-.002 0-.003.003-.006.004a1.392 1.392 0 0 1-.412.184 1.36 1.36 0 0 1-.368.056h-6.267a.697.697 0 0 0-.697.696v5.49L15.601 31.34h-1.672v-19.5h4.875zm-6.268-1.394v22.286H9.75V10.446h2.786zM1.393 9.75h6.964v23.679H1.393V9.75z"></path></svg><svg width="47" height="45" viewBox="0 0 47 45" id="sweet-home" y="374"><g fill="none"><path fill="#FF9D00" d="M24.272 9.914h3.683v3.691h-3.683zm-5.507 5.555h3.683v3.691h-3.683zm5.507 0h3.683v3.691h-3.683zm-5.507-5.555h3.683v3.691h-3.683z"></path><path fill="#3863C5" d="M46.263 21.375L24.166.387l-.07-.07-.105-.106c-.035-.035-.07-.035-.105-.07-.035-.036-.07-.036-.14-.07-.036 0-.07-.036-.14-.036-.036 0-.07-.035-.141-.035h-.561c-.035 0-.07.035-.14.035-.036 0-.106.035-.14.035-.036 0-.071.035-.141.07-.035.036-.07.036-.105.07-.035.036-.07.071-.106.071.035.07 0 .07-.035.106L.737 20.812a1.436 1.436 0 0 0-.07 2.004c.28.282.63.457 1.017.457.35 0 .701-.14.982-.386l2.63-2.496v23.203c0 .422.176.808.491 1.09.246.21.562.316.912.316.07 0 .176 0 .246-.035a89.627 89.627 0 0 0 9.926-2.356c.736-.21 1.157-1.02.947-1.757-.21-.739-1.017-1.16-1.754-.95a85.146 85.146 0 0 1-7.962 1.97V17.718L23.22 3.339l15.714 14.907v23.625c-4.49-.914-8.523-2.039-11.996-3.34 9.295-5.097 8.91-10.441 7.717-13.324-.702-1.723-2.315-2.883-4.35-3.129-2.35-.281-4.84.738-6.769 2.672-1.929-1.934-4.42-2.953-6.77-2.672-2.034.246-3.647 1.406-4.349 3.129-.912 2.285-.771 4.64.421 6.82 3.052 5.59 13.013 10.336 27.288 12.938.07 0 .176.035.246.035.316 0 .631-.105.912-.316.316-.282.49-.668.49-1.09V20.918l2.631 2.496c.281.246.632.387.983.387.385 0 .736-.14 1.017-.457a1.467 1.467 0 0 0-.14-1.969zm-31.04 9.316c-.807-1.476-.877-2.918-.281-4.394.315-.774 1.087-1.266 2.104-1.371 1.438-.176 3.613.492 5.297 2.847 0 .036.035.036.07.07l.105.106.105.106c.035 0 .035.035.07.035 0 0 .035 0 .035.035.035.035.07.07.14.07.036.035.07.035.106.07.035 0 .07.036.14.036.035 0 .105.035.14.035h.561c.036 0 .07-.035.141-.035.035 0 .105-.035.14-.035.035 0 .07-.036.105-.07.036-.036.106-.036.14-.071 0 0 .036 0 .036-.035.035 0 .035-.035.07-.035l.105-.106.105-.105c0-.035.036-.035.07-.07 1.72-2.356 3.859-3.024 5.297-2.848 1.017.105 1.789.633 2.104 1.37 2 4.923-4.279 8.825-8.523 10.829-4.209-1.969-7.12-4.148-8.383-6.434z"></path></g></svg><svg width="52" height="52" viewBox="0 0 52 52" id="twitter" y="419"><g fill="none" fill-rule="evenodd" transform="translate(1 1)"><circle cx="25" cy="25" r="25" stroke="#3863C5" opacity=".6"></circle><path fill="#3863C5" d="M36 18.083c-.81.354-1.68.593-2.592.7a4.47 4.47 0 0 0 1.984-2.458 9.123 9.123 0 0 1-2.866 1.078A4.54 4.54 0 0 0 29.232 16c-2.493 0-4.514 1.99-4.514 4.443 0 .348.04.687.117 1.013a12.882 12.882 0 0 1-9.303-4.643 4.37 4.37 0 0 0-.611 2.234c0 1.541.796 2.901 2.008 3.698a4.55 4.55 0 0 1-2.045-.556v.056c0 2.153 1.556 3.949 3.62 4.357a4.586 4.586 0 0 1-2.038.076c.574 1.765 2.241 3.05 4.216 3.086a9.147 9.147 0 0 1-5.605 1.902c-.365 0-.724-.021-1.077-.062a12.922 12.922 0 0 0 6.919 1.996c8.302 0 12.842-6.77 12.842-12.642 0-.193-.005-.384-.013-.575a9.09 9.09 0 0 0 2.252-2.3z" opacity=".7"></path></g></svg><svg width="52" height="52" viewBox="0 0 52 52" id="vk" y="471"><g fill="none" fill-rule="evenodd" transform="translate(1 1)"><circle cx="25" cy="25" r="25" stroke="#3863C5" opacity=".6"></circle><path fill="#3863C5" fill-rule="nonzero" d="M38.354 30.908a1.837 1.837 0 0 0-.093-.176c-.477-.843-1.389-1.878-2.735-3.106l-.028-.028-.014-.014-.015-.014h-.014c-.611-.571-.998-.956-1.16-1.152-.296-.375-.363-.755-.2-1.139.114-.29.544-.904 1.288-1.84.391-.497.702-.895.93-1.195 1.652-2.155 2.368-3.532 2.148-4.132l-.085-.14c-.057-.084-.205-.162-.444-.232-.239-.07-.544-.082-.916-.035l-4.124.028a.545.545 0 0 0-.286.007l-.186.042-.072.035-.057.043a.632.632 0 0 0-.158.147.96.96 0 0 0-.143.246 22.762 22.762 0 0 1-1.532 3.162 29.866 29.866 0 0 1-.974 1.51c-.295.427-.544.741-.744.942-.2.202-.382.363-.544.485-.162.122-.286.174-.372.155a10.658 10.658 0 0 1-.244-.057.941.941 0 0 1-.322-.344 1.52 1.52 0 0 1-.165-.548 5.933 5.933 0 0 1-.05-.57 11.67 11.67 0 0 1 .008-.674c.01-.29.014-.487.014-.59 0-.356.007-.743.021-1.16.015-.416.026-.747.036-.99.01-.244.014-.501.014-.773s-.016-.485-.05-.64a2.16 2.16 0 0 0-.15-.45.761.761 0 0 0-.293-.337 1.672 1.672 0 0 0-.48-.19c-.506-.112-1.15-.173-1.933-.182-1.775-.019-2.916.094-3.422.337-.2.103-.382.244-.544.422-.172.206-.196.319-.072.337.573.084.979.286 1.217.604l.086.17c.067.12.134.336.2.646.068.309.11.65.13 1.025.047.684.047 1.27 0 1.757a20.77 20.77 0 0 1-.136 1.138 2.248 2.248 0 0 1-.194.66 2.772 2.772 0 0 1-.172.31.244.244 0 0 1-.071.07 1.09 1.09 0 0 1-.387.07c-.134 0-.296-.065-.487-.196a3.411 3.411 0 0 1-.594-.541 7.236 7.236 0 0 1-.694-.963 16.7 16.7 0 0 1-.802-1.462l-.23-.407a34.808 34.808 0 0 1-.586-1.145 21.88 21.88 0 0 1-.659-1.455.928.928 0 0 0-.343-.45l-.072-.042a.986.986 0 0 0-.229-.12 1.542 1.542 0 0 0-.33-.09l-3.922.027c-.401 0-.673.09-.817.267l-.057.085a.447.447 0 0 0-.043.225c0 .103.029.23.086.379a46.01 46.01 0 0 0 1.868 3.822c.673 1.228 1.258 2.216 1.754 2.966.497.75 1.003 1.457 1.518 2.122.515.665.857 1.091 1.024 1.278.167.188.298.328.394.422l.358.337c.229.225.565.495 1.009.808.444.314.935.623 1.475.928.54.304 1.167.553 1.883.745.716.192 1.412.27 2.09.232h1.647c.334-.028.587-.132.759-.31l.057-.07a.922.922 0 0 0 .107-.26 1.42 1.42 0 0 0 .05-.386c-.01-.403.021-.766.093-1.089.071-.323.153-.567.244-.73.09-.165.193-.303.307-.415a1.24 1.24 0 0 1 .244-.204.944.944 0 0 1 .114-.05c.23-.074.499-.002.81.219.31.22.6.492.873.815.272.323.599.686.98 1.089.383.403.717.702 1.003.9l.286.168c.191.113.44.216.745.31.305.093.572.116.802.07l3.665-.057c.362 0 .644-.058.845-.175.2-.117.32-.246.358-.387.038-.14.04-.3.007-.478a1.738 1.738 0 0 0-.1-.372z" opacity=".7"></path></g></svg></svg>