<?xml version="1.0" encoding="UTF-8"?>
<svg width="26px" height="25px" viewBox="0 0 26 25" version="1.1" xmlns="http://www.w3.org/2000/svg" xmlns:xlink="http://www.w3.org/1999/xlink">
    <!-- Generator: Sketch 51.2 (57519) - http://www.bohemiancoding.com/sketch -->
    <title>Sberbank</title>
    <desc>Created with Sketch.</desc>
    <defs></defs>
    <g id="adaptive" stroke="none" stroke-width="1" fill="none" fill-rule="evenodd">
        <g id="monolit-second-320" transform="translate(-216.000000, -1866.000000)" fill="#FFFFFF">
            <g id="dom-stick" transform="translate(207.000000, 1857.000000)">
                <g id="Sberbank" transform="translate(9.000000, 9.000000)">
                    <path d="M20.7682927,1.90625 L21.8780488,2.90625 L7.86341463,10.84375 L1.07804878,6.96875 L1.71219512,5.71875 L7.86341463,9.1875 L20.7682927,1.90625 Z M17.9463415,0.3125 L19.4365854,1.0625 L7.86341463,7.625 L2.47317073,4.59375 L3.39268293,3.5 L7.86341463,6.03125 L17.9463415,0.3125 Z M22.8609756,3.9375 L23.6853659,5.03125 L7.86341463,14 L0.22195122,9.6875 L0.570731707,8.3125 L7.86341463,12.4375 L22.8609756,3.9375 Z" id="Shape"></path>
                    <path d="M25.1439024,7.96875 C25.6087317,9.260625 25.8414634,10.614375 25.8414634,12.03125 C25.8414634,13.448125 25.6087317,14.823125 25.1439024,16.15625 L24.8268293,17.000625 C24.1717561,18.52125 23.2522439,19.875625 22.0682927,21.063125 C20.8634146,22.229375 19.4898537,23.125625 17.9463415,23.750625 C16.319122,24.438125 14.6386341,24.781875 12.904878,24.781875 C11.1501951,24.781875 9.46970732,24.4375 7.86341463,23.750625 C6.36239024,23.125625 4.99897561,22.229375 3.77317073,21.063125 C2.56829268,19.875625 1.64878049,18.52125 1.01463415,17.000625 C0.338,15.395625 0,13.739375 0,12.03125 L0,11.1875 L7.86341463,15.59375 L24.4463415,6.21875 L25.1439024,7.96875 Z" id="Shape"></path>
                </g>
            </g>
        </g>
    </g>
</svg>