<svg xmlns="http://www.w3.org/2000/svg" width="34" height="33" viewBox="0 0 34 33">
    <g fill="#FFF" fill-rule="nonzero">
        <path d="M28.429 31.527v-16.16h4.507L16.82.582l-6.374 5.846V1.294H6.268v8.97L.706 15.368h4.506v16.16H.467v1.044h32.707v-1.044h-4.745zM7.324 2.337h2.067v5.059L7.324 9.29V2.338zm20.049 11.987v17.203H6.268V14.324H3.39L16.82 2.007 30.25 14.33h-2.877v-.006z"/>
        <path d="M16.82 12.759c-4.365 0-7.912 3.505-7.912 7.819 0 4.313 3.547 7.819 7.913 7.819 4.365 0 7.912-3.506 7.912-7.82 0-4.313-3.547-7.818-7.912-7.818zm0 14.6c-3.779 0-6.856-3.04-6.856-6.775 0-3.734 3.077-6.782 6.857-6.782 3.779 0 6.856 3.041 6.856 6.776 0 3.734-3.077 6.782-6.856 6.782z"/>
        <path d="M19.029 20.699a3.685 3.685 0 0 0-.908-.414 14.87 14.87 0 0 0-.875-.235V17.58a5.203 5.203 0 0 1 1.416.248c.4.147.605.14.798-.095a.63.63 0 0 0 .148-.4.565.565 0 0 0-.405-.573c-.567-.21-1.23-.338-1.964-.376v-.75a.382.382 0 0 0-.116-.28c-.148-.147-.425-.147-.566.006a.382.382 0 0 0-.103.273v.764c-.818.064-1.481.324-1.97.763a2.24 2.24 0 0 0-.548.764c-.122.286-.18.61-.18.967 0 .363.09.687.264.954.167.267.425.51.753.72.316.203.87.413 1.687.629v2.367c-.695-.032-1.294-.16-1.777-.37-.373-.165-.63-.158-.843.064-.11.115-.161.274-.161.471 0 .153.07.363.399.51a7.308 7.308 0 0 0 2.376.546v.764c0 .235.141.381.386.381.11 0 .206-.031.277-.101a.362.362 0 0 0 .116-.28v-.764c.785-.063 1.435-.299 1.918-.706.522-.433.786-.986.786-1.635.013-.75-.296-1.342-.908-1.743zm-2.556-.84c-.161-.038-.322-.09-.483-.14-.618-.21-.92-.528-.92-.967 0-.337.135-.592.411-.783.264-.178.593-.299.986-.35v2.24h.006zm2.073 3.022c-.2.369-.63.592-1.294.655v-2.15c.457.127.78.248.972.363.135.082.245.178.322.28.07.095.11.222.11.388 0 .171-.04.324-.11.464z"/>
    </g>
</svg>
