<svg xmlns="http://www.w3.org/2000/svg" width="37" height="23" viewBox="0 0 37 23">
    <path fill="#FFF" fill-rule="nonzero" d="M33.122 16.088a3.31 3.31 0 0 0-1.899.6l-5.56-4.887a3.301 3.301 0 0 0 .495-1.727 3.34 3.34 0 0 0-3.335-3.336 3.34 3.34 0 0 0-3.335 3.336c0 .509.123.985.326 1.416l-3.144 3.217a3.295 3.295 0 0 0-1.462-.352 3.3 3.3 0 0 0-1.975.664L6.113 6.75a3.32 3.32 0 0 0 1.1-2.458A3.34 3.34 0 0 0 3.876.957 3.34 3.34 0 0 0 .543 4.293 3.34 3.34 0 0 0 5.17 7.369l7.28 8.453a3.32 3.32 0 0 0-.576 1.87 3.34 3.34 0 0 0 3.335 3.337 3.34 3.34 0 0 0 3.336-3.336c0-.906-.365-1.726-.953-2.328l2.87-2.937c.605.606 1.44.983 2.362.983.801 0 1.528-.296 2.103-.768l5.502 4.833a3.31 3.31 0 0 0-.641 1.949 3.34 3.34 0 0 0 3.335 3.336 3.338 3.338 0 0 0 3.334-3.336 3.34 3.34 0 0 0-3.335-3.337zM1.666 4.293a2.22 2.22 0 0 1 2.212-2.224A2.22 2.22 0 0 1 6.09 4.293a2.22 2.22 0 0 1-2.213 2.223 2.22 2.22 0 0 1-2.212-2.223zm13.543 15.622a2.22 2.22 0 0 1-2.213-2.223 2.22 2.22 0 0 1 2.213-2.224 2.22 2.22 0 0 1 2.214 2.224 2.22 2.22 0 0 1-2.214 2.223zm7.614-7.617a2.22 2.22 0 0 1-2.213-2.224 2.22 2.22 0 0 1 2.213-2.223 2.22 2.22 0 0 1 2.213 2.223 2.22 2.22 0 0 1-2.213 2.224zm10.3 9.35a2.22 2.22 0 0 1-2.214-2.223 2.22 2.22 0 0 1 2.213-2.224 2.22 2.22 0 0 1 2.212 2.224 2.22 2.22 0 0 1-2.212 2.223z"/>
</svg>
