<svg xmlns="http://www.w3.org/2000/svg" width="35" height="35" viewBox="0 0 35 35">
    <g fill="#FFF" fill-rule="nonzero">
        <path d="M34.174 18.686a1.17 1.17 0 0 0-.978-.517h-6.18v-4.445a.98.98 0 0 0-.978-.982H24.44v-5.79c0-.206-.051-.361-.206-.464L17.798.698a.555.555 0 0 0-.36-.155H3.48c-.309 0-.515.207-.515.517v11.733H1.37a.98.98 0 0 0-.979.982v19.952a.98.98 0 0 0 .979.982h26.367c.464 0 .927-.259 1.082-.724l5.51-14.214c.103-.413.051-.775-.155-1.085zm-8.188-4.859v4.342h-1.545v-4.342h1.545zm-8.034-11.63l4.635 4.187h-4.635V2.197zm-13.956-.62h12.978v5.324c0 .31.206.517.515.517h5.974v10.75H10.33c-.464 0-.927.26-1.082.724l-.154.414H6.056c-.309 0-.515.207-.515.517 0 .31.206.517.515.517h2.627l-.927 2.377h-1.7c-.309 0-.515.207-.515.517 0 .31.206.517.515.517h1.288L5.54 28.403H3.996V1.577zm-2.575 12.25h1.545V28.92c0 .31.206.517.515.517h1.7l-1.442 3.67c-.052.154-.103.361-.052.516H1.421V13.827zm31.93 5.53l-5.51 14.215c0 .051-.052.051-.104.051H4.82c-.103 0-.103-.051-.154-.051v-.052l5.51-14.266c0-.051.052-.051.103-.051h22.865c.103 0 .103.051.155.051.051.052.051.104.051.104z"/>
        <path d="M6.056 10.157H21.3c.309 0 .515-.206.515-.517 0-.31-.206-.516-.515-.516H6.056c-.309 0-.515.206-.515.516 0 .31.206.517.515.517zM6.056 13.569H21.3c.309 0 .515-.207.515-.517 0-.31-.206-.517-.515-.517H6.056c-.309 0-.515.207-.515.517 0 .258.206.517.515.517zM6.056 16.98H21.3c.309 0 .515-.207.515-.517 0-.31-.206-.517-.515-.517H6.056c-.309 0-.515.207-.515.517 0 .259.206.517.515.517zM20.218 26.956h.618c.31 0 .515-.207.515-.517 0-.31-.206-.517-.515-.517h-.618c-.257-2.584-2.317-4.652-4.84-4.859v-.62c0-.31-.207-.517-.516-.517-.309 0-.515.207-.515.517v.62c-2.574.259-4.634 2.326-4.84 4.859h-.618c-.31 0-.515.207-.515.517 0 .31.206.517.515.517h.618c.257 2.584 2.317 4.651 4.84 4.858v.62c0 .31.206.517.515.517.31 0 .515-.206.515-.517v-.62c2.524-.258 4.584-2.326 4.841-4.858zm-4.892 3.824v-.568c0-.31-.206-.517-.515-.517-.31 0-.515.207-.515.517v.568c-2.009-.258-3.605-1.809-3.811-3.824h.567c.309 0 .515-.207.515-.517 0-.31-.206-.517-.515-.517h-.567c.258-2.016 1.802-3.618 3.81-3.825v.569c0 .31.207.516.516.516.309 0 .515-.206.515-.516v-.569c2.008.258 3.605 1.81 3.81 3.825h-.566c-.309 0-.515.207-.515.517 0 .31.206.517.515.517h.567c-.206 1.964-1.803 3.566-3.811 3.824z"/>
        <path d="M14.81 24.061a2.312 2.312 0 0 0-2.317 2.326 2.312 2.312 0 0 0 2.318 2.326 2.312 2.312 0 0 0 2.317-2.326c.052-1.24-1.03-2.326-2.317-2.326zm0 3.67a1.277 1.277 0 0 1-1.287-1.292c0-.724.567-1.292 1.288-1.292.72 0 1.287.568 1.287 1.292 0 .723-.566 1.292-1.287 1.292zM30.93 21.425H20.579c-.31 0-.515.207-.515.517 0 .31.206.517.515.517H30.93c.309 0 .515-.207.515-.517a.517.517 0 0 0-.515-.517zM29.849 24.475h-8.086c-.309 0-.515.206-.515.517 0 .31.206.516.515.516h8.086c.309 0 .515-.206.515-.516 0-.259-.258-.517-.515-.517zM28.716 27.524h-7.004c-.31 0-.515.207-.515.517 0 .31.206.517.515.517h7.004c.309 0 .515-.207.515-.517a.517.517 0 0 0-.515-.517zM27.634 30.574h-7.57c-.31 0-.515.206-.515.517 0 .31.206.516.515.516h7.57c.31 0 .515-.206.515-.516 0-.259-.257-.517-.515-.517z"/>
    </g>
</svg>
