<svg xmlns="http://www.w3.org/2000/svg" width="25" height="25" viewBox="0 0 25 25">
    <g fill="#F1942D" fill-rule="nonzero">
        <path d="M12.5.132C5.67.132.133 5.67.133 12.5c0 6.831 5.538 12.369 12.369 12.369 6.83 0 12.367-5.538 12.367-12.369C24.868 5.67 19.33.132 12.5.132zm.423 22.143v-2.266h-.846v2.266c-5.06-.217-9.135-4.293-9.351-9.352h2.266v-.846H2.726c.216-5.06 4.292-9.135 9.35-9.352v2.266h.848V2.725c5.06.216 9.136 4.292 9.352 9.352H20.01v.846h2.267c-.217 5.06-4.293 9.136-9.353 9.352z"/>
        <path d="M18.065 11.833l-4.816.16a.902.902 0 0 0-1.063-.339l-4.444-5.06a.324.324 0 0 0-.454-.03.323.323 0 0 0-.03.454l4.445 5.062a.903.903 0 0 0-.107.42c0 .5.404.905.904.905.332 0 .619-.181.776-.448l4.82-.16a.483.483 0 0 0 .466-.498c-.009-.266-.219-.459-.497-.466z"/>
    </g>
</svg>
