<svg xmlns="http://www.w3.org/2000/svg" width="44" height="44" viewBox="0 0 44 44">
    <g fill="#FFF" fill-rule="nonzero">
        <path d="M12.776 24.84c4.053 0 7.093-6.027 7.093-9.934 0-3.915-3.187-7.093-7.093-7.093-3.907 0-7.094 3.187-7.094 7.093-.009 3.924 3.179 9.935 7.094 9.935zm0-15.616a5.682 5.682 0 0 1 5.673 5.674c0 3.204-2.65 8.514-5.673 8.514s-5.674-5.31-5.674-8.514c-.008-3.127 2.538-5.674 5.674-5.674z"/>
        <path d="M18.535 23.672l-3.404 7.994-.788-3.993h1.265v-1.42H9.935v1.42h1.264l-.797 3.967-3.395-7.977C2.434 24.988 0 28.626 0 32.645V44h25.551V32.645c0-4.019-2.46-7.7-7.016-8.973zm-5.89 4.001h.252l1.247 6.314-1.377 3.231-1.386-3.265 1.265-6.28zM24.132 42.58H22v-6.384h-1.42v6.384H4.972v-6.384h-1.42v6.384H1.42v-9.935a7.79 7.79 0 0 1 4.799-7.206l6.557 15.4 6.556-15.4a7.781 7.781 0 0 1 4.799 7.206v9.935zM40.449 0H24.84a3.556 3.556 0 0 0-3.551 3.551v14.196a3.556 3.556 0 0 0 3.55 3.551v3.846l3.847-3.846h11.762A3.556 3.556 0 0 0 44 17.748V3.55A3.556 3.556 0 0 0 40.449 0zm2.13 17.739a2.13 2.13 0 0 1-2.13 2.13h-12.36l-1.836 1.837v-1.837h-1.42a2.13 2.13 0 0 1-2.131-2.13V3.55a2.13 2.13 0 0 1 2.13-2.13H40.45a2.13 2.13 0 0 1 2.13 2.13V17.74z"/>
        <path d="M36.906 4.261h-1.42v1.542L32.645 2.46l-8.16 9.614h2.478v6.375h11.355v-6.384h2.477l-3.897-4.59V4.26h.008zm-4.98 12.767v-2.13h1.42v2.13h-1.42zm4.98 0h-2.14v-3.55h-4.26v3.55h-2.123v-4.963h8.515v4.963h.008zm-9.354-6.383l5.093-6.002 5.093 6.002H27.552z"/>
    </g>
</svg>
