<svg xmlns="http://www.w3.org/2000/svg" width="46" height="37" viewBox="0 0 46 37">
    <path fill="#FFF" fill-rule="nonzero" d="M3.957 14.68C1.647 13.562.34 11.82.058 9.64-.196 7.684.393 5.465 1.651 3.24l1.43.796c-1.1 1.945-1.6 3.83-1.397 5.397.183 1.406.926 2.554 2.307 3.41.434-5.34 4.937-9.54 10.428-9.54h4.387A5.622 5.622 0 0 1 23.798.287a5.622 5.622 0 0 1 4.99 3.016h3.256L35.2 0l2.11 4.645c3.173 1.783 5.315 5.166 5.315 9.045l1.88.047A1.49 1.49 0 0 1 46 15.221v5.744c0 .82-.67 1.484-1.495 1.484h-1.912c-.394 5.05-4.427 9.088-9.499 9.532l.68 5.019h-7.16l.579-4.978h-7.865L20.1 37h-7.522l.875-5.022c-5.325-.484-9.496-4.93-9.496-10.343V14.68zm25.127-6.926h-1.69a3.999 3.999 0 0 0 .473-1.89c0-2.231-1.822-4.04-4.07-4.04-2.247 0-4.069 1.809-4.069 4.04 0 .683.171 1.326.472 1.89h-1.689a5.53 5.53 0 0 1-.252-2.824h-3.84c-4.873 0-8.823 3.922-8.823 8.76v7.945c0 4.838 3.95 8.76 8.823 8.76h.974l-.868 4.978h3.664l-.771-4.978h11.614l-.579 4.978H31.9l-.675-4.978h.937c4.873 0 8.824-3.922 8.824-8.76v-.814h3.375v-5.456h-3.375V13.69c0-4.838-3.95-8.76-8.824-8.76h-2.825a5.574 5.574 0 0 1-.253 2.824zm-13.266 1.82v-1.82h16.01v1.82h-16.01zm20.202 7.179a1.537 1.537 0 0 1-1.543-1.532c0-.846.69-1.531 1.543-1.531.852 0 1.542.685 1.542 1.531 0 .846-.69 1.532-1.542 1.532zM33.127 3.35c.556.058 1.103.154 1.639.287a9.182 9.182 0 0 1 1.446.478l-1.18-2.995-1.905 2.23z"/>
</svg>
