<svg xmlns="http://www.w3.org/2000/svg" width="46" height="45" viewBox="0 0 46 45">
    <g fill="none" fill-rule="evenodd">
        <path fill="#FFF" fill-rule="nonzero" d="M39.326 43.482V20.804h6.339L23 .054l-8.965 8.205V1.054H8.16v12.589l-7.824 7.16h6.339v22.68H0v1.463h46v-1.464h-6.674zM9.644 2.518h2.906v7.098l-2.906 2.66V2.519zM37.84 19.339v24.143H8.16V19.34H4.11L23 2.054l18.889 17.294h-4.048v-.009z"/>
        <path fill="#FFF" fill-rule="nonzero" d="M23 17.143c-6.14 0-11.129 4.92-11.129 10.973 0 6.054 4.99 10.973 11.129 10.973 6.14 0 11.129-4.92 11.129-10.973 0-6.053-4.99-10.973-11.129-10.973zm0 20.49c-5.315 0-9.644-4.267-9.644-9.508 0-5.241 4.329-9.518 9.644-9.518s9.644 4.268 9.644 9.51c0 5.24-4.329 9.517-9.644 9.517z"/>
        <path stroke="#FFF" stroke-width="1.5" d="M20.459 25.417l2.824 3.518h6.464"/>
    </g>
</svg>
