<svg xmlns="http://www.w3.org/2000/svg" width="55" height="49" viewBox="0 0 55 49">
    <g fill="none" fill-rule="nonzero">
        <path fill="#3863C5" d="M50.51.512H25.407c-2.48 0-4.49 1.995-4.49 4.455v7.222c0 .769.628 1.392 1.403 1.392s1.403-.623 1.403-1.392V4.978c0-.923.754-1.67 1.684-1.67H50.51c.93 0 1.684.747 1.684 1.67v22.456c0 .923-.754 1.67-1.684 1.67H38.545c-.372 0-.73.146-.993.407L32.73 34.3v-3.792c0-.769-.629-1.392-1.403-1.392-.775 0-1.404.623-1.404 1.392v7.15c0 .563.341 1.072.866 1.288.525.216 1.13.096 1.53-.303l6.803-6.743H50.51c2.48 0 4.49-1.994 4.49-4.454V4.978a4.437 4.437 0 0 0-1.311-3.157A4.508 4.508 0 0 0 50.51.512z"/>
        <path fill="#3863C5" d="M32.512 24.344H43.82c.775 0 1.403-.623 1.403-1.392v-6.72l.657.517c.392.31.921.39 1.388.208a1.387 1.387 0 1 0 .363-2.385l-8.587-6.777a1.412 1.412 0 0 0-1.75 0L28.7 14.578a1.385 1.385 0 0 0-.222 1.957c.484.6 1.367.7 1.973.22l.657-.518v6.715c0 .769.628 1.392 1.403 1.392zm5.651-13.698l4.254 3.341v7.573h-8.502v-7.55l4.248-3.364z"/>
        <path fill="#FF9D00" d="M11.477 42.825v-3.848a2.15 2.15 0 0 0-.432-1.286 10.174 10.174 0 0 1-1.762-4.716 1.39 1.39 0 0 0-.59-.98A3.823 3.823 0 0 1 7.01 28.86a.666.666 0 0 1 .207-.496.705.705 0 0 1 .511-.195 1.41 1.41 0 0 0 1.023-.381c.275-.26.432-.618.436-.994l.04-3.653a6.293 6.293 0 0 1 .437-2.327c.893-2.183 3.154-4.527 6.005-4.527h.562V17.4a1.396 1.396 0 0 0 1.257 1.386 6.482 6.482 0 0 1 4.422 2.784c.436.602.67 1.325.668 2.066v3.09c0 .77.628 1.392 1.403 1.392.384 0 .696.31.696.69a3.827 3.827 0 0 1-1.594 3.091 1.39 1.39 0 0 0-.561.969 10.117 10.117 0 0 1-1.757 4.872 2.183 2.183 0 0 0-.443 1.309v3.825c0 .8.544 1.501 1.324 1.704a22.842 22.842 0 0 1 7.684 3.63c.62.462 1.499.337 1.964-.278a1.385 1.385 0 0 0-.28-1.949 25.65 25.65 0 0 0-7.858-3.864v-2.862a12.78 12.78 0 0 0 2.1-5.468 6.604 6.604 0 0 0 2.244-4.95 3.433 3.433 0 0 0-1.021-2.456 3.526 3.526 0 0 0-1.078-.73v-2.048a6.22 6.22 0 0 0-1.207-3.703 9.616 9.616 0 0 0-5.112-3.67v-1.364c0-.769-.629-1.392-1.403-1.392h-1.965c-4.17 0-7.33 3.146-8.603 6.264a9.03 9.03 0 0 0-.646 3.341l-.039 2.534c-.417.166-.798.41-1.122.718a3.423 3.423 0 0 0-1.072 2.5 6.588 6.588 0 0 0 2.346 5.011 12.604 12.604 0 0 0 2.087 5.29v2.907a25.62 25.62 0 0 0-8.104 3.93 1.385 1.385 0 0 0-.28 1.95 1.41 1.41 0 0 0 1.964.278 22.828 22.828 0 0 1 7.89-3.653 1.762 1.762 0 0 0 1.342-1.72z"/>
    </g>
</svg>
