<svg xmlns="http://www.w3.org/2000/svg" width="41" height="50" viewBox="0 0 41 50">
    <g fill="#FF9D00" fill-rule="nonzero">
        <path d="M29.587 26.533c-1.353 0-3.042.23-4.901.668a44.69 44.69 0 0 1-5.623-5.283c.562-5.675-.339-8.042-1.204-9.029-.68-.775-1.628-1.045-2.678-.75-1.202.337-1.656 1.109-1.825 1.697-.699 2.435 2.205 6.325 4.162 8.59a48.551 48.551 0 0 1-1.616 7.946c-1.772.877-3.292 1.814-4.408 2.718-1.405 1.139-2.204 2.247-2.375 3.296-.14.862.138 1.669.807 2.334.516.514 1.085.775 1.693.775 2.586 0 4.526-4.892 5.506-8.038a41.53 41.53 0 0 1 7.229-2.616c2.068 1.557 4.85 3.305 6.914 3.305 1.362 0 2.268-.752 2.55-2.117.227-1.1-.112-1.82-.437-2.229-.667-.84-1.944-1.267-3.794-1.267zM11.62 37.98c-.211 0-.427-.113-.66-.345-.413-.412-.42-.75-.379-1 .186-1.141 1.928-2.698 4.66-4.214-1.358 3.824-2.755 5.559-3.621 5.559zm3.16-23.717c.063-.223.211-.5.794-.663.152-.043.295-.065.425-.065.298 0 .539.117.758.366.791.902 1.126 3.237.947 6.4-1.756-2.224-3.29-4.763-2.925-6.038zm8.067 13.423a43.563 43.563 0 0 0-5.138 1.85l.014-.045-.039.018c.48-1.826.869-3.74 1.137-5.598l.028.032.005-.043a46.866 46.866 0 0 0 3.999 3.751l-.038.01.032.025zm9.522 2.03c-.136.658-.444.915-1.1.915-1.112 0-2.874-.8-4.953-2.23 1.233-.232 2.344-.353 3.272-.353 1.812 0 2.434.443 2.643.707.066.083.267.336.138.96z"/>
        <path d="M32.662 0H2.7A2.7 2.7 0 0 0 0 2.7v44.6A2.7 2.7 0 0 0 2.7 50h35.6a2.7 2.7 0 0 0 2.7-2.7V8.525L32.662 0zm.434 2.586l5.374 5.495h-5.374V2.586zM1.482 46.685V3.315a1.8 1.8 0 0 1 1.8-1.8h28.332v8.081h7.904v37.089a1.8 1.8 0 0 1-1.8 1.8H3.282a1.8 1.8 0 0 1-1.8-1.8z"/>
    </g>
</svg>
