<svg xmlns="http://www.w3.org/2000/svg" width="37" height="37" viewBox="0 0 37 37">
    <g fill="#3863C5" fill-rule="evenodd">
        <path d="M16.886 5.338c-1.228 0-2.46.422-3.453 1.263h-.014L.974 16.629c-.495.393-.758.937-.777 1.46a2.04 2.04 0 0 0 .49 1.383c.314.375.76.654 1.28.722.52.069 1.103-.106 1.57-.532L15.974 9.648a1.35 1.35 0 0 1 1.822 0l12.411 10.014c.467.426 1.05.6 1.57.532.521-.069.966-.347 1.281-.722.315-.375.51-.861.49-1.384-.02-.522-.283-1.066-.777-1.46L20.35 6.602a5.331 5.331 0 0 0-3.464-1.272v.009zm0 1.144a4.172 4.172 0 0 1 2.727 1.009L32.05 17.53h.004c.268.212.339.406.346.608a.928.928 0 0 1-.226.608.894.894 0 0 1-.546.32c-.193.025-.39-.012-.643-.24a.574.574 0 0 0-.025-.023L18.533 8.773a2.54 2.54 0 0 0-3.293 0L2.788 18.801a.574.574 0 0 0-.027.025c-.253.23-.45.265-.643.24a.898.898 0 0 1-.548-.32.927.927 0 0 1-.225-.608c.008-.202.08-.396.346-.608h.003L14.157 7.49a4.172 4.172 0 0 1 2.73-1.008h-.001zM4.796 33.378v3.434h24.441v-3.434h-1.15v2.29H5.946v-2.29zM4.796 23.078v2.86h1.15v-2.86zM28.087 28.228v2.861h1.15v-2.861zM28.087 23.078v2.86h1.15v-2.86z"/>
        <path d="M28.087 17.641v3.148h1.15V17.64z"/>
        <path d="M22.756 17.355a.576.576 0 0 0-.504.284.57.57 0 0 0 0 .577.576.576 0 0 0 .504.284h5.618c.208.002.4-.106.505-.284a.57.57 0 0 0 0-.577.576.576 0 0 0-.505-.284h-5.618zM22.343 14.494a.576.576 0 0 0-.505.284.57.57 0 0 0 0 .576.576.576 0 0 0 .505.284h2.868c.208.003.4-.105.505-.284a.57.57 0 0 0 0-.576.576.576 0 0 0-.505-.284h-2.868zM5.083 17.355v3.434h1.15v-3.434z"/>
        <path d="M5.81 17.355a.576.576 0 0 0-.503.284.57.57 0 0 0 0 .577.576.576 0 0 0 .504.284h5.463c.208.002.4-.106.505-.284a.57.57 0 0 0 0-.577.576.576 0 0 0-.505-.284H5.811zM8.54 14.494a.576.576 0 0 0-.504.284.57.57 0 0 0 0 .576.576.576 0 0 0 .504.284h3.148c.207.003.4-.105.504-.284a.57.57 0 0 0 0-.576.576.576 0 0 0-.504-.284H8.54z"/>
        <path fill-rule="nonzero" d="M17.294 29.945a.57.57 0 0 0 .575.573.577.577 0 0 0 .575-.573.574.574 0 0 0-.575-.572.574.574 0 0 0-.575.572zM5.083 30.517a1.73 1.73 0 0 0-1.725 1.717c0 .94.78 1.716 1.725 1.716h8.77a.57.57 0 1 0 .504-.86.576.576 0 0 0-.504-.284h-8.77a.56.56 0 0 1-.575-.572.56.56 0 0 1 .575-.573h8.77c.207.003.4-.105.505-.284a.57.57 0 0 0 0-.576.576.576 0 0 0-.505-.284h-8.77zm14.665 0a.576.576 0 0 0-.504.284.57.57 0 0 0 0 .576.576.576 0 0 0 .504.284h8.914a.56.56 0 0 1 .575.573.56.56 0 0 1-.575.572h-8.914a.576.576 0 0 0-.504.284.57.57 0 0 0 0 .577.576.576 0 0 0 .504.283h8.914a1.73 1.73 0 0 0 1.725-1.716 1.73 1.73 0 0 0-1.725-1.717h-8.914z"/>
        <path d="M4.796 28.228v2.861h1.15v-2.861zM14 14.492a.574.574 0 0 0-.576.572v5.725h1.15v-5.153h4.597v5.153h1.15v-5.725a.574.574 0 0 0-.575-.572h-5.747z"/>
        <path d="M16.297 15.113v5.676h1.15v-5.676z"/>
        <path fill-rule="nonzero" d="M5.083 20.216a1.73 1.73 0 0 0-1.725 1.717c0 .941.78 1.717 1.725 1.717h23.579a1.73 1.73 0 0 0 1.725-1.717 1.73 1.73 0 0 0-1.725-1.717H5.083zm0 1.145h23.579a.56.56 0 0 1 .575.572.56.56 0 0 1-.575.572H5.083a.56.56 0 0 1-.575-.572.56.56 0 0 1 .575-.572z"/>
        <path d="M13.712 17.38v1.144h6.321V17.38z"/>
        <path fill-rule="nonzero" d="M5.083 25.367a1.73 1.73 0 0 0-1.725 1.716c0 .942.78 1.717 1.725 1.717h8.77c.207.003.4-.106.505-.284a.57.57 0 0 0 0-.576.576.576 0 0 0-.505-.284h-8.77a.56.56 0 0 1-.575-.573.56.56 0 0 1 .575-.572h8.77c.207.003.4-.106.505-.284a.57.57 0 0 0 0-.576.576.576 0 0 0-.505-.284h-8.77zm14.665 0a.576.576 0 0 0-.504.284.57.57 0 0 0 0 .576.576.576 0 0 0 .504.284h8.914a.56.56 0 0 1 .575.572.56.56 0 0 1-.575.573h-8.914a.576.576 0 0 0-.504.284.57.57 0 0 0 0 .576.576.576 0 0 0 .504.284h8.914a1.73 1.73 0 0 0 1.725-1.717 1.73 1.73 0 0 0-1.725-1.716h-8.914zM32.975 36.24c0 .316.258.572.575.572a.574.574 0 0 0 .575-.572.574.574 0 0 0-.575-.572.574.574 0 0 0-.575.572z"/>
        <path d="M.777 35.667a.576.576 0 0 0-.508.283.57.57 0 0 0 0 .579c.106.178.3.287.508.283H1.91a.576.576 0 0 0 .507-.283.57.57 0 0 0 0-.579.576.576 0 0 0-.507-.283H.777zM28.087 7.055v7.153h1.15V7.055zM24.636 7.055v4.292h1.15V7.055z"/>
        <path d="M24.643 6.482a.576.576 0 0 0-.504.284.57.57 0 0 0 0 .577.576.576 0 0 0 .504.284h4.585c.207.003.4-.106.504-.284a.57.57 0 0 0 0-.577.576.576 0 0 0-.504-.284h-4.585zM13.997 24.794a.574.574 0 0 0-.575.573V36.24h1.15V25.939h4.599v10.3h1.15V25.368a.574.574 0 0 0-.575-.573h-5.749z"/>
        <path d="M3.942 35.667a.576.576 0 0 0-.507.283.57.57 0 0 0 0 .579c.105.178.299.287.507.283H31.24a.576.576 0 0 0 .507-.283.57.57 0 0 0 0-.579.576.576 0 0 0-.507-.283H3.94zM32.115.188c-.787 0-1.438.648-1.438 1.43v.852c0 .164-.12.284-.285.284h-3.458A1.44 1.44 0 0 0 25.5 4.182v.863a.572.572 0 0 0 .285.502c.18.104.4.104.58 0a.572.572 0 0 0 .285-.502v-.863c0-.164.12-.284.285-.284h3.458a1.44 1.44 0 0 0 1.435-1.428v-.852a.28.28 0 0 1 .288-.286h4.302c.207.003.4-.106.504-.284a.57.57 0 0 0 0-.576.576.576 0 0 0-.504-.284h-4.302z"/>
        <path fill-rule="nonzero" d="M28.374 5.052c0 .316.258.573.575.573a.574.574 0 0 0 .575-.573.574.574 0 0 0-.575-.572.574.574 0 0 0-.575.572z"/>
    </g>
</svg>
