<svg xmlns="http://www.w3.org/2000/svg" width="77" height="44" viewBox="0 0 77 44">
    <g fill="none" fill-rule="evenodd">
        <path stroke="#3863C5" stroke-width="2.45" d="M46.964 14.837c-.137.092.042.287-.067.397-.112.112-.601.433-.857.318-.12-.053.696-.563.863-.809.274-.403.188-.845.606-.912 1.75-.277-1.36-3.304-1.275-1.538 0 .015-.048.063-.094.002-.27-.349-.158-.126-.41-.618-.126-.245.373-.031.318-.23-.062-.226-.443-.485-.666-.37-.574.294-.479.413-.695 1.205-.048.172-.454-.164-.529-.002-.14.308-.131.546-.469.334-.21-.132.375-.228.105-.288-1.08-.243-2.173.444-3.214.86-.205.08.094.102.025.224-.052.09-.333-.138-.31-.035.127.564.238.145.168.496-.021.105.285-.098.268.03-.05.377-.06.252-.36.296-.246.035.069-.137-.21-.208-.214-.053-.904-.374-1.257-.115-.43.315-.408.789-.258 1.25.057.178.646.179.225.597-.148.147-.529-1.183-.869-1.347-.447-.215-.269-.108-.517.178-.13.146.347.368.045.393-.28.021-.086-.392-.389-.138-.298.25.283.595.048.805-.22.198-.358-.024-.41-.304-.083-.445.923-2.238.435-1.788-.766.708-.541.447-1.156 1.262-.658.871-1.52 1.72-.859 2.271.992.826 1.119.856.918 1.238-.099.19.025-.315-.346-.623-.355-.293-.56-.24-.79.1-.326.48-.506.605-.791 1.002-.188.263-.646.433-.926.252-.728-.473-1.04-.378-.505-.553.732-.24 1.22-1.232 1.57-1.435.347-.202.917-2.396 1.436-2.533.536-.14 1.37-.777.478-1.386-.26-.176.351.287.458-.028.382-1.127-2.882 1.138-2.545 1.328.214.121-.068.431-.339.51-.338.1-.57.335-.534.53.021.113.252-.105.3 0 .135.301-.127.37-.003.81.041.148-.318.422-.368.276-.217-.638-.542-1.846-.824-2.344-.153-.269-.102-.08-.177-.175-.287-.362.058-.956-.336-1.191-.542-.322-.034 1.396-.58 1.645-.495.228-.053-.444-.313-.553-3.486-1.468.752-1.207-2.98-1.816-.433-.07-.233-.355-.445-.302-.344.087-.169-.166-.439-.036-.826.395-.862.225-.956-.092-.08-.277-.08-.517.199-.623.62-.239.394.432.757.257.588-.283.504-1.356-.073-1.673-.165-.09-.19.446-.338.597-.426.432-1.332 1.25-1.558 1.02-.091-.09.087-.626-.226-.743-.62-.23-.932-.604-1.53-.346-.152.066-.08.364-.274.506-.034.026-.371-.013-.372-.113-.002-.359.193-.835.019-1.217-.086-.188-.28-.245-.47-.115-.339.232-.063.653-.203.827-.527.652-.502-.37-.274-.746.074-.123-.2-.333-.088-.422.803-.646 1.942-2.969 1.816-1.762-.448 4.308 3.5 3.64 2.633-.58-.109-.53.137-.177.24-.504.348-1.098-1.24-1.658-2.081-1.325-.307.121-.111.813-.429.896-.594.156-2.706.905-3.303 1.436-.561.5-.382.709-1.097.988-1.163.455-2.221-1.651-3.073-.95-.037.031.099 1.267 0 1.19-.453-.35-.077-.596-.456-.725-.915-.312-1.765.006-2.543.35-.439.194-1.006.668-1.317 1.037-.2.235.068.508.146.74.04.115-.251.19-.203.3.225.522-.951 1.454-1.334 2.07-.24.388.042-.002.12.175.074.171-.074.587-.291.505-.848-.32-.027-.903-1.117-.21-.19.12-.428.22-.314.494.127.305.531.279.623.53.327.896-2.07 1.137-.487 3.534.112.17-.151.392-.21.604-.016.057.607 1.351.271 1.45-.066.02.043.203-.026.208-.351.024-.178-.247-.4-.158-.694.278-.26.17-.473.48-.113.167-.394.374-.549.246-.473-.392-.913-1.141-1.336-.535-.366.525.696.408.464.673-.238.27-.819-.15-.957-.481a1.63 1.63 0 0 1-.078-.218c-.018-.066-.14.035-.163.066-.074.093.168.185-.126.491-.24.251-.849.112-1.082-.052-.134-.094-.771-.847-.748-1.134.057-.7.573-.98.22-1.779-.096-.213-1.19-.725-1.39-.444-.396.555-.065.499-.512 1.186-.295.45.51 1.002 1.153 1.453.336.237.45.57.452.593.014.198.07.395.06.592-.045.94-.522 1.851.013 2.62.395.564.898 1.207 1.173 1.92.352.91.889 1.417.783 2.303-.082.68-.115 3.094 1.072 2.343.55-.35.45-1.373.73-1.877.104-.188.564-.104.667-.297.03-.059-.255-.09-.24-.169.064-.319-.045-.564.127-.74.15-.153.325.242.46.136.425-.336.987-.437 1.145-.183.257.415-.219.218.15.375.362.157.48.085.743-.05.403-.207-.057-.306.074-.723.101-.325-.05.236.219.221.306-.016.598-.965.511-1.48-.025-.152-.464-.25-.365-.371.246-.303.282-.292.153-.623-.131-.338.547-.12.799-.334.258-.22 1.046-.873 1.174-.615.435.872-.275.816.677.528.449-.137 1.617.05 1.859.346.187.228.566.67.826 1.218.3.634-.466.86-.097 1.353.136.18.505.442.51.445 1.394.6 1.532 1.267 1.928 1.813.397.545 2.03.779 1.588-.373-.073-.19-.167.05-.31-.31-.219-.56.195.054.698-.33.682-.519 1.144.303.75-.745-.032-.083.259.079.26-.01.003-.41-.237-.013-.095-.322.084-.179.119-.277.256-.15.641.595 3.346 1.697 4.256 1.42.426-.129.567.288.92.61.207.19-.357.558-.372.85-.02.393.369.317.637.605.054.057-.148.19-.078.224.27.134.148-.037.36-.065.146-.02.133.373.057.437-.236.197-.396.015-.196.252.887 1.045 1.536-.463 1.951.13.774 1.109.402 2.598.805 4.094.058.217.374-.38.512-.298.68.398.13.64 1.39.798.532.067.523.678.73 1.202.24.605 1.468 1.55 1.964 1.277.754-.412 3.027-1.07 3.86-.387.005.004 1.457 1.576 2.375.822.511-.42-.116-.966.336-1.44.352-.37.103-.595.392-.44 3.392 1.814.03-.222 2.185 1.83.811.774 1.828-.441 2.633.193.242.191.513-.148.597.22.349 1.552 3.073.242 3.988-.62.355-.332 1.838 1.084 3.328-.492.323-.342-.146-1.371.438-2 .2-.214-.695-.32-.512-.756 1.46-3.471 4.247.367 4.615.76.63.675 1.648.928 2.63 1.04 2.155.247-.546-1.099.853-.927.76.096.551-.084 1.443-.195.19-.024.21.368.375.615.573.852.456 2.312.322 3.27-.04.287-.63-.062-.85.12-.315.259-.65.515-.414.796.563.669.69 1.443.396 2.093-.073.16.114.454.29.443.296-.019.314-.64.51-.894.094-.12.064-.082.364-.417.08-.089.04.386.158.35 2.453-.765 3.17-7.125 2.071-9.139-.438-.8-.633-1.418-.692-2.28-.024-.35.354.093.617.445.432.576 2.538 5.157 3.042 4.898.386-.197-.242-.602-.147-.962.06-.225.202-.155.386-.075.482.21.526.704.566.37.158-1.317-.82-.741-1.453-1.344-.333-.318-.551-.886-.523-1.323.057-.848 1.088.212 1.214-.222.12-.416-1.918-1.56-2.268-1.87-.618-.55-1.32-1.796-2.012-2.342-.095-.075-.261.183-.216.297.057.144.386.048.414.2.075.421.056.735-.063.818-.034.025-.05.151-.107.105-.446-.364-1.947-.367-2.107-.154-.158.21.233.865-.119.96-.14.039-.146-.224-.242-.386-.074-.127.149-.357.03-.444-.303-.222-.112.152-.182.001-.202-.432-.02-1.025-.486-.667-.384.294.096.344.34.627.213.248.019.969-.05.853-.21-.341.215-.563-.087-.784-.342-.252-1.13.767-1.103.34.144-2.276.896-5.919 2.749-7.076.608-.38.552-.42.754-.522.161-.08.465.208.54.042.09-.201-.413-.41-.293-.592.246-.375.172-.125.805-.223.1-.016-.06-.28.037-.303.218-.053.251-.183.317-.01.014.035-.343.33-.133.461.625.393.806-.92.877-.962.374-.222.942-.562.585-.888-.439-.401-.432.531-.658.074-.468-.948-.716-2.287.146-3.097.198-.186.619.251.292-.386-.192-.378.908 1.194.993.865.67-2.655-1.26-2.508-.406-3.012.49-.29 1.105 1.02 1.024 1.407-.274 1.308-.226 3.28.146 4.742.396 1.55-.541 3.704 5.177 5.185 1.642.426-.068-2.48-.203-3.407-.098-.674-1.218-.555-.804-1.186.84-1.281-.94-.948-.659-1.927 0 0 .216.245.292 0 .204-.653-.818-.487-1.097-.889-.462-.663-.631-.423-.731-.147-.087.24-1.163-1.716-1.137-1.971.002-.032-.014.177.31.08.155-.046-.188-.175-.098-.298.027-.037.23.058.265-.108.094-.448-.056-.222-.147-.816-.03-.2.457.666.513.445.243-.969-.123-1.181.903-2.094.548-.488-.618-1.627-.7-2.343-.023-.198-.003-.397 0-.595 0-.003.01 0 .011-.004.017-.232-.01-.012-.01-.251-.066-.59-.29-1.217.396-1.824.105-.094-.017-.349-.148-.4-.244-.092-2.025.16-2.136.03-.023-.027.212-.492.13-.822-.154-.626-.042-.58-.478-.804-.424-.219-.398.264-.686.168-.163-.054-.223-.272-.284-.434-.015-.036.084-.039.088-.079.009-.09-.145-.267-.055-.265.756.02.367.962.969.279 1.122-1.278.552.008 1.611-1.612.067-.102.068-.096.057-.135-.048-.163-.36-.133-.413-.295-.17-.515-.392.006-.792-.243-.49-.304.202-.015.26-.647.01-.11-.321.036-.303-.073.035-.225.263-.064.225-.223-.055-.225-.188-.364-.33-.37-.5-.024-1.442.428-1.319 1.4.035.276.746-.054.798.082.055.148-2.169.596-2.857 1.006-1.768 1.056-2.204 2.152-3.059 3.068-.235.253.128.455.366.558.47.203.312-.234.732.11.098.079.07.362-.052.374-.14.014-.711.137-.68.07.146-.31.234-.32 0-.519-.326-.277-.884.096-.658.592.228.499-.148.747-.254 1.007-.024.059-.152-.02-.186.033-1.447 2.253-1.044-.388-3.361 2.266-.426.487-.44.262-1.184-.03-.73-.284-2.37.226-2.948.763-.274.254.311.083.2.332-.168.376-.376-.024-.278.52.006.033.365-.314.256-.002-.183.529.528.155.272.588-.182.308-.906.508-1.371.858-.403.302-.328-.448-.634-.367-.282.074.238 3.16-1.004.083-.517-1.278-1.086-.977-2.007-.92-.424.025.232.678-.026 1.04-.242.337-1.004.426-1.23.079-.35-.535-.974-.13-1.447-.078-.158.017-.293-.245-.254-.402.036-.143.21-.209.086-.501-.014-.033-.347-.091-.426-.027-.116.095-.147.265-.241.384-.012.014-.074.078-.044.079.273.013.67.083.437.334-.056.06.023-.063-.252-.217-.076-.047-.033-.047-.325.152zM44.48 10.85c.03-.4.292-1.46.636-1.397 1.316.241.141 1.426-.64 1.465-.02 0 .001-.045.004-.068zm19.683-7.187c.124.177.11.417.066.618-.503 2.286-.815-1.689-.066-.618zm-9.78 8.216c-.01-.092.157-.153.245-.126.139.044.172.299.192.237.177-.519 1.033.193 1.025.206-.2.34-.854.848-1.082.528-.254-.356.07-.221.043-.573-.001-.04-.065.031-.067.03-.276-.019-.328-.017-.356-.302zm-23.353-.653c0-.004.012.011.01.008-.29-1.638 1.29-1.303 2.151-1.884 1.086-.732 1.638-.343 2.407-.49.904-.174.71.526 1.536.502 1.508-.044.758.851-.246.64-4.418-.935-4.847 2.184-5.16 2.404-.383.268-.603-.225-.698-1.18zm12.59-3.372c.099-.181.356-.502.621-.394.257.105.035.382.287.587.068.057-.018.066-.073.15-.084.13-.168.323-.09.455.076.127.307-.065.373.073.198.416.307.897-.117 1.292-.392.365-.584-.49-1.02-.728-.83-.453-.221-.99.02-1.435zm-15.477 3.231c.867-.936 1.446.947.073.568-.19-.052-.262-.364-.073-.568zM9.412 6.412c-.547.027-.565-1.301-.415-1.88.049-.184.398-.143.561-.05.207.118.618.43.495.585-.115.144-.33-.213-.351-.057-.061.414 1.378 1.32-.29 1.402zm44.117 3.636c1.18-.26 1.576.172.738 1.332-.84 1.164-2.17-.828-.642-.864.159-.003-.249-.435-.096-.468zM66.154 29.35c-.016-.224.662.49.435.758-.301.357-.058-.156-.488-.43-.136-.085.058-.253.053-.328z"/>
        <path fill="#FF9D00" d="M43.209 30.274l-3.544 1.887a.7.7 0 0 1-1.019-.735l.681-4.02a.7.7 0 0 0-.198-.616l-2.891-2.853a.7.7 0 0 1 .39-1.19l3.98-.587a.7.7 0 0 0 .527-.385l1.773-3.64a.7.7 0 0 1 1.259 0l1.774 3.64a.7.7 0 0 0 .527.385l3.98.586a.7.7 0 0 1 .39 1.19l-2.891 2.854a.7.7 0 0 0-.199.615l.681 4.02a.7.7 0 0 1-1.019.736l-3.543-1.887a.7.7 0 0 0-.658 0z"/>
    </g>
</svg>
