<svg xmlns="http://www.w3.org/2000/svg" width="41" height="34" viewBox="0 0 41 34">
    <g fill="#FFF" fill-rule="nonzero">
        <path d="M34.692 20.09c.87 0 1.577.694 1.577 1.546 0 .853-.707 1.546-1.577 1.546H30.75a.782.782 0 0 1-.788-.773v-1.545c0-.426.353-.773.788-.773h3.942zm0-1.545H30.75c-1.306 0-2.365 1.038-2.365 2.319v1.545c0 1.28 1.059 2.318 2.365 2.318h3.942c1.742 0 3.154-1.384 3.154-3.09 0-1.708-1.412-3.092-3.154-3.092zM10.25 20.09c.435 0 .788.348.788.774v1.545a.782.782 0 0 1-.788.773H6.308c-.87 0-1.577-.693-1.577-1.546 0-.852.707-1.545 1.577-1.545h3.942zm0-1.545H6.308c-1.742 0-3.154 1.384-3.154 3.091 0 1.707 1.412 3.091 3.154 3.091h3.942c1.306 0 2.365-1.038 2.365-2.318v-1.545c0-1.28-1.059-2.319-2.365-2.319z"/>
        <path d="M41 12.364v-1.546c0-.853-.706-1.545-1.577-1.545h-1.697C36.203 4.782 33.404 0 28.385 0h-15.77C7.596 0 4.797 4.782 3.274 9.273H1.577C.706 9.273 0 9.965 0 10.818v1.546c0 1.24.753 2.297 1.83 2.787-.049.299-.09.57-.123.805C.25 16.918 0 18.263 0 20.09v9.273c0 .853.706 1.545 1.577 1.545C1.577 32.616 2.989 34 4.73 34h3.154c1.741 0 3.153-1.384 3.153-3.09h18.924c0 1.706 1.412 3.09 3.153 3.09h3.154c1.742 0 3.154-1.384 3.154-3.09.871 0 1.577-.693 1.577-1.546V20.09c0-1.828-.25-3.173-1.707-4.135a38.112 38.112 0 0 0-.123-.805c1.077-.49 1.83-1.546 1.83-2.787zM12.615 1.545h15.77c3.18 0 5.725 2.501 7.566 7.433.861 2.306 1.353 4.62 1.622 6.196-2.82-.9-7.908-1.265-17.073-1.265s-14.254.364-17.073 1.265c.269-1.576.76-3.89 1.622-6.196 1.841-4.932 4.387-7.433 7.566-7.433zM1.577 12.364v-1.546h1.22a37.938 37.938 0 0 0-.655 2.676c-.336-.275-.565-.666-.565-1.13zm23.654 17H15.77v-3.091h9.46v3.09zm14.192-9.273v9.273h-1.577v1.545c0 .852-.707 1.546-1.577 1.546h-3.154c-.87 0-1.577-.694-1.577-1.546v-1.545h-4.73V25.5a.78.78 0 0 0-.789-.773H14.981a.78.78 0 0 0-.789.773v3.864h-4.73v1.545c0 .852-.708 1.546-1.577 1.546H4.73c-.87 0-1.577-.694-1.577-1.546v-1.545H1.577V20.09c0-3.087 0-4.636 18.923-4.636s18.923 1.549 18.923 4.636zm0-7.727c0 .464-.23.855-.565 1.13-.169-.817-.383-1.72-.654-2.676h1.22v1.546z"/>
    </g>
</svg>
