<svg xmlns="http://www.w3.org/2000/svg" width="40" height="40" viewBox="0 0 40 40">
    <g fill="#FFF" fill-rule="nonzero">
        <path d="M39.912 32.552c-1.156-2.205-3.72-3.328-6.228-2.73l-5.401 1.287c-.24-1.983-1.472-3.153-3.936-3.742l-14.458-3.06c.045-.3.08-.588.105-.856a.775.775 0 0 0-.256-.647c-1.429-1.289-7.14-1.706-8.856-1.803a.873.873 0 0 0-.62.214.776.776 0 0 0-.262.578v14.288c0 .438.373.793.833.793h5c.36 0 .68-.22.792-.546.021-.065.136-.398.306-.916l11.941 3.793c1.4.503 2.368.795 3.453.795 1.69-.002 3.67-.705 8.02-2.402l9.166-3.969a.817.817 0 0 0 .441-.457.762.762 0 0 0-.04-.62zM5.225 35.287H1.667V22.644c2.678.202 5.568.64 6.62 1.126-.444 3.476-2.442 9.653-3.062 11.517zm24.46.854c-7.007 2.737-7.252 2.648-10.253 1.568l-12.01-3.813c.684-2.16 1.637-5.366 2.184-8.02l14.357 3.039c1.845.438 2.589 1.132 2.69 2.58l-1.6.382a4.407 4.407 0 0 1-1.828.041l-7.231-1.378c-.43-.089-.888.192-.98.623-.09.43.203.847.655.933l7.231 1.378a6.138 6.138 0 0 0 2.558-.059l2.235-.532h.01l6.385-1.52c1.458-.343 2.94.14 3.858 1.2l-8.261 3.578z"/>
        <path d="M11.853 15.353h2.559v7.676a.853.853 0 0 0 1.706 0V14.5a.853.853 0 0 0-.853-.853h-1.353L25.5 2.06 37.09 13.647h-1.353a.853.853 0 0 0-.853.853v13.647a.853.853 0 0 0 1.706 0V15.353h2.559a.852.852 0 0 0 .602-1.457L26.102.25a.854.854 0 0 0-1.206 0L11.25 13.896a.853.853 0 1 0 .604 1.457z"/>
        <path d="M29.2 28c.442 0 .8-.373.8-.833v-8.334c0-.46-.358-.833-.8-.833h-6.4c-.442 0-.8.373-.8.833v5c0 .46.358.834.8.834.442 0 .8-.374.8-.834v-4.166h4.8v7.5c0 .46.358.833.8.833z"/>
    </g>
</svg>
