<svg xmlns="http://www.w3.org/2000/svg" width="39" height="39" viewBox="0 0 39 39">
    <path fill="#FFF" fill-rule="nonzero" d="M.696 34.821h8.358a.697.697 0 0 0 .696-.696h3.482a.697.697 0 0 0 .697-.696v-.697h1.34l-.625 2.625c-.08.336.099.68.42.808l3.043 1.217v.922c0 .384.312.696.697.696h17.41a.697.697 0 0 0 .697-.696v-4.975A2.783 2.783 0 0 0 39 30.644c0-.836-.377-1.578-.962-2.09A2.768 2.768 0 0 0 39 26.465c0-.835-.377-1.578-.962-2.089a2.768 2.768 0 0 0 .962-2.09c0-.835-.377-1.577-.962-2.089A2.768 2.768 0 0 0 39 18.107a2.783 2.783 0 0 0-2.09-2.687V.696A.697.697 0 0 0 36.215 0h-17.41c-.048 0-.09.018-.134.027l-.003-.013-3.482.696a.698.698 0 0 0-.497.971l3.42 7.523v1.242h-4.18V9.75a.697.697 0 0 0-.696-.696H9.75a.697.697 0 0 0-.696-.697H.696A.697.697 0 0 0 0 9.054v25.071c0 .384.312.696.696.696zm15.442.273l1.97-8.27v9.058l-1.97-.788zm9.438-19.127a2.741 2.741 0 0 0 1.017-.407l.062-.041c.137-.095.267-.2.385-.318l.002-.001a2.797 2.797 0 0 0 .375-.477c.017-.028.037-.051.053-.08a4.846 4.846 0 0 1 3.078.792c-.064.02-.123.049-.185.072-.054.02-.107.039-.16.062-.12.054-.234.117-.344.187-.03.018-.06.033-.09.052a2.745 2.745 0 0 0-.38.314c-.03.03-.055.063-.083.094-.084.09-.163.184-.235.284-.033.046-.063.096-.093.145a2.765 2.765 0 0 0-.332.787c-.013.052-.03.103-.04.156a2.72 2.72 0 0 0-.052.52c0 .2.023.394.064.583.013.063.039.12.056.182.036.122.07.244.121.359.03.068.071.13.107.196.054.1.107.197.172.29.046.063.1.12.15.18.07.083.14.163.218.236.02.02.036.044.057.062-.021.018-.037.042-.057.061a2.796 2.796 0 0 0-.218.236c-.05.06-.104.117-.15.181-.065.091-.118.19-.172.29-.036.065-.076.127-.107.196-.05.115-.085.236-.12.358-.02.062-.044.12-.057.183-.04.19-.064.384-.064.585 0 .185.02.367.055.543.002.014.006.027.009.04.011.055.033.105.048.158.03.105.057.21.097.31.01.025.022.05.033.073.025.058.058.108.087.163.04.076.077.152.123.223.022.034.046.067.07.1.038.053.08.102.122.152.03.036.053.076.085.11a4.804 4.804 0 0 1-1.426.217 4.88 4.88 0 0 1-4.875-4.875c0-1.31.534-2.566 1.472-3.482h.617c.172 0 .34-.021.505-.051zm2.281 9.8c.272 0 .543-.02.812-.055-.016.057-.04.11-.052.169-.04.188-.063.383-.063.583 0 .2.023.395.064.584.013.063.039.121.056.182.036.122.07.244.121.359.03.068.071.13.107.196.054.1.107.198.172.29.046.064.1.12.15.18.07.083.14.163.218.237.02.018.036.043.057.06-.021.019-.037.043-.057.062a2.796 2.796 0 0 0-.218.236c-.05.06-.104.117-.15.181-.065.092-.118.19-.172.29-.036.066-.076.127-.107.196-.05.115-.085.237-.12.358-.02.062-.044.12-.057.183a2.789 2.789 0 0 0 2.722 3.37h2.183a5.579 5.579 0 0 0-2.831 4.18h-6.365A5.577 5.577 0 0 0 19.5 32.78V16.018h3.162a6.241 6.241 0 0 0-1.073 3.482 6.276 6.276 0 0 0 6.268 6.268zM19.5 37.608v-3.424a4.19 4.19 0 0 1 3.424 3.424H19.5zm16.018 0h-3.424a4.19 4.19 0 0 1 3.424-3.424v3.424zm2.09-6.964c0 .768-.626 1.393-1.394 1.393H31.34a1.394 1.394 0 0 1-1.393-1.393c0-.768.625-1.393 1.393-1.393h4.875c.768 0 1.393.625 1.393 1.393zm0-4.179c0 .768-.626 1.393-1.394 1.393H31.34a1.394 1.394 0 0 1-1.393-1.393c0-.768.625-1.393 1.393-1.393h4.875c.768 0 1.393.625 1.393 1.393zm0-4.178c0 .768-.626 1.393-1.394 1.393H31.34c-.136 0-.265-.026-.39-.063-.007-.003-.013-.008-.02-.01a1.407 1.407 0 0 1-.705-.494c-.002-.004-.007-.007-.01-.011a1.377 1.377 0 0 1-.182-.35c-.008-.022-.015-.047-.022-.07a1.378 1.378 0 0 1-.064-.395c0-.768.625-1.393 1.393-1.393h4.875c.768 0 1.393.625 1.393 1.393zm0-4.179c0 .768-.626 1.393-1.394 1.393H31.34a1.394 1.394 0 0 1-1.393-1.393c0-.768.625-1.393 1.393-1.393h4.875c.768 0 1.393.625 1.393 1.393zm-2.09-16.714v3.424a4.19 4.19 0 0 1-3.424-3.424h3.424zm-16.018 0h3.424A4.19 4.19 0 0 1 19.5 4.817V1.393zm-3.181.51l1.788-.357V5.84L16.32 1.903zM19.5 6.22a5.577 5.577 0 0 0 4.827-4.827h6.365a5.577 5.577 0 0 0 4.827 4.827v9.101h-3.006a6.229 6.229 0 0 0-4.655-2.089 2.789 2.789 0 0 0-2.786-2.786h-5.571V6.22H19.5zm-.696 5.62h6.267c.769 0 1.393.624 1.393 1.392 0 .18-.037.35-.099.508l-.002.003a1.41 1.41 0 0 1-.196.34l-.04.048c-.08.094-.169.18-.27.25-.002 0-.003.003-.006.004a1.392 1.392 0 0 1-.412.184c-.118.033-.24.056-.368.056H18.804a.697.697 0 0 0-.697.696v5.49L15.601 31.34h-1.672v-19.5h4.875zm-6.268-1.394v22.286H9.75V10.446h2.786zM1.393 9.75h6.964v23.679H1.393V9.75z"/>
</svg>
