<svg xmlns="http://www.w3.org/2000/svg" width="50" height="50" viewBox="0 0 50 50">
    <g fill="none" fill-rule="evenodd">
        <circle cx="25" cy="25" r="25" fill="#3863C5"/>
        <path fill="#FFF" d="M36 18.083c-.81.354-1.68.593-2.592.7a4.47 4.47 0 0 0 1.984-2.458 9.123 9.123 0 0 1-2.866 1.078A4.54 4.54 0 0 0 29.232 16c-2.493 0-4.514 1.99-4.514 4.443 0 .348.04.687.117 1.013a12.882 12.882 0 0 1-9.303-4.643 4.37 4.37 0 0 0-.611 2.234c0 1.541.796 2.901 2.008 3.698a4.55 4.55 0 0 1-2.045-.556v.056c0 2.153 1.556 3.949 3.62 4.357a4.586 4.586 0 0 1-2.038.076c.574 1.765 2.241 3.05 4.216 3.086a9.147 9.147 0 0 1-5.605 1.902c-.365 0-.724-.021-1.077-.062a12.922 12.922 0 0 0 6.919 1.996c8.302 0 12.842-6.77 12.842-12.642 0-.193-.005-.384-.013-.575a9.09 9.09 0 0 0 2.252-2.3z"/>
    </g>
</svg>
