<svg width="57" height="56" viewBox="0 0 57 56" fill="none" xmlns="http://www.w3.org/2000/svg">
<g clip-path="url(#clip0)">
<circle cx="14.3854" cy="42.4293" r="10.1174" stroke="white" stroke-width="1.2"/>
<path d="M12.9607 42.9374C12.9607 43.5707 12.8924 44.1207 12.7557 44.5874C12.6191 45.054 12.4307 45.4407 12.1907 45.7474C11.9507 46.0507 11.6657 46.2774 11.3357 46.4274C11.0091 46.574 10.6557 46.6474 10.2757 46.6474C9.89574 46.6474 9.54241 46.574 9.21574 46.4274C8.88908 46.2774 8.60741 46.0507 8.37074 45.7474C8.13408 45.4407 7.94741 45.054 7.81074 44.5874C7.67741 44.1207 7.61074 43.5707 7.61074 42.9374C7.61074 42.304 7.67741 41.7557 7.81074 41.2924C7.94741 40.8257 8.13408 40.4407 8.37074 40.1374C8.60741 39.8307 8.88908 39.604 9.21574 39.4574C9.54241 39.3074 9.89574 39.2324 10.2757 39.2324C10.6557 39.2324 11.0091 39.3074 11.3357 39.4574C11.6657 39.604 11.9507 39.8307 12.1907 40.1374C12.4307 40.4407 12.6191 40.8257 12.7557 41.2924C12.8924 41.7557 12.9607 42.304 12.9607 42.9374ZM11.5357 42.9374C11.5357 42.424 11.4991 42.0007 11.4257 41.6674C11.3557 41.334 11.2624 41.0707 11.1457 40.8774C11.0291 40.684 10.8941 40.549 10.7407 40.4724C10.5907 40.3957 10.4357 40.3574 10.2757 40.3574C10.1157 40.3574 9.96074 40.3957 9.81074 40.4724C9.66408 40.549 9.53241 40.684 9.41574 40.8774C9.30241 41.0707 9.21074 41.334 9.14074 41.6674C9.07074 42.0007 9.03574 42.424 9.03574 42.9374C9.03574 43.454 9.07074 43.879 9.14074 44.2124C9.21074 44.5457 9.30241 44.809 9.41574 45.0024C9.53241 45.1957 9.66408 45.3307 9.81074 45.4074C9.96074 45.484 10.1157 45.5224 10.2757 45.5224C10.4357 45.5224 10.5907 45.484 10.7407 45.4074C10.8941 45.3307 11.0291 45.1957 11.1457 45.0024C11.2624 44.809 11.3557 44.5457 11.4257 44.2124C11.4991 43.879 11.5357 43.454 11.5357 42.9374ZM16.4596 46.5674V45.4974H15.6596V44.5274H16.4596V43.7474H15.6596V42.5074H16.4596V39.4274H18.7396C19.6596 39.4274 20.3296 39.614 20.7496 39.9874C21.1762 40.3607 21.3896 40.874 21.3896 41.5274C21.3896 41.914 21.3029 42.2774 21.1296 42.6174C20.9562 42.9574 20.6662 43.2307 20.2596 43.4374C19.8596 43.644 19.3129 43.7474 18.6196 43.7474H17.9696V44.5274H19.5096V45.4974H17.9696V46.5674H16.4596ZM17.9696 42.5074H18.4696C18.8962 42.5074 19.2329 42.434 19.4796 42.2874C19.7329 42.1407 19.8596 41.904 19.8596 41.5774C19.8596 40.9707 19.4596 40.6674 18.6596 40.6674H17.9696V42.5074Z" fill="white"/>
<g clip-path="url(#clip1)">
<path d="M11.1582 16.0437L12.2907 32.5606M46.1017 16.0435L44.5744 33.3143C44.5079 37.0692 36.4943 39.0331 28.5783 39.0331C26.7969 39.0331 25.0106 38.9336 23.311 38.7367" stroke="white" stroke-width="1.2" stroke-linejoin="round"/>
<path d="M55.4316 12.7688L55.4313 12.7689L52.8892 13.6672L52.8892 13.6672L50.9882 14.3391L50.988 14.3392L45.8894 16.1395L45.8894 16.1395L43.9172 16.8362L28.7946 22.1775C28.7945 22.1776 28.7944 22.1776 28.7943 22.1777C28.7571 22.1907 28.7175 22.1974 28.6768 22.1974C28.6368 22.1974 28.5974 22.1907 28.5606 22.1778L13.3965 16.8605L13.3964 16.8604L11.4319 16.172L11.4318 16.172L1.72811 12.7692C1.72802 12.7692 1.72794 12.7692 1.72785 12.7691C1.5867 12.7194 1.49305 12.5869 1.49258 12.4389C1.49211 12.29 1.58544 12.1573 1.72488 12.1074L1.72489 12.1074L28.5576 2.50449L28.558 2.50435C28.6348 2.47679 28.7188 2.477 28.7952 2.50459L28.7954 2.50465L55.4333 12.1075C55.5726 12.1578 55.6656 12.2905 55.6652 12.4389C55.6647 12.5878 55.5708 12.7197 55.4316 12.7688Z" stroke="white" stroke-width="1.2" stroke-linejoin="round"/>
<circle cx="14.3317" cy="42.4298" r="10.1174" stroke="white" stroke-width="1.2"/>
<path d="M12.882 42.9528C12.882 43.5828 12.8137 44.1311 12.677 44.5978C12.5437 45.0611 12.357 45.4445 12.117 45.7478C11.8804 46.0511 11.5987 46.2778 11.272 46.4278C10.9487 46.5745 10.5987 46.6478 10.222 46.6478C9.84536 46.6478 9.49536 46.5745 9.17203 46.4278C8.85203 46.2778 8.5737 46.0511 8.33703 45.7478C8.10036 45.4445 7.91536 45.0611 7.78203 44.5978C7.6487 44.1311 7.58203 43.5828 7.58203 42.9528C7.58203 42.3195 7.6487 41.7711 7.78203 41.3078C7.91536 40.8445 8.10036 40.4611 8.33703 40.1578C8.5737 39.8545 8.85203 39.6295 9.17203 39.4828C9.49536 39.3328 9.84536 39.2578 10.222 39.2578C10.5987 39.2578 10.9487 39.3328 11.272 39.4828C11.5987 39.6295 11.8804 39.8545 12.117 40.1578C12.357 40.4611 12.5437 40.8445 12.677 41.3078C12.8137 41.7711 12.882 42.3195 12.882 42.9528ZM11.607 42.9528C11.607 42.4295 11.5687 41.9961 11.492 41.6528C11.4154 41.3095 11.312 41.0361 11.182 40.8328C11.0554 40.6295 10.9087 40.4878 10.742 40.4078C10.5754 40.3245 10.402 40.2828 10.222 40.2828C10.0454 40.2828 9.8737 40.3245 9.70703 40.4078C9.5437 40.4878 9.3987 40.6295 9.27203 40.8328C9.14536 41.0361 9.0437 41.3095 8.96703 41.6528C8.8937 41.9961 8.85703 42.4295 8.85703 42.9528C8.85703 43.4761 8.8937 43.9095 8.96703 44.2528C9.0437 44.5961 9.14536 44.8695 9.27203 45.0728C9.3987 45.2761 9.5437 45.4195 9.70703 45.5028C9.8737 45.5828 10.0454 45.6228 10.222 45.6228C10.402 45.6228 10.5754 45.5828 10.742 45.5028C10.9087 45.4195 11.0554 45.2761 11.182 45.0728C11.312 44.8695 11.4154 44.5961 11.492 44.2528C11.5687 43.9095 11.607 43.4761 11.607 42.9528Z" fill="white"/>
<path d="M16.4759 46.5678V45.2078H15.6059V44.5578H16.4759V43.6678H15.6059V42.9078H16.4759V39.4278H18.3559C19.2292 39.4278 19.8759 39.6045 20.2959 39.9578C20.7225 40.3111 20.9359 40.8245 20.9359 41.4978C20.9359 42.1778 20.7059 42.7111 20.2459 43.0978C19.7859 43.4778 19.1092 43.6678 18.2159 43.6678H17.3759V44.5578H19.0259V45.2078H17.3759V46.5678H16.4759ZM17.3759 42.9078H18.0859C18.6925 42.9078 19.1625 42.8078 19.4959 42.6078C19.8359 42.4078 20.0059 42.0478 20.0059 41.5278C20.0059 41.0745 19.8659 40.7378 19.5859 40.5178C19.3059 40.2978 18.8692 40.1878 18.2759 40.1878H17.3759V42.9078Z" fill="white"/>
<path d="M55.5176 37.0547C55.522 37.0874 55.529 37.1196 55.5387 37.1511C55.5425 37.1636 55.5458 37.179 55.5475 37.1972L55.5478 37.1997L56.1032 42.7542L56.1033 42.7553C56.1118 42.8392 56.0843 42.9238 56.0266 42.9876L56.0259 42.9883C55.9692 43.0512 55.8883 43.0874 55.8024 43.0874H48.5811C48.4961 43.0874 48.4145 43.0512 48.357 42.9876C48.2993 42.9238 48.2717 42.8392 48.2802 42.7553L48.2804 42.7542L48.8355 37.2027C48.8355 37.2024 48.8356 37.2021 48.8356 37.2018C48.8377 37.1819 48.8419 37.1605 48.8483 37.1386C48.8564 37.1104 48.8625 37.0816 48.8664 37.0525C48.9844 36.1794 49.4269 35.4281 50.0644 34.907C50.2029 34.7938 50.2836 34.6248 50.2847 34.446C50.2857 34.2671 50.2069 34.0972 50.0698 33.9824C49.3421 33.3731 48.8808 32.4616 48.8808 31.4446C48.8808 29.8891 49.963 28.5802 51.4175 28.2294L51.4259 28.2277C51.439 28.2252 51.4587 28.2215 51.4836 28.217C51.5337 28.208 51.6041 28.196 51.6843 28.1839C51.8526 28.1587 52.0352 28.1381 52.1651 28.1381C52.2971 28.138 52.4947 28.1589 52.6796 28.1845C52.7678 28.1967 52.8459 28.2089 52.9018 28.2181C52.9297 28.2227 52.9519 28.2265 52.9668 28.229L52.9725 28.23C54.4235 28.5821 55.5033 29.8901 55.5033 31.444C55.5033 32.461 55.0421 33.3725 54.3143 33.9818C54.1772 34.0966 54.0984 34.2665 54.0995 34.4453C54.1005 34.6241 54.1813 34.7932 54.3197 34.9063C54.9577 35.428 55.4007 36.1808 55.5176 37.0547Z" stroke="white" stroke-width="1.2" stroke-linejoin="round"/>
<path d="M52.1914 13.9941L52.1914 28.0737" stroke="white" stroke-width="1.2"/>
</g>
</g>
<defs>
<clipPath id="clip0">
<rect width="57" height="56" fill="white"/>
</clipPath>
<clipPath id="clip1">
<rect width="57" height="56" fill="white" transform="translate(-0.0537109)"/>
</clipPath>
</defs>
</svg>
