<svg width="56" height="56" viewBox="0 0 56 56" fill="none" xmlns="http://www.w3.org/2000/svg">
<g clip-path="url(#clip0)">
<path d="M24.7432 35.8726H32.1497H34.1382H38.1152H40.1037H42.0923H44.0808H53.0291C53.1748 35.8744 53.3198 35.8921 53.4616 35.9253C53.4785 35.9292 53.4935 35.94 53.5104 35.94C53.6396 35.972 53.7653 36.0168 53.8852 36.0739H53.8912C54.5771 36.398 55.0146 37.0788 55.0177 37.827V52.4851C55.0177 53.5645 54.1274 54.4395 53.0291 54.4395H31.8508" stroke="white" stroke-width="1.2"/>
<mask id="path-2-inside-1" fill="white">
<rect x="37.5957" y="42.1411" width="6.41401" height="5.42448" rx="1"/>
</mask>
<rect x="37.5957" y="42.1411" width="6.41401" height="5.42448" rx="1" stroke="white" stroke-width="2.4" mask="url(#path-2-inside-1)"/>
<path d="M50.0796 44.802V45.402C50.2846 45.402 50.4755 45.2973 50.5856 45.1244L50.0796 44.802ZM34.4277 45.402H37.8103V44.202H34.4277V45.402ZM50.5856 45.1244L55.3353 37.6691L54.3232 37.0243L49.5736 44.4796L50.5856 45.1244ZM43.945 45.402H50.0796V44.202H43.945V45.402Z" fill="white"/>
<path d="M29.6325 36.2256C25.8197 35.0178 23.1441 34.6823 23.1441 34.6823L20.0671 41.3249L19.532 35.2862H15.7193L14.8497 41.5262L11.6389 34.6152C11.6389 34.6152 8.09375 35.2191 5.15057 36.1585C3.74587 36.6281 0 38.3056 0 43.2037V55.0063H34.7831V43.3379C34.8499 41.4591 33.9804 37.6346 29.6325 36.2256ZM16.8564 36.6952H18.328L18.93 43.8075L17.3246 47.2295L15.7862 43.8075L16.8564 36.6952ZM33.4452 53.7985H28.7629V47.4308H27.4251V53.7985H7.35795V47.4308H6.02014V53.7985H1.33781V43.3379C1.33781 39.3791 4.48166 37.903 5.55191 37.5675C7.7593 36.8965 9.56534 36.4269 10.8363 36.2256L17.3915 50.4502L23.9468 36.2256C25.2177 36.4269 27.0238 36.8965 29.2311 37.5675C30.3014 37.903 33.4452 39.3791 33.4452 43.3379V53.7985Z" fill="white"/>
<path fill-rule="evenodd" clip-rule="evenodd" d="M26.0868 21.2627C26.0868 26.0266 22.341 33.3401 17.3911 33.3401C12.4412 33.3401 8.69531 26.0266 8.69531 21.2627C8.69531 16.4317 12.575 12.54 17.3911 12.54C22.2072 12.54 26.0868 16.4317 26.0868 21.2627ZM24.3477 18.7801C23.2774 15.962 20.6018 13.882 17.3911 13.882C13.9797 13.882 11.1034 16.2304 10.3007 19.3839L10.0331 20.7259V21.1956C10.0331 25.3556 13.3776 31.9311 17.3911 31.9311C21.4045 31.9311 24.749 25.3556 24.749 21.1956C24.749 20.8601 24.6821 20.4575 24.6152 20.0549L24.3477 18.7801Z" fill="white"/>
<path d="M39.1693 15.7716L35.9373 12.5295C35.9259 12.5182 35.9114 12.5155 35.9001 12.5052C35.8603 12.4695 35.8156 12.4441 35.7693 12.4181C35.7273 12.3943 35.6891 12.3689 35.645 12.3537C35.6019 12.3385 35.5567 12.3341 35.511 12.3281C35.4572 12.3194 35.4056 12.3118 35.3518 12.3149C35.3357 12.316 35.3228 12.3095 35.3077 12.3116C35.276 12.3153 35.2497 12.3331 35.2196 12.3406C35.1674 12.354 35.1185 12.3663 35.0696 12.3905C35.0223 12.4141 34.982 12.4437 34.9412 12.476C34.916 12.4949 34.8848 12.5045 34.8617 12.5277L31.7861 15.6128" stroke="white" stroke-width="1.2" stroke-linecap="round" stroke-linejoin="round"/>
<path d="M35.4775 15.6924L35.4079 31.6703" stroke="white" stroke-width="1.2" stroke-linecap="round" stroke-linejoin="round"/>
<path d="M51.4652 3.94638L48.2332 0.704332C48.2218 0.692985 48.2073 0.690264 48.196 0.679996C48.1562 0.644326 48.1115 0.618898 48.0652 0.592927C48.0232 0.56912 47.985 0.543702 47.9409 0.528522C47.8978 0.513345 47.8526 0.508952 47.8069 0.502941C47.7531 0.494218 47.7015 0.486578 47.6477 0.489723C47.6316 0.490774 47.6187 0.484277 47.6036 0.486409C47.5719 0.490131 47.5456 0.507888 47.5155 0.515389C47.4633 0.528786 47.4144 0.541109 47.3655 0.5653C47.3182 0.588954 47.2779 0.618551 47.2371 0.650847C47.2119 0.669684 47.1807 0.679342 47.1576 0.702497L44.082 3.7876" stroke="white" stroke-width="1.2" stroke-linecap="round" stroke-linejoin="round"/>
<path d="M47.7734 3.86719L47.7038 31.671" stroke="white" stroke-width="1.2" stroke-linecap="round" stroke-linejoin="round"/>
</g>
<defs>
<clipPath id="clip0">
<rect width="56" height="56" fill="white"/>
</clipPath>
</defs>
</svg>
