<svg width="56" height="56" viewBox="0 0 56 56" fill="none" xmlns="http://www.w3.org/2000/svg">
<g clip-path="url(#clip0)">
<mask id="path-1-inside-1" fill="white">
<path d="M54.8478 45.9903L55.1237 46.9809C55.3076 47.7014 55.0317 48.5119 54.388 48.8722L49.4219 51.5739C48.6862 52.0242 47.8585 52.2944 46.9388 52.4745L39.7656 53.8254C39.1218 54.0956 38.3861 54.1856 37.5584 54.1856H29.4655H29.4654C28.9137 54.1856 28.2699 54.1856 27.7182 54.0956L11.2565 51.664V55.0862H0.220703V33.4722H11.2565V37.795C13.5556 36.4441 16.1306 34.3728 18.9815 34.3728C21.1887 34.3728 23.2119 34.9131 24.9592 35.9037C25.511 36.264 26.1548 36.4441 26.7066 36.4441L36.7307 36.9845C37.2825 36.9845 37.7423 37.2546 38.1102 37.7049C38.4781 38.1552 38.57 38.6956 38.3861 39.2359L38.2022 40.0464C37.8343 41.4874 36.6388 42.478 35.1673 42.7482L29.5575 44.1891L37.4664 45.54C38.9379 45.9002 40.4093 45.9903 41.8808 45.8102L46.8469 45.1798L51.2612 44.1891C51.9969 43.919 52.8246 44.009 53.4683 44.2792C54.204 44.6394 54.6639 45.2698 54.8478 45.9903Z"/>
</mask>
<path d="M10.5354 38.7922L10.0492 38.4407L9.93542 38.598V38.7922H10.5354ZM10.7703 37.4434L10.0492 38.4407L11.0216 39.1438L11.7427 38.1465L10.7703 37.4434ZM9.93542 38.7922V50.3339H11.1354V38.7922H9.93542ZM55.1237 46.9809L56.2864 46.6841L56.2832 46.6715L56.2797 46.659L55.1237 46.9809ZM54.8478 45.9903L53.6851 46.2871L53.6883 46.2997L53.6918 46.3123L54.8478 45.9903ZM53.4683 44.2792L53.996 43.2014L53.9648 43.1861L53.9327 43.1727L53.4683 44.2792ZM51.2612 44.1891L51.5239 45.36L51.6008 45.3427L51.6748 45.3156L51.2612 44.1891ZM46.8469 45.1798L46.998 46.3702L47.0543 46.3631L47.1096 46.3506L46.8469 45.1798ZM41.8808 45.8102L42.0266 47.0013L42.0319 47.0006L41.8808 45.8102ZM37.4664 45.54L37.7518 44.3744L37.7104 44.3643L37.6685 44.3571L37.4664 45.54ZM29.5575 44.1891L29.2589 43.0269C28.7105 43.1677 28.3352 43.6727 28.3585 44.2385C28.3818 44.8042 28.7973 45.2767 29.3554 45.372L29.5575 44.1891ZM35.1673 42.7482L34.9506 41.5679L34.9094 41.5755L34.8688 41.5859L35.1673 42.7482ZM38.2022 40.0464L39.3649 40.3433L39.3689 40.3277L39.3724 40.312L38.2022 40.0464ZM38.3861 39.2359L37.2501 38.8492L37.2298 38.9089L37.2159 38.9703L38.3861 39.2359ZM38.1102 37.7049L37.1809 38.4641V38.4641L38.1102 37.7049ZM36.7307 36.9845L36.6661 38.1827L36.6984 38.1845H36.7307V36.9845ZM26.7066 36.4441L26.7712 35.2458L26.7389 35.2441H26.7066V36.4441ZM24.9592 35.9037L25.6152 34.8989L25.5838 34.8784L25.5511 34.8598L24.9592 35.9037ZM11.2565 37.795H10.0565V39.8919L11.8644 38.8296L11.2565 37.795ZM11.2565 33.4722H12.4565V32.2722H11.2565V33.4722ZM0.220703 33.4722V32.2722H-0.979297V33.4722H0.220703ZM0.220703 55.0862H-0.979297V56.2862H0.220703V55.0862ZM11.2565 55.0862V56.2862H12.4565V55.0862H11.2565ZM11.2565 51.664L11.4318 50.4769L10.0565 50.2737V51.664H11.2565ZM27.7182 54.0956L27.9115 52.9112L27.9025 52.9098L27.8935 52.9084L27.7182 54.0956ZM39.7656 53.8254L39.5435 52.6461L39.4185 52.6697L39.3012 52.7189L39.7656 53.8254ZM46.9388 52.4745L47.1609 53.6538L47.1695 53.6521L46.9388 52.4745ZM49.4219 51.5739L48.8484 50.5198L48.8215 50.5344L48.7954 50.5504L49.4219 51.5739ZM54.388 48.8722L54.9614 49.9263L54.9677 49.9229L54.974 49.9194L54.388 48.8722ZM56.2797 46.659L56.0038 45.6683L53.6918 46.3123L53.9677 47.3029L56.2797 46.659ZM56.0105 45.6935C55.7471 44.6616 55.0738 43.7292 53.996 43.2014L52.9406 45.3569C53.3342 45.5497 53.5807 45.8781 53.6851 46.2871L56.0105 45.6935ZM53.9327 43.1727C53.07 42.8106 51.9242 42.6673 50.8475 43.0627L51.6748 45.3156C52.0696 45.1706 52.5792 45.2074 53.0039 45.3857L53.9327 43.1727ZM50.9984 43.0183L46.5841 44.0089L47.1096 46.3506L51.5239 45.36L50.9984 43.0183ZM46.6957 43.9893L41.7296 44.6197L42.0319 47.0006L46.998 46.3702L46.6957 43.9893ZM41.735 44.6191C40.4108 44.7812 39.0854 44.7009 37.7518 44.3744L37.1811 46.7056C38.7904 47.0996 40.4079 47.1994 42.0266 47.0013L41.735 44.6191ZM37.6685 44.3571L29.7595 43.0063L29.3554 45.372L37.2644 46.7229L37.6685 44.3571ZM29.856 45.3514L35.4659 43.9105L34.8688 41.5859L29.2589 43.0269L29.856 45.3514ZM35.384 43.9285C37.2518 43.5855 38.8658 42.2983 39.3649 40.3433L37.0395 39.7496C36.8028 40.6764 36.0258 41.3705 34.9506 41.5679L35.384 43.9285ZM39.3724 40.312L39.5563 39.5015L37.2159 38.9703L37.0319 39.7809L39.3724 40.312ZM39.5221 39.6226C39.8379 38.6949 39.6725 37.7205 39.0395 36.9457L37.1809 38.4641C37.2836 38.5899 37.3022 38.6963 37.2501 38.8492L39.5221 39.6226ZM39.0395 36.9457C38.5041 36.2903 37.7284 35.7845 36.7307 35.7845V38.1845C36.8366 38.1845 36.9806 38.2189 37.1809 38.4641L39.0395 36.9457ZM36.7953 35.7862L26.7712 35.2458L26.642 37.6424L36.6661 38.1827L36.7953 35.7862ZM26.7066 35.2441C26.3935 35.2441 25.9768 35.135 25.6152 34.8989L24.3032 36.9086C25.0452 37.393 25.916 37.6441 26.7066 37.6441V35.2441ZM25.5511 34.8598C23.6168 33.7632 21.3885 33.1728 18.9815 33.1728V35.5728C20.9888 35.5728 22.807 36.063 24.3674 36.9476L25.5511 34.8598ZM18.9815 33.1728C17.2691 33.1728 15.7066 33.7935 14.3474 34.5185C13.6632 34.8834 13.0062 35.2884 12.3925 35.6753C11.7666 36.0699 11.2019 36.4353 10.6486 36.7603L11.8644 38.8296C12.4606 38.4793 13.0799 38.0791 13.6726 37.7054C14.2775 37.324 14.8735 36.9579 15.4768 36.6361C16.6926 35.9877 17.843 35.5728 18.9815 35.5728V33.1728ZM12.4565 37.795V33.4722H10.0565V37.795H12.4565ZM11.2565 32.2722H0.220703V34.6722H11.2565V32.2722ZM-0.979297 33.4722V55.0862H1.4207V33.4722H-0.979297ZM0.220703 56.2862H11.2565V53.8862H0.220703V56.2862ZM12.4565 55.0862V51.664H10.0565V55.0862H12.4565ZM11.0811 52.8511L27.5428 55.2827L27.8935 52.9084L11.4318 50.4769L11.0811 52.8511ZM27.5249 55.2799C28.1908 55.3886 28.9368 55.3856 29.4654 55.3856V52.9856C28.8905 52.9856 28.3491 52.9827 27.9115 52.9112L27.5249 55.2799ZM29.4654 55.3856H29.4655V52.9856H29.4654V55.3856ZM29.4655 55.3856H37.5584V52.9856H29.4655V55.3856ZM37.5584 55.3856C38.4602 55.3856 39.3769 55.2899 40.23 54.9319L39.3012 52.7189C38.8667 52.9012 38.312 52.9856 37.5584 52.9856V55.3856ZM39.9876 55.0047L47.1609 53.6538L46.7167 51.2952L39.5435 52.6461L39.9876 55.0047ZM47.1695 53.6521C48.1747 53.4553 49.1511 53.1466 50.0483 52.5974L48.7954 50.5504C48.2212 50.9019 47.5423 51.1335 46.7082 51.2969L47.1695 53.6521ZM49.9953 52.628L54.9614 49.9263L53.8145 47.8181L48.8484 50.5198L49.9953 52.628ZM54.974 49.9194C56.1726 49.2486 56.5807 47.8367 56.2864 46.6841L53.961 47.2778C53.992 47.3992 53.9833 47.5315 53.9424 47.6409C53.9028 47.7467 53.8462 47.8002 53.802 47.825L54.974 49.9194Z" fill="white" mask="url(#path-1-inside-1)"/>
<path d="M54.8552 16.0176L46.7266 0.698242C46.7266 0.698242 39.9913 5.21378 35.9619 7.14572C33.4902 8.33085 32.079 8.96049 29.4939 9.87244C27.1962 10.683 23.5082 11.6325 23.5082 11.6325C18.2658 12.8469 12.2354 13.0629 12.2354 13.0629L20.9129 29.2651C20.9129 29.2651 32.3681 26.8477 39.4184 23.9606C45.6554 21.4065 54.8552 16.0176 54.8552 16.0176Z" stroke="white" stroke-width="1.2"/>
<path d="M23.6346 11.6072C23.6346 11.6072 20.5051 11.1289 18.6452 10.8224C16.7853 10.5159 14.1094 10.0376 14.1094 10.0376V13.1768" stroke="white"/>
<path d="M14.1094 16.6338L14.1096 26.911C14.1096 26.911 16.0447 27.1502 17.2847 27.3034C18.5246 27.4567 20.0062 27.6958 20.0062 27.6958" stroke="white" stroke-width="1.2"/>
<path d="M24.542 28.4804C24.542 28.4804 31.8383 28.7157 36.5037 28.4804C42.6027 28.1729 52.0356 26.6665 52.0356 26.6665V17.8477" stroke="white" stroke-width="1.2"/>
</g>
<defs>
<clipPath id="clip0">
<rect width="56" height="56" fill="white"/>
</clipPath>
</defs>
</svg>
