<svg width="56" height="56" viewBox="0 0 56 56" fill="none" xmlns="http://www.w3.org/2000/svg">
<path d="M2.17846 37.4633H11.7467C12.076 37.4633 12.3428 37.7297 12.3428 38.0593V54.8038C12.3428 55.1334 12.076 55.3998 11.7467 55.3998H2.17846C1.84923 55.3998 1.58242 55.1334 1.58242 54.8038V38.0593C1.58242 37.7297 1.84922 37.4633 2.17846 37.4633Z" stroke="white" stroke-width="1.2"/>
<path d="M16.531 32.6791H26.0993C26.4285 32.6791 26.6953 32.9455 26.6953 33.2751V54.8037C26.6953 55.1334 26.4285 55.3998 26.0993 55.3998H16.531C16.2018 55.3998 15.935 55.1334 15.935 54.8037V33.2751C15.935 32.9455 16.2018 32.6791 16.531 32.6791Z" stroke="white" stroke-width="1.2"/>
<path d="M30.8835 25.5033H40.4518C40.7814 25.5033 41.0478 25.7701 41.0478 26.0994V54.8042C41.0478 55.1342 40.7818 55.4002 40.4518 55.4002H30.8835C30.5535 55.4002 30.2875 55.1342 30.2875 54.8042V26.0994C30.2875 25.7701 30.5539 25.5033 30.8835 25.5033Z" stroke="white" stroke-width="1.2"/>
<path d="M45.2361 15.935H54.8043C55.134 15.935 55.4004 16.2018 55.4004 16.531V54.8041C55.4004 55.1341 55.1344 55.4001 54.8043 55.4001H45.2361C44.906 55.4001 44.64 55.1341 44.64 54.8041V16.531C44.64 16.2018 44.9064 15.935 45.2361 15.935Z" stroke="white" stroke-width="1.2"/>
<path d="M48.4999 9.35466V2.17846C48.4999 2.15334 48.4867 2.1342 48.4855 2.11028C48.4808 2.02656 48.4592 1.94882 48.4365 1.86868C48.4162 1.79572 48.4018 1.72516 48.3695 1.65938C48.3384 1.59479 48.293 1.53977 48.2487 1.48236C48.1985 1.41299 48.1495 1.34721 48.0861 1.291C48.0669 1.27425 48.0598 1.25273 48.0406 1.23837C48.0012 1.20728 47.9521 1.19771 47.9103 1.17259C47.8373 1.12953 47.7691 1.08887 47.6878 1.06136C47.6088 1.03505 47.5311 1.02309 47.4498 1.01352C47.4007 1.00634 47.3553 0.982422 47.3039 0.982422H40.4518M2.17871 25.3302C21.5126 25.3302 38.2308 12.2122 46.1078 3.47991" stroke="white" stroke-width="1.2" stroke-linecap="round" stroke-linejoin="round"/>
</svg>
