<svg width="80" height="80" viewBox="0 0 80 80" fill="none" xmlns="http://www.w3.org/2000/svg">
<path d="M54.6841 51.1713C56.1697 50.7468 57.6554 50.1101 59.141 49.3673C59.2471 49.4734 59.2471 49.4734 59.3532 49.5795L72.1934 55.8405C73.6791 56.5833 75.3769 54.9915 74.6341 53.3998L68.3732 40.5596C68.3732 40.4535 68.2671 40.4535 68.161 40.3473C72.8301 31.7518 71.5567 20.8218 64.3407 13.6058C55.533 4.79807 41.2072 4.79807 32.3995 13.6058C29.0037 17.0015 26.8814 21.2462 26.1385 25.7032" stroke="white" stroke-miterlimit="10" stroke-linecap="round" stroke-linejoin="round"/>
<path d="M8.52315 73.5621L21.3633 67.3012C21.4695 67.3012 21.4695 67.1951 21.5756 67.089C30.1711 71.7581 41.1011 70.4847 48.3171 63.2688C57.1248 54.461 57.1248 40.1352 48.3171 31.3275C39.5094 22.5197 25.1836 22.5197 16.3758 31.3275C9.15985 38.5434 7.88645 49.4735 12.5556 58.069C12.4495 58.1751 12.4495 58.1751 12.3434 58.2813L6.18857 71.1214C5.44575 72.7132 7.03751 74.305 8.52315 73.5621Z" stroke="white" stroke-miterlimit="10" stroke-linecap="round" stroke-linejoin="round"/>
<path d="M33.3546 18.3811H51.0762" stroke="white" stroke-miterlimit="10" stroke-linecap="round" stroke-linejoin="round"/>
<path d="M39.8276 23.1562H49.4843" stroke="white" stroke-miterlimit="10" stroke-linecap="round" stroke-linejoin="round"/>
<path d="M48.6354 28.0378H55.6391" stroke="white" stroke-miterlimit="10" stroke-linecap="round" stroke-linejoin="round"/>
<path d="M41.4194 13.4998H51.0761" stroke="white" stroke-miterlimit="10" stroke-linecap="round" stroke-linejoin="round"/>
<path d="M65.1897 27.5071L62.8551 31.009C62.4306 31.6457 62.3245 32.3885 62.3245 33.1313C62.3245 33.5558 62.3245 33.6619 62.2184 33.8742C62.1123 34.0864 61.9001 34.1925 61.6878 34.1925C61.4756 34.1925 61.2634 34.0864 61.1572 33.8742C61.0511 33.6619 61.0511 33.5558 61.0511 33.1313C61.0511 31.8579 61.1572 31.3273 61.9001 30.1601L64.2346 26.6582C64.7652 25.8092 65.1897 25.1725 65.1897 24.1114C65.1897 21.989 63.5979 20.3973 61.5817 20.3973C60.6266 20.3973 59.7777 20.7156 59.0349 21.3523C58.3982 21.989 58.0798 22.7318 57.9737 23.5808C57.9737 23.793 57.8676 24.1114 57.7615 24.2175C57.6554 24.4297 57.4431 24.5358 57.1248 24.5358C56.9125 24.5358 56.7003 24.4297 56.5942 24.3236C56.382 24.2175 56.382 24.1114 56.382 23.8991C56.382 22.7318 56.9125 21.4584 57.7615 20.7156C58.6104 19.8667 59.8838 19.23 61.4756 19.23C64.3407 19.23 66.5692 21.3523 66.5692 24.2175C66.4631 25.4909 65.9325 26.4459 65.1897 27.5071ZM60.4144 38.3311C60.4144 37.6944 60.945 37.1638 61.5817 37.1638C62.2184 37.1638 62.749 37.6944 62.749 38.3311C62.749 38.9678 62.2184 39.4984 61.5817 39.4984C60.945 39.4984 60.4144 38.9678 60.4144 38.3311Z" fill="white"/>
<path d="M32.0812 55.9466C30.1711 55.8405 28.5793 55.416 27.0937 54.1426C26.7753 53.9303 26.5631 53.612 26.5631 53.3998C26.5631 53.1875 26.5631 53.0814 26.7753 52.8692C26.8815 52.7631 27.0937 52.6569 27.3059 52.6569C27.6243 52.6569 27.8365 52.8692 28.0488 53.0814C29.4283 54.2487 30.4894 54.6732 32.1873 54.7793V46.7144L31.7629 46.6083C30.2772 46.396 29.3222 45.9716 28.3671 45.2287C27.412 44.3798 26.8815 43.2125 26.8815 41.7269C26.8815 38.7556 28.8977 36.7394 32.1873 36.5271V34.9354C32.1873 34.617 32.1873 34.4048 32.2934 34.2987C32.3996 34.0864 32.6118 34.0864 32.824 34.0864C33.0363 34.0864 33.1424 34.1925 33.3546 34.2987C33.4607 34.4048 33.4607 34.617 33.4607 34.9354V36.5271C35.1586 36.6332 36.3259 37.0577 37.5993 38.0128C37.9177 38.225 38.1299 38.4372 38.1299 38.7556C38.1299 38.9678 38.1299 39.0739 38.0238 39.1801C37.9177 39.3923 37.7054 39.3923 37.4932 39.3923C37.281 39.3923 37.0687 39.2862 36.7504 39.0739C35.5831 38.225 34.7341 37.9066 33.4607 37.8005V45.5471L34.0974 45.6532C35.9014 45.9716 36.7504 46.2899 37.4932 46.9266C38.5544 47.7755 39.0849 49.049 39.0849 50.6407C39.0849 53.7181 36.8565 55.7343 33.2485 55.9466V58.0689C33.2485 58.3873 33.2485 58.5995 33.1424 58.7056C33.0363 58.9179 32.824 58.9179 32.6118 58.9179C32.3996 58.9179 32.2934 58.8117 32.0812 58.7056C31.9751 58.5995 31.9751 58.3873 31.9751 58.0689V55.9466H32.0812ZM31.9751 45.3349L32.0812 37.8005C29.6405 38.0128 28.1549 39.4984 28.1549 41.7269C28.1549 42.788 28.4732 43.637 29.1099 44.2737C29.9589 44.8043 30.5956 45.1226 31.9751 45.3349ZM33.2485 46.9266V54.6732C35.9014 54.4609 37.5993 53.0814 37.5993 50.7468C37.5993 49.5795 37.2809 48.6245 36.5381 48.0939C35.7953 47.4572 35.2647 47.3511 33.7791 47.0327L33.2485 46.9266Z" fill="white"/>
</svg>
