<svg width="80" height="40" viewBox="0 0 80 40" fill="none" xmlns="http://www.w3.org/2000/svg">
<path d="M70.5012 12.2222C70.5012 12.7745 70.9489 13.2222 71.5012 13.2222H74.7344C76.2677 13.2222 77.5219 14.476 77.5219 16.0185C77.5219 17.561 76.2677 18.8148 74.7344 18.8148L71.5012 18.8148C70.9489 18.8148 70.5012 19.2625 70.5012 19.8148V25.463C70.5012 27.2092 69.0806 28.6296 67.3441 28.6296C65.6076 28.6296 64.1871 27.2092 64.1871 25.463V11.4815C64.1871 6.40196 68.2866 2.2963 73.3487 2.2963L76.2125 2.2963C77.7458 2.2963 79 3.5501 79 5.09259C79 6.63508 77.7458 7.88889 76.2125 7.88889L73.5335 7.88889C71.852 7.88889 70.5012 9.24619 70.5012 10.9259V12.2222ZM53.5958 12.2222C53.5958 12.7745 54.0436 13.2222 54.5958 13.2222H57.8291C59.3624 13.2222 60.6166 14.476 60.6166 16.0185C60.6166 17.561 59.3624 18.8148 57.8291 18.8148H54.5958C54.0436 18.8148 53.5958 19.2625 53.5958 19.8148L53.5958 35.6481C53.5958 37.3943 52.1753 38.8148 50.4388 38.8148C48.7023 38.8148 47.2818 37.3943 47.2818 35.6481L47.2818 11.4815C47.2818 6.40196 51.3813 2.2963 56.4434 2.2963H59.3072C60.8405 2.2963 62.0947 3.5501 62.0947 5.09259C62.0947 6.63508 60.8405 7.88889 59.3072 7.88889H56.6282C54.9467 7.88889 53.5958 9.24619 53.5958 10.9259V12.2222ZM7.31409 12.3148C7.31409 12.8671 7.7618 13.3148 8.31409 13.3148H13.6721C14.2243 13.3148 14.6721 12.8671 14.6721 12.3148L14.6721 4.16667C14.6721 2.42047 16.0926 1 17.8291 1C19.5656 1 20.9861 2.42047 20.9861 4.16667L20.9861 35.6481C20.9861 37.3943 19.5656 38.8148 17.8291 38.8148C16.0926 38.8148 14.6721 37.3943 14.6721 35.6481V21.7593C14.6721 20.0795 13.3212 18.7222 11.6397 18.7222H8.31409C7.7618 18.7222 7.31409 19.1699 7.31409 19.7222L7.31409 30.1481L7.31409 35.6667C7.31409 37.4129 5.89357 38.8333 4.15704 38.8333C2.42051 38.8333 1 37.4129 1 35.6667L1 4.18518C1 2.41758 2.4234 1 4.15704 1C5.89357 1 7.31409 2.42047 7.31409 4.16667L7.31409 12.3148ZM33.903 11.0926H34.2725C39.3347 11.0926 43.4342 15.1983 43.4342 20.2778L43.4342 29.6296C43.4342 34.7092 39.3347 38.8148 34.2725 38.8148H33.903C28.8408 38.8148 24.7413 34.7092 24.7413 29.6296V20.2778C24.7413 15.1983 28.8408 11.0926 33.903 11.0926ZM34.0878 16.5C32.3508 16.5 30.963 17.8943 30.963 19.6296V30.2778C30.963 32.0131 32.3508 33.4074 34.0878 33.4074C35.8247 33.4074 37.2125 32.0131 37.2125 30.2778L37.2125 19.6296C37.2125 17.8943 35.8247 16.5 34.0878 16.5ZM67.3441 31.7407C69.3393 31.7407 70.963 33.3649 70.963 35.3704C70.963 37.3758 69.3393 39 67.3441 39C65.3489 39 63.7252 37.3758 63.7252 35.3704C63.7252 33.3649 65.3489 31.7407 67.3441 31.7407Z" stroke="white" stroke-width="2" stroke-linecap="round" stroke-linejoin="round"/>
</svg>
