<svg width="55" height="49" viewBox="0 0 55 49" fill="none" xmlns="http://www.w3.org/2000/svg">
<path d="M1 3C1 1.89543 1.89543 1 3 1H51.2574C52.362 1 53.2574 1.89543 53.2574 3V10.1297H1V3Z" stroke="white" stroke-width="2" stroke-linecap="round" stroke-linejoin="round"/>
<path d="M3.78296 10.7385H50.4755V43.6926C50.4755 45.9017 48.6847 47.6926 46.4755 47.6926H7.78296C5.57382 47.6926 3.78296 45.9017 3.78296 43.6926V10.7385Z" stroke="white" stroke-width="2" stroke-linecap="round" stroke-linejoin="round"/>
<path d="M40.3455 48.6926C40.3455 42.5458 45.3284 37.5629 51.4752 37.5629" stroke="white" stroke-width="2"/>
<path d="M13.9123 48.6926C13.9123 42.5458 8.92934 37.5629 2.78257 37.5629" stroke="white" stroke-width="2"/>
<path d="M19.4774 18.0858V20.2595C19.4774 21.364 20.3728 22.2595 21.4774 22.2595H32.7807C33.8853 22.2595 34.7807 21.364 34.7807 20.2595V18.0858" stroke="white" stroke-width="2" stroke-linecap="round" stroke-linejoin="round"/>
</svg>
