<svg width="46" height="59" viewBox="0 0 46 59" fill="none" xmlns="http://www.w3.org/2000/svg">
<path d="M45 23.2167V19.1167C45 16.9075 43.2091 15.1167 41 15.1167H38.0083C37.4514 15.1167 37 14.6652 37 14.1083C37 13.5514 36.5486 13.1 35.9917 13.1H35.5C34.6716 13.1 34 12.4284 34 11.6V8.03333C34 6.37648 35.3431 5.03333 37 5.03333H37.9833C39.0971 5.03333 40 4.13044 40 3.01667C40 1.90289 39.0971 1 37.9833 1H25.0167C23.9029 1 23 1.90289 23 3.01667C23 4.13044 23.9029 5.03333 25.0167 5.03333H26.5C28.433 5.03333 30 6.60034 30 8.53333V11.6C30 12.4284 29.3284 13.1 28.5 13.1H28.0083C27.4514 13.1 27 13.5514 27 14.1083C27 14.6652 26.5486 15.1167 25.9917 15.1167H14.5958C8.19163 15.1167 3 20.3083 3 26.7125V37.3083C3 37.8606 2.55228 38.3083 2 38.3083C1.44772 38.3083 1 38.7561 1 39.3083V39.8208C1 40.6562 1.67717 41.3333 2.5125 41.3333H16.4875C17.3228 41.3333 18 40.6562 18 39.8208V39.3083C18 38.7561 17.5523 38.3083 17 38.3083C16.4477 38.3083 16 37.8606 16 37.3083V32.7167C16 29.6791 18.4624 27.2167 21.5 27.2167H25.4875C26.3228 27.2167 27 27.8938 27 28.7292C27 29.5645 27.6772 30.2417 28.5125 30.2417H35.4875C36.3228 30.2417 37 29.5645 37 28.7292C37 27.8938 37.6772 27.2167 38.5125 27.2167H41C43.2091 27.2167 45 25.4258 45 23.2167Z" stroke="white" stroke-width="2"/>
<path d="M13.2221 54.1345C13.2221 55.8398 11.8541 57.2222 10.1666 57.2222C8.47904 57.2222 7.11102 55.8398 7.11102 54.1345C7.11102 52.4292 10.1666 47.4445 10.1666 47.4445C10.1666 47.4445 13.2221 52.4292 13.2221 54.1345Z" stroke="white" stroke-width="2"/>
</svg>
