<svg width="55" height="55" viewBox="0 0 55 55" fill="none" xmlns="http://www.w3.org/2000/svg">
<path d="M54.1942 12.8906C53.7494 12.8906 53.3886 13.2515 53.3886 13.6963V48.1249H51.7772V8.11035C51.7772 7.66556 51.4164 7.30469 50.9716 7.30469H4.02831C3.58352 7.30469 3.22265 7.66556 3.22265 8.11035V48.1249H1.61133V44.6337C1.61133 44.1889 1.25046 43.8281 0.805663 43.8281C0.36087 43.8281 0 44.1889 0 44.6337V48.9306C0 49.3758 0.36087 49.7362 0.805663 49.7362H3.22265V50.0048C3.22265 50.45 3.58352 50.8105 4.02831 50.8105H12.2234C12.4555 50.8105 12.6766 50.7106 12.8293 50.536C12.9825 50.3615 13.0526 50.1294 13.0224 49.8991L13.001 49.7362H37.8124C38.2572 49.7362 38.6181 49.3754 38.6181 48.9306C38.6181 48.4854 38.2572 48.1249 37.8124 48.1249H12.7878L12.575 46.5136H42.4248L42.2121 48.1249H41.2499C40.8051 48.1249 40.4443 48.4854 40.4443 48.9306C40.4443 49.3754 40.8051 49.7362 41.2499 49.7362H41.9994L41.9775 49.8991C41.9473 50.1294 42.0178 50.3615 42.1706 50.536C42.3237 50.7106 42.5444 50.8105 42.7765 50.8105H50.9716C51.4168 50.8105 51.7772 50.45 51.7772 50.0048V49.7362H54.1942C54.6394 49.7362 54.9999 49.3758 54.9999 48.9306V13.6963C54.9999 13.2515 54.639 12.8906 54.1942 12.8906ZM45.0634 30.598C44.619 30.598 44.2577 30.2367 44.2577 29.7923C44.2577 29.3479 44.619 28.9867 45.0634 28.9867H50.1659V30.598H45.0634ZM42.8205 8.91601L46.3529 23.2937C46.4431 23.6613 46.7725 23.9072 47.1346 23.9072C47.198 23.9072 47.263 23.8997 47.3272 23.8837C47.7594 23.7775 48.0238 23.3411 47.9176 22.9094L44.4797 8.91601H46.7951L47.4833 16.8812C47.5198 17.3008 47.8715 17.6172 48.2852 17.6172C48.3083 17.6172 48.3318 17.6163 48.3553 17.6142C48.7988 17.576 49.1269 17.1858 49.0888 16.7423L48.4123 8.91601H50.1659V27.3753H45.7918L41.2571 8.91601H42.8205ZM6.58755 8.91601L5.91113 16.7423C5.87294 17.1854 6.20108 17.576 6.64462 17.6142C6.66812 17.6163 6.69161 17.6172 6.71469 17.6172C7.12843 17.6172 7.48007 17.3004 7.51658 16.8807L8.20475 8.91601H10.5202L7.08228 22.9094C6.97611 23.3411 7.24047 23.7775 7.67268 23.8837C7.7373 23.8997 7.80192 23.9072 7.86528 23.9072C8.22741 23.9072 8.55681 23.6613 8.64702 23.2937L12.1794 8.91601H13.7428L9.20805 27.3753H4.83397V8.91601H6.58755ZM9.9365 30.598H4.83397V28.9867H9.9365C10.3809 28.9867 10.7422 29.3479 10.7422 29.7923C10.7422 30.2367 10.3809 30.598 9.9365 30.598ZM4.83397 49.1991V32.2093H9.06035L11.3045 49.1991H4.83397ZM10.6708 32.0948C11.6456 31.7834 12.3535 30.8691 12.3535 29.7923C12.3535 28.7735 11.7195 27.9003 10.8257 27.5453L15.4024 8.91601H26.6943V44.9023H12.3623L10.6708 32.0948ZM28.3056 44.9023V8.91601H39.5975L44.1742 27.5453C43.2804 27.9003 42.6464 28.7735 42.6464 29.7923C42.6464 30.8691 43.3543 31.7834 44.3291 32.0948L42.6376 44.9023H28.3056ZM50.1659 49.1991H43.6954L45.9395 32.2093H50.1659V49.1991Z" fill="#F3F3F3"/>
<path d="M54.1942 4.08203H0.805663C0.36087 4.08203 0 4.4429 0 4.88769V41.1962C0 41.6414 0.36087 42.0019 0.805663 42.0019C1.25046 42.0019 1.61133 41.6414 1.61133 41.1962V5.69336H53.3886V10.2588C53.3886 10.704 53.7494 11.0644 54.1942 11.0644C54.639 11.0644 54.9999 10.704 54.9999 10.2588V4.88769C54.9999 4.4429 54.639 4.08203 54.1942 4.08203Z" fill="#F3F3F3"/>
</svg>
