<svg width="55" height="47" viewBox="0 0 55 47" fill="none" xmlns="http://www.w3.org/2000/svg">
<path d="M54.1942 8.89061C53.7494 8.89061 53.3886 9.25148 53.3886 9.69628V44.1249H51.7772V4.11035C51.7772 3.66556 51.4164 3.30469 50.9716 3.30469H4.02831C3.58352 3.30469 3.22265 3.66556 3.22265 4.11035V44.1249H1.61133V40.6337C1.61133 40.1889 1.25046 39.8281 0.805663 39.8281C0.36087 39.8281 0 40.1889 0 40.6337V44.9306C0 45.3758 0.36087 45.7362 0.805663 45.7362H3.22265V46.0048C3.22265 46.45 3.58352 46.8105 4.02831 46.8105H12.2234C12.4555 46.8105 12.6766 46.7106 12.8293 46.536C12.9825 46.3615 13.0526 46.1294 13.0224 45.8991L13.001 45.7362H37.8124C38.2572 45.7362 38.6181 45.3754 38.6181 44.9306C38.6181 44.4854 38.2572 44.1249 37.8124 44.1249H12.7878L12.575 42.5136H42.4248L42.2121 44.1249H41.2499C40.8051 44.1249 40.4443 44.4854 40.4443 44.9306C40.4443 45.3754 40.8051 45.7362 41.2499 45.7362H41.9994L41.9775 45.8991C41.9473 46.1294 42.0178 46.3615 42.1706 46.536C42.3237 46.7106 42.5444 46.8105 42.7765 46.8105H50.9716C51.4168 46.8105 51.7772 46.45 51.7772 46.0048V45.7362H54.1942C54.6394 45.7362 54.9999 45.3758 54.9999 44.9306V9.69628C54.9999 9.25148 54.639 8.89061 54.1942 8.89061ZM45.0634 26.598C44.619 26.598 44.2577 26.2367 44.2577 25.7923C44.2577 25.3479 44.619 24.9867 45.0634 24.9867H50.1659V26.598H45.0634ZM42.8205 4.91601L46.3529 19.2937C46.4431 19.6613 46.7725 19.9072 47.1346 19.9072C47.198 19.9072 47.263 19.8997 47.3272 19.8837C47.7594 19.7775 48.0238 19.3411 47.9176 18.9094L44.4797 4.91601H46.7951L47.4833 12.8812C47.5198 13.3008 47.8715 13.6172 48.2852 13.6172C48.3083 13.6172 48.3318 13.6163 48.3553 13.6142C48.7988 13.576 49.1269 13.1858 49.0888 12.7423L48.4123 4.91601H50.1659V23.3753H45.7918L41.2571 4.91601H42.8205ZM6.58755 4.91601L5.91113 12.7423C5.87294 13.1854 6.20108 13.576 6.64462 13.6142C6.66812 13.6163 6.69161 13.6172 6.71469 13.6172C7.12843 13.6172 7.48007 13.3004 7.51658 12.8807L8.20475 4.91601H10.5202L7.08228 18.9094C6.97611 19.3411 7.24047 19.7775 7.67268 19.8837C7.7373 19.8997 7.80192 19.9072 7.86528 19.9072C8.22741 19.9072 8.55681 19.6613 8.64702 19.2937L12.1794 4.91601H13.7428L9.20805 23.3753H4.83397V4.91601H6.58755ZM9.9365 26.598H4.83397V24.9867H9.9365C10.3809 24.9867 10.7422 25.3479 10.7422 25.7923C10.7422 26.2367 10.3809 26.598 9.9365 26.598ZM4.83397 45.1991V28.2093H9.06035L11.3045 45.1991H4.83397ZM10.6708 28.0948C11.6456 27.7834 12.3535 26.8691 12.3535 25.7923C12.3535 24.7735 11.7195 23.9003 10.8257 23.5453L15.4024 4.91601H26.6943V40.9023H12.3623L10.6708 28.0948ZM28.3056 40.9023V4.91601H39.5975L44.1742 23.5453C43.2804 23.9003 42.6464 24.7735 42.6464 25.7923C42.6464 26.8691 43.3543 27.7834 44.3291 28.0948L42.6376 40.9023H28.3056ZM50.1659 45.1991H43.6954L45.9395 28.2093H50.1659V45.1991Z" fill="#A110D3"/>
<path d="M54.1942 0.0820312H0.805663C0.36087 0.0820312 0 0.442901 0 0.887694V37.1962C0 37.6414 0.36087 38.0019 0.805663 38.0019C1.25046 38.0019 1.61133 37.6414 1.61133 37.1962V1.69336H53.3886V6.25878C53.3886 6.70399 53.7494 7.06444 54.1942 7.06444C54.639 7.06444 54.9999 6.70399 54.9999 6.25878V0.887694C54.9999 0.442901 54.639 0.0820312 54.1942 0.0820312Z" fill="#A110D3"/>
</svg>
